<?xml version="1.0" encoding="UTF-8" standalone="no"?>
<svg xmlns:inkscape="http://www.inkscape.org/namespaces/inkscape" xmlns:sodipodi="http://sodipodi.sourceforge.net/DTD/sodipodi-0.dtd" xmlns="http://www.w3.org/2000/svg" xmlns:svg="http://www.w3.org/2000/svg" width="126" height="24" viewBox="0 0 126 24" fill="none" version="1.1" id="svg90" sodipodi:docname="Tabnine_logo.svg" inkscape:version="1.2.2 (b0a84865, 2022-12-01)">
  <g id="g258">
    <path d="M20.537 11.9998L5.7568 20.3998M20.537 11.9998L5.70349 3.63043M20.537 11.9998V6.39981L10.6835 0.799805L5.70349 3.63043M20.537 11.9998V17.5998L10.6835 23.1998L5.7568 20.3998M5.7568 20.3998L5.70349 3.63043M5.7568 20.3998L0.830078 17.5998L0.830078 6.39981L5.70349 3.63043" stroke="url(&quot;#paint0_logoIcon&quot;)" stroke-width="1.6px" stroke-linejoin="round" stroke-dasharray="25" stroke-dashoffset="0" class="icon" fill="none" id="path59"></path>
    <g class="LogoNew__Text-bNThPL lgaUNp" fill="#F6F6F6" id="g75" style="fill:#000000">
      <path d="M37.3174 20.338C40.2814 20.338 42.3094 18.648 42.3094 15.268V14.982H40.6194V15.268C40.6194 17.634 39.2934 18.726 37.3174 18.726C35.3154 18.726 34.0154 17.608 34.0154 15.268V8.74204H41.5814V7.15604H34.0154V2.60604H32.2734V15.268C32.2734 18.648 34.3274 20.338 37.3174 20.338Z" fill="#F6F6F6" id="path61" style="fill:#000000"></path>
      <path d="M50.6223 20.338C53.1183 20.338 55.2503 19.116 56.1603 16.828V20H57.7723V13.656C57.7723 9.60004 54.9383 6.81804 50.8823 6.81804C46.8263 6.81804 43.9663 9.65204 43.9663 13.656C43.9663 17.764 47.0083 20.338 50.6223 20.338ZM50.8823 18.726C47.8143 18.726 45.7343 16.542 45.7343 13.578C45.7343 10.614 47.8143 8.43004 50.8823 8.43004C53.9503 8.43004 56.0303 10.614 56.0303 13.578C56.0303 16.542 53.9503 18.726 50.8823 18.726Z" fill="#F6F6F6" id="path63" style="fill:#000000"></path>
      <path d="M67.1941 20.338C71.2761 20.338 74.1361 17.478 74.1361 13.526C74.1361 9.57404 71.2501 6.81804 67.4801 6.81804C65.0361 6.81804 63.0341 7.96204 62.0721 9.91204V1.54004H60.3301V13.5C60.3301 17.634 63.2161 20.338 67.1941 20.338ZM67.2201 18.726C64.1261 18.726 62.0721 16.542 62.0721 13.578C62.0721 10.614 64.1261 8.43004 67.2201 8.43004C70.2881 8.43004 72.3681 10.614 72.3681 13.578C72.3681 16.542 70.2881 18.726 67.2201 18.726Z" fill="#F6F6F6" id="path65" style="fill:#000000"></path>
      <path d="M76.1738 20H77.9158V13.292C77.9158 10.12 79.7358 8.43004 82.5178 8.43004C85.2998 8.43004 87.1198 10.12 87.1198 13.292V20H88.8618V13.292C88.8618 9.02804 86.3138 6.81804 82.5178 6.81804C78.7218 6.81804 76.1738 9.02804 76.1738 13.292V20Z" fill="#F6F6F6" id="path67" style="fill:#000000"></path>
      <path d="M92.7602 4.66004C93.5142 4.66004 94.0862 4.08804 94.0862 3.33404C94.0862 2.58004 93.5142 2.00804 92.7602 2.00804C92.0062 2.00804 91.4342 2.58004 91.4342 3.33404C91.4342 4.08804 92.0062 4.66004 92.7602 4.66004ZM91.9022 20H93.6442V7.15604H91.9022V20Z" fill="#F6F6F6" id="path69" style="fill:#000000"></path>
      <path d="M96.6641 20H98.4061V13.292C98.4061 10.12 100.226 8.43004 103.008 8.43004C105.79 8.43004 107.61 10.12 107.61 13.292V20H109.352V13.292C109.352 9.02804 106.804 6.81804 103.008 6.81804C99.2121 6.81804 96.6641 9.02804 96.6641 13.292V20Z" fill="#F6F6F6" id="path71" style="fill:#000000"></path>
      <path d="M118.294 20.338C121.284 20.338 123.624 18.778 124.612 16.412H122.714C121.882 17.894 120.322 18.726 118.294 18.726C115.408 18.726 113.406 16.828 113.172 14.15H125.158V13.578C125.158 9.67804 122.35 6.81804 118.294 6.81804C114.238 6.81804 111.378 9.67804 111.378 13.578C111.378 17.478 114.238 20.338 118.294 20.338ZM113.224 12.59C113.614 10.068 115.616 8.43004 118.294 8.43004C120.894 8.43004 122.922 9.99004 123.338 12.59H113.224Z" fill="#F6F6F6" id="path73" style="fill:#000000"></path>
    </g>
  </g>
  <defs id="defs88">
    <linearGradient id="paint0_logoIcon" x1="22.2772" y1="19.7838" x2="1.13256" y2="0.468672" gradientUnits="userSpaceOnUse">
      <stop stop-color="#4BA1FC" id="stop77"></stop>
      <stop offset="1" stop-color="#EC2AED" id="stop79"></stop>
    </linearGradient>
    <linearGradient id="linearGradient86" x1="22.2772" y1="19.7838" x2="1.13256" y2="0.468672" gradientUnits="userSpaceOnUse">
      <stop stop-color="#4BA1FC" id="stop82"></stop>
      <stop offset="1" stop-color="#EC2AED" id="stop84"></stop>
    </linearGradient>
  </defs>
</svg>
