<?xml version="1.0" encoding="UTF-8"?>
<svg xmlns="http://www.w3.org/2000/svg" width="215" height="35" viewBox="0 0 215 35" fill="none">
  <g clip-path="url(#clip0_1_5)">
    <path d="M26.5398 10.2021H5.15058V15.6901H19.9495V20.8513H5.15058V31.0511H0V5.0408H26.5398V10.2021ZM58.6203 10.2021H37.2308V15.6901H52.0294V20.8513H37.2308V25.8763H58.6203V31.0511H32.0805V5.0408H58.6203V10.2021ZM90.6735 31.0511H82.6965L73.6191 23.3707H69.3113V31.0511H64.1607V5.0408H81.555C83.195 5.0408 84.6852 5.45385 86.0261 6.27996C87.376 7.10637 88.4494 8.2137 89.2467 9.60288C90.053 10.9918 90.456 12.5263 90.456 14.2058C90.456 15.8853 90.0574 17.4198 89.2602 18.8086C88.4629 20.1884 87.3986 21.287 86.0669 22.1043C84.7351 22.9213 83.2445 23.3434 81.5958 23.3707L90.6735 31.0511ZM69.3113 10.1882V18.2368H81.555C82.5879 18.2368 83.4712 17.8416 84.205 17.0519C84.9388 16.2622 85.3057 15.3131 85.3057 14.2058C85.3057 13.0981 84.9388 12.154 84.205 11.3731C83.4712 10.5834 82.5879 10.1886 81.555 10.1886L69.3113 10.1882ZM120.145 5H122.727V31.0103H117.576V14.7233L111.135 25.9988H107.806L101.364 14.7236V31.0103H96.2142V5H101.758L109.464 18.5089L117.182 5H120.145ZM154.685 5.0408L144.194 19.0676V31.0511H139.044V18.9857L128.267 5.0408H134.79L141.626 13.879L148.244 5.0408H154.685ZM169.82 31.0511C171.632 31.0511 173.33 30.7153 174.916 30.0436C176.51 29.3625 177.905 28.4272 179.101 27.2379C180.306 26.0487 181.248 24.6689 181.928 23.098C182.616 21.5186 182.96 19.8344 182.96 18.0459C182.96 16.2484 182.616 14.5642 181.928 12.9936C181.248 11.423 180.306 10.0432 179.101 8.85368C177.905 7.66443 176.51 6.73412 174.916 6.06213C173.33 5.38104 171.632 5.0408 169.82 5.0408C168.008 5.0408 166.305 5.38135 164.71 6.06213C163.124 6.73381 161.729 7.66443 160.524 8.85399C159.328 10.0432 158.386 11.423 157.698 12.9939C157.018 14.5642 156.679 16.2484 156.679 18.0459C156.679 19.8344 157.018 21.5186 157.698 23.0983C158.386 24.6689 159.328 26.0487 160.524 27.2382C161.729 28.4275 163.124 29.3625 164.71 30.0433C166.305 30.7153 168.008 31.0511 169.82 31.0511ZM169.82 10.2291C171.269 10.2291 172.592 10.5834 173.787 11.2915C174.983 11.9905 175.935 12.9346 176.641 14.1242C177.357 15.3043 177.715 16.6116 177.715 18.0459C177.715 19.4803 177.357 20.7923 176.641 21.9815C175.935 23.1617 174.983 24.1061 173.787 24.8142C172.592 25.5132 171.269 25.8625 169.82 25.8625C168.37 25.8625 167.047 25.5132 165.851 24.8142C164.655 24.1058 163.7 23.1617 162.984 21.9815C162.278 20.792 161.924 19.4803 161.924 18.0459C161.924 16.6116 162.278 15.3043 162.984 14.1238C163.7 12.9346 164.655 11.9905 165.851 11.2915C167.047 10.5834 168.37 10.2291 169.82 10.2291ZM209.85 5.0408H215V31.0511H209.089L193.638 12.2447V31.0511H188.487V5.0408H194.399L209.85 23.8472V5.0408Z" fill="#0D203F"></path>
  </g>
  <defs>
    <clipPath id="clip0_1_5">
      <rect width="215" height="26.0511" fill="white" transform="translate(0 5)"></rect>
    </clipPath>
  </defs>
</svg>
