<?xml version="1.0" encoding="UTF-8" standalone="no"?>
<svg xmlns:inkscape="http://www.inkscape.org/namespaces/inkscape" xmlns:sodipodi="http://sodipodi.sourceforge.net/DTD/sodipodi-0.dtd" xmlns="http://www.w3.org/2000/svg" xmlns:svg="http://www.w3.org/2000/svg" width="180" height="49" viewBox="0 0 180 49" fill="none" version="1.1" id="svg6" sodipodi:docname="Signadot_logo.svg" inkscape:version="1.1.1 (3bf5ae0d25, 2021-09-20)">
  <defs id="defs10"></defs>
  <g id="g829" style="fill:#00273e;fill-opacity:1">
    <path fill-rule="evenodd" clip-rule="evenodd" d="m 20.6562,15.6089 c 2.1657,0 27.7594,10.6076 29.5313,11.4334 1.7719,0.8257 2.625,1.5879 2.625,3.1759 0,1.588 -1.1156,2.4772 -2.625,3.1759 -1.5094,0.6987 -28.875,15.2447 -30.7781,15.2447 -1.9031,0 -2.0344,-1.4611 -2.0344,-1.9058 v -6.4789 c 0,-0.8257 0.9188,-1.7785 1.9688,-1.7785 h 13.125 C 38.4406,38.4756 41,33.3941 41,30.2182 41,27.0423 38.4406,21.9608 32.4688,21.9608 H 20.6562 c -2.1656,0 -3.2812,-1.7785 -3.2812,-3.1759 0,-1.3974 1.1156,-3.176 3.2812,-3.176 z M 33.7156,0.364502 c 1.8503,0 2.0257,1.381088 2.0341,1.866408 l 3e-4,6.51825 c 0,0.82574 -0.9188,1.77854 -1.9688,1.77854 h -13.125 c -5.9718,0 -8.5312,5.0815 -8.5312,8.2574 0,3.1759 2.5594,8.2574 8.5312,8.2574 h 11.8126 c 2.1656,0 3.2812,1.7785 3.2812,3.1759 0,1.3974 -1.1156,3.1759 -3.2812,3.1759 -1.0179,0 -7.211,-2.3432 -13.6738,-4.9127 L 17.9689,28.1525 C 10.9409,25.3475 3.84116,22.3821 2.9375,21.961 1.16562,21.1353 0.3125,20.373 0.3125,18.7851 c 0,-1.588 1.11562,-2.4772 2.625,-3.1759 C 4.44687,14.9105 31.8125,0.364502 33.7156,0.364502 Z" fill="#eef9ff" id="path2" style="fill:#00273e;fill-opacity:1"></path>
    <path d="m 71.4427,13.7544 c 1.5853,0 2.9568,0.3029 4.1146,0.9085 1.1579,0.5878 2.1375,1.4606 2.9391,2.6184 l -1.9237,1.8436 c -0.6769,-1.0331 -1.4429,-1.7723 -2.2979,-2.2176 -0.8371,-0.4632 -1.8346,-0.6947 -2.9925,-0.6947 -0.855,0 -1.5585,0.1157 -2.1107,0.3473 -0.5522,0.2316 -0.9619,0.5433 -1.2291,0.9352 -0.2494,0.374 -0.3741,0.8015 -0.3741,1.2825 0,0.5522 0.1871,1.0331 0.5611,1.4428 0.3919,0.4097 1.1133,0.7303 2.1643,0.9619 l 3.5803,0.8015 c 1.71,0.3741 2.9212,0.9441 3.6337,1.71 0.7125,0.766 1.0688,1.7367 1.0688,2.9124 0,1.0865 -0.2939,2.0306 -0.8818,2.8321 -0.5878,0.8016 -1.4071,1.4161 -2.4581,1.8436 -1.0331,0.4275 -2.2533,0.6413 -3.6604,0.6413 -1.2469,0 -2.3691,-0.1603 -3.3666,-0.4809 -0.9975,-0.3207 -1.8703,-0.7571 -2.6184,-1.3093 -0.7482,-0.5522 -1.3627,-1.1845 -1.8436,-1.897 l 1.9771,-1.9772 c 0.3741,0.6235 0.8461,1.1845 1.4161,1.6833 0.57,0.4809 1.2291,0.855 1.9772,1.1222 0.766,0.2672 1.6121,0.4008 2.5383,0.4008 0.8194,0 1.523,-0.098 2.1108,-0.2939 0.6056,-0.196 1.0598,-0.481 1.3626,-0.855 0.3207,-0.3919 0.481,-0.855 0.481,-1.3894 0,-0.5166 -0.1781,-0.9708 -0.5344,-1.3627 -0.3384,-0.3918 -0.9797,-0.6947 -1.9237,-0.9084 L 69.2784,23.774 c -1.0687,-0.2316 -1.9504,-0.5611 -2.6451,-0.9886 -0.6947,-0.4275 -1.2113,-0.9441 -1.5497,-1.5497 -0.3384,-0.6234 -0.5077,-1.3181 -0.5077,-2.0841 0,-0.9975 0.2672,-1.897 0.8016,-2.6986 0.5522,-0.8193 1.3448,-1.4695 2.378,-1.9504 1.0331,-0.4988 2.2622,-0.7482 3.6872,-0.7482 z m 12.0687,2.2979 c -0.6234,0 -1.1044,-0.1515 -1.4428,-0.4543 -0.3206,-0.3206 -0.481,-0.7659 -0.481,-1.3359 0,-0.57 0.1604,-1.0064 0.481,-1.3092 0.3384,-0.3028 0.8194,-0.4542 1.4428,-0.4542 0.6056,0 1.0687,0.1514 1.3894,0.4542 0.3384,0.3028 0.5076,0.7392 0.5076,1.3092 0,0.57 -0.1692,1.0153 -0.5076,1.3359 -0.3207,0.3028 -0.7838,0.4543 -1.3894,0.4543 z m 1.4161,2.2443 V 31.656 H 82.0686 V 18.2966 Z m 16.2295,-2.8054 0.454,2.2443 c -0.053,0 -0.107,0 -0.16,0 -0.054,-0.0178 -0.107,-0.0267 -0.161,-0.0267 -0.855,0 -1.5047,0.187 -1.95,0.5611 -0.4454,0.3563 -0.668,0.8817 -0.668,1.5764 l -1.3894,-0.6412 c 0,-0.7125 0.1514,-1.3449 0.4542,-1.8971 0.3028,-0.57 0.7303,-1.0153 1.2825,-1.3359 0.57,-0.3206 1.2117,-0.4809 1.9237,-0.4809 0.036,0 0.071,0 0.107,0 0.036,0 0.071,0 0.107,0 z m -4.2217,14.0807 c 1.3537,0 2.4047,0.3029 3.1527,0.9085 0.748,0.5878 1.122,1.4072 1.122,2.4581 0,0.9263 -0.294,1.7189 -0.881,2.378 -0.5883,0.6768 -1.3898,1.1934 -2.4051,1.5497 -0.9975,0.3562 -2.1464,0.5343 -3.4468,0.5343 -2.1909,0 -3.8118,-0.3384 -4.8628,-1.0153 -1.0509,-0.6769 -1.5764,-1.5229 -1.5764,-2.5383 0,-0.7125 0.2494,-1.3359 0.7481,-1.8703 0.5166,-0.5343 1.3805,-0.8372 2.5918,-0.9084 l -0.1603,0.4275 c -0.7482,-0.1603 -1.3538,-0.4453 -1.8169,-0.855 -0.4453,-0.4275 -0.668,-1.0242 -0.668,-1.7902 0,-0.7659 0.2939,-1.4161 0.8817,-1.9504 0.5878,-0.5344 1.4161,-0.8461 2.4849,-0.9352 l 1.4962,0.7214 h -0.3206 c -0.8194,0.0713 -1.3983,0.2583 -1.7367,0.5611 -0.3385,0.3028 -0.5077,0.6413 -0.5077,1.0153 0,0.4453 0.1603,0.7749 0.481,0.9886 0.3384,0.2138 0.8104,0.3206 1.4161,0.3206 z m -2.4582,5.6911 c 0.9797,0 1.7813,-0.0979 2.4047,-0.2939 0.6413,-0.1781 1.1133,-0.4186 1.4161,-0.7214 0.3206,-0.285 0.481,-0.6056 0.481,-0.9619 0,-0.4096 -0.1693,-0.7392 -0.5077,-0.9885 -0.3206,-0.2494 -0.9084,-0.3741 -1.7634,-0.3741 H 92.206 c -0.4987,0 -0.9173,0.1247 -1.2557,0.3741 -0.3385,0.2671 -0.5077,0.6234 -0.5077,1.0687 0,0.5878 0.3563,1.0509 1.0688,1.3894 0.7125,0.3384 1.7011,0.5076 2.9657,0.5076 z M 94.3703,18.0294 c 1.1756,0 2.1909,0.1871 3.0459,0.5611 0.8728,0.3741 1.5408,0.8996 2.0039,1.5764 0.4809,0.6769 0.7219,1.4696 0.7219,2.378 0,0.9084 -0.241,1.7011 -0.7219,2.378 -0.4631,0.6769 -1.1311,1.2023 -2.0039,1.5764 -0.855,0.374 -1.8703,0.5611 -3.0459,0.5611 -1.8525,0 -3.2775,-0.4097 -4.275,-1.2291 -0.9797,-0.8372 -1.4696,-1.9326 -1.4696,-3.2864 0,-0.9084 0.2405,-1.7011 0.7214,-2.378 0.481,-0.6768 1.1489,-1.2023 2.0039,-1.5764 0.8729,-0.374 1.8793,-0.5611 3.0193,-0.5611 z m 0,2.0039 c -0.8194,0 -1.5052,0.2316 -2.0574,0.6947 -0.5344,0.4453 -0.8015,1.051 -0.8015,1.8169 0,0.7659 0.2671,1.3805 0.8015,1.8436 0.5522,0.4631 1.238,0.6947 2.0574,0.6947 0.8372,0 1.5229,-0.2316 2.0573,-0.6947 0.5522,-0.4631 0.8283,-1.0777 0.8283,-1.8436 0,-0.7659 -0.2761,-1.3716 -0.8283,-1.8169 -0.5344,-0.4631 -1.2201,-0.6947 -2.0573,-0.6947 z M 103.83,31.656 V 18.2966 h 2.538 l 0.187,3.4735 -0.374,-0.3741 c 0.249,-0.7659 0.606,-1.3983 1.069,-1.897 0.481,-0.5166 1.042,-0.8907 1.683,-1.1222 0.659,-0.2316 1.354,-0.3474 2.084,-0.3474 0.944,0 1.79,0.1871 2.538,0.5611 0.766,0.3563 1.372,0.8996 1.817,1.6299 0.446,0.7303 0.668,1.6565 0.668,2.7787 v 8.6569 h -2.859 v -7.7752 c 0,-1.3181 -0.276,-2.2265 -0.828,-2.7253 -0.534,-0.5165 -1.211,-0.7748 -2.031,-0.7748 -0.587,0 -1.157,0.1425 -1.71,0.4275 -0.552,0.2672 -1.015,0.7036 -1.389,1.3092 -0.356,0.6056 -0.534,1.4161 -0.534,2.4314 v 7.1072 z m 24.264,-8.5767 c 0,-0.8906 -0.249,-1.5764 -0.748,-2.0574 -0.481,-0.4987 -1.149,-0.7481 -2.004,-0.7481 -0.801,0 -1.487,0.187 -2.057,0.5611 -0.57,0.3741 -0.989,0.9797 -1.256,1.8169 l -2.405,-1.0153 c 0.339,-1.0866 0.998,-1.9594 1.977,-2.6185 0.998,-0.659 2.28,-0.9886 3.848,-0.9886 1.069,0 2.013,0.1782 2.832,0.5344 0.82,0.3385 1.461,0.855 1.924,1.5497 0.481,0.6947 0.721,1.5853 0.721,2.6719 v 5.9583 c 0,0.659 0.33,0.9886 0.989,0.9886 0.321,0 0.632,-0.0446 0.935,-0.1336 l -0.16,1.9771 c -0.41,0.196 -0.926,0.294 -1.55,0.294 -0.57,0 -1.086,-0.098 -1.55,-0.294 -0.445,-0.2137 -0.801,-0.5254 -1.068,-0.9351 -0.25,-0.4275 -0.374,-0.953 -0.374,-1.5764 v -0.187 l 0.587,-0.0268 c -0.16,0.6947 -0.489,1.2736 -0.988,1.7368 -0.499,0.4453 -1.078,0.7837 -1.737,1.0153 -0.659,0.2137 -1.327,0.3206 -2.004,0.3206 -0.837,0 -1.594,-0.1336 -2.271,-0.4008 -0.659,-0.2672 -1.184,-0.668 -1.576,-1.2023 -0.374,-0.5522 -0.561,-1.2291 -0.561,-2.0307 0,-0.9975 0.32,-1.8168 0.961,-2.4581 0.66,-0.6412 1.586,-1.0776 2.779,-1.3092 l 5.184,-1.0153 -0.027,2.0039 -3.767,0.7748 c -0.749,0.1425 -1.31,0.3474 -1.684,0.6146 -0.374,0.2672 -0.561,0.659 -0.561,1.1756 0,0.4987 0.187,0.8995 0.561,1.2023 0.392,0.285 0.909,0.4275 1.55,0.4275 0.445,0 0.873,-0.0534 1.282,-0.1603 0.428,-0.1069 0.811,-0.2761 1.149,-0.5076 0.339,-0.2494 0.597,-0.5611 0.775,-0.9352 0.196,-0.3919 0.294,-0.855 0.294,-1.3894 z m 12.62,8.8439 c -1.104,0 -2.11,-0.2761 -3.019,-0.8283 -0.89,-0.5522 -1.594,-1.3448 -2.111,-2.378 -0.516,-1.0331 -0.774,-2.2711 -0.774,-3.7139 0,-1.4962 0.276,-2.7609 0.828,-3.794 0.552,-1.0332 1.291,-1.8169 2.217,-2.3513 0.927,-0.5522 1.942,-0.8283 3.046,-0.8283 1.14,0 2.102,0.3118 2.886,0.9352 0.784,0.6234 1.309,1.4339 1.576,2.4314 l -0.32,0.2939 v -9.405 h 2.859 V 31.656 h -2.539 l -0.213,-3.6337 0.374,0.0267 c -0.125,0.8015 -0.419,1.4962 -0.882,2.084 -0.463,0.57 -1.042,1.0153 -1.737,1.336 -0.677,0.3028 -1.407,0.4542 -2.191,0.4542 z m 0.615,-2.2978 c 0.766,0 1.425,-0.196 1.977,-0.5878 0.552,-0.3919 0.98,-0.9441 1.283,-1.6566 0.302,-0.7125 0.454,-1.5675 0.454,-2.565 0,-0.9262 -0.152,-1.7189 -0.454,-2.378 -0.303,-0.6768 -0.731,-1.1934 -1.283,-1.5497 -0.534,-0.3562 -1.158,-0.5343 -1.87,-0.5343 -1.194,0 -2.12,0.4097 -2.779,1.229 -0.659,0.8194 -0.989,1.9505 -0.989,3.3933 0,1.4428 0.321,2.5828 0.962,3.42 0.642,0.8194 1.541,1.2291 2.699,1.2291 z m 16.805,-11.596 c 1.3,0 2.449,0.2761 3.446,0.8283 0.998,0.5522 1.773,1.3538 2.325,2.4047 0.57,1.0331 0.855,2.2711 0.855,3.7139 0,1.4428 -0.285,2.6897 -0.855,3.7406 -0.552,1.0332 -1.327,1.8258 -2.325,2.378 -0.997,0.5522 -2.146,0.8283 -3.446,0.8283 -1.301,0 -2.449,-0.2761 -3.447,-0.8283 -0.997,-0.5522 -1.781,-1.3448 -2.351,-2.378 -0.57,-1.0509 -0.855,-2.2978 -0.855,-3.7406 0,-1.4428 0.285,-2.6808 0.855,-3.7139 0.57,-1.0509 1.354,-1.8525 2.351,-2.4047 0.998,-0.5522 2.146,-0.8283 3.447,-0.8283 z m 0,2.2444 c -0.802,0 -1.488,0.187 -2.058,0.5611 -0.552,0.3563 -0.979,0.8817 -1.282,1.5764 -0.303,0.6947 -0.454,1.5497 -0.454,2.565 0,0.9975 0.151,1.8525 0.454,2.565 0.303,0.6947 0.73,1.2291 1.282,1.6031 0.57,0.3563 1.256,0.5344 2.058,0.5344 0.801,0 1.478,-0.1781 2.03,-0.5344 0.553,-0.374 0.98,-0.9084 1.283,-1.6031 0.303,-0.7125 0.454,-1.5675 0.454,-2.565 0,-1.0153 -0.151,-1.8703 -0.454,-2.565 -0.303,-0.6947 -0.73,-1.2201 -1.283,-1.5764 -0.552,-0.3741 -1.229,-0.5611 -2.03,-0.5611 z m 13.941,-5.9048 v 13.2792 c 0,0.6591 0.169,1.14 0.508,1.4428 0.356,0.3028 0.828,0.4542 1.416,0.4542 0.481,0 0.899,-0.0712 1.255,-0.2137 0.357,-0.1603 0.686,-0.3741 0.989,-0.6413 l 0.641,2.0841 c -0.409,0.3562 -0.917,0.6412 -1.523,0.855 -0.588,0.1959 -1.247,0.2939 -1.977,0.2939 -0.766,0 -1.469,-0.1247 -2.111,-0.3741 -0.641,-0.2493 -1.14,-0.6501 -1.496,-1.2023 -0.356,-0.57 -0.543,-1.3092 -0.561,-2.2177 V 15.1705 Z m 4.595,3.9276 v 2.2444 h -10.019 v -2.2444 z" fill="#eef9ff" id="path4" style="fill:#00273e;fill-opacity:1"></path>
  </g>
</svg>
