<?xml version="1.0" encoding="UTF-8" standalone="no"?>
<svg xmlns:inkscape="http://www.inkscape.org/namespaces/inkscape" xmlns:sodipodi="http://sodipodi.sourceforge.net/DTD/sodipodi-0.dtd" xmlns="http://www.w3.org/2000/svg" xmlns:svg="http://www.w3.org/2000/svg" id="Layer_2" viewBox="0 0 1983.82 271.04" version="1.1" sodipodi:docname="MissionCloud_logo.svg" inkscape:version="1.1.1 (3bf5ae0d25, 2021-09-20)">
  <defs id="defs18">
    <style id="style2">.cls-1{fill:#004c98;}.cls-2{fill:url(#mission_gradient_2_-_CMYK);}.cls-3{fill:url(#mission_gradient_1_-_CMYK);}</style>
    <linearGradient id="mission_gradient_1_-_CMYK" x1="732.3" y1="128.5" x2="894.52" y2="222.16" gradientUnits="userSpaceOnUse">
      <stop offset="0" stop-color="#00a1e1" id="stop4"></stop>
      <stop offset=".5" stop-color="#005c9d" id="stop6"></stop>
      <stop offset="1" stop-color="#104192" id="stop8"></stop>
    </linearGradient>
    <linearGradient id="mission_gradient_2_-_CMYK" x1="717.43" y1="172.19" x2="940.47" y2="172.19" gradientUnits="userSpaceOnUse">
      <stop offset="0" stop-color="#f97314" id="stop11"></stop>
      <stop offset=".5" stop-color="#ffa214" id="stop13"></stop>
      <stop offset="1" stop-color="#ffda13" id="stop15"></stop>
    </linearGradient>
  </defs>
  <g id="Layer_2-2">
    <path class="cls-1" d="M1507.06,73.86c-54.15,0-98.06,43.9-98.06,98.06s43.9,98.06,98.06,98.06,98.06-43.9,98.06-98.06-43.9-98.06-98.06-98.06Zm0,157.91c-33.06,0-59.85-26.8-59.85-59.85s26.8-59.85,59.85-59.85,59.85,26.8,59.85,59.85-26.8,59.85-59.85,59.85Z" id="path20"></path>
    <path class="cls-1" d="M1086.33,267.42v-120.3c0-40.47-32.8-73.26-73.26-73.26s-73.26,32.8-73.26,73.26v120.3h43.59v-120.3h0c0-16.38,13.28-29.67,29.66-29.67s29.67,13.29,29.67,29.67h0v120.3h43.59Z" id="path22"></path>
    <path class="cls-1" d="M413.79,269.97c39.35,0,70.12-19.72,70.12-59.51v-.72c0-34.06-31.13-46.61-58.67-55.21-22.19-7.17-42.58-12.91-42.58-26.54v-.71c0-11.12,9.66-19,26.48-19,15.75,0,35.06,6.81,53.31,17.93l17.17-30.83c-20.03-13.27-45.79-21.51-69.41-21.51-37.57,0-67.26,21.87-67.26,57.72v.72c0,36.21,31.13,47.69,59.04,55.58,22.18,6.81,42.22,11.83,42.22,26.53v.71c0,12.55-10.73,20.44-29.34,20.44s-41.5-7.88-61.9-23.3l-19.32,29.4c23.61,18.65,53.31,28.33,80.14,28.33" id="path24"></path>
    <path class="cls-1" d="M574.24,269.97c39.35,0,70.12-19.72,70.12-59.51v-.72c0-34.06-31.13-46.61-58.67-55.21-22.19-7.17-42.58-12.91-42.58-26.54v-.71c0-11.12,9.66-19,26.48-19,15.75,0,35.06,6.81,53.31,17.93l17.17-30.83c-20.03-13.27-45.79-21.51-69.41-21.51-37.57,0-67.26,21.87-67.26,57.72v.72c0,36.21,31.13,47.69,59.04,55.58,22.18,6.81,42.22,11.83,42.22,26.53v.71c0,12.55-10.73,20.44-29.34,20.44s-41.5-7.88-61.9-23.3l-19.32,29.4c23.61,18.65,53.31,28.33,80.14,28.33" id="path26"></path>
    <g id="g32">
      <path class="cls-1" d="M296.08,53.04c-14.65,0-26.52-11.87-26.52-26.52S281.43,0,296.08,0s26.52,11.87,26.52,26.52-11.88,26.52-26.52,26.52" id="path28"></path>
      <rect class="cls-1" x="275.07" y="76.41" width="42.02" height="191.02" id="rect30"></rect>
    </g>
    <g id="g38">
      <path class="cls-1" d="M684.48,53.04c-14.65,0-26.52-11.87-26.52-26.52s11.88-26.52,26.52-26.52,26.52,11.87,26.52,26.52-11.88,26.52-26.52,26.52" id="path34"></path>
      <rect class="cls-1" x="663.47" y="76.41" width="42.02" height="191.02" id="rect36"></rect>
    </g>
    <path class="cls-1" d="M249.46,267.42v-120.3c0-40.46-32.8-73.26-73.26-73.26-20.07,0-38.24,8.08-51.47,21.15-13.23-13.07-31.4-21.15-51.47-21.15C32.8,73.86,0,106.66,0,147.12v120.3H43.59v-120.3h0c0-16.38,13.28-29.67,29.66-29.67s29.66,13.29,29.66,29.67h0v120.3s43.59,.58,43.59,.58v-.58s0-120.3,0-120.3h0c0-16.38,13.28-29.67,29.66-29.67s29.67,13.29,29.67,29.67h0v120.3h43.59Z" id="path40"></path>
    <g id="g56">
      <rect class="cls-1" x="1347.88" y=".9" width="42.02" height="269.08" id="rect42"></rect>
      <path class="cls-1" d="M1624.22,76.01v120.3c0,40.47,32.8,73.26,73.26,73.26s73.26-32.8,73.26-73.26V76.01h-43.59v120.3h0c0,16.38-13.28,29.67-29.66,29.67s-29.67-13.29-29.67-29.67h0V76.01h-43.59Z" id="path44"></path>
      <path class="cls-1" d="M1161.39,171.54c0-57.48,41.05-98.08,98.87-98.08,35.58,0,63.98,15.45,78,44.55l-32.84,20.12c-10.95-18.32-27.37-26.59-45.5-26.59-31.47,0-55.42,22.99-55.42,60s23.95,59.99,55.42,59.99c18.13,0,34.55-8.26,45.5-26.58l32.84,20.12c-14.03,28.74-42.42,44.9-78,44.9-57.82,0-98.87-40.95-98.87-98.43Z" id="path46"></path>
      <g id="g52">
        <path class="cls-3" d="M825.34,270.94c41.51-2.15,74.51-37.03,74.51-79.74s-35.13-79.89-78.47-79.84c33.54-.04,60.72,27.27,60.72,60.83s-27.24,60.83-60.83,60.83c-43.4,0-78.58-35.75-78.58-79.84s35.31-79.89,78.54-79.81c-54.6-.09-98.81,44.23-98.81,98.83s44.26,98.86,98.86,98.86c1.37,0,2.72-.05,4.07-.1Z" id="path48"></path>
        <path class="cls-2" d="M817.2,73.44c-41.51,2.15-74.51,37.03-74.51,79.74,0,44.06,35.47,79.84,78.47,79.84-33.54,0-60.72-27.27-60.72-60.83,0-33.6,27.24-60.83,60.83-60.83,43.4,0,78.58,35.75,78.58,79.84,0,44.1-35.18,79.84-78.58,79.84,54.6,0,98.86-44.26,98.86-98.86,0-54.6-44.26-98.86-98.86-98.86-1.37,0-2.72,.05-4.07,.1Z" id="path50"></path>
      </g>
      <path class="cls-1" d="M1983.77,168.5V.9h-42.02V91.2c-15.87-11.06-35.16-17.54-55.97-17.54-54.15,0-98.06,43.9-98.06,98.06s43.9,98.06,98.06,98.06,98.06-43.9,98.06-98.06c0-1.08-.02-2.15-.06-3.21Zm-98,63.07c-33.06,0-59.85-26.8-59.85-59.85s26.8-59.85,59.85-59.85,59.85,26.8,59.85,59.85-26.8,59.85-59.85,59.85Z" id="path54"></path>
    </g>
  </g>
</svg>
