<?xml version="1.0" encoding="UTF-8" standalone="no"?>
<!-- Created with Inkscape (http://www.inkscape.org/) -->
<svg xmlns:inkscape="http://www.inkscape.org/namespaces/inkscape" xmlns:sodipodi="http://sodipodi.sourceforge.net/DTD/sodipodi-0.dtd" xmlns="http://www.w3.org/2000/svg" xmlns:svg="http://www.w3.org/2000/svg" version="1.1" id="svg2" width="650" height="300" viewBox="0 0 649.99999 300" sodipodi:docname="IBM_logo.svg" inkscape:version="1.1.1 (3bf5ae0d25, 2021-09-20)">
  <defs id="defs6"></defs>
  <g id="g8" inkscape:groupmode="layer" inkscape:label="ink_ext_XXXXXX" transform="matrix(1.3333333,0,0,-1.3333333,-210.66666,421.33332)" style="display:inline">
    <g id="g10" transform="matrix(0.1,0,0,0.1,31.422505,-33.775505)" style="display:inline">
      <path d="m 4653.25,2430 -34.7,100 H 4000 v -100 h 330 v 94.91 L 4363.62,2430 Z M 4400,3160 h -620 v -100 h 654.7 z m 72.85,-210 H 3780 v -100 h 727.55 z m 339.61,-100 H 5540 v 100 H 4847.15 Z M 4000,2640 h 580.4 l -34.7,100 H 4000 Z m 437.76,-420 h 444.48 l 35.3,100 h -515.08 z m 74.14,-210 h 296.2 l 35.3,100 h -366.8 z m 74.15,-210 h 147.91 l 35.3,100 h -218.52 z m 73.95,-210 35.12,100 h -70.24 z m 260,1570 -34.69,-100 H 5540 v 100 z m 400,-420 h -545.7 l -34.7,-100 H 5320 Z m -330,-310 h 330 v 100 h -618.55 l -34.7,-100 h 289.63 l 33.62,95.23 z m 330,-110 h -330 v -100 h 330 z m -330,-310 h 330 v 100 h -330 z m 0,-210 h 550 v 100 h -550 z m 0,-210 h 550 v 100 h -550 z m -990,630 h 330 v 100 h -330 z m 0,-210 h 330 v 100 h -330 z m -220,-210 h 550 v 100 h -550 z m 0,-210 h 550 v 100 h -550 z m -238.12,1470 c -73.27,62.32 -168.14,100 -271.88,100 v 0 h -810 v -100 z m 11.03,-740 H 2680 v -100 h 953.61 c -21.67,37.39 -48.98,71.05 -80.7,100 z M 3320,2110 v -100 h 370 c 0,34.5 -4.38,67.93 -12.23,100 z m 0,530 h 357.77 c 7.85,32.07 12.23,65.5 12.23,100 h -370 z m -640,0 h 330 v 100 h -330 z m 995.35,210 c -9.59,35.42 -23.7,68.95 -41.67,100 H 2460 V 2850 Z M 2680,2530 v -100 h 872.91 c 31.72,28.95 59.03,62.61 80.7,100 z m 0,-520 h 330 v 100 h -330 z m -220,-210 h 1173.68 c 17.96,31.05 32.08,64.58 41.67,100 H 2460 Z m 0,-210 h 810 c 103.73,0 198.61,37.69 271.88,100 H 2460 Z m -880,1470 h 770 v 100 h -770 z m 0,-210 h 770 v 100 h -770 z m 550,-110 h -330 v -100 h 330 z m -330,-310 h 330 v 100 h -330 z m 0,-210 h 330 v 100 h -330 z m 0,-210 h 330 v 100 h -330 z m -220,-210 h 770 v 100 h -770 z m 0,-110 h 770 v -100 h -770 z m 4165.9,-16.27 c 6.72,0 10.5,2.94 10.5,9.24 v 6.3 c 0,6.3 -3.78,9.24 -10.5,9.24 h -15.97 v -24.78 z m -15.97,-46.21 h -21.42 v 87.79 h 39.91 c 19.74,0 29.82,-11.76 29.82,-27.72 0,-13.86 -6.3,-22.69 -15.96,-26.47 l 19.74,-33.6 h -23.52 l -16.38,30.24 h -12.19 z m 76.88,39.06 v 10.93 c 0,35.28 -27.73,63.01 -64.27,63.01 -36.55,0 -64.28,-27.73 -64.28,-63.01 v -10.93 c 0,-35.28 27.73,-63.01 64.28,-63.01 36.54,0 64.27,27.73 64.27,63.01 z m -148.28,5.47 c 0,49.14 37.38,86.53 84.01,86.53 46.62,0 84.01,-37.39 84.01,-86.53 0,-49.15 -37.39,-86.54 -84.01,-86.54 -46.63,0 -84.01,37.39 -84.01,86.54" style="fill:#5b7bc6;fill-opacity:1;fill-rule:nonzero;stroke:none" id="path12"></path>
    </g>
  </g>
</svg>
