<?xml version="1.0" encoding="UTF-8" standalone="no"?>
<svg xmlns:inkscape="http://www.inkscape.org/namespaces/inkscape" xmlns:sodipodi="http://sodipodi.sourceforge.net/DTD/sodipodi-0.dtd" xmlns="http://www.w3.org/2000/svg" xmlns:svg="http://www.w3.org/2000/svg" width="968.04828" height="200" viewBox="0 0 968.04828 200" fill="none" version="1.1" id="svg39" sodipodi:docname="SingleStore_logo.svg" inkscape:version="1.3.2 (091e20e, 2023-11-25)">
  <defs id="defs39"></defs>
  <g id="g39" transform="matrix(2.0000017,0,0,2.0000017,-1.9765671,-0.8261727)">
    <path d="m 123.495,60.7193 v -0.3466 h 7.033 v 0.3466 c 0,5.3634 3.063,9.47 12.397,9.47 h 0.696 c 7.174,0 11.074,-3.0633 11.074,-7.66 v -0.3466 c 0,-4.3167 -2.507,-6.1967 -6.894,-7.2434 l -11.143,-2.7166 c -6.757,-1.67 -11.35,-5.3634 -11.35,-12.6734 v -0.6966 c 0,-8.0767 6.407,-13.44 17.41,-13.44 h 0.697 c 10.793,0 16.993,5.85 16.993,13.8566 v 0.3467 h -6.893 v -0.3467 c 0,-4.11 -3.274,-8.0766 -10.097,-8.0766 h -0.697 c -6.963,0 -10.653,3.2033 -10.653,7.73 v 0.3466 c 0,3.69 2.16,5.85 6.963,7.0334 l 11.214,2.7166 c 6.823,1.67 11.213,5.1534 11.213,12.6034 v 0.6966 c 0,8.3567 -6.477,13.65 -17.897,13.65 h -0.696 c -14.137,0 -19.36,-6.2666 -19.36,-15.25 z" fill="#000000" id="path1"></path>
    <path d="m 166.875,25.9693 h 6.546 v 7.2434 h -6.546 z m 0,13.9267 h 6.546 v 35.5166 h -6.546 z" fill="#000000" id="path2"></path>
    <path d="m 179.681,39.8993 h 6.267 v 5.71 c 3.133,-4.6666 5.85,-6.1266 10.863,-6.1266 h 0.697 c 7.313,0 11.49,3.83 11.49,12.8133 v 23.12 h -6.547 V 53.1993 c 0,-6.1266 -2.296,-8.5666 -6.756,-8.5666 h -0.697 c -5.57,0 -8.773,4.2466 -8.773,10.3766 v 20.4034 h -6.547 V 39.896 Z" fill="#000000" id="path3"></path>
    <path d="m 214.285,78.0627 h 6.546 v 0.3467 c 0,3.2733 3.064,4.7366 8.844,4.7366 h 0.28 c 5.293,0 8.636,-1.6033 8.636,-6.4066 v -8.0767 c -2.716,4.11 -5.223,5.64 -10.236,5.64 h -0.697 c -8.773,0 -14.067,-6.7567 -14.067,-17.06 V 56.546 c 0,-10.3066 5.294,-17.06 13.997,-17.06 h 0.697 c 5.223,0 7.8,1.4634 10.516,6.06 v -5.64 h 6.267 v 36.84 c 0,8.0767 -5.78,11.28 -15.39,11.28 h -0.28 c -11.56,0 -15.113,-4.3166 -15.113,-9.61 z m 15.113,-8.8467 h 0.697 c 5.92,0 8.913,-3.9 8.913,-11.9766 v -0.6967 c 0,-8.0767 -2.993,-11.9767 -8.913,-11.9767 h -0.697 c -5.71,0 -8.913,3.97 -8.913,11.9767 v 0.6967 c 0,8.0066 3.203,11.9766 8.913,11.9766 z" fill="#000000" id="path4"></path>
    <path d="m 251.328,25.9693 h 6.547 v 49.4433 h -6.547 z" fill="#000000" id="path5"></path>
    <path d="M 263.298,58.0027 V 57.306 c 0,-11.42 5.64,-17.8267 15.807,-17.8267 h 0.696 c 9.61,0 14.834,5.57 14.834,17.2 0,1.1134 -0.07,1.95 -0.14,2.5067 h -24.514 c 0.21,7.87 3.414,11.77 9.124,11.77 h 0.696 c 6.197,0 7.52,-3.97 7.52,-5.99 v -0.3467 h 6.617 v 0.3467 c 0,4.3866 -2.993,10.8633 -13.927,10.8633 h -0.696 c -10.517,0 -16.017,-6.4066 -16.017,-17.8266 z m 24.653,-3.69 v -0.1401 c 0,-6.9633 -3.063,-9.8899 -8.216,-9.8899 h -0.697 c -4.943,0 -8.497,3.2033 -8.983,10.0266 h 17.896 z" fill="#000000" id="path6"></path>
    <path d="m 299.228,60.7193 v -0.3466 h 7.033 v 0.3466 c 0,5.3634 3.064,9.47 12.397,9.47 h 0.697 c 7.173,0 11.073,-3.0633 11.073,-7.66 v -0.3466 c 0,-4.3167 -2.507,-6.1967 -6.893,-7.2434 l -11.144,-2.7166 c -6.756,-1.67 -11.35,-5.3634 -11.35,-12.6734 v -0.6966 c 0,-8.0767 6.407,-13.44 17.41,-13.44 h 0.697 c 10.793,0 16.993,5.85 16.993,13.8566 v 0.3467 h -6.893 v -0.3467 c 0,-4.11 -3.273,-8.0766 -10.097,-8.0766 h -0.696 c -6.964,0 -10.657,3.2033 -10.657,7.73 v 0.3466 c 0,3.69 2.16,5.85 6.963,7.0334 l 11.214,2.7166 c 6.823,1.67 11.213,5.1534 11.213,12.6034 v 0.6966 c 0,8.3567 -6.477,13.65 -17.897,13.65 h -0.696 c -14.137,0 -19.36,-6.2666 -19.36,-15.25 z" fill="#000000" id="path7"></path>
    <path d="m 346.928,68.2393 v -22.98 h -6.407 V 39.896 h 5.084 c 1.043,0 1.603,-0.6267 1.603,-1.6734 v -7.59 h 6.267 v 9.2634 h 8.843 v 5.3633 h -8.843 V 67.056 c 0,2.2966 0.906,2.9933 2.993,2.9933 h 5.85 v 5.3633 h -8.147 c -5.153,0 -7.243,-2.3666 -7.243,-7.1733 z" fill="#000000" id="path8"></path>
    <path d="M 365.655,58.0027 V 57.306 c 0,-11.42 5.43,-17.8267 16.016,-17.8267 h 0.697 c 10.587,0 16.017,6.4067 16.017,17.8267 v 0.6967 c 0,11.42 -5.434,17.8266 -16.017,17.8266 h -0.697 c -10.586,0 -16.016,-6.4066 -16.016,-17.8266 z m 16.016,12.7433 h 0.697 c 5.85,0 9.123,-3.83 9.123,-12.7433 V 57.306 c 0,-8.9133 -3.273,-12.7433 -9.123,-12.7433 h -0.697 c -5.85,0 -9.123,3.83 -9.123,12.7433 v 0.6967 c 0,8.9133 3.273,12.7433 9.123,12.7433 z" fill="#000000" id="path9"></path>
    <path d="m 403.811,39.8993 h 6.267 v 6.5467 c 2.857,-4.9433 4.18,-6.5467 8.497,-6.5467 h 4.456 v 6.0567 h -5.71 c -4.176,0 -6.963,3.4833 -6.963,8.7733 v 20.6834 h -6.547 V 39.896 Z" fill="#000000" id="path10"></path>
    <path d="M 424.621,58.0027 V 57.306 c 0,-11.42 5.64,-17.8267 15.807,-17.8267 h 0.696 c 9.61,0 14.834,5.57 14.834,17.2 0,1.1134 -0.07,1.95 -0.14,2.5067 h -24.513 c 0.209,7.87 3.413,11.77 9.123,11.77 h 0.696 c 6.197,0 7.52,-3.97 7.52,-5.99 v -0.3467 h 6.617 v 0.3467 c 0,4.3866 -2.993,10.8633 -13.926,10.8633 h -0.697 c -10.517,0 -16.017,-6.4066 -16.017,-17.8266 z m 24.653,-3.69 v -0.1401 c 0,-6.9633 -3.063,-9.8899 -8.216,-9.8899 h -0.697 c -4.943,0 -8.497,3.2033 -8.983,10.0266 h 17.896 z" fill="#000000" id="path11"></path>
    <path d="m 85.1941,46.2498 c -0.2066,0.7199 -0.4366,1.4333 -0.6866,2.1333 -0.2634,0.7367 -0.5467,1.46 -0.8567,2.1733 l -10.37,-0.2167 c 0,0.21 0,0.4167 -0.0067,0.6267 l 28.1869,0.59 c 0.036,-1.6633 -0.007,-3.3233 -0.137,-4.97 L 85.1908,46.2498 Z" fill="#000000" id="path12"></path>
    <path d="m 63.4342,1.67975 -0.2834,0.70333 c 1.5634,0.58667 3.0767,1.28333 4.5333,2.07333 L 57.6542,29.3197 c 0.61,0.1867 1.22,0.4034 1.8233,0.6467 0.03,0.0133 0.06,0.0233 0.0867,0.0367 L 70.1075,3.86308 C 70.0775,3.84975 70.0475,3.83975 70.0208,3.82641 67.8475,2.94975 65.6475,2.23642 63.4342,1.67975 Z" fill="#000000" id="path13"></path>
    <path d="m 73.5174,8.40974 c 1.2567,1.04333 2.4434,2.16996 3.55,3.37336 l -14.31,19.8333 c 0.5,0.3067 0.9867,0.63 1.4534,0.97 L 80.7074,9.72641 c -1.77,-1.28 -3.64,-2.45667 -5.6033,-3.51334 l -1.5867,2.2 z" fill="#000000" id="path14"></path>
    <path d="m 81.0907,17.0564 c 0.8534,1.36 1.6167,2.78 2.2867,4.2534 l -16.26,13.81 c 0.34,0.3533 0.6667,0.7166 0.9833,1.0933 l 21.4867,-18.25 c -1.33,-1.5733 -2.76,-3.07 -4.2867,-4.48 l -4.2066,3.5733 z" fill="#000000" id="path15"></path>
    <path d="m 93.3641,23.0564 -7.9567,3.9667 c 0.4,1.5233 0.7034,3.0866 0.9034,4.6833 l -15.86,7.9067 c 0.1933,0.3466 0.38,0.6966 0.5533,1.05 L 96.2274,28.0897 c -0.8566,-1.73 -1.8133,-3.41 -2.8666,-5.0333 z" fill="#000000" id="path16"></path>
    <path d="m 86.5874,37.0664 c -0.0333,1.58 -0.17,3.14 -0.4033,4.6667 l -13.6333,3.06 c 0.0766,0.2933 0.15,0.5867 0.2133,0.8833 l 27.5029,-6.1733 c -0.3929,-1.7533 -0.8763,-3.4833 -1.4529,-5.1833 l -12.2267,2.7433 z" fill="#000000" id="path17"></path>
    <path d="M 100.717,59.0898 81.9207,54.0364 c -0.7066,1.2434 -1.4833,2.4467 -2.3266,3.5934 l -6.9734,-1.8734 c -0.04,0.1567 -0.08,0.31 -0.1233,0.4667 l 27.22,7.3167 c 0.4036,-1.48 0.7336,-2.9634 0.9966,-4.4534 z" fill="#000000" id="path18"></path>
    <path d="m 77.4707,60.2598 c -0.86,0.97 -1.7733,1.8933 -2.7333,2.7633 l -4.0533,-2.2367 c -0.0634,0.12 -0.13,0.24 -0.1967,0.36 l 24.68,13.6167 c 0.6633,-1.2033 1.2833,-2.44 1.8566,-3.7133 l -19.5566,-10.79 z" fill="#000000" id="path19"></path>
    <path d="m 72.3841,64.9897 c -0.9267,0.71 -1.89,1.3734 -2.8834,1.9934 l -1.9166,-1.77 c -0.07,0.08 -0.1434,0.1566 -0.2167,0.2366 l 20.7067,19.13 c 0.8466,-0.91 1.66,-1.8566 2.44,-2.8366 l -18.13,-16.75 z" fill="#000000" id="path20"></path>
    <path d="m 81.5474,90.4764 -14.56,-22.0667 c -0.5766,0.2967 -1.16,0.5767 -1.7533,0.8433 0,0 -1.07,0.46 -1.3133,0.56 l 14.9033,22.5834 c 0.93,-0.61 1.8366,-1.25 2.7266,-1.92 z" fill="#000000" id="path21"></path>
    <path d="m 61.4474,70.6997 c -0.2467,0.0767 -1.81,0.53 -2.2733,0.6434 0,0 -0.4367,0.1066 -0.5567,0.1333 l 9.35,26.2967 c 0.92,-0.3267 1.83,-0.6767 2.73,-1.0567 l -9.25,-26.02 z" fill="#000000" id="path22"></path>
    <path d="m 55.8275,71.9764 c -0.82,0.1767 -1.65,0.3034 -2.49,0.3867 l 2.8133,28.0499 c 0.8367,-0.083 1.67,-0.187 2.4967,-0.31 l -2.82,-28.1232 z" fill="#000000" id="path23"></path>
    <path d="m 50.1241,72.4364 c -0.7,-0.0367 -1.4,-0.1033 -2.1,-0.2067 L 44.0408,100.14 c 0.6966,0.1 1.3966,0.186 2.0933,0.26 l 3.99,-27.9603 z" fill="#000000" id="path24"></path>
    <path d="m 17.2675,54.5764 c 0.2066,-0.72 0.4366,-1.4333 0.6866,-2.1333 0.2634,-0.7367 0.5467,-1.46 0.8567,-2.1733 l 10.37,0.2166 c 0,-0.21 0,-0.4166 0.0067,-0.6266 l -28.18669,-0.59 c -0.03667,1.6633 0.00666,3.3233 0.13666,4.97 l 16.13333,0.3366 z" fill="#000000" id="path25"></path>
    <path d="m 39.0307,99.1464 0.2834,-0.7033 c -1.5634,-0.5867 -3.0767,-1.2834 -4.5334,-2.0734 l 10.03,-24.8633 c -0.61,-0.1867 -1.22,-0.4034 -1.8233,-0.6467 -0.03,-0.0133 -0.06,-0.0233 -0.0867,-0.0367 l -10.5433,26.14 c 0.03,0.0134 0.06,0.0234 0.0867,0.0367 2.1733,0.8767 4.3733,1.59 6.5866,2.1467 z" fill="#000000" id="path26"></path>
    <path d="m 28.9441,92.4164 c -1.2566,-1.0433 -2.4433,-2.17 -3.55,-3.3733 l 14.31,-19.8334 c -0.5,-0.3066 -0.9866,-0.63 -1.4533,-0.97 l -16.4967,22.86 c 1.77,1.28 3.64,2.4567 5.6034,3.5134 l 1.5866,-2.2 z" fill="#000000" id="path27"></path>
    <path d="m 21.3708,83.7698 c -0.8533,-1.36 -1.6167,-2.78 -2.2867,-4.2534 l 16.26,-13.81 c -0.34,-0.3533 -0.6666,-0.7166 -0.9833,-1.0933 l -21.4867,18.25 c 1.33,1.5733 2.76,3.07 4.2867,4.48 l 4.2067,-3.5733 z" fill="#000000" id="path28"></path>
    <path d="m 9.10079,77.7697 7.95671,-3.9666 c -0.4,-1.5234 -0.7034,-3.0867 -0.9034,-4.6834 l 15.86,-7.9066 c -0.1933,-0.3467 -0.38,-0.6967 -0.5533,-1.05 L 6.23413,72.7364 c 0.85667,1.73 1.81333,3.41 2.86666,5.0333 z" fill="#000000" id="path29"></path>
    <path d="m 15.8741,63.7598 c 0.0333,-1.58 0.17,-3.14 0.4033,-4.6667 l 13.6333,-3.06 c -0.0766,-0.2933 -0.15,-0.5867 -0.2133,-0.8833 l -27.50331,6.17 c 0.39333,1.7533 0.87667,3.4833 1.45333,5.1833 L 15.8774,63.7598 Z" fill="#000000" id="path30"></path>
    <path d="m 1.74414,41.7364 18.79666,5.0533 c 0.7067,-1.2433 1.4833,-2.4466 2.3267,-3.5933 l 6.9733,1.8733 c 0.04,-0.1566 0.08,-0.31 0.1233,-0.4666 l -27.22329,-7.32 c -0.40334,1.48 -0.73334,2.9633 -0.99667,4.4533 z" fill="#000000" id="path31"></path>
    <path d="m 24.9908,40.5664 c 0.86,-0.97 1.7734,-1.8933 2.7334,-2.7633 l 4.0533,2.2366 c 0.0633,-0.12 0.13,-0.24 0.1967,-0.36 L 7.29416,26.0597 C 6.63083,27.2631 6.01083,28.4998 5.4375,29.7731 l 19.5567,10.79 z" fill="#000000" id="path32"></path>
    <path d="m 30.0808,35.8364 c 0.9267,-0.71 1.89,-1.3733 2.8833,-1.9933 l 1.9167,1.77 c 0.07,-0.08 0.1433,-0.1567 0.2167,-0.2367 l -20.7067,-19.13 c -0.8467,0.91 -1.66,1.8567 -2.44,2.8367 l 18.13,16.75 z" fill="#000000" id="path33"></path>
    <path d="m 20.9175,10.3497 14.56,22.0667 c 0.5766,-0.2967 1.16,-0.5767 1.7533,-0.8433 0,0 1.07,-0.46 1.3133,-0.56 l -14.9,-22.58335 c -0.93,0.61 -1.8366,1.25 -2.7266,1.91995 z" fill="#000000" id="path34"></path>
    <path d="m 41.0141,30.1264 c 0.2467,-0.0766 1.81,-0.53 2.2734,-0.6433 0,0 0.4366,-0.1067 0.5566,-0.1333 l -9.35,-26.2967 c -0.92,0.32667 -1.8299,0.67667 -2.7299,1.05667 l 9.2499,26.02003 z" fill="#000000" id="path35"></path>
    <path d="m 46.6342,28.8497 c 0.82,-0.1766 1.65,-0.3033 2.49,-0.3866 l -2.81,-28.050014 c -0.8367,0.083333 -1.67,0.186667 -2.4967,0.31 l 2.82,28.123314 z" fill="#000000" id="path36"></path>
    <path d="m 52.3408,28.3897 c 0.7,0.0367 1.4,0.1034 2.1,0.2067 l 3.98,-27.910008 c -0.6966,-0.1 -1.3966,-0.186667 -2.0933,-0.26 l -3.99,27.960008 z" fill="#000000" id="path37"></path>
    <path d="m 469.061,75.4345 v -9.19 h -3.158 v -1.2363 h 7.865 v 1.2363 h -3.158 v 9.19 z" fill="#000000" id="path38"></path>
    <path d="M 474.987,75.4345 V 65.0082 h 2.145 l 2.89,8.3709 2.77,-8.3709 h 2.22 v 10.4263 h -1.564 v -8.2517 l -2.771,8.2517 h -1.385 l -2.741,-8.2517 v 8.2517 z" fill="#000000" id="path39"></path>
  </g>
</svg>
