<?xml version="1.0" encoding="UTF-8" standalone="no"?>
<!-- Created with Inkscape (http://www.inkscape.org/) -->

<svg
   version="1.1"
   id="svg1239"
   xml:space="preserve"
   width="638.14276"
   height="133.27466"
   viewBox="0 0 638.14276 133.27466"
   sodipodi:docname="curity-logo-landscape.svg"
   inkscape:version="1.1.1 (3bf5ae0d25, 2021-09-20)"
   xmlns:inkscape="http://www.inkscape.org/namespaces/inkscape"
   xmlns:sodipodi="http://sodipodi.sourceforge.net/DTD/sodipodi-0.dtd"
   xmlns="http://www.w3.org/2000/svg"
   xmlns:svg="http://www.w3.org/2000/svg"><defs
     id="defs1243"><clipPath
       clipPathUnits="userSpaceOnUse"
       id="clipPath1253"><path
         d="M 0,283.464 H 566.929 V 0 H 0 Z"
         id="path1251" /></clipPath></defs><sodipodi:namedview
     id="namedview1241"
     pagecolor="#ffffff"
     bordercolor="#666666"
     borderopacity="1.0"
     inkscape:pageshadow="2"
     inkscape:pageopacity="0.0"
     inkscape:pagecheckerboard="0"
     showgrid="false"
     fit-margin-top="0"
     fit-margin-left="0"
     fit-margin-right="0"
     fit-margin-bottom="0"
     inkscape:zoom="1.4988649"
     inkscape:cx="319.24157"
     inkscape:cy="67.050738"
     inkscape:window-width="1920"
     inkscape:window-height="1001"
     inkscape:window-x="-7"
     inkscape:window-y="-7"
     inkscape:window-maximized="1"
     inkscape:current-layer="g1245" /><g
     id="g1245"
     inkscape:groupmode="layer"
     inkscape:label="curity-logo-landscape"
     transform="matrix(1.3333333,0,0,-1.3333333,-58.880665,255.61359)"><g
       id="g1247"><g
         id="g1249"
         clip-path="url(#clipPath1253)"><g
           id="g1255"
           transform="translate(181.4395,128.3252)"><path
             d="m 0,0 -1.543,-1.55 c -8.717,-8.715 -19.674,-13.721 -30.071,-13.721 -16.488,0 -28.457,12.037 -28.457,28.614 0,16.567 11.677,28.597 27.771,28.597 9.322,0 20.358,-4.344 28.113,-11.058 l 1.557,-1.355 15.424,16.118 -1.737,1.483 c -11.851,10.175 -28.68,16.257 -45.013,16.257 -17.994,0 -33.236,-8.183 -42.288,-21.124 h -28.428 l -1.663,-13.997 h 23.351 c -0.749,-2.527 -1.268,-5.159 -1.622,-7.863 h -34.937 l -1.664,-13.993 h 36.598 c 0.347,-2.704 0.861,-5.341 1.594,-7.853 h -0.022 -2.074 -50.505 l -1.663,-13.997 h 52.168 2.074 6.667 c 9.063,-13.041 24.497,-21.129 43.108,-21.129 23.366,0 39.653,11.95 47.282,19.07 l 1.624,1.518 z"
             style="fill:#626e89;fill-opacity:1;fill-rule:nonzero;stroke:none"
             id="path1257" /></g><g
           id="g1259"
           transform="translate(57.9356,148.7266)"><path
             d="m 0,0 h -10.296 l -1.662,-13.993 h 10.3 z"
             style="fill:#626e89;fill-opacity:1;fill-rule:nonzero;stroke:none"
             id="path1261" /></g><g
           id="g1263"
           transform="translate(277.5098,130.1153)"><path
             d="m 0,0 c -5.632,-5.255 -14.189,-10.059 -24.926,-10.059 -16.29,0 -27.026,11.639 -27.026,26.052 0,14.113 10.81,25.976 26.651,25.976 9.008,0 17.866,-3.531 23.724,-8.561 l -6.757,-7.054 c -4.506,3.9 -10.811,6.303 -16.065,6.303 -9.911,0 -16.293,-7.581 -16.293,-16.74 0,-9.231 6.533,-16.74 16.668,-16.74 6.681,0 12.912,3.527 17.19,7.804 z"
             style="fill:#626e89;fill-opacity:1;fill-rule:nonzero;stroke:none"
             id="path1265" /></g><g
           id="g1267"
           transform="translate(331.0342,170.5821)"><path
             d="m 0,0 v -31.379 c 0,-12.241 -9.461,-19.146 -22.447,-19.146 -12.616,0 -22.299,6.905 -22.299,19.146 V 0 h 10.811 v -31.379 c 0,-6.461 5.181,-9.911 11.488,-9.911 6.68,0 11.635,3.45 11.635,9.911 V 0 Z"
             style="fill:#626e89;fill-opacity:1;fill-rule:nonzero;stroke:none"
             id="path1269" /></g><g
           id="g1271"
           transform="translate(356.3301,161.4991)"><path
             d="m 0,0 v -12.84 h 17.568 c 3.755,0 6.831,2.704 6.831,6.456 0,1.652 -0.599,3.155 -1.728,4.282 C 20.947,-0.225 18.77,0 16.817,0 Z M -10.734,-39.94 V 9.083 h 27.175 c 6.981,0 11.562,-2.029 14.715,-5.331 2.554,-2.704 4.053,-6.231 4.053,-10.136 0,-6.303 -3.901,-11.183 -9.907,-13.811 L 36.786,-39.94 h -12.31 l -9.912,18.017 H 0 V -39.94 Z"
             style="fill:#626e89;fill-opacity:1;fill-rule:nonzero;stroke:none"
             id="path1273" /></g><path
           d="m 404.152,170.582 h 10.733 v -49.023 h -10.733 z"
           style="fill:#626e89;fill-opacity:1;fill-rule:nonzero;stroke:none"
           id="path1275" /><g
           id="g1277"
           transform="translate(424.5713,170.5821)"><path
             d="M 0,0 H 46.249 V -9.308 H 28.528 V -49.023 H 17.793 V -9.308 H 0 Z"
             style="fill:#626e89;fill-opacity:1;fill-rule:nonzero;stroke:none"
             id="path1279" /></g><g
           id="g1281"
           transform="translate(522.7676,170.5821)"><path
             d="m 0,0 -19.444,-26.65 v -22.373 h -10.81 V -26.65 L -49.775,0 h 13.362 L -24.478,-17.042 -12.611,0 Z"
             style="fill:#626e89;fill-opacity:1;fill-rule:nonzero;stroke:none"
             id="path1283" /></g></g></g></g></svg>
