<?xml version="1.0" encoding="UTF-8" standalone="no"?>
<!-- Created with Inkscape (http://www.inkscape.org/) -->

<svg
   version="1.1"
   id="svg2"
   xml:space="preserve"
   width="500"
   height="94.882256"
   viewBox="0 0 500 94.882254"
   sodipodi:docname="TIGERA_Logo_Horizontal.svg"
   inkscape:version="1.1.1 (3bf5ae0d25, 2021-09-20)"
   xmlns:inkscape="http://www.inkscape.org/namespaces/inkscape"
   xmlns:sodipodi="http://sodipodi.sourceforge.net/DTD/sodipodi-0.dtd"
   xmlns="http://www.w3.org/2000/svg"
   xmlns:svg="http://www.w3.org/2000/svg"><defs
     id="defs6" /><sodipodi:namedview
     id="namedview4"
     pagecolor="#ffffff"
     bordercolor="#666666"
     borderopacity="1.0"
     inkscape:pageshadow="2"
     inkscape:pageopacity="0.0"
     inkscape:pagecheckerboard="0"
     showgrid="false"
     fit-margin-top="0"
     fit-margin-left="0"
     fit-margin-right="0"
     fit-margin-bottom="0"
     inkscape:zoom="1.007572"
     inkscape:cx="480.85892"
     inkscape:cy="74.436366"
     inkscape:window-width="1920"
     inkscape:window-height="1010"
     inkscape:window-x="-6"
     inkscape:window-y="-6"
     inkscape:window-maximized="1"
     inkscape:current-layer="g8" /><g
     id="g8"
     inkscape:groupmode="layer"
     inkscape:label="ink_ext_XXXXXX"
     transform="matrix(1.3333333,0,0,-1.3333333,-2606.2266,185.45866)"><g
       id="g1228"
       transform="matrix(0.51244911,0,0,0.51244911,953.0011,67.815404)"><path
         d="m 2104.96,82.5535 -5.12,6.8781 -13.79,4.2762 8.04,-7.1055 4.78,0.2715 z m 26.85,-24.364 c -3.69,-4.7188 -7.25,-7.925 -12.23,-10.7188 2.53,3.416 3.54,7.5828 3.51,12.2801 -15.99,0 -28.58,-11.0828 -22.64,-32.636 3.4,0.268 5.33,2.7332 7.11,5.4211 0.19,-3.0699 -0.55,-6.4699 -2.77,-10.3589 l 1.44,-3.509 c -4.12,-3.1981 -10.17,-9.17191 -15.08,-7.4309 -12.9,16.1457 -33.08,20.5879 -59.46,3.3379 1.88,4.891 3.17,8.641 7.28,12.5051 -4.82,0.1918 -13.97,-1.1582 -20.99,-5.334 0.22,18.2684 2.12,37.3914 8.77,60.9394 -12.56,-23.039 -18.69,-49.9433 -24.94,-82.457375 -6.69,30.702775 -11.71,52.145675 -7.1,87.282375 -13.33,-2.5488 -28.15,-12.0007 -40.04,-19.8554 14.26,20.175 45.02,41.9429 58.41,46.1669 -6.48,-11.259 -10.63,-26.829 -11.63,-39.531 l 6.02,0.5965 c -2.42,-5.6582 -4.92,-18.8602 -4.91,-29.825 1.79,11.6797 7.31,27.2195 12.86,37.0574 l -7.36,-0.7461 c 4.16,15.7942 14.1,31.3822 22.72,36.6462 3.4,1.315 8.12,1.785 11.54,1.618 -1,-6.61 -6.06,-40.229 -3.5,-55.7466 0.08,16.6231 7.54,63.2466 13.59,75.2026 9.62,-9.119 11.33,-13.33 14.91,-21.404 19.05,-1.123 33.88,-10.679 47.78,-22.0962 -0.31,-1.1446 -1.1,-2.1016 -2.16,-2.6321 3.71,-1.4297 12.81,-6.9433 16.33,-10.123 4.59,-4.1446 10.52,-9.6485 13.43,-13.3504 l -5.46,-9.211 -2.51,7.9434 5,0.9031 -6.66,0.0918 2.69,-9.6922 -3.94,-1.3468 -0.01,0.0129"
         style="fill:#f79414;fill-opacity:1;fill-rule:nonzero;stroke:none;stroke-width:0.1"
         id="path26" /><path
         d="m 2621.9,62.8594 v 0.0984 h 25.67 v -0.0984 l -12.56,23.5535 h 0.02 z m -0.33,41.0796 h 26.73 l 38.15,-69.0081 h -23.86 l -6.44,11.8336 v 0.0605 h -42.65 v -0.0605 l -6.22,-11.8336 h -23.87 z M 2509.1,86.157 V 69.9063 h 29.44 c 2.06,-0.0403 4.3,0 6.68,0.116 1.76,0.0402 3.22,0.2961 4.35,0.8058 2.05,0.961 3.07,3.4344 3.1,7.459 0.04,2.8067 -0.68,4.8465 -2.17,6.1414 -1.08,1.0031 -3.2,1.5137 -6.38,1.5508 l -6.14,0.1777 z m 39.87,17.782 c 2.88,0 5.73,-0.157 8.57,-0.452 6.44,-0.668 10.84,-2.982 13.17,-7.0065 0.96,-1.6485 1.61,-3.2578 1.95,-4.8274 0.7,-3.2988 1.05,-6.7136 1.09,-10.2859 0,-5.6926 -0.76,-9.9699 -2.31,-12.8156 -1.55,-2.8653 -5.18,-5.1231 -10.87,-6.8114 v 0.0399 c 5.81,-1.6094 9.4,-3.5723 10.77,-5.9082 1.37,-2.3145 2.06,-6.4766 2.06,-12.4617 v -8.4793 h -21.08 l -0.17,6.3972 c 0,4.3965 -0.52,7.243 -1.54,8.5379 -1.13,1.5508 -3.84,2.2981 -8.1,2.2578 H 2509.1 V 34.9309 h -21.08 v 69.0081 z m -152.43,0 h 76.08 V 87.8066 h -55 v -9.4211 h 51.94 v -14.957 h -51.94 V 51.0633 h 55.59 V 34.9309 h -76.67 z m -34.62,-23.905 c -0.24,4.3176 -2.41,6.5734 -6.56,6.7707 -2.33,0.1191 -7.06,0.1777 -14.2,0.1777 l -13.12,-0.0586 c -4.41,-0.08 -7.55,-0.7472 -9.44,-2.0215 -2.13,-1.455 -3.33,-4.339 -3.55,-8.6367 -0.16,-2.5324 -0.23,-5.0246 -0.23,-7.4394 -0.04,-3.1399 0.11,-5.9856 0.45,-8.5176 0.55,-5.0059 2.84,-7.6945 6.91,-8.0676 1.72,-0.2344 4.35,-0.3535 7.93,-0.3535 h 8.38 l 14.3,0.0586 c 6.36,0.0402 9.6,2.1016 9.72,6.1836 v 2.2375 h -26.26 v 14.1316 h 47.34 v -2.4734 c 0,-11.7961 -0.22,-19.2149 -0.63,-22.2363 -0.47,-3.2989 -2,-6.3789 -4.61,-9.2461 -2.3,-2.5321 -5.32,-4.1418 -9.09,-4.827 -2.33,-0.4898 -4.92,-0.825 -7.75,-0.9832 -6.11,-0.4508 -14.29,-0.6668 -24.57,-0.6269 l -14.67,0.1179 c -6.26,0.0793 -10.85,0.5492 -13.81,1.4332 -4.99,1.452 -8.58,4.1993 -10.82,8.2239 -2.14,3.6504 -3.35,8.9296 -3.61,15.8582 -0.2,5.5351 -0.29,11.05 -0.29,16.5656 -0.04,2.3359 -0.02,4.043 0.05,5.1211 0.04,2.6308 0.54,5.3594 1.5,8.166 2.53,7.8516 8.46,12.5222 17.78,14.0142 2.93,0.509 5.42,0.785 7.48,0.863 3.61,0.157 9.4,0.254 17.39,0.295 10.09,0 17.72,-0.08 22.9,-0.237 14.51,-0.333 21.89,-6.9481 22.16,-19.8426 V 80.034 Z m -82.73,23.905 V 34.9309 h -21.08 v 69.0081 z m -32.93,0 V 86.157 h -30.27 V 34.9309 h -21.08 V 86.157 h -30.26 v 17.782 h 81.61 v 0"
         style="fill:#100f0e;fill-opacity:1;fill-rule:evenodd;stroke:none;stroke-width:0.1"
         id="path28" /></g></g></svg>
