<?xml version="1.0" encoding="UTF-8" standalone="no"?>
<!-- Generator: Adobe Illustrator 25.4.1, SVG Export Plug-In . SVG Version: 6.00 Build 0)  -->

<svg
   version="1.1"
   id="Layer_1"
   x="0px"
   y="0px"
   viewBox="0 0 507.70998 114.58"
   xml:space="preserve"
   sodipodi:docname="Rafay_Positive_Ver.svg"
   width="507.70999"
   height="114.58"
   inkscape:version="1.1.1 (3bf5ae0d25, 2021-09-20)"
   xmlns:inkscape="http://www.inkscape.org/namespaces/inkscape"
   xmlns:sodipodi="http://sodipodi.sourceforge.net/DTD/sodipodi-0.dtd"
   xmlns="http://www.w3.org/2000/svg"
   xmlns:svg="http://www.w3.org/2000/svg"><defs
   id="defs25" /><sodipodi:namedview
   id="namedview23"
   pagecolor="#ffffff"
   bordercolor="#666666"
   borderopacity="1.0"
   inkscape:pageshadow="2"
   inkscape:pageopacity="0.0"
   inkscape:pagecheckerboard="0"
   showgrid="false"
   fit-margin-top="0"
   fit-margin-left="0"
   fit-margin-right="0"
   fit-margin-bottom="0"
   inkscape:zoom="1.730851"
   inkscape:cx="257.38784"
   inkscape:cy="57.775048"
   inkscape:window-width="1920"
   inkscape:window-height="1010"
   inkscape:window-x="-6"
   inkscape:window-y="-6"
   inkscape:window-maximized="1"
   inkscape:current-layer="Layer_1" />
<style
   type="text/css"
   id="style2">
	.st0{fill:#08B09C;}
	.st1{fill:#233941;}
</style>
<g
   id="g20"
   transform="translate(-48.46,-54.56)">
	<path
   class="st0"
   d="M 58.98,60.44 70.33,79.8 81.51,60.44 Z m 17,21.41 h 19.6 L 85.04,66.16 Z m 29.54,0 h 23.02 L 117.03,62.2 Z m 5.69,-21.41 H 88.34 l 12.22,18.2 z M 85.1,105.02 95.23,87.72 H 74.97 Z m 21.12,-17.3 10.89,18.6 10.89,-18.6 z m 5.41,20.96 -10.91,-18.63 -10.91,18.63 z m 5.81,51.65 10.86,-18.54 h -21.67 z m 10.86,-24.41 -10.83,-18.49 -10.83,18.49 z m -5.64,-21.36 10.8,18.44 10.8,-18.44 z m 14.23,24.29 v 0 0.01 l 15.1,25.88 2.57,4.4 h -38.81 l -0.86,-1.48 -13.38,-22.93 -13.37,22.87 -0.86,1.48 H 48.46 l 2.57,-4.4 31.08,-53.07 -30.85,-52.66 -2.57,-4.39 h 70.73 l 0.87,1.48 31.7,54.13 0.85,1.45 -0.85,1.46 z m -3.43,5.87 -10.86,18.54 h 21.67 z m -53.04,18.49 -10.84,-18.5 -10.83,18.5 z m -5.69,-21.42 10.83,18.5 10.79,-18.5 z m 21.44,-5.87 -11.05,-17.74 -10.39,17.74 z m -6.32,-21.36 11.56,18.57 0.08,-0.14 v 0 l 10.8,-18.43 z m 43.58,-24.37 -10.83,18.49 h 21.66 z"
   id="path4" />
	<polygon
   class="st0"
   points="531.05,111.5 556.17,74.98 556.17,74.34 539.13,74.34 523.32,98.94 "
   id="polygon6" />
	<polygon
   class="st1"
   points="500.11,74.34 483.28,74.34 483.28,74.98 512.11,118.45 512.11,149.49 526.26,149.49 526.28,116.9 519.19,105.38 502.25,77.82 "
   id="polygon8" />
	<g
   id="g12">
		<path
   class="st1"
   d="m 238.37,99.27 c 0,-13.03 -9.33,-24.82 -27.01,-24.93 -11.9,0.11 -23.8,0 -35.7,0 v 75.14 h 14.15 V 124.4 h 13.61 l 21.87,25.08 h 16.83 v -0.97 l -22.73,-25.62 c 14.26,-2.88 18.98,-13.28 18.98,-23.62 M 211.35,87.53 c 8.9,0 12.86,6.02 12.86,12.06 0,6.04 -3.86,12.06 -12.86,12.06 H 189.8 V 87.53 Z"
   id="path10" />
	</g>
	<path
   class="st1"
   d="m 280.51,74.34 -33.66,75.14 h 15.33 l 6.43,-14.15 h 39.23 l 6.33,14.15 H 329.6 L 295.94,74.34 Z m -6.21,47.81 13.94,-32.01 13.93,32.01 z"
   id="path14" />
	<polygon
   class="st1"
   points="355.68,149.49 355.68,121.72 393.3,121.72 393.3,108.65 355.68,108.65 355.68,88.17 395.45,88.17 395.45,74.56 341.53,74.56 341.53,149.49 "
   id="polygon16" />
	<path
   class="st1"
   d="m 437.81,74.34 -33.66,75.14 h 15.33 l 6.43,-14.15 h 39.23 l 6.33,14.15 h 15.44 L 453.25,74.34 Z m -6.22,47.81 13.94,-32.01 13.93,32.01 z"
   id="path18" />
</g>
</svg>
