<?xml version="1.0" encoding="UTF-8"?>
<svg xmlns:xlink="http://www.w3.org/1999/xlink" xmlns="http://www.w3.org/2000/svg" viewBox="0 0 1200 282" class="svg-logo" width="1200" height="282">
  <defs>
    <symbol id="mia-logo" viewBox="0 0 1200 282">
      <path d="M299.972 22.8228H310.674V30.4669C310.674 32.7601 310.456 34.7257 310.456 34.7257H310.674C313.404 27.9553 321.485 21.5125 330.439 21.5125C340.158 21.5125 345.836 25.9897 347.693 34.6165H347.911C351.078 27.6277 359.05 21.5125 368.441 21.5125C381.436 21.5125 387.442 28.9381 387.442 43.5709V80.4805H376.412V45.9733C376.412 37.8925 374.774 31.5589 366.148 31.5589C358.067 31.5589 352.061 38.4385 349.986 46.3009C349.44 48.7033 349.222 51.3241 349.222 54.2725V80.5897H338.192V46.0825C338.192 38.5477 337.1 31.6681 328.146 31.6681C319.738 31.6681 313.841 38.6569 311.657 46.8469C311.111 49.1401 311.002 51.7609 311.002 54.3817V80.6989H299.972V22.8228Z" class="logo-grey" fill="#414748"></path>
      <path d="M401.638 0H412.776V11.2476H401.638V0ZM401.747 22.8228H412.776V80.4805H401.747V22.8228Z" class="logo-grey" fill="#414748"></path>
      <path d="M457.876 44.4445H460.387V43.4617C460.387 33.9613 455.037 30.7945 447.72 30.7945C438.875 30.7945 431.668 36.3637 431.668 36.3637L427.081 28.2829C427.081 28.2829 435.381 21.4033 448.594 21.4033C463.117 21.4033 471.417 29.3749 471.417 43.8985V80.3714H461.152V74.9114C461.152 72.2906 461.37 70.325 461.37 70.325H461.152C461.152 70.325 456.456 81.6818 442.697 81.6818C432.76 81.6818 423.15 75.6758 423.15 64.1005C423.15 45.2089 448.157 44.4445 457.876 44.4445ZM445.099 72.9458C454.491 72.9458 460.497 63.1178 460.497 54.6001V52.7437H457.657C449.358 52.7437 434.289 53.2897 434.289 63.6638C434.289 68.3594 438.001 72.9458 445.099 72.9458Z" class="logo-grey" fill="#414748"></path>
      <path d="M299.972 107.016H362.762C394.103 107.016 416.816 128.201 416.816 160.852C416.816 193.502 394.212 215.342 362.762 215.342H324.105V278.788H299.972V107.016ZM358.831 194.376C379.47 194.376 392.137 181.49 392.137 160.742C392.137 139.994 379.47 127.873 359.05 127.873H323.996V194.267L358.831 194.376Z" class="logo-grey" fill="#414748"></path>
      <path d="M436.473 107.016H460.06V241.114C460.06 255.965 465.847 258.586 473.164 258.586C475.348 258.586 477.313 258.367 477.313 258.367V279.334C477.313 279.334 473.71 279.77 469.56 279.77C456.129 279.77 436.473 276.167 436.473 245.263V107.016Z" class="logo-grey" fill="#414748"></path>
      <path d="M561.834 201.911H567.185V199.727C567.185 179.525 555.719 172.754 540.213 172.754C521.212 172.754 505.924 184.657 505.924 184.657L496.205 167.403C496.205 167.403 514.005 152.771 542.178 152.771C573.3 152.771 590.882 169.806 590.882 200.928V278.787H568.932V267.103C568.932 261.534 569.369 257.384 569.369 257.384H568.932C568.932 257.384 558.995 281.736 529.511 281.736C508.326 281.736 487.687 268.85 487.687 244.28C487.578 203.658 541.086 201.911 561.834 201.911ZM534.534 262.735C554.518 262.735 567.404 241.769 567.404 223.532V219.601H561.288C543.489 219.601 511.384 220.802 511.384 242.97C511.384 253.016 519.246 262.735 534.534 262.735Z" class="logo-grey" fill="#414748"></path>
      <path d="M625.607 176.358H609.555V157.357H626.372V121.867H649.195V157.357H678.897V176.358H649.195V231.067C649.195 255.637 666.448 258.804 675.512 258.804C678.897 258.804 681.081 258.367 681.081 258.367V279.334C681.081 279.334 677.696 279.771 672.782 279.771C656.948 279.771 625.607 274.857 625.607 233.797V176.358Z" class="logo-grey" fill="#414748"></path>
      <path d="M709.254 176.358H693.966V157.357H709.254V151.57C709.254 110.947 739.94 105.815 755.446 105.815C760.797 105.815 764.401 106.579 764.401 106.579V126.781C764.401 126.781 761.998 126.344 758.285 126.344C749.331 126.344 732.514 129.293 732.514 152.116V157.466H761.67V176.467H732.514V278.788H709.145L709.254 176.358Z" class="logo-grey" fill="#414748"></path>
      <path d="M837.019 152.771C873.71 152.771 903.412 179.743 903.412 216.98C903.412 254.436 873.71 281.736 837.019 281.736C800.218 281.736 770.625 254.436 770.625 216.98C770.625 179.743 800.327 152.771 837.019 152.771ZM837.019 261.315C860.387 261.315 879.388 242.861 879.388 216.98C879.388 191.427 860.387 173.191 837.019 173.191C813.868 173.191 794.649 191.427 794.649 216.98C794.649 242.861 813.868 261.315 837.019 261.315Z" class="logo-grey" fill="#414748"></path>
      <path d="M926.563 155.719H949.386V177.122C949.386 182.255 948.949 186.404 948.949 186.404H949.386C954.955 168.386 969.369 154.3 988.37 154.3C991.537 154.3 994.485 154.736 994.485 154.736V178.105C994.485 178.105 991.318 177.341 987.715 177.341C972.645 177.341 958.777 188.042 953.208 206.279C951.024 213.377 950.259 220.912 950.259 228.446V278.788H926.672V155.719H926.563Z" class="logo-grey" fill="#414748"></path>
      <path d="M1012.94 155.719H1035.76V171.99C1035.76 176.904 1035.33 180.944 1035.33 180.944H1035.76C1041.55 166.639 1058.91 152.662 1078.13 152.662C1098.77 152.662 1111 162.162 1115.15 180.617H1115.59C1122.36 165.766 1139.39 152.662 1159.38 152.662C1187.11 152.662 1200 168.496 1200 199.836V278.788H1176.41V205.078C1176.41 187.824 1173.03 174.174 1154.46 174.174C1137.21 174.174 1124.32 188.807 1119.96 205.514C1118.76 210.647 1118.21 216.216 1118.21 222.55V278.788H1094.62V205.078C1094.62 189.025 1092.22 174.174 1073.22 174.174C1055.2 174.174 1042.53 189.025 1037.95 206.497C1036.75 211.411 1036.53 216.98 1036.53 222.55V278.788H1012.94V155.719Z" class="logo-grey" fill="#414748"></path>
      <path d="M95.6594 108.217L122.741 123.833V155.064L95.6594 170.68L68.5777 155.064V123.833L95.6594 108.217ZM95.6594 87.1418L50.3413 113.35V165.657L95.6594 191.865L140.977 165.657V113.35L95.6594 87.1418Z" class="logo-red" fill="#F03F45"></path>
      <path d="M146.001 195.249L173.082 210.865V242.096L146.001 257.712L118.919 242.096V210.865L146.001 195.249ZM146.001 174.174L100.682 200.382V252.689L146.001 278.897L191.319 252.689V200.382L146.001 174.174Z" class="logo-cyan" fill="#1890FF"></path>
      <path d="M45.318 195.249L72.3997 210.865V242.096L45.318 257.712L18.2364 242.096V210.865L45.318 195.249ZM45.318 174.174L0 200.382V252.689L45.318 278.897L90.6361 252.689V200.382L45.318 174.174Z" class="logo-green" fill="#2CB47B"></path>
      <path d="M196.014 108.217L223.096 123.833V155.064L196.014 170.68L168.932 155.064V123.833L196.014 108.217ZM196.014 87.1418L150.696 113.35V165.657L196.014 191.865L241.332 165.657V113.35L196.014 87.1418Z" class="logo-purple" fill="#5F36DD"></path>
      <path d="M45.5367 21.2944L72.6183 36.91V68.1412L45.5367 83.7568L18.455 68.1412V36.91L45.5367 21.2944ZM45.5367 0.21875L0.218628 26.4268V78.7336L45.5367 104.942L90.8547 78.7336V26.4268L45.5367 0.21875Z" class="logo-orange" fill="#FF9933"></path>
    </symbol>
  </defs>
  <use xlink:href="#mia-logo"></use>
</svg>
