<svg width="707" height="88" viewBox="0 0 707 88" fill="none" xmlns="http://www.w3.org/2000/svg">
<path fill-rule="evenodd" clip-rule="evenodd" d="M251.2 30.1053H269.729V84.5263H251.2V77.8161C247.378 82.538 241.535 85.557 234.987 85.557C223.517 85.557 214.211 76.2943 214.142 64.8421L214.142 30.1053H232.671V61.2412C232.671 66.3571 236.819 70.5044 241.935 70.5044C247.052 70.5044 251.2 66.3571 251.2 61.2412V30.1053ZM439.964 57.3158V84.5263H424.91V79.5036C420.567 83.0904 415.252 84.839 410.367 84.839C394.378 84.839 382.061 72.9832 382.061 57.3158C382.061 41.6483 395.023 28.9474 411.013 28.9474C427.002 28.9474 439.964 41.6483 439.964 57.3158ZM411.592 69.4737C418.307 69.4737 423.752 63.7712 423.752 56.7368C423.752 49.7025 418.307 44 411.592 44C404.876 44 399.432 49.7025 399.432 56.7368C399.432 63.7712 404.876 69.4737 411.592 69.4737ZM568.51 30.1053H580.09V45.1579H568.51V61.2412H568.572C569.071 65.8106 572.482 69.3465 576.616 69.3465C577.859 69.3465 579.037 69.0266 580.09 68.4551V83.3906C577.3 84.7773 574.154 85.557 570.826 85.557C559.356 85.557 550.049 76.2943 549.981 64.8421L549.981 45.1579H540.716V30.1053H549.981V12.7368H568.51V30.1053ZM375.113 84.5263H356.584V53.3904C356.584 48.2745 352.436 44.1272 347.319 44.1272C342.203 44.1272 338.055 48.2745 338.055 53.3904V84.5263H319.526V53.3904C319.526 48.2745 315.378 44.1272 310.261 44.1272C305.145 44.1272 300.997 48.2745 300.997 53.3904V84.5263H282.468V30.1053H300.997V36.8155C304.818 32.0936 310.661 29.0746 317.21 29.0746C324.066 29.0746 330.15 32.3847 333.949 37.4939C338.195 32.2556 344.682 28.9073 351.952 28.9073C364.743 28.9073 375.113 39.2755 375.113 52.0652V84.5263ZM184.032 84.5263V53.3904C184.032 48.2745 179.884 44.1272 174.768 44.1272C169.651 44.1272 165.503 48.2745 165.503 53.3904V84.5263H146.974V12.7368H165.503V36.8155C169.325 32.0936 175.168 29.0746 181.716 29.0746C193.186 29.0746 202.492 38.3372 202.561 49.7895L202.561 84.5263H184.032ZM486.287 84.5263V53.3904C486.287 48.2745 482.139 44.1272 477.023 44.1272C471.906 44.1272 467.758 48.2745 467.758 53.3904V84.5263H449.229V30.1053H467.758V36.8155C471.58 32.0936 477.423 29.0746 483.971 29.0746C495.441 29.0746 504.747 38.3372 504.816 49.7895L504.816 84.5263H486.287ZM514.081 84.5263V30.1053H532.61V84.5263H514.081ZM522.55 26.2002L509.448 13.1001L522.55 0L535.652 13.1001L522.55 26.2002ZM644.524 62.5263H604.071C605.734 67.966 609.926 71.7895 616.569 71.7895C621.099 71.7895 624.488 70.0125 626.714 67.1579H643.384C639.768 77.974 630.031 85.6842 615.99 85.6842C597.97 85.6842 587.039 72.9832 587.039 57.3158C587.039 41.6483 600.001 28.9474 615.99 28.9474C631.98 28.9474 644.942 41.6483 644.942 57.3158C644.942 59.0957 644.801 60.8373 644.524 62.5263ZM603.955 50.9474H629.184C627.716 45.5077 623.845 41.6842 616.569 41.6842C609.293 41.6842 605.423 45.5077 603.955 50.9474ZM690.094 62.5263H707C704.553 75.7051 692.995 85.6842 679.105 85.6842C663.435 85.6842 650.732 72.9832 650.732 57.3158C650.732 41.6483 663.435 28.9474 679.105 28.9474C692.585 28.9474 703.869 38.3464 706.76 50.9474H689.465C687.324 47.4736 683.485 45.1579 679.105 45.1579C672.389 45.1579 666.945 50.6012 666.945 57.3158C666.945 64.0304 672.389 69.4737 679.105 69.4737C683.956 69.4737 688.143 66.6339 690.094 62.5263ZM0 30.1053H23.1613C23.1613 49.2899 38.7158 64.8421 57.9033 64.8421C77.0907 64.8421 92.6452 49.2899 92.6452 30.1053H115.807C115.807 62.0796 89.8823 88 57.9033 88C25.9242 88 0 62.0796 0 30.1053ZM57.9033 2.15121L74.2808 18.5263L57.9033 34.9014L41.5257 18.5263L57.9033 2.15121Z" fill="#182952"/>
</svg>
