<?xml version="1.0" encoding="UTF-8" standalone="no"?>
<!-- Generator: Adobe Illustrator 24.0.0, SVG Export Plug-In . SVG Version: 6.00 Build 0)  -->

<svg
   version="1.1"
   id="Layer_1"
   x="0px"
   y="0px"
   viewBox="0 0 591.90002 139.52556"
   xml:space="preserve"
   sodipodi:docname="Scylla-horizontal-RGB.svg"
   width="591.90002"
   height="139.52556"
   inkscape:version="1.1.1 (3bf5ae0d25, 2021-09-20)"
   xmlns:inkscape="http://www.inkscape.org/namespaces/inkscape"
   xmlns:sodipodi="http://sodipodi.sourceforge.net/DTD/sodipodi-0.dtd"
   xmlns="http://www.w3.org/2000/svg"
   xmlns:svg="http://www.w3.org/2000/svg"><defs
   id="defs43" /><sodipodi:namedview
   id="namedview41"
   pagecolor="#ffffff"
   bordercolor="#666666"
   borderopacity="1.0"
   inkscape:pageshadow="2"
   inkscape:pageopacity="0.0"
   inkscape:pagecheckerboard="0"
   showgrid="false"
   fit-margin-top="0"
   fit-margin-left="0"
   fit-margin-right="0"
   fit-margin-bottom="0"
   inkscape:zoom="1.6276923"
   inkscape:cx="295.20321"
   inkscape:cy="69.42344"
   inkscape:window-width="1920"
   inkscape:window-height="1010"
   inkscape:window-x="-6"
   inkscape:window-y="-6"
   inkscape:window-maximized="1"
   inkscape:current-layer="Layer_1" />
<style
   type="text/css"
   id="style2">
	.st0{fill:#3A2D55;}
	.st1{fill:#57D1E5;}
	.st2{fill:#FFFFFF;}
</style>
<g
   id="g16"
   transform="translate(-29.2,-5.6)">
	<path
   class="st0"
   d="m 202.1,68.1 c 0,-4.6 5.3,-6.3 9.1,-6.3 3.3,0 7.6,1.3 9.8,4.1 l 9.3,-10.2 c -5.2,-4.6 -11.9,-6.4 -18.9,-6.4 -12.1,0 -23.5,6.9 -23.5,20 0,20.5 28.9,14.4 28.9,25.7 0,4.3 -5,6.4 -9.4,6.4 -4.5,0 -9,-2.2 -11.8,-5.8 l -9.6,10.6 c 5.8,5.4 12.8,7.7 20.7,7.7 12.7,0 23.7,-6.5 23.7,-20.3 0.1,-21.5 -28.3,-14.2 -28.3,-25.5"
   id="path4" />
	<path
   class="st0"
   d="m 273.9,81.6 c 0,-11.5 7.6,-19.8 17.8,-19.8 5,0 9,1.8 11.7,5 l 10.4,-8.5 c -5.2,-6.7 -13.9,-9 -20.8,-9 -19.2,0 -33.2,12.6 -33.2,32.3 0,19.7 14,32.3 33.2,32.3 8.4,0 17.1,-3.4 22.3,-10.7 L 304,94.8 c -2.8,4.2 -7.2,6.6 -12.7,6.6 -9.8,0 -17.4,-8.3 -17.4,-19.8"
   id="path6" />
	<polygon
   class="st0"
   points="381.1,50.8 367.2,73.9 354.2,50.8 337.3,50.8 360.4,86.1 360.4,112.4 374,112.4 374,86.1 397.1,50.8 "
   id="polygon8" />
	<polygon
   class="st0"
   points="463.5,99.9 438.3,99.9 438.3,50.8 424.8,50.8 424.8,112.4 463.5,112.4 "
   id="polygon10" />
	<polygon
   class="st0"
   points="532.8,99.9 507.6,99.9 507.6,50.8 494.1,50.8 494.1,112.4 532.8,112.4 "
   id="polygon12" />
	<polygon
   class="st0"
   points="583.1,50.8 556.5,112.4 571.5,112.4 576.6,99.4 580.9,87.9 588.3,68.7 595.9,87.9 600.5,99.4 605.8,112.4 621.1,112.4 594.3,50.8 "
   id="polygon14" />
</g>
<g
   id="g38"
   transform="translate(-29.2,-5.6)">
	<path
   class="st1"
   d="M 85.3,6.8 C 53,6.8 30,27.1 30,56 c 0,13.8 14.4,81.4 14.4,81.4 0.9,4 4.8,6.7 8.9,6.1 0.9,-0.2 1.8,-0.5 2.5,-0.9 h 0.6 c 1.4,0.8 3.1,1.2 4.9,1 1.4,-0.2 2.7,-0.7 3.8,-1.5 l 1.8,-0.1 c 1.4,1.1 3.3,1.8 5.3,1.7 2,-0.1 3.8,-1 5.1,-2.3 l 3.1,-0.2 c 1.4,1.5 3.3,2.4 5.5,2.5 2.3,0.1 4.4,-0.9 5.9,-2.4 l 3.2,0.2 c 1.2,1.2 2.8,2 4.6,2.2 2.1,0.2 4.1,-0.4 5.7,-1.6 l 1.9,0.1 c 0.9,0.7 2,1.2 3.2,1.4 1.7,0.3 3.3,0 4.8,-0.7 0.6,0.3 1.3,0.5 2,0.6 4.1,0.7 8,-2 8.9,-6.1 0,0 14.4,-67.5 14.4,-81.4 0,-28.9 -23,-49.2 -55.2,-49.2 z"
   id="path18" />
	<g
   id="g24">
		<circle
   class="st2"
   cx="67.400002"
   cy="51"
   r="24.6"
   id="circle20" />
		<path
   class="st0"
   d="m 67.4,77 c -14.3,0 -26,-11.7 -26,-26 0,-14.3 11.7,-26 26,-26 14.3,0 26,11.7 26,26 0,14.3 -11.7,26 -26,26 z m 0,-49.3 C 54.6,27.7 44.1,38.2 44.1,51 44.1,63.8 54.6,74.3 67.4,74.3 80.2,74.3 90.7,63.8 90.7,51 90.7,38.2 80.3,27.7 67.4,27.7 Z"
   id="path22" />
	</g>
	<path
   class="st0"
   d="M 72.5,34.8 C 68.3,35.7 67.4,45 70,47.6 c 1.7,1.7 5.1,2.2 5.1,3.4 0,1.2 -3.4,1.7 -5.1,3.4 -2.5,2.5 -1.7,11.9 2.5,12.7 5.1,1 12.7,-5.1 12.7,-16.1 0,-11 -7.6,-17.2 -12.7,-16.2 z"
   id="path26" />
	<path
   class="st2"
   d="m 55.3,84.6 c 0.8,2.5 3.6,7.4 7,6.5 1.6,-0.4 2.5,-2.5 2.5,-5.9"
   id="path28" />
	<path
   class="st2"
   d="m 77.6,82.4 c 0.8,3.4 1.7,5.9 4.2,5.9 2.5,0 5.9,-3.4 5.1,-9.3"
   id="path30" />
	<path
   class="st0"
   d="m 99,70.7 c -1.1,-1.2 -2.6,-2 -4.2,-2.3 v 0 c 0,0 -0.1,0 -0.1,0 -0.7,-0.1 -1.4,0.5 -1.4,1.2 0,0.7 0.5,1.4 1.2,1.4 0.7,0.1 1.4,0.3 2.1,0.6 -6.6,4.4 -14,7.7 -21.6,9.5 -8,1.9 -16.3,2.3 -24.4,1.1 -0.6,-0.1 -1.2,0.3 -1.3,0.9 -0.1,0.6 0.3,1.2 0.9,1.3 1.3,0.2 2.5,0.3 3.8,0.5 0,0 0,0.1 0,0.1 1.1,3.2 3.9,7.6 7.5,7.6 0.4,0 0.7,0 1.1,-0.1 1.3,-0.3 3.6,-1.7 3.6,-7.2 0,-0.1 0,-0.2 0,-0.2 3.2,-0.3 6.3,-0.7 9.4,-1.5 0.3,-0.1 0.6,-0.2 0.9,-0.2 0.7,2.9 1.8,6.5 5.4,6.5 1.5,0 3.1,-0.8 4.3,-2.2 1,-1.2 2.7,-3.9 2.1,-8.3 3.5,-1.6 6.9,-3.5 10.2,-5.7 0.3,0.5 0.6,1.1 0.7,1.7 v 0 c 0.1,0.4 0.5,0.7 1,0.7 0.5,0 0.9,-0.5 0.8,-1 -0.2,-1.7 -0.9,-3.2 -2,-4.4 z M 63.5,85.2 c 0,2.6 -0.6,4.4 -1.5,4.6 -2,0.5 -4,-2.5 -5,-4.7 2.1,0.1 4.3,0.1 6.5,0.1 0,-0.1 0,-0.1 0,0 z m 20.6,0.5 c -0.7,0.8 -1.6,1.3 -2.3,1.3 -1.3,0 -1.9,-1.1 -2.8,-4.5 2.3,-0.6 4.5,-1.4 6.7,-2.3 0.1,2.3 -0.4,4.2 -1.6,5.5 z"
   id="path32" />
	<g
   id="g36">
		<path
   class="st0"
   d="M 126.4,19.7 C 116.2,10.6 101.7,5.6 85.8,5.6 c -16,0 -30.4,5 -40.6,14.1 -10.3,9.2 -16,22.1 -16,36.5 0,13.8 13.8,78.9 14.4,81.7 1,4.3 4.7,7.2 9,7.2 0.5,0 1,0 1.5,-0.1 0.9,-0.1 1.7,-0.4 2.5,-0.8 1.7,0.8 3.7,1.1 5.6,0.7 1.4,-0.3 2.8,-0.9 3.9,-1.8 1,0.8 2.1,1.4 3.4,1.7 2,0.5 4.2,0.3 6.1,-0.5 1.3,-0.6 2.5,-1.5 3.4,-2.6 0.7,0.8 1.5,1.6 2.4,2.1 0.7,0.4 1.5,0.8 2.3,1 0.8,0.2 1.7,0.3 2.5,0.3 0.8,0 1.7,-0.1 2.5,-0.3 0.8,-0.3 1.6,-0.6 2.3,-1 0.7,-0.4 1.4,-1 1.9,-1.6 0.2,-0.2 0.3,-0.3 0.4,-0.5 0,0 0,0 0,0 1.4,1.8 3.5,3 5.8,3.3 2.2,0.4 4.6,-0.2 6.5,-1.5 0.2,-0.1 0.4,-0.3 0.5,-0.4 1.1,0.9 2.4,1.5 3.7,1.8 1,0.2 1.9,0.3 2.9,0.1 0.9,-0.1 1.7,-0.3 2.5,-0.7 0.7,0.3 1.4,0.5 2.2,0.7 4.8,0.8 9.4,-2.3 10.5,-7.1 0.6,-2.8 14.4,-67.8 14.4,-81.6 0,-14.4 -5.6,-27.4 -15.9,-36.6 z m -1.1,117.6 c -0.7,3.3 -3.8,5.4 -7.1,5.1 0.6,-0.6 1.2,-1.3 1.6,-2.1 0.5,-0.9 0.8,-1.8 1,-2.7 l 0.4,-2.5 1.6,-9.9 c 0.5,-3.3 1,-6.6 1.5,-9.9 0.1,-0.5 -0.2,-0.9 -0.7,-1 -0.5,-0.1 -1,0.2 -1.1,0.7 -0.7,3.3 -1.4,6.5 -2,9.8 l -1.9,9.8 -0.5,2.4 c -0.1,0.7 -0.4,1.3 -0.7,1.9 -0.3,0.6 -0.8,1.1 -1.3,1.6 -0.5,0.5 -1.1,0.9 -1.7,1.1 -0.6,0.3 -1.3,0.5 -2,0.5 -0.7,0.1 -1.4,0 -2,-0.1 -0.9,-0.2 -1.7,-0.5 -2.4,-1 0.6,-0.9 1.1,-2 1.4,-3.1 0.1,-0.3 0.1,-0.6 0.2,-0.8 0,-0.1 0,-0.3 0.1,-0.4 v -0.4 l 0.1,-1.4 0.3,-2.9 0.6,-5.8 c 0.4,-3.9 0.7,-7.7 1,-11.6 0,-0.5 -0.3,-0.9 -0.8,-1 -0.5,-0.1 -0.9,0.3 -1,0.8 -0.6,3.8 -1.1,7.7 -1.6,11.5 l -0.7,5.8 -0.4,2.9 c -0.1,0.9 -0.2,2 -0.4,2.7 -0.4,1.6 -1.4,2.9 -2.7,3.8 -1.3,0.9 -3,1.2 -4.6,1 -1.6,-0.2 -3,-1.1 -4.1,-2.3 -0.2,-0.3 -0.5,-0.6 -0.7,-1 0.1,-0.4 0.2,-0.8 0.3,-1.2 0.2,-0.8 0.2,-1.7 0.2,-2.4 l 0.1,-4.3 c 0.1,-2.9 0.1,-5.7 0.1,-8.6 0,-2.9 0,-5.7 0,-8.6 0,-0.5 -0.4,-0.9 -0.8,-0.9 -0.5,0 -0.9,0.3 -0.9,0.8 -0.2,2.8 -0.3,5.7 -0.5,8.5 -0.1,2.8 -0.3,5.7 -0.4,8.5 l -0.2,4.3 c 0,0.3 0,0.7 -0.1,1 0,0.3 -0.1,0.6 -0.1,0.9 -0.1,0.6 -0.3,1.1 -0.6,1.7 -1.1,2.1 -3.4,3.5 -5.8,3.4 -0.6,0 -1.2,-0.1 -1.7,-0.2 -0.6,-0.1 -1.1,-0.4 -1.6,-0.7 -1,-0.6 -1.8,-1.5 -2.4,-2.5 -0.3,-0.5 -0.5,-1.1 -0.6,-1.6 -0.1,-0.6 -0.2,-1.1 -0.2,-1.9 l -0.2,-4.3 c -0.1,-2.8 -0.2,-5.7 -0.4,-8.5 -0.1,-2.8 -0.3,-5.7 -0.5,-8.5 0,-0.5 -0.4,-0.8 -0.9,-0.8 -0.5,0 -0.9,0.4 -0.9,0.9 0,2.9 0,5.7 0,8.6 0,2.9 0.1,5.7 0.1,8.6 l 0.1,4.3 c 0,0.7 0,1.6 0.2,2.4 0.1,0.4 0.2,0.8 0.4,1.3 -0.7,1.2 -1.8,2.2 -3,2.7 -1.3,0.6 -2.8,0.7 -4.2,0.4 -1.4,-0.4 -2.7,-1.2 -3.6,-2.4 -0.4,-0.6 -0.8,-1.2 -1,-1.9 -0.1,-0.3 -0.2,-0.7 -0.3,-1.1 0,-0.2 -0.1,-0.4 -0.1,-0.6 l -0.1,-0.7 -1.3,-10.5 c -0.5,-3.5 -0.9,-7 -1.5,-10.5 -0.1,-0.5 -0.5,-0.8 -0.9,-0.8 -0.5,0 -0.9,0.5 -0.8,1 0.3,3.5 0.6,7 0.9,10.5 l 1,10.5 0.1,0.7 c 0,0.2 0,0.4 0.1,0.7 0.1,0.5 0.2,1 0.3,1.5 0.3,0.9 0.7,1.7 1.2,2.4 -0.8,0.5 -1.6,0.9 -2.6,1.1 -1.3,0.2 -2.7,0.1 -4,-0.5 -1.2,-0.6 -2.3,-1.6 -2.9,-2.8 -0.3,-0.6 -0.6,-1.2 -0.7,-1.9 l -0.5,-2.4 -1.9,-9.7 c -0.7,-3.2 -1.3,-6.5 -2,-9.7 -0.1,-0.4 -0.5,-0.8 -1,-0.7 -0.5,0.1 -0.8,0.5 -0.8,1 0.4,3.3 0.9,6.6 1.5,9.8 l 1.6,9.8 0.4,2.4 c 0.2,1 0.5,1.9 0.9,2.7 0.4,0.8 1,1.5 1.6,2.1 -0.1,0 -0.2,0.1 -0.3,0.1 -3.4,0.6 -6.7,-1.6 -7.4,-5 C 46,136.5 31.7,69.6 31.7,56.1 31.7,42.5 37,30.3 46.8,21.6 56.7,13 70.5,8.3 85.8,8.3 c 15.3,0 29.1,4.8 38.8,13.5 9.7,8.7 15.1,20.9 15.1,34.5 0,13.4 -14.3,80.3 -14.4,81 z"
   id="path34" />
	</g>
</g>
</svg>
