<?xml version="1.0" encoding="UTF-8" standalone="no"?>
<!-- Created with Inkscape (http://www.inkscape.org/) -->

<svg
   version="1.1"
   id="svg2"
   xml:space="preserve"
   width="695.74396"
   height="158.62415"
   viewBox="0 0 695.74396 158.62415"
   sodipodi:docname="Snowflake_logo.svg"
   inkscape:version="1.1.1 (3bf5ae0d25, 2021-09-20)"
   xmlns:inkscape="http://www.inkscape.org/namespaces/inkscape"
   xmlns:sodipodi="http://sodipodi.sourceforge.net/DTD/sodipodi-0.dtd"
   xmlns="http://www.w3.org/2000/svg"
   xmlns:svg="http://www.w3.org/2000/svg"><defs
     id="defs6"><clipPath
       clipPathUnits="userSpaceOnUse"
       id="clipPath18"><path
         d="m 3327.82,858.551 -0.14,0.094 c 0,0 -0.09,0.05 -0.19,0.05 -3.54,1.559 -7.42,2.36 -11.16,2.36 -6.05,-0.043 -11.86,-1.844 -16.92,-5.008 -5.15,-3.266 -9.51,-8.035 -12.02,-13.996 v -0.145 l -118.09,-323.179 -91,216.613 -0.15,0.105 c -2.55,6.051 -7.13,10.727 -12.33,13.985 -5.26,3.265 -11.31,5.062 -17.69,5.062 -6.19,0 -11.96,-1.933 -17.06,-5.105 -5.02,-3.258 -9.55,-7.891 -12.11,-13.942 l -0.05,-0.105 -91.2,-216.762 L 2809,841.625 h -0.09 c -2.08,6.238 -6.29,11.113 -11.3,14.328 -5.11,3.258 -11.07,5.059 -17.21,5.102 -3.93,0 -7.89,-0.801 -11.64,-2.36 h -0.18 l -0.14,-0.144 c -11.06,-5.156 -17.83,-16.219 -17.87,-28.274 0,-3.785 0.75,-7.562 2.22,-11.3 h -0.05 l 146.04,-392.114 v -0.144 c 1.13,-2.922 2.74,-5.813 5.11,-8.653 1.69,-2.031 4.2,-3.734 6.81,-5.152 0.47,-0.473 1.23,-1.129 2.35,-1.84 1.24,-0.761 2.8,-1.281 4.41,-1.562 2.59,-0.856 6.05,-2.121 10.68,-2.121 5.9,0 11.39,2.121 16.31,5.293 4.59,3.066 8.7,7.66 10.96,13.609 l 0.38,0.289 92.34,220.738 92.48,-219.84 h 0.09 c 2.13,-5.863 5.86,-10.457 10.21,-13.71 4.59,-3.457 9.73,-5.586 15.18,-6.379 h 3.87 c 3.7,0 7.29,0.699 10.31,1.879 3.16,1.234 5.72,2.839 7.84,4.445 4.97,3.789 8.8,8.988 11.17,14.758 v 0.136 l 145.09,390.368 c 1.42,3.738 2.17,7.472 2.17,11.25 -0.04,11.961 -7.09,23.359 -18.72,28.324 z M 2660.27,634.695 c 0,46.043 -17.68,87.746 -45.81,117.864 -28.27,30.164 -66.57,48.601 -108.17,48.601 -41.61,0 -80,-18.437 -108.22,-48.601 -28.18,-30.118 -45.86,-71.821 -45.86,-117.864 0,-46.004 17.68,-87.32 45.86,-117.242 28.22,-30.027 66.61,-48.183 108.22,-48.183 41.6,0 80.03,18.156 108.17,48.183 28.13,29.922 45.81,71.238 45.81,117.242 z m -0.81,159.84 c 39.06,-41.41 62.79,-98.238 62.88,-159.84 -0.09,-61.605 -23.82,-118.382 -62.88,-159.8 -38.76,-41.372 -92.89,-67.512 -153.08,-67.512 -59.71,0 -113.94,26.14 -152.84,67.512 -38.97,41.418 -63.07,98.195 -63.07,159.8 0,61.602 24.1,118.43 63.07,159.84 38.9,41.328 93.13,67.469 152.84,67.469 60.19,0 114.32,-26.141 153.08,-67.469 z m -614.84,66.668 c -48.41,0 -92.61,-18.871 -125.61,-48.98 v 18.004 c -0.05,8.277 -3.12,15.988 -8.51,21.656 -5.25,5.582 -13.01,9.32 -21.52,9.32 -8.79,0 -16.73,-3.551 -22.26,-9.269 -5.43,-5.625 -8.7,-13.43 -8.7,-21.707 V 428.984 l 1.27,-1.273 0.05,-0.188 c 0.34,-1.324 1.18,-2.785 2.08,-4.207 4.21,-7.418 11.11,-13.054 19.67,-15.55 l 1.23,-0.383 h 6.66 c 4.45,0 8.94,0.949 13.2,2.93 3.54,1.703 6.85,4.445 9.5,7.945 l 0.1,-0.043 c 0.32,0.324 0.42,0.75 0.8,1.086 0.14,0.043 0.28,0.187 0.38,0.332 1.65,2.121 3.02,4.301 3.88,6.328 0.89,2.418 1.46,4.684 1.89,6.434 l 0.28,1.128 v 240.934 c 0.9,34.461 15.08,65.621 37.82,88.266 22.6,22.64 53.56,36.632 87.79,36.632 34.81,0 65.85,-13.992 88.36,-36.632 22.6,-22.559 36.31,-53.66 36.31,-87.942 v -236.57 c 0,-8.652 3.69,-16.645 9.27,-22.125 5.72,-5.481 13.51,-8.703 21.65,-8.703 8.27,0 16.03,3.222 21.7,8.703 5.77,5.48 9.27,13.473 9.27,22.125 v 236.57 c 0,102.117 -83.4,186.274 -186.56,186.422 z M 5092.26,678.566 c -17.59,71.344 -80.24,122.168 -151.71,122.024 -73.29,0 -135.07,-49.738 -154.22,-122.024 z M 5160,649.348 v -3.071 c 0,-8.558 -3.83,-16.261 -9.63,-21.32 -5.78,-5.105 -13.3,-7.754 -21.38,-7.848 h -346.96 c 8.84,-84.671 76.43,-147.183 157.14,-147.839 h 20.47 c 26.71,-0.094 52.72,9.121 75.6,24.398 22.92,15.125 42.74,36.258 56.68,59.52 2.88,4.964 7.01,8.746 11.49,11.062 4.59,2.504 9.51,3.641 14.47,3.641 5.48,0 10.92,-1.418 15.69,-4.301 l 0.34,-0.145 0.38,-0.281 c 8.69,-6.387 14.14,-16.125 14.14,-26.812 0,-5.434 -1.42,-10.965 -4.41,-15.977 l -0.08,-0.187 -0.11,-0.094 c -19.38,-30.828 -45.81,-58.957 -77.19,-79.336 -31.45,-20.426 -67.9,-33.375 -107,-33.375 h -20.8 c -60.89,0.426 -115.92,26.14 -155.59,67.281 -39.57,40.984 -63.96,97.297 -63.96,159.176 0,62.93 24.59,120.035 64.48,161.363 39.91,41.266 95.36,66.801 156.78,66.801 58.62,0 111.28,-23.313 150.29,-61.469 39,-38.144 64.48,-91.14 69.02,-150.762 z M 3736.82,1048.75 c -8.46,0 -16.22,-3.55 -21.79,-9.13 -5.58,-5.53 -9.13,-13.33 -9.13,-21.79 V 438.211 c 0,-8.465 3.55,-16.219 9.13,-21.707 5.57,-5.481 13.33,-9.121 21.79,-9.121 17.54,0 31.72,13.805 31.82,30.828 v 579.619 c -0.1,17.06 -14.28,30.92 -31.82,30.92 z M 1714.96,645.758 c -24.96,11.769 -53.29,20.465 -81.55,29.836 -26.01,8.785 -52.39,16.258 -71.21,26.09 -9.45,5.062 -16.83,10.406 -21.6,16.406 -4.87,6 -7.23,12.105 -7.38,20.422 0.05,11.398 3.36,20.57 8.94,28.699 8.46,12.148 22.64,21.605 38.15,27.711 15.32,6.137 31.92,9.027 43.78,9.027 35.08,-0.051 57.25,-11.73 74.28,-23.828 8.41,-6.101 15.51,-12.293 22.22,-17.398 3.45,-2.649 6.66,-5.059 10.4,-6.856 3.54,-1.75 7.7,-3.172 12.24,-3.172 2.88,0 5.77,0.524 8.41,1.66 2.79,1.129 5.21,2.735 7.53,4.727 2.26,2.121 4.21,4.676 5.57,7.516 1.23,2.933 1.8,5.957 1.8,8.933 0,5.489 -1.75,10.637 -4.26,15.465 -4.68,8.508 -11.87,16.637 -21.03,24.766 -13.62,12.105 -31.58,23.64 -50.92,32.343 -19.39,8.692 -40.19,14.61 -60,14.61 -45.9,0 -84.25,-10.406 -112.09,-29.555 -14.52,-10.019 -27.28,-20.988 -36.31,-36.121 -9.18,-15.172 -14.28,-33.894 -14.95,-58.242 -0.04,-1.086 -0.04,-2.172 -0.04,-3.258 -0.09,-23.641 7.52,-43.121 19.48,-58.391 18.15,-22.98 45.1,-36.734 71.54,-46.472 26.38,-9.738 52.75,-15.559 69.4,-21.133 23.44,-7.805 48.36,-16.262 66.51,-27.469 9.04,-5.719 16.36,-11.867 21.33,-18.629 4.82,-6.949 7.56,-14.132 7.66,-23.211 v -0.668 c -0.05,-13.136 -3.93,-23.449 -10.31,-32.289 -9.64,-13.14 -25.67,-22.781 -42.69,-28.886 -16.97,-5.95 -34.61,-8.465 -45.96,-8.465 -40.04,0 -66.84,9.652 -86.27,19.34 -9.75,4.871 -17.64,9.695 -24.78,13.761 -3.55,1.942 -6.85,3.739 -10.35,5.157 -3.41,1.41 -7.05,2.316 -11.16,2.316 -2.5,0 -5.25,-0.426 -7.76,-1.418 -2.55,-1.094 -4.87,-2.609 -6.81,-4.445 -2.69,-2.61 -5.05,-5.532 -6.71,-8.891 -1.6,-3.359 -2.41,-6.898 -2.41,-10.594 0,-6.05 2.27,-11.582 5.49,-16.593 5.05,-7.231 12.48,-13.711 21.74,-20.184 9.55,-6.387 20.94,-12.672 34.08,-18.867 29.13,-13.758 66.49,-20.945 94.85,-21.418 h 0.09 c 44.12,0 82.22,10.168 114.32,33.805 v 0.05 h 0.05 c 31.39,23.641 50.91,58.766 50.91,98.426 0,21.801 -5.1,40.285 -14.04,55.414 -13.47,22.93 -35.36,38.055 -60.18,49.973 z m 2488.11,-11.063 c 0,46.473 -17.55,88.121 -45.58,118.188 -28,29.976 -66.42,48.176 -108.46,48.269 -41.69,0 -79.99,-18.293 -108.26,-48.269 -28.08,-30.067 -45.86,-71.715 -45.86,-118.188 0,-46.433 17.78,-87.8 45.86,-117.629 28.13,-29.836 66.57,-47.796 108.26,-47.796 42.13,0 80.57,17.96 108.56,47.703 27.93,29.922 45.48,71.246 45.48,117.722 z m 52.57,218.7 c 5.72,-5.532 9.26,-13.524 9.26,-22.168 V 438.211 c 0,-8.465 -3.63,-16.219 -9.07,-21.707 -5.59,-5.481 -13.29,-9.121 -21.8,-9.121 -8.5,0 -16.31,3.64 -21.8,9.121 -5.57,5.488 -9.16,13.242 -9.16,21.707 v 38.34 c -38.92,-42.035 -93.56,-69.168 -154.04,-69.168 -60.18,0 -114.36,25.859 -153.17,67.281 -38.95,41.223 -62.78,98.004 -62.78,160.031 0,62.024 23.83,118.856 62.78,160.121 38.81,41.372 92.99,67.188 153.17,67.188 60.43,0 115.12,-26.34 154.04,-68.18 v 37.403 c 0,8.644 3.55,16.636 9.27,22.168 5.71,5.437 13.42,8.609 21.69,8.609 8.18,0 15.98,-3.172 21.61,-8.609 z m 436.51,-39.856 c 6.15,6.106 9.5,14.191 9.5,22.219 0,7.902 -3.35,15.801 -9.55,21.519 h 0.05 c -0.05,0.188 -0.19,0.188 -0.19,0.188 -0.05,0.137 -0.14,0.187 -0.14,0.187 h -0.1 c -5.95,5.868 -13.61,9.082 -21.51,9.082 -7.99,0 -15.78,-3.32 -21.75,-9.269 L 4406.73,621.879 v 395.951 c 0,17.06 -14.27,30.92 -31.82,30.92 -8.45,0 -16.21,-3.55 -21.74,-9.13 -5.49,-5.53 -9.17,-13.33 -9.17,-21.79 V 438.211 c 0,-8.465 3.68,-16.219 9.17,-21.707 5.53,-5.481 13.29,-9.121 21.74,-9.121 17.55,0 31.82,13.805 31.82,30.828 v 95.637 l 78.72,78.625 160.47,-193.602 c 3.02,-4.445 7.14,-7.516 11.2,-9.121 4.63,-1.754 9.13,-2.367 13.14,-2.367 5.53,0 13.33,1.18 20.19,6.574 l 0.38,0.231 0.42,0.425 c 6.43,6.336 10.07,14.758 10.07,23.356 0,7.234 -2.69,14.613 -7.66,20.519 v 0.094 l -163.34,198.57 161.69,156.387 z M 3609.27,1047.38 h -6.91 c -0.9,0 -1.8,-0.1 -2.74,-0.14 -0.85,0.04 -1.75,0.14 -2.65,0.14 -17.82,0 -35.13,-2.03 -51.3,-7.43 -15.93,-5.29 -30.63,-14.03 -42.03,-27.33 l -0.04,0.06 -0.05,-0.06 v -0.04 c -11.76,-13.096 -19.53,-28.744 -24.25,-46.525 -4.73,-17.867 -6.67,-38.008 -6.85,-60.887 v -44.309 h -48.84 c -16.97,-0.093 -30.45,-13.66 -30.45,-30.066 -0.09,-8.84 3.35,-16.969 8.93,-22.836 5.63,-5.769 13.33,-9.547 21.89,-10.019 h 48.47 V 437.449 l -0.06,-0.847 c 0,-8.461 3.55,-16.258 9.27,-21.844 5.67,-5.488 13.62,-8.742 22.27,-8.742 16.45,0.093 29.97,13.515 30.02,30.586 v 361.336 h 52.52 c 8.47,0.472 16.26,4.019 21.85,9.738 5.72,5.719 9.22,13.754 9.22,22.457 v 1.18 c -0.2,16.218 -13.76,29.546 -30.73,29.546 h -52.86 v 44.121 c 0.33,19.52 2.37,34.129 5.29,44.766 2.84,10.684 6.72,17.402 10.22,21.559 3.4,3.695 7.84,6.761 15.08,9.226 7.28,2.36 17.35,3.871 30.97,3.871 h 1.61 c 0.8,0 1.65,0.145 2.4,0.145 0.96,0 1.85,-0.145 2.84,-0.145 h 3.97 2.94 c 17.44,0 31.48,14.09 31.48,31.488 0,17.4 -14.04,31.49 -31.48,31.49 z M 495.441,614.227 c 2.504,7.898 3.547,16.031 3.36,24.066 -0.289,5.812 -1.043,11.625 -2.692,17.441 -4.968,18.063 -16.738,34.188 -34.375,44.352 L 210.879,844.941 c -35.41,20.379 -80.559,8.266 -100.891,-27.093 -20.5153,-35.317 -8.41,-80.41 27,-100.844 l 140.18,-81.078 -140.18,-80.84 c -35.41,-20.477 -47.4724,-65.574 -27,-101.035 20.332,-35.266 65.481,-47.328 100.891,-26.946 l 250.855,144.95 c 16.926,9.738 28.414,25.015 33.707,42.172 z M 563.52,478.492 c -14.415,1.231 -29.403,-1.793 -42.875,-9.64 L 269.602,324.09 c -35.317,-20.426 -47.379,-65.762 -27,-101.129 20.476,-35.273 65.582,-47.422 100.847,-26.902 l 140.649,81.129 V 115.07 c 0,-40.8473 33.043,-73.9411 73.941,-73.9411 40.703,0 73.848,33.0938 73.848,73.9411 v 289.817 c 0,38.906 -30.164,70.871 -68.367,73.605 z m 257.093,314.965 c 14.371,-1.18 29.317,1.891 42.789,9.645 L 1114.39,948 c 35.37,20.434 47.38,65.58 27.05,101.03 -20.38,35.32 -65.53,47.42 -100.85,27 L 900.043,994.805 v 162.165 c 0,40.75 -33.051,73.84 -73.941,73.84 -40.899,0 -73.856,-33.09 -73.856,-73.84 V 867.16 c 0,-38.863 30.078,-70.871 68.367,-73.703 z M 269.602,948 520.645,803.102 c 13.472,-7.754 28.46,-10.825 42.875,-9.645 38.203,2.832 68.367,34.84 68.367,73.703 v 289.81 c 0,40.75 -33.145,73.84 -73.848,73.84 -40.898,0 -73.941,-33.09 -73.941,-73.84 V 994.805 l -140.649,81.225 c -35.265,20.42 -80.371,8.32 -100.847,-27 -20.379,-35.45 -8.317,-80.596 27,-101.03 z M 741.375,636.539 c 0,4.207 -2.551,10.07 -5.523,13.191 l -30.215,30.067 c -2.973,2.976 -8.84,5.437 -13.055,5.437 h -1.18 c -4.203,0 -10.062,-2.461 -12.992,-5.437 L 648.195,649.73 c -3.023,-3.121 -5.34,-8.984 -5.34,-13.191 v -1.18 c 0,-4.164 2.317,-9.976 5.34,-13.004 l 30.215,-30.16 c 2.973,-2.972 8.789,-5.437 12.992,-5.437 h 1.18 c 4.215,0 10.082,2.465 13.055,5.437 l 30.215,30.16 c 2.972,3.028 5.523,8.84 5.523,13.004 z m 83.402,-28.93 -104.339,-104.203 c -2.985,-3.07 -8.747,-5.574 -13.098,-5.574 h -7.567 -15.414 -7.703 c -4.215,0 -10.07,2.504 -13.097,5.574 L 559.27,607.609 c -2.985,2.934 -5.395,8.84 -5.395,12.996 v 7.711 15.414 7.61 c 0,4.258 2.41,10.164 5.395,13.137 l 104.289,104.207 c 3.027,3.07 8.882,5.48 13.097,5.48 h 7.703 15.414 7.567 c 4.258,0 10.113,-2.41 13.098,-5.48 L 824.777,664.477 c 2.977,-2.973 5.387,-8.879 5.387,-13.137 v -7.61 -15.414 -7.711 c 0,-4.156 -2.41,-10.062 -5.387,-12.996 z M 1114.39,324.09 863.402,468.852 c -13.472,7.847 -28.418,10.871 -42.789,9.64 -38.289,-2.734 -68.367,-34.699 -68.367,-73.605 V 115.07 c 0,-40.8473 32.957,-73.9411 73.856,-73.9411 40.89,0 73.941,33.0938 73.941,73.9411 v 162.118 l 140.547,-81.129 c 35.32,-20.52 80.47,-8.371 100.85,26.902 20.33,35.367 8.32,80.703 -27.05,101.129 z m 132.71,392.914 -140.18,-81.078 140.18,-80.84 c 35.41,-20.477 47.52,-65.574 27.04,-101.035 -20.42,-35.266 -65.61,-47.328 -100.89,-26.946 l -251.039,144.95 c -16.738,9.738 -28.363,25.015 -33.52,42.172 -2.453,7.898 -3.589,16.031 -3.308,24.066 0.144,5.812 0.992,11.625 2.597,17.441 5.02,18.063 16.793,34.176 34.231,44.352 l 251.039,144.855 c 35.28,20.379 80.47,8.266 100.89,-27.093 20.48,-35.317 8.37,-80.41 -27.04,-100.844 z m 4070.98,144.598 c 0,-40.641 -27.2,-74.563 -72.64,-74.563 -45.12,0 -72,34.242 -72,74.563 0,40.636 26.88,74.558 72,74.558 45.44,0 72.64,-33.922 72.64,-74.558 z m -14.4,0 c 0,34.558 -23.04,60.796 -58.24,60.796 -34.56,0 -57.6,-24.957 -57.6,-60.796 0,-34.243 23.04,-60.801 57.6,-60.801 35.2,0 58.24,26.238 58.24,60.801 z m -86.72,33.597 H 5248 c 16.96,0 28.16,-9.277 28.16,-23.679 0,-8.961 -4.48,-15.68 -11.2,-19.84 l 12.16,-17.602 v -3.519 h -17.6 l -11.84,16.961 h -13.76 v -16.961 h -16.96 z m 30.72,-15.679 h -13.76 v -16.961 h 13.76 c 6.4,0 10.56,2.882 10.56,8.32 0,5.762 -3.84,8.641 -10.56,8.641 z"
         clip-rule="evenodd"
         id="path16" /></clipPath><clipPath
       clipPathUnits="userSpaceOnUse"
       id="clipPath24"><path
         d="M 0,0 H 5460 V 1300 H 0 Z"
         id="path22" /></clipPath></defs><sodipodi:namedview
     id="namedview4"
     pagecolor="#ffffff"
     bordercolor="#666666"
     borderopacity="1.0"
     inkscape:pageshadow="2"
     inkscape:pageopacity="0.0"
     inkscape:pagecheckerboard="0"
     showgrid="false"
     fit-margin-top="0"
     fit-margin-left="0"
     fit-margin-right="0"
     fit-margin-bottom="0"
     inkscape:zoom="0.78030303"
     inkscape:cx="369.72816"
     inkscape:cy="125.59223"
     inkscape:window-width="1920"
     inkscape:window-height="1010"
     inkscape:window-x="-6"
     inkscape:window-y="-6"
     inkscape:window-maximized="1"
     inkscape:current-layer="g8" /><g
     id="g8"
     inkscape:groupmode="layer"
     inkscape:label="Snowflake_logo"
     transform="matrix(1.3333333,0,0,-1.3333333,-13.333362,164.108)"><g
       id="g10"
       transform="scale(0.1)"><g
         id="g12"><g
           id="g14"
           clip-path="url(#clipPath18)"><g
             id="g20"
             clip-path="url(#clipPath24)"><path
               d="m 0,-58.8711 h 5418.08 v 1389.68 H 0 Z"
               style="fill:#24b5e9;fill-opacity:1;fill-rule:nonzero;stroke:none"
               id="path26" /></g></g></g></g></g></svg>
