<?xml version="1.0" encoding="UTF-8" standalone="no"?>
<!-- Generator: Adobe Illustrator 19.2.1, SVG Export Plug-In . SVG Version: 6.00 Build 0)  -->

<svg
   version="1.1"
   id="layer"
   x="0px"
   y="0px"
   viewBox="0 0 599.70001 201.5"
   xml:space="preserve"
   sodipodi:docname="red-hat-openshift-vector-logo-2022.svg"
   width="599.70001"
   height="201.5"
   inkscape:version="1.1.1 (3bf5ae0d25, 2021-09-20)"
   xmlns:inkscape="http://www.inkscape.org/namespaces/inkscape"
   xmlns:sodipodi="http://sodipodi.sourceforge.net/DTD/sodipodi-0.dtd"
   xmlns="http://www.w3.org/2000/svg"
   xmlns:svg="http://www.w3.org/2000/svg"><defs
   id="defs13" /><sodipodi:namedview
   id="namedview11"
   pagecolor="#ffffff"
   bordercolor="#666666"
   borderopacity="1.0"
   inkscape:pageshadow="2"
   inkscape:pageopacity="0.0"
   inkscape:pagecheckerboard="0"
   showgrid="false"
   fit-margin-top="0"
   fit-margin-left="0"
   fit-margin-right="0"
   fit-margin-bottom="0"
   inkscape:zoom="1.2638037"
   inkscape:cx="303.44903"
   inkscape:cy="106.02913"
   inkscape:window-width="1920"
   inkscape:window-height="1010"
   inkscape:window-x="-6"
   inkscape:window-y="-6"
   inkscape:window-maximized="1"
   inkscape:current-layer="layer" />
<style
   type="text/css"
   id="style2">
	.st0{fill:#EE2435;}
</style>
<path
   class="st0"
   d="m 106.8,70 c 10.5,0 25.8,-2.2 25.8,-14.7 0,-1 0,-1.9 -0.3,-2.9 L 126,25.1 c -1.5,-6 -2.7,-8.7 -13.3,-14 C 104.5,6.9 86.7,0 81.5,0 76.6,0 75.1,6.4 69.3,6.4 63.7,6.4 59.5,1.7 54.2,1.7 c -5.1,0 -8.4,3.5 -10.9,10.5 0,0 -7.1,20 -8,22.9 -0.2,0.5 -0.2,1.2 -0.2,1.6 0.2,7.8 30.8,33.3 71.7,33.3 m 27.5,-9.6 c 1.5,6.9 1.5,7.6 1.5,8.5 0,11.8 -13.3,18.3 -30.7,18.3 -39.4,0 -73.9,-23.1 -73.9,-38.3 0,-2.4 0.5,-4.5 1.3,-6.2 C 18.3,43.4 0,46 0,62.1 c 0,26.5 62.8,59.2 112.6,59.2 38.1,0 47.8,-17.3 47.8,-30.9 -0.2,-10.6 -9.4,-22.7 -26.1,-30"
   id="path4" />
<path
   d="m 134.3,60.4 c 1.5,6.9 1.5,7.6 1.5,8.5 0,11.8 -13.3,18.3 -30.7,18.3 -39.4,0 -73.9,-23.1 -73.9,-38.3 0,-2.4 0.5,-4.5 1.3,-6.2 l 3.1,-7.6 c -0.2,0.5 -0.2,1.2 -0.2,1.6 0,7.8 30.6,33.2 71.6,33.2 10.5,0 25.8,-2.2 25.8,-14.7 0,-1 0,-1.9 -0.3,-2.9 z"
   id="path6" />
<path
   d="m 220.1,184.3 c -17.9,0 -31.9,-13.9 -31.9,-31.6 0,-17.7 14,-31.6 31.9,-31.6 17.9,0 32,13.9 32,31.6 0,17.7 -14.1,31.6 -32,31.6 m 0,-54.7 c -12.7,0 -22.5,10 -22.5,23.1 0,13.1 9.8,23.1 22.5,23.1 12.8,0 22.6,-10.1 22.6,-23.1 0,-13.1 -9.8,-23.1 -22.6,-23.1 m 40.7,9.2 h 8.7 v 4.3 c 3.7,-3.2 8.4,-5 13.7,-5 12.6,0 22.5,10.1 22.5,23 0,13 -9.9,23 -22.7,23 -4.9,0 -9.6,-1.6 -13.4,-4.4 v 21.8 h -8.8 z m 8.8,12.2 v 20.2 c 2.8,3.2 7.4,5.3 12.4,5.3 8.6,0 15.1,-6.6 15.1,-15.3 0,-8.8 -6.6,-15.4 -15.1,-15.4 -5,-0.1 -9.5,1.8 -12.4,5.2 m 66,33.2 c -13.1,0 -23.4,-10.1 -23.4,-23.1 0,-12.9 9.8,-23 22.3,-23 12.3,0 21.6,10.2 21.6,23.3 v 2.5 h -35.2 c 1.2,7.4 7.4,12.8 15.1,12.8 4.4,0 8.5,-1.5 11.3,-3.9 l 5.6,5.5 c -5.2,4 -10.7,5.9 -17.3,5.9 M 321,157.4 h 26.5 c -1.3,-6.8 -6.6,-11.9 -13.1,-11.9 -6.8,-0.1 -12.1,4.8 -13.4,11.9 m 43.4,26 h 8.8 v -32.1 c 2.5,-3.8 6.3,-5.8 11,-5.8 6.7,0 11,4.3 11,11.3 v 26.6 h 8.8 v -28 c 0,-10.3 -7.2,-17.4 -17.4,-17.4 -5.3,0 -9.9,1.8 -13.4,5.3 v -4.5 h -8.8 z m 45.2,-10.2 c 7,7.1 16.5,11 26.3,11 14.6,0 24.4,-7.5 24.4,-18.8 0,-9.6 -5.9,-14.9 -18.8,-17 l -9.9,-1.6 c -7.9,-1.3 -11,-3.7 -11,-8.7 0,-5.4 5.3,-9.1 13.3,-9.1 6.8,0 13.4,2.5 20.1,7.5 l 5.1,-7 c -6.9,-5.3 -15.9,-8.3 -24.7,-8.3 -13.7,0 -22.6,6.9 -22.6,17.6 0,8.9 5.5,14.1 16.7,15.9 l 10.3,1.7 c 8.9,1.5 12.4,4.2 12.4,9.6 0,6 -6,10.3 -14.9,10.3 -7.6,0 -14.5,-3.2 -21.1,-9.6 z m 58.2,10.2 h 8.8 v -32.1 c 2.5,-3.8 6.3,-5.8 11,-5.8 6.7,0 11,4.3 11,11.3 v 26.6 h 8.8 v -28 c 0,-10.3 -7.2,-17.4 -17.4,-17.4 -5.3,0 -9.9,1.8 -13.4,5.3 v -23.1 l -8.8,1.9 z m 48.7,-57.2 c 0,-3 2.4,-5.4 5.3,-5.4 3,0 5.4,2.5 5.4,5.4 0,3 -2.5,5.4 -5.4,5.4 -2.9,0 -5.3,-2.5 -5.3,-5.4 m 9.8,57.2 h -8.8 v -44.6 h 8.8 z m 6.6,-44.6 v 7.4 h 10.3 v 37.2 h 8.8 v -37.2 h 12.7 v -7.4 H 552 v -6.6 c 0,-4.7 2.4,-6.9 7.2,-6.9 2,0 3.4,0.2 5.5,0.8 v -7.6 c -1.8,-0.5 -3.9,-0.8 -6.3,-0.8 -9.8,0 -15.2,5.1 -15.2,14.4 v 6.7 z m 45.1,33.5 c 0,7.7 4.6,11.8 13.3,11.8 2.6,0 6,-0.5 8.3,-1.3 v -7.4 c -2.2,0.8 -3.9,1 -6.4,1 -4.7,0 -6.6,-1.7 -6.6,-6.2 V 146 h 13.1 v -7.4 h -13.1 v -13.5 l -8.7,2.1 v 11.4 h -9.5 v 7.4 h 9.5 v 26.3 z M 487.9,77.9 c 0,10 6,14.9 17,14.9 2.7,0 7.3,-0.6 10,-1.4 V 79.7 c -2.4,0.7 -4.2,1 -6.5,1 -4.5,0 -6.2,-1.4 -6.2,-5.7 V 57.2 h 13.1 v -12 H 502.2 V 30 l -14.4,3.1 v 12.1 h -9.5 v 12 h 9.5 v 20.7 z m -44.6,0.2 c 0,-3.1 3.1,-4.6 7.8,-4.6 3.1,0 5.9,0.4 8.5,1.1 v 6 c -2.7,1.5 -5.8,2.2 -8.9,2.2 -4.7,0 -7.4,-1.8 -7.4,-4.7 m 4.4,14.8 c 5.1,0 9.1,-1.1 12.9,-3.6 v 2.8 h 14.2 v -30 c 0,-11.4 -7.7,-17.7 -20.6,-17.7 -7.2,0 -14.3,1.7 -21.9,5.1 l 5.1,10.5 c 5.5,-2.3 10.1,-3.7 14.2,-3.7 5.9,0 9,2.3 9,7 v 2.3 c -3.4,-0.9 -6.9,-1.3 -10.6,-1.3 -12.1,0 -19.3,5.1 -19.3,14.1 0,8.2 6.5,14.5 17,14.5 M 369.8,92.1 H 385 V 67.8 h 25.5 v 24.3 h 15.2 v -62 H 410.5 V 53.9 H 385 V 30.1 H 369.8 Z M 311.7,68.6 c 0,-6.7 5.3,-11.9 12.3,-11.9 3.9,0 7.4,1.3 9.9,3.6 v 16.4 c -2.6,2.5 -5.9,3.7 -9.9,3.7 -6.9,0.1 -12.3,-5 -12.3,-11.8 m 22.4,23.5 h 14.2 V 27 l -14.4,3.1 v 17.6 c -3.5,-2 -7.6,-3.1 -12,-3.1 -13.6,0 -24.4,10.5 -24.4,24 0,13.5 10.5,24.1 23.9,24.1 4.6,0 9,-1.4 12.6,-4.1 v 3.5 z m -65,-36 c 4.5,0 8.3,2.9 9.8,7.4 h -19.6 c 1.5,-4.6 5,-7.4 9.8,-7.4 m -24.2,12.6 c 0,13.6 11.2,24.3 25.5,24.3 7.9,0 13.6,-2.1 19.6,-7.1 l -9.5,-8.4 c -2.2,2.3 -5.5,3.5 -9.4,3.5 -5.3,0 -9.7,-2.9 -11.5,-7.4 H 293 v -3.5 c 0,-14.9 -10,-25.6 -23.7,-25.6 -13.7,0 -24.4,10.6 -24.4,24.2 M 220.2,43.1 c 5.1,0 7.9,3.2 7.9,7 0,3.8 -2.8,7 -7.9,7 h -15.1 v -14 z m -30.3,49 h 15.2 V 69.5 h 11.6 l 11.7,22.6 h 17 L 231.8,67.3 c 7.4,-3.2 11.7,-9.8 11.7,-17.5 0,-11.2 -8.8,-19.8 -21.9,-19.8 h -31.7 z"
   id="path8" />
</svg>
