<?xml version="1.0" encoding="UTF-8" standalone="no"?>
<!-- Created with Inkscape (http://www.inkscape.org/) -->

<svg
   version="1.1"
   id="svg2"
   xml:space="preserve"
   width="201.18298"
   height="79.682663"
   viewBox="0 0 201.18299 79.682663"
   sodipodi:docname="NGINX-Part-of-F5-horiz-black-type.svg"
   inkscape:version="1.1.1 (3bf5ae0d25, 2021-09-20)"
   xmlns:inkscape="http://www.inkscape.org/namespaces/inkscape"
   xmlns:sodipodi="http://sodipodi.sourceforge.net/DTD/sodipodi-0.dtd"
   xmlns="http://www.w3.org/2000/svg"
   xmlns:svg="http://www.w3.org/2000/svg"><defs
     id="defs6"><clipPath
       clipPathUnits="userSpaceOnUse"
       id="clipPath16"><path
         d="M 0,60.48 H 158.4 V 0 H 0 Z"
         id="path14" /></clipPath></defs><sodipodi:namedview
     id="namedview4"
     pagecolor="#ffffff"
     bordercolor="#666666"
     borderopacity="1.0"
     inkscape:pageshadow="2"
     inkscape:pageopacity="0.0"
     inkscape:pagecheckerboard="0"
     showgrid="false"
     fit-margin-top="0"
     fit-margin-left="0"
     fit-margin-right="0"
     fit-margin-bottom="0"
     inkscape:zoom="5.7954546"
     inkscape:cx="95.850979"
     inkscape:cy="39.858823"
     inkscape:window-width="1920"
     inkscape:window-height="1010"
     inkscape:window-x="-6"
     inkscape:window-y="-6"
     inkscape:window-maximized="1"
     inkscape:current-layer="g8" /><g
     id="g8"
     inkscape:groupmode="layer"
     inkscape:label="NGINX-Part-of-F5-horiz-black-type-CMYK"
     transform="matrix(1.3333333,0,0,-1.3333333,-9.5966161,80.161865)"><g
       id="g10"><g
         id="g12"
         clip-path="url(#clipPath16)"><g
           id="g18"
           transform="translate(113.5724,10.9405)"><path
             d="m 0,0 h -1.281 v 1.756 h 3.027 v 0.786 h -3.861 v -3.319 h 2.077 c 0.741,0 1.167,-0.341 1.167,-0.958 v -0.674 c 0,-0.693 -0.474,-1.082 -1.328,-1.082 -0.817,0 -1.291,0.389 -1.291,1.082 v 0.626 H -2.324 V -2.39 c 0,-1.139 0.853,-1.878 2.125,-1.878 1.3,0 2.153,0.739 2.153,1.878 v 0.636 C 1.954,-0.691 1.187,0 0,0"
             style="fill:#97999c;fill-opacity:1;fill-rule:nonzero;stroke:none"
             id="path20" /></g><g
           id="g22"
           transform="translate(110.5041,12.6968)"><path
             d="m 0,0 v 0.786 h -4.088 v -6.687 h 0.834 v 2.694 h 2.922 v 0.796 H -3.254 V 0 Z"
             style="fill:#97999c;fill-opacity:1;fill-rule:nonzero;stroke:none"
             id="path24" /></g><g
           id="g26"
           transform="translate(102.9997,13.3326)"><path
             d="m 0,0 h 0.417 v 0.768 h -0.512 c -1.091,0 -1.706,-0.673 -1.706,-1.822 v -0.693 h -0.56 v -0.758 h 0.56 v -4.032 h 0.805 v 4.032 h 1.328 v 0.758 H -0.996 V -1.12 C -0.996,-0.323 -0.683,0 0,0"
             style="fill:#97999c;fill-opacity:1;fill-rule:nonzero;stroke:none"
             id="path28" /></g><g
           id="g30"
           transform="translate(92.4792,7.563)"><path
             d="m 0,0 c -0.655,0 -0.978,0.304 -0.978,1.072 v 2.193 h 1.31 v 0.757 h -1.31 V 5.427 H -1.783 V 4.022 H -2.428 V 3.265 h 0.645 V 0.892 c 0,-1.148 0.54,-1.66 1.613,-1.66 H 0.417 V 0 Z"
             style="fill:#97999c;fill-opacity:1;fill-rule:nonzero;stroke:none"
             id="path32" /></g><g
           id="g34"
           transform="translate(89.1476,11.671)"><path
             d="m 0,0 c -0.569,0 -1.129,-0.199 -1.479,-0.578 l -0.162,0.493 H -2.2 v -4.79 h 0.805 v 3.016 c 0,0.788 0.58,1.158 1.263,1.158 0.132,0 0.275,-0.019 0.407,-0.047 v 0.739 C 0.181,0 0.085,0 0,0"
             style="fill:#97999c;fill-opacity:1;fill-rule:nonzero;stroke:none"
             id="path36" /></g><g
           id="g38"
           transform="translate(99.1593,8.7115)"><path
             d="m 0,0 c 0,-0.845 -0.38,-1.271 -1.243,-1.271 -0.864,0 -1.235,0.426 -1.235,1.271 v 0.968 c 0,0.844 0.38,1.262 1.244,1.262 C -0.37,2.23 0,1.812 0,0.968 Z m -1.243,2.998 c -1.339,0 -2.04,-0.749 -2.04,-1.982 v -1.063 c 0,-1.234 0.701,-1.992 2.049,-1.992 1.338,0 2.039,0.758 2.039,1.992 v 1.063 c 0,1.233 -0.701,1.982 -2.048,1.982"
             style="fill:#97999c;fill-opacity:1;fill-rule:nonzero;stroke:none"
             id="path40" /></g><g
           id="g42"
           transform="translate(83.7946,7.44)"><path
             d="m 0,0 c -0.807,0 -1.206,0.398 -1.206,1.309 v 0.893 c 0,0.91 0.399,1.299 1.206,1.299 0.741,0 1.196,-0.36 1.263,-1.147 V 1.158 C 1.196,0.36 0.731,0 0,0 M 1.509,4.146 1.357,3.663 C 1.016,4.07 0.494,4.269 -0.142,4.269 c -1.177,0 -1.869,-0.587 -1.869,-2.02 V 1.252 c 0,-1.423 0.692,-2.02 1.869,-2.02 0.636,0 1.158,0.199 1.499,0.606 l 0.152,-0.483 h 0.559 v 4.791 z"
             style="fill:#97999c;fill-opacity:1;fill-rule:nonzero;stroke:none"
             id="path44" /></g><g
           id="g46"
           transform="translate(80.258,10.9883)"><path
             d="m 0,0 c 0,-0.636 -0.379,-0.968 -1.177,-0.968 h -1.831 v 2.676 h 1.841 C -0.379,1.708 0,1.367 0,0.731 Z m -1.224,2.495 h -2.618 v -6.688 h 0.834 v 2.429 h 1.793 c 1.3,0 2.039,0.673 2.039,1.764 v 0.731 c 0,1.101 -0.739,1.764 -2.048,1.764"
             style="fill:#97999c;fill-opacity:1;fill-rule:nonzero;stroke:none"
             id="path48" /></g><g
           id="g50"
           transform="translate(7.6056,15.2984)"><path
             d="m 0,0 c 0.281,-0.487 0.677,-0.868 1.134,-1.125 l 23.202,-13.396 0.001,0.001 c 0.453,-0.267 0.979,-0.419 1.542,-0.419 0.562,0 1.09,0.152 1.541,0.419 l 23.203,13.395 c 0.457,0.258 0.852,0.638 1.133,1.125 0.282,0.488 0.413,1.02 0.408,1.545 v 26.791 0.001 c 0.004,0.524 -0.127,1.057 -0.408,1.545 -0.282,0.487 -0.678,0.867 -1.134,1.125 L 27.419,44.403 v 0 c -0.452,0.267 -0.978,0.42 -1.541,0.42 -0.562,0 -1.088,-0.153 -1.541,-0.42 v 0 L 1.136,31.007 C 0.679,30.749 0.283,30.369 0.001,29.882 -0.28,29.394 -0.411,28.861 -0.407,28.337 L -0.408,28.336 V 1.545 C -0.413,1.02 -0.282,0.488 0,0"
             style="fill:#00ab4e;fill-opacity:1;fill-rule:nonzero;stroke:none"
             id="path52" /></g><g
           id="g54"
           transform="translate(26.0553,20.0406)"><path
             d="m 0,0 c 0,-1.648 -1.335,-2.984 -2.984,-2.984 -1.648,0 -2.984,1.336 -2.984,2.984 l 0.001,-0.001 0.003,20.483 c 0,1.587 1.402,2.899 3.388,2.899 1.422,0 3.063,-0.573 4.067,-1.818 L 2.393,20.483 14.858,5.566 v 14.833 h -0.001 c 0,1.647 1.336,2.984 2.985,2.984 1.647,0 2.983,-1.337 2.983,-2.984 H 20.824 L 20.821,-0.083 c 0,-1.586 -1.403,-2.899 -3.388,-2.899 -1.422,0 -3.063,0.573 -4.067,1.819 L -0.001,14.834 V -0.001 Z"
             style="fill:#ffffff;fill-opacity:1;fill-rule:nonzero;stroke:none"
             id="path56" /></g><g
           id="g58"
           transform="translate(151.2003,40.3336)"><path
             d="M 0,0 H -3.934 L -8.266,-6.87 -12.485,0 h -4.076 l 6.072,-9.919 -6.129,-10.262 h 3.877 l 4.304,6.927 4.218,-6.927 h 4.076 l -6.128,10.005 z"
             style="fill:#231f20;fill-opacity:1;fill-rule:nonzero;stroke:none"
             id="path60" /></g><g
           id="g62"
           transform="translate(129.5583,40.3336)"><path
             d="M 0,0 V -13.739 L -7.924,0 h -3.278 v -20.181 h 3.278 V -6.528 L 0,-20.181 H 3.307 V 0 Z"
             style="fill:#231f20;fill-opacity:1;fill-rule:nonzero;stroke:none"
             id="path64" /></g><path
           d="m 112.153,20.153 h 3.506 v 20.181 h -3.506 z"
           style="fill:#231f20;fill-opacity:1;fill-rule:nonzero;stroke:none"
           id="path66" /><g
           id="g68"
           transform="translate(109.4572,33.1505)"><path
             d="m 0,0 v 1.14 c 0,3.905 -2.879,6.442 -7.924,6.442 -5.017,0 -7.895,-2.537 -7.895,-6.442 v -8.095 c 0,-3.905 2.907,-6.442 7.923,-6.442 5.017,0 7.896,2.537 7.896,6.442 v 4.732 h -8.038 v -3.25 h 4.532 v -1.282 c 0,-2.11 -1.596,-3.392 -4.418,-3.392 -2.793,0 -4.389,1.282 -4.389,3.392 V 0.94 c 0,2.11 1.596,3.393 4.417,3.393 2.794,0 4.39,-1.283 4.39,-3.393 V 0 Z"
             style="fill:#231f20;fill-opacity:1;fill-rule:nonzero;stroke:none"
             id="path70" /></g><g
           id="g72"
           transform="translate(87.6178,40.3336)"><path
             d="M 0,0 V -13.739 L -7.924,0 h -3.278 v -20.181 h 3.278 V -6.528 L 0,-20.181 H 3.307 V 0 Z"
             style="fill:#231f20;fill-opacity:1;fill-rule:nonzero;stroke:none"
             id="path74" /></g><g
           id="g76"
           transform="translate(157.3087,23.3243)"><path
             d="m 0,0 c 0.332,-0.324 0.495,-0.729 0.495,-1.198 0,-0.466 -0.163,-0.873 -0.495,-1.204 -0.327,-0.33 -0.728,-0.5 -1.2,-0.5 -0.468,0 -0.867,0.17 -1.198,0.5 -0.326,0.331 -0.493,0.738 -0.493,1.204 0,0.469 0.167,0.874 0.493,1.198 0.335,0.337 0.733,0.503 1.198,0.503 0.47,0 0.869,-0.166 1.2,-0.503 m 0.2,0.195 c -0.387,0.383 -0.852,0.573 -1.4,0.573 -0.537,0 -1.005,-0.19 -1.384,-0.573 -0.388,-0.383 -0.576,-0.848 -0.576,-1.393 0,-0.545 0.186,-1.011 0.569,-1.393 0.38,-0.388 0.849,-0.58 1.391,-0.58 0.548,0 1.013,0.192 1.4,0.58 0.381,0.383 0.576,0.852 0.576,1.393 0,0.549 -0.195,1.01 -0.576,1.393 M -0.907,-1.103 C -0.983,-1.136 -1.105,-1.151 -1.27,-1.151 h -0.34 v 0.786 h 0.325 c 0.21,0 0.363,-0.03 0.458,-0.084 0.097,-0.054 0.143,-0.158 0.143,-0.315 0,-0.167 -0.072,-0.277 -0.223,-0.339 m -1.084,-1.164 h 0.381 v 0.849 h 0.301 c 0.2,0 0.343,-0.019 0.424,-0.071 0.134,-0.078 0.201,-0.245 0.201,-0.493 v -0.175 l 0.009,-0.065 c 0.005,-0.014 0.005,-0.02 0.006,-0.027 0.002,-0.01 0.002,-0.014 0.008,-0.018 h 0.354 l -0.013,0.024 c -0.011,0.016 -0.016,0.053 -0.017,0.11 -0.005,0.061 -0.005,0.113 -0.005,0.162 v 0.16 c 0,0.108 -0.041,0.219 -0.118,0.337 -0.081,0.114 -0.207,0.182 -0.377,0.211 0.135,0.023 0.24,0.059 0.314,0.102 0.144,0.091 0.211,0.239 0.211,0.428 0,0.272 -0.107,0.457 -0.334,0.548 -0.125,0.052 -0.32,0.078 -0.591,0.078 h -0.754 z"
             style="fill:#97999c;fill-opacity:1;fill-rule:nonzero;stroke:none"
             id="path78" /></g></g></g></g></svg>
