<?xml version="1.0" encoding="UTF-8" standalone="no"?>
<svg xmlns:inkscape="http://www.inkscape.org/namespaces/inkscape" xmlns:sodipodi="http://sodipodi.sourceforge.net/DTD/sodipodi-0.dtd" xmlns="http://www.w3.org/2000/svg" xmlns:svg="http://www.w3.org/2000/svg" width="938.46326" height="200" viewBox="0 0 938.46326 200" fill="none" version="1.1" id="svg30" sodipodi:docname="Percona_logo.svg" inkscape:version="1.1.1 (3bf5ae0d25, 2021-09-20)">
  <g id="g858" transform="scale(0.85722491)" style="stroke-width:1.16656">
    <g clip-path="url(#clip0_1182_11432)" id="g16" style="stroke-width:1.16656">
      <path d="m 352.016,151.322 h -18.62 v 33.316 H 308.887 V 73.542 h 45.54 c 26.587,0 42.668,15.7006 42.668,38.406 v 0.303 c 0,25.715 -20.05,39.042 -45.05,39.042 z m 20.207,-38.885 c 0,-10.952 -7.634,-16.8242 -19.903,-16.8242 h -18.953 v 33.9512 h 19.413 c 12.27,0 19.414,-7.308 19.414,-16.824 v -0.303 z" fill="#353537" id="path2" style="stroke-width:12.7711"></path>
      <path d="M 410.776,184.648 V 73.542 H 494.84 V 95.3001 H 435.139 V 117.85 h 52.527 v 21.758 h -52.527 v 23.341 h 60.494 v 21.758 h -84.857 z" fill="#353537" id="path4" style="stroke-width:12.7711"></path>
      <path d="m 582.46,184.648 -23.872,-35.544 h -19.257 v 35.544 H 514.822 V 73.542 h 50.939 c 26.284,0 42.032,13.815 42.032,36.667 v 0.303 c 0,17.929 -9.702,29.213 -23.872,34.45 l 27.224,39.676 h -28.694 z m 0.49,-73.159 c 0,-10.464 -7.33,-15.886 -19.256,-15.886 h -24.353 v 31.9 h 24.843 c 11.936,0 18.766,-6.361 18.766,-15.701 v -0.303 z" fill="#353537" id="path6" style="stroke-width:12.7711"></path>
      <path d="m 678.058,187.618 c -33.221,0 -57.907,-25.568 -57.907,-57.917 v -0.313 c 0,-32.0068 24.186,-58.2202 58.897,-58.2202 21.285,0 34.055,7.0639 44.54,17.3616 l -15.807,18.1626 c -8.722,-7.8941 -17.571,-12.7011 -28.89,-12.7011 -19.021,0 -32.761,15.7591 -32.761,35.0651 v 0.313 c 0,19.306 13.397,35.368 32.761,35.368 12.897,0 20.815,-5.149 29.694,-13.2 l 15.807,15.916 c -11.632,12.398 -24.529,20.107 -46.304,20.107 z" fill="#353537" id="path8" style="stroke-width:12.7711"></path>
      <path d="m 789.963,187.618 c -34.858,0 -59.858,-25.9 -59.858,-57.917 v -0.313 c 0,-32.0068 25.333,-58.2202 60.162,-58.2202 34.829,0 59.858,25.9007 59.858,57.9172 v 0.313 c 0,32.007 -25.333,58.22 -60.162,58.22 z m 34.212,-58.22 c 0,-19.306 -14.2,-35.368 -34.212,-35.368 -20.011,0 -33.868,15.759 -33.868,35.065 v 0.313 c 0,19.306 14.2,35.368 34.211,35.368 20.012,0 33.869,-15.759 33.869,-35.065 z" fill="#353537" id="path10" style="stroke-width:12.7711"></path>
      <path d="m 985.089,184.736 54.841,-113.5682 54.84,113.5782 h -27.5 l -27.34,-56.52 -27.24,56.52 h -27.601 z" fill="#353537" id="path12" style="stroke-width:12.7711"></path>
      <path d="M 974.936,73.5811 V 187.628 l -83.632,-67.531 v 64.454 H 865.285 V 71.1678 l 83.632,67.2672 V 73.5811 Z" fill="#353537" id="path14" style="stroke-width:12.7711"></path>
    </g>
    <path d="M 219.315,146.829 C 248.033,128.041 257.429,89.7188 240.05,59.5989 231.342,44.4909 217.266,33.6712 200.426,29.1533 184.824,24.961 168.528,26.6753 154.185,33.9276 L 134.603,0 93.9541,70.4613 0,233.311 H 269.206 Z M 195.821,46.4134 c 12.241,3.263 22.427,11.1294 28.771,22.0826 12.47,21.5912 5.993,48.977 -14.23,62.808 L 163.128,49.4361 c 10.176,-4.8971 21.653,-5.9652 32.693,-3.0227 z M 134.603,35.7593 238.247,215.426 H 177.605 L 104.268,88.3409 134.597,35.7647 Z M 30.9588,215.426 93.9488,106.258 156.939,215.426 Z" fill="url(#paint0_linear_1182_11432)" id="path18" style="fill:url(#paint0_linear_1182_11432);stroke-width:12.7711"></path>
  </g>
  <defs id="defs28">
    <linearGradient id="paint0_linear_1182_11432" x1="30.363001" y1="238.463" x2="230.327" y2="38.668499" gradientUnits="userSpaceOnUse">
      <stop stop-color="#FC3519" id="stop20"></stop>
      <stop offset="1" stop-color="#F0D136" id="stop22"></stop>
    </linearGradient>
    <clipPath id="clip0_1182_11432">
      <rect width="962.61401" height="116.656" fill="#ffffff" transform="translate(132.155,70.9724)" id="rect25" x="0" y="0"></rect>
    </clipPath>
  </defs>
</svg>
