<?xml version="1.0" encoding="UTF-8" standalone="no"?>
<svg xmlns:inkscape="http://www.inkscape.org/namespaces/inkscape" xmlns:sodipodi="http://sodipodi.sourceforge.net/DTD/sodipodi-0.dtd" xmlns="http://www.w3.org/2000/svg" xmlns:svg="http://www.w3.org/2000/svg" width="681.25" height="200" viewBox="0 0 681.25 200" fill="none" version="1.1" id="svg142" sodipodi:docname="Diagrid_logo.svg" inkscape:version="1.2.2 (b0a84865, 2022-12-01)">
  <defs id="defs146"></defs>
  <g id="g309" transform="matrix(6.2499999,0,0,6.2499999,0,1.8453183e-6)">
    <path d="m 27.5,7.64 h 3.294 V 24.059 H 27.499 V 7.639 Z m 1.63,-3.25 c -0.377,0 -0.732,-0.09 -1.065,-0.269 a 2.301,2.301 0 0 1 -0.799,-0.804 2.12,2.12 0 0 1 -0.3,-1.105 c 0,-0.403 0.1,-0.771 0.3,-1.106 0.2,-0.335 0.466,-0.603 0.799,-0.804 A 2.025,2.025 0 0 1 29.13,0 c 0.399,0 0.754,0.1 1.065,0.302 0.332,0.2 0.587,0.469 0.765,0.804 0.2,0.335 0.3,0.703 0.3,1.106 0,0.402 -0.1,0.77 -0.3,1.105 A 2.044,2.044 0 0 1 30.195,4.121 C 29.884,4.301 29.529,4.39 29.13,4.39 Z m 12.844,20.07 c -1.575,0 -2.983,-0.39 -4.226,-1.172 a 8.471,8.471 0 0 1 -2.895,-3.116 c -0.71,-1.318 -1.065,-2.77 -1.065,-4.356 0,-1.564 0.378,-2.994 1.132,-4.29 A 8.57,8.57 0 0 1 38.048,8.41 c 1.309,-0.781 2.784,-1.172 4.425,-1.172 1.642,0 3.117,0.38 4.426,1.139 a 8.142,8.142 0 0 1 3.095,3.05 c 0.776,1.295 1.164,2.758 1.164,4.389 v 8.243 H 48.03 v -6.132 l 1.132,-0.872 c 0,1.386 -0.31,2.636 -0.932,3.753 a 6.968,6.968 0 0 1 -2.529,2.681 c -1.065,0.648 -2.307,0.972 -3.727,0.972 z m 0.5,-3.149 c 1.02,0 1.94,-0.246 2.761,-0.737 a 5.305,5.305 0 0 0 1.93,-1.977 5.621,5.621 0 0 0 0.699,-2.748 c 0,-1.005 -0.233,-1.92 -0.699,-2.747 a 5.305,5.305 0 0 0 -1.93,-1.977 c -0.82,-0.514 -1.741,-0.771 -2.762,-0.771 -1.02,0 -1.94,0.257 -2.761,0.77 a 5.662,5.662 0 0 0 -1.93,1.978 c -0.466,0.826 -0.7,1.742 -0.7,2.747 0,0.983 0.234,1.899 0.7,2.748 a 5.662,5.662 0 0 0 1.93,1.977 c 0.82,0.491 1.74,0.737 2.761,0.737 z M 61.891,32 c -1.752,0 -3.327,-0.38 -4.725,-1.14 -1.397,-0.759 -2.473,-1.864 -3.228,-3.316 L 56.7,26.036 a 5.148,5.148 0 0 0 2.03,2.11 c 0.887,0.537 1.919,0.805 3.095,0.805 1.153,0 2.151,-0.268 2.994,-0.804 0.866,-0.514 1.542,-1.251 2.03,-2.212 0.488,-0.938 0.732,-2.044 0.732,-3.317 v -3.451 l 0.832,-0.771 c 0,0.983 -0.266,1.932 -0.798,2.848 -0.51,0.893 -1.265,1.63 -2.263,2.212 -0.976,0.558 -2.163,0.837 -3.56,0.837 -1.531,0 -2.929,-0.368 -4.193,-1.106 a 8.73,8.73 0 0 1 -2.995,-3.049 c -0.732,-1.295 -1.098,-2.747 -1.098,-4.356 0,-1.563 0.377,-2.993 1.131,-4.289 A 8.65,8.65 0 0 1 57.765,8.41 c 1.309,-0.781 2.784,-1.172 4.426,-1.172 1.641,0 3.117,0.38 4.425,1.139 a 8.141,8.141 0 0 1 3.095,3.05 c 0.776,1.295 1.165,2.758 1.165,4.389 v 6.768 c 0,1.9 -0.389,3.552 -1.165,4.96 -0.776,1.43 -1.841,2.524 -3.195,3.283 C 65.163,31.61 63.621,32 61.891,32 Z m 0.266,-10.823 c 0.999,0 1.908,-0.235 2.729,-0.704 a 5.305,5.305 0 0 0 1.93,-1.977 5.42,5.42 0 0 0 0.732,-2.747 c 0,-1.006 -0.244,-1.91 -0.732,-2.714 a 5.059,5.059 0 0 0 -1.93,-1.944 c -0.82,-0.469 -1.73,-0.704 -2.729,-0.704 -0.998,0 -1.907,0.235 -2.728,0.704 a 5.383,5.383 0 0 0 -1.93,1.944 c -0.488,0.804 -0.732,1.708 -0.732,2.714 0,0.983 0.244,1.899 0.732,2.747 a 5.661,5.661 0 0 0 1.93,1.977 c 0.82,0.47 1.73,0.704 2.728,0.704 z M 85.341,7.64 h 3.294 V 24.059 H 85.341 V 7.639 Z m 1.63,-3.25 C 86.594,4.39 86.24,4.3 85.907,4.121 a 2.303,2.303 0 0 1 -0.799,-0.804 2.12,2.12 0 0 1 -0.3,-1.105 c 0,-0.403 0.1,-0.771 0.3,-1.106 0.2,-0.335 0.466,-0.603 0.799,-0.804 A 2.025,2.025 0 0 1 86.972,0 c 0.399,0 0.754,0.1 1.064,0.302 0.333,0.2 0.588,0.469 0.766,0.804 0.2,0.335 0.3,0.703 0.3,1.106 0,0.402 -0.1,0.77 -0.3,1.105 A 2.044,2.044 0 0 1 88.036,4.121 2.08,2.08 0 0 1 86.972,4.39 Z m 13.344,20.07 c -1.641,0 -3.117,-0.39 -4.425,-1.172 a 8.922,8.922 0 0 1 -3.128,-3.116 c -0.755,-1.296 -1.132,-2.726 -1.132,-4.29 0,-1.675 0.366,-3.16 1.098,-4.456 a 7.969,7.969 0 0 1 3.029,-3.049 c 1.286,-0.76 2.75,-1.14 4.392,-1.14 1.309,0 2.507,0.313 3.594,0.939 a 7.23,7.23 0 0 1 2.662,2.446 6.048,6.048 0 0 1 0.998,3.35 l -1.73,-0.87 L 105.706,0.1 H 109 v 15.782 c 0,1.608 -0.388,3.071 -1.164,4.39 a 8.397,8.397 0 0 1 -3.095,3.082 c -1.309,0.737 -2.784,1.106 -4.426,1.106 z m 0,-3.116 c 1.021,0 1.941,-0.245 2.762,-0.737 a 5.566,5.566 0 0 0 1.93,-2.01 c 0.466,-0.827 0.699,-1.742 0.699,-2.748 0,-0.983 -0.233,-1.887 -0.699,-2.714 a 5.235,5.235 0 0 0 -1.93,-2.01 c -0.821,-0.492 -1.741,-0.738 -2.762,-0.738 -1.02,0 -1.94,0.246 -2.762,0.738 a 5.577,5.577 0 0 0 -1.93,2.01 5.433,5.433 0 0 0 -0.698,2.714 c 0,1.006 0.233,1.921 0.698,2.748 a 5.957,5.957 0 0 0 1.93,2.01 c 0.821,0.492 1.742,0.738 2.762,0.738 z M 77.382,24.119 H 73.92 V 12.93 c 0,-3.913 3.35,-5.042 5.025,-5.117 h 3.741 v 3.43 h -3.74 c -1.073,0 -1.49,1.124 -1.564,1.687 v 11.188 z" fill="#121c29" id="path136"></path>
    <path d="M 6.274,23.95 C 4.65,23.95 3.526,23.643 2.904,23.028 2.28,22.413 1.969,21.461 1.969,20.172 V 15.798 C 1.969,15.044 1.824,14.479 1.535,14.102 1.245,13.706 0.735,13.468 0,13.388 V 10.592 C 0.823,10.492 1.357,10.225 1.602,9.788 1.847,9.332 1.969,8.658 1.969,7.765 V 3.808 C 1.969,2.519 2.28,1.567 2.903,0.952 3.526,0.317 4.65,0 6.273,0 h 2.66 V 3.317 H 7.449 c -0.556,0 -0.934,0.12 -1.135,0.357 -0.178,0.218 -0.267,0.585 -0.267,1.1 v 4.42 c 0,0.614 -0.144,1.17 -0.433,1.665 -0.267,0.476 -0.69,0.853 -1.269,1.131 0.579,0.278 1.002,0.665 1.269,1.16 0.289,0.476 0.433,1.022 0.433,1.637 v 4.418 c 0,0.496 0.09,0.863 0.267,1.1 0.2,0.22 0.579,0.328 1.135,0.328 h 1.484 v 3.317 h -2.66 z" fill="#0bdda3" id="path138"></path>
    <path d="m 23.465,16.944 c 0.66,-1.501 0.99,-3.193 0.99,-5.076 0,-2.383 -0.53,-4.457 -1.59,-6.22 C 21.805,3.861 20.321,2.478 18.412,1.501 16.528,0.501 14.314,0 11.77,0 h -1.05 v 3.36 h 1.05 c 1.79,0 3.356,0.358 4.699,1.073 a 7.836,7.836 0 0 1 3.145,3.002 c 0.754,1.263 1.13,2.74 1.13,4.433 0,1.358 -0.235,2.586 -0.706,3.682 -0.448,1.096 -1.096,2.014 -1.944,2.752 a 8.847,8.847 0 0 1 -2.897,1.716 c -1.107,0.405 -2.309,0.608 -3.604,0.608 H 10.72 v 3.324 h 0.873 c 1.837,0 3.533,-0.274 5.088,-0.822 1.555,-0.548 2.91,-1.346 4.064,-2.395 a 10.636,10.636 0 0 0 2.72,-3.79 z" fill="#121c29" id="path140"></path>
  </g>
</svg>
