<?xml version="1.0" encoding="utf-8"?>
<!-- Generator: Adobe Illustrator 26.0.3, SVG Export Plug-In . SVG Version: 6.00 Build 0)  -->
<svg version="1.1" id="Layer_1" xmlns="http://www.w3.org/2000/svg" xmlns:xlink="http://www.w3.org/1999/xlink" x="0px" y="0px"
	 viewBox="0 0 244.8 91.7" style="enable-background:new 0 0 244.8 91.7;" xml:space="preserve">
<style type="text/css">
	.st0{fill:#2600FF;}
	.st1{fill:#FFFFFF;}
</style>
<g>
	<path class="st0" d="M235,91.7H9.8c-5.4,0-9.8-4.4-9.8-9.8v-72C0,4.4,4.4,0,9.8,0H235c5.4,0,9.8,4.4,9.8,9.8v72
		C244.8,87.3,240.4,91.7,235,91.7z"/>
	<g>
		<path class="st1" d="M72.1,61c2,0,3.4,0.5,4.3,1.5s1.3,2.8,1.3,5.3s-0.5,4.3-1.5,5.3s-2.8,1.5-5.4,1.5c-0.5,0-2.3-0.1-3.6-0.2
			c-0.9-0.1-1.7-0.8-1.7-1.8V58.4c0-0.9,0.7-1.5,1.5-1.5l0,0c0.9,0,1.5,0.7,1.5,1.5v3.4C69.9,61.2,71.1,61,72.1,61z M70.7,72
			c1.5,0,2.5-0.3,3.1-1c0.5-0.7,0.8-1.8,0.8-3.3S74.4,65,74,64.4s-1.1-1-2.1-1c-0.9,0-1.8,0.1-2.8,0.4l-0.5,0.1v7.9
			C69.6,72,70.3,72,70.7,72z"/>
		<path class="st1" d="M81.4,61.3L81.4,61.3c0.7,0,1.2,0.4,1.4,1.1l2.7,9.3c0.1,0.4,0.8,0.4,0.9,0l2.7-9.3c0.2-0.6,0.8-1.1,1.4-1.1
			l0,0c1,0,1.7,0.9,1.4,1.9l-4.6,15.7c-0.2,0.6-0.7,1-1.4,1l0,0c-1,0-1.7-1-1.4-1.9l1.1-3.4H85c-1.1,0-2.1-0.7-2.4-1.8l-2.8-9.7
			C79.7,62.2,80.4,61.3,81.4,61.3z"/>
		<path class="st1" d="M125.8,71.9l0.8-0.1v0.6c0,0.9-0.6,1.6-1.5,1.7c-1.6,0.2-3,0.4-4.3,0.4c-2.1,0-3.6-0.5-4.6-1.6
			c-0.9-1.1-1.4-2.8-1.4-5.1c0-4.6,2.1-6.9,6.2-6.9c4,0,6,2,6,6l0,0c-0.1,1.2-1.1,2-2.2,2H118c0,1.1,0.3,1.9,0.8,2.4
			s1.4,0.8,2.8,0.8C123,72.1,124.4,72,125.8,71.9z M124.1,66.8c0-1.3-0.2-2.2-0.7-2.7c-0.4-0.5-1.2-0.8-2.3-0.8s-1.8,0.3-2.3,0.8
			s-0.7,1.4-0.8,2.7H124.1z"/>
		<path class="st1" d="M141.4,71.9v0.7c0,0.8-0.6,1.5-1.4,1.6c-1.6,0.2-3.1,0.4-4.4,0.4c-2.1,0-3.6-0.5-4.6-1.6
			c-0.9-1.1-1.4-2.8-1.4-5.1c0-4.6,2.1-6.9,6.2-6.9c4,0,6,2,6,6c-0.1,1.2-1.1,2-2.2,2h-6.8c0,1.1,0.3,1.9,0.8,2.4s1.4,0.8,2.8,0.8
			C136.8,72.2,141.4,71.9,141.4,71.9z M138.8,66.8c0-1.3-0.2-2.2-0.7-2.7c-0.4-0.5-1.2-0.8-2.3-0.8s-1.8,0.3-2.3,0.8
			s-0.7,1.4-0.8,2.7H138.8z"/>
		<path class="st1" d="M161.4,74.6c-0.9,0-1.6-0.7-1.6-1.5v-9.9c0-1.1,0.5-1.9,1.6-1.9s1.5,0.8,1.5,0.8c1.4-0.7,2.6-1.1,3.7-1.1
			c1.7,0,2.9,0.4,3.6,1.3c1.7-0.9,3.5-1.3,5.2-1.3s2.9,0.5,3.6,1.4c0.7,1,1.1,2.6,1.1,4.9v5.8c0,0.9-0.7,1.5-1.5,1.5
			c-0.9,0-1.5-0.7-1.5-1.5v-5.7c0-1.4-0.2-2.4-0.5-3s-1-0.9-2-0.9c-0.9,0-1.8,0.2-2.8,0.5l-0.5,0.2c0.2,0.3,0.2,1.5,0.2,3.3v5.6
			c0,0.9-0.6,1.5-1.5,1.5s-1.6-0.7-1.6-1.5v-5.5c0-1.5-0.2-2.6-0.5-3.2s-1-0.9-2-0.9s-2,0.1-3,0.6V73
			C163,73.9,162.3,74.6,161.4,74.6z"/>
		<path class="st1" d="M101.2,58.7c0.8-0.1,1.5,0.2,1.8,1.1c0.3,0.9,3.3,11.7,3.3,11.7c0.2,0.5,0.7,0.5,0.9,0l3.1-11.8
			c0.2-0.7,0.8-1.1,1.5-1.1c1,0,1.7,1,1.5,1.9l-3.2,12.2c-0.3,1.1-1.3,1.8-2.4,1.8h-1.8c-1.1,0-2.1-0.7-2.4-1.8c0,0-3.2-11-3.5-12.1
			C99.7,59.6,100.5,58.9,101.2,58.7z"/>
	</g>
	<g>
		<path class="st1" d="M102.1,42.7c-1.4,0-2.5,1.1-2.5,2.6c0,0.8,0.3,1.5,0.7,2c0.5,0.5,1.1,0.7,1.7,0.7h13c4.9,0,8.5-3.5,8.5-8.3
			s-3.7-8.6-8.4-8.6h-8c-2.1,0-3.5-1.2-3.5-3c0-1.9,1.4-3.1,3.5-3.1H120c1.6,0,2.5-1.4,2.5-2.7c0-1.5-1.1-2.6-2.5-2.6h-13
			c-4.9,0-8.5,3.6-8.5,8.4c0,4.7,3.7,8.3,8.5,8.3h7.9c2.1,0,3.5,1.3,3.5,3.3c0,1.9-1.3,3.1-3.5,3.1L102.1,42.7L102.1,42.7z"/>
		<path class="st1" d="M153.1,22.2c0,1.4-1.3,2.6-2.8,2.6h-4.8h-3v20.4c0,1.5-1.3,2.8-2.8,2.8s-2.8-1.3-2.8-2.8V24.8h-2.5h-5.3
			c-1.5,0-2.8-1.2-2.8-2.6s1.3-2.6,2.8-2.6h5.3h4.5h0.3h6.2h4.8C151.9,19.6,153.1,20.8,153.1,22.2z"/>
		<path class="st1" d="M181.5,45.5c0,1.4-1.3,2.6-2.8,2.6h-4.9h-4.7h-0.5h-3.4h-0.5h-1.3c0,0-1.9,0-2.6-0.3
			c-0.5-0.2-0.9-0.3-1.3-0.6c-1.4-0.9-2.3-2.5-2.4-4.3l0,0v-0.2v-0.6V41v-3.1v-1.7l0,0l0,0c0-1.9,0.9-3.5,2.4-4.4
			c0.4-0.3,0.9-0.4,1.3-0.6c0.7-0.3,2.6-0.2,2.6-0.2h1.3h0.5h3.4h0.5h4.7h4.9c1.5,0,2.8,1.2,2.8,2.6s-1.3,2.6-2.8,2.6h-4.9h-4.7
			h-0.5h-3.4h-1c-1,0-1.8,0.3-1.8,1.5v3.7c0,1,1,1.5,1.8,1.5h1h3.4h0.5h4.7h4.9C180.2,42.9,181.5,44,181.5,45.5z M178.6,19.6h-4.8
			h-4.7h-0.5h-3.4h-5.3c-1.5,0-2.8,1.2-2.8,2.6s1.3,2.6,2.8,2.6h5.3h3.4h0.5h4.8h4.8c1.5,0,2.8-1.2,2.8-2.6
			C181.4,20.8,180.2,19.6,178.6,19.6z"/>
		<g>
			<path class="st1" d="M39.3,22.4v9.4v4v9.4c0,1.5-1.3,2.8-2.8,2.8s-2.8-1.3-2.8-2.8v-9.4v-4v-9.4c0-1.5,1.3-2.8,2.8-2.8
				C38,19.6,39.3,20.9,39.3,22.4z"/>
			<path class="st1" d="M48.7,33.8l10.7-9.2c1-0.9,1.4-2.4,0.7-3.6c-0.9-1.6-3-1.9-4.3-0.8L41,33c-0.5,0.4-0.5,1.1,0,1.5l14.7,12.7
				c1,0.9,2.6,1,3.6,0.2c1.4-1.1,1.4-3.2,0.1-4.3L48.7,33.8z"/>
		</g>
		<path class="st1" d="M212,22.4v20.4c0,3.2-1.5,5.3-4.3,5.3c-3,0-4.1-1.8-5.3-3.5l-11.3-18v18.7c0,1.5-1.3,2.7-2.8,2.7
			s-2.8-1.2-2.8-2.8V24.9c0-3,2.1-5.3,4.8-5.3c1.9,0,3.6,1.4,4.6,2.8c0.1,0.2,11.6,18.5,11.6,18.5V22.3c0-1,1-2.6,2.8-2.6
			C210.7,19.7,212,20.9,212,22.4z"/>
		<path class="st1" d="M95.2,43.6l-9.6-20.2c-0.9-2.4-2.7-3.8-5.5-3.8c-2.3,0-4.3,1.2-5.4,3.8l-9.5,19.8c-1.9,3.5,1.3,4.8,2.2,4.7
			l0,0c1.1,0,2.1-0.7,2.6-1.8c0.4-0.9,2.5-5.3,2.5-5.3h7.6c1.5,0,2.6-1.3,2.6-2.8s-1.2-2.8-2.6-2.8h-5l4.4-9v-0.1
			c0.1-0.3,0.3-0.5,0.4-0.6c0.1,0,0.3,0,0.4,0c0.2,0.1,0.4,0.4,0.5,0.7l9.5,19.9c0.4,0.8,2,2.6,4.3,1.2C95.7,46.6,96,45,95.2,43.6z"
			/>
	</g>
</g>
<path class="st1" d="M155.7,65.3v5.9c0,0.4,0.2,0.6,0.3,0.8c0.2,0.2,0.5,0.3,0.9,0.4V73c0,0.9-0.9,1.4-1.7,1.4
	c-0.6,0-1.6-0.4-2.1-0.8c-1.5,0.6-3.1,1-4.6,1c-2.8,0-4.3-1.4-4.3-4.1c0-1.3,0.4-2.3,1.2-2.9s2-0.9,3.6-1.1l3.7-0.3v-0.9
	c0-0.7-0.2-1.2-0.5-1.5c-0.3-0.3-0.8-0.4-1.5-0.4c-1,0-2,0-2.9,0.1c-0.2,0-2.6,0.2-2.6,0.2v-0.8c0-0.7,0.4-1.3,1.1-1.5
	c1.4-0.4,3.1-0.4,4.5-0.4c1.7,0,3,0.3,3.8,1C155.3,62.7,155.7,63.8,155.7,65.3z M149.3,68.5c-1.3,0.1-2,0.8-2,2s0.6,1.8,1.7,1.8
	c1,0,2.7-0.3,3-0.4s0.5-0.2,0.5-0.2v-3.5L149.3,68.5z"/>
</svg>
