<?xml version="1.0" encoding="UTF-8" standalone="no"?>
<!-- Created with Inkscape (http://www.inkscape.org/) -->

<svg
   version="1.1"
   id="svg2"
   xml:space="preserve"
   width="500"
   height="153.01157"
   viewBox="0 0 500 153.01157"
   sodipodi:docname="Capsule8_Logo.svg"
   inkscape:version="1.1.1 (3bf5ae0d25, 2021-09-20)"
   xmlns:inkscape="http://www.inkscape.org/namespaces/inkscape"
   xmlns:sodipodi="http://sodipodi.sourceforge.net/DTD/sodipodi-0.dtd"
   xmlns="http://www.w3.org/2000/svg"
   xmlns:svg="http://www.w3.org/2000/svg"><defs
     id="defs6" /><sodipodi:namedview
     id="namedview4"
     pagecolor="#ffffff"
     bordercolor="#666666"
     borderopacity="1.0"
     inkscape:pageshadow="2"
     inkscape:pageopacity="0.0"
     inkscape:pagecheckerboard="0"
     showgrid="false"
     fit-margin-top="0"
     fit-margin-left="0"
     fit-margin-right="0"
     fit-margin-bottom="0"
     inkscape:zoom="2.266"
     inkscape:cx="250"
     inkscape:cy="76.345983"
     inkscape:window-width="1920"
     inkscape:window-height="1010"
     inkscape:window-x="-6"
     inkscape:window-y="-6"
     inkscape:window-maximized="1"
     inkscape:current-layer="g8" /><g
     id="g8"
     inkscape:groupmode="layer"
     inkscape:label="ink_ext_XXXXXX"
     transform="matrix(1.3333333,0,0,-1.3333333,0,78.075063)"><g
       id="g10"
       transform="matrix(0.19598006,0,0,0.19598006,0,-56.202373)"><path
         d="M 1913.29,0 H 0 L 0.167969,585.563 H 1913.46 L 1913.29,0"
         style="fill:#4d5054;fill-opacity:1;fill-rule:nonzero;stroke:none"
         id="path12" /><path
         d="M 40.6445,40.5859 H 1872.89 V 545.043 H 40.6445 V 40.5859"
         style="fill:#ffffff;fill-opacity:1;fill-rule:nonzero;stroke:none"
         id="path14" /><path
         d="m 272.234,360.27 c -34.152,0 -60.636,-26.481 -60.636,-61.204 0,-34.73 26.484,-61.488 60.636,-61.488 17.93,0 37.575,9.11 51.809,23.352 l 26.48,-28.762 c -21.07,-21.633 -51.531,-35.574 -80.562,-35.574 -59.496,0 -104.477,44.121 -104.477,101.898 0,57.504 45.836,100.774 106.18,100.774 28.758,0 58.926,-12.805 78.57,-33.02 l -26.191,-31.887 c -13.66,15.661 -33.305,25.911 -51.809,25.911"
         style="fill:#4d5054;fill-opacity:1;fill-rule:nonzero;stroke:none"
         id="path16" /><path
         d="m 515.824,237.305 h -92.226 l -15.657,-38.719 h -46.402 l 86.543,199.262 h 46.402 l 85.11,-199.262 H 531.488 Z M 501.309,273.457 470,350.875 438.395,273.457 Z"
         style="fill:#4d5054;fill-opacity:1;fill-rule:nonzero;stroke:none"
         id="path18" /><path
         d="m 771.637,328.668 c 0,-46.402 -29.035,-73.16 -79.707,-73.16 h -39.563 v -56.922 h -44.98 v 199.25 h 84.543 c 50.672,0 79.707,-25.047 79.707,-69.168 m -42.696,-1.418 c 0,22.207 -14.234,33.301 -39.285,33.301 h -37.289 v -67.469 h 37.289 c 25.051,0 39.285,11.395 39.285,34.168"
         style="fill:#4d5054;fill-opacity:1;fill-rule:nonzero;stroke:none"
         id="path20" /><path
         d="m 871.566,361.41 c -15.089,0 -25.339,-5.414 -25.339,-16.23 0,-36.727 106.179,-16.227 105.89,-87.953 0,-39.004 -33.863,-60.059 -77.992,-60.059 -32.738,0 -65.473,12.52 -87.965,31.594 l 17.938,36.726 c 20.492,-18.222 49.523,-29.902 70.593,-29.902 18.504,0 29.602,6.836 29.602,19.07 0,37.571 -106.172,15.657 -106.172,86.25 0,36.153 31.024,58.934 77.137,58.934 27.902,0 55.797,-8.547 75.722,-21.637 l -17.363,-37.297 c -21.062,12.528 -46.113,20.504 -62.051,20.504"
         style="fill:#4d5054;fill-opacity:1;fill-rule:nonzero;stroke:none"
         id="path22" /><path
         d="m 1080.57,235.879 c 26.76,0 44.42,17.363 44.42,46.113 v 115.844 h 44.97 V 281.992 c 0,-52.656 -34.45,-85.398 -89.39,-85.398 -55.22,0 -90.527,32.742 -90.527,85.398 v 115.844 h 44.977 V 281.992 c 0,-28.75 18.78,-46.113 45.55,-46.113"
         style="fill:#4d5054;fill-opacity:1;fill-rule:nonzero;stroke:none"
         id="path24" /><path
         d="M 1265.1,397.848 V 237.871 h 85.4 v -39.285 h -130.38 v 199.262 h 44.98"
         style="fill:#4d5054;fill-opacity:1;fill-rule:nonzero;stroke:none"
         id="path26" /><path
         d="m 1528.97,397.848 v -37.297 h -106.74 v -43.262 h 95.93 V 279.98 h -95.93 v -44.121 h 109.87 v -37.273 h -154.85 v 199.262 h 151.72"
         style="fill:#4d5054;fill-opacity:1;fill-rule:nonzero;stroke:none"
         id="path28" /><path
         d="m 1737.09,350.199 c 0,-18.847 -10.94,-35.57 -28.27,-44.39 24.02,-9.426 39.23,-29.793 39.23,-54.11 0,-38 -33.46,-62.019 -85.44,-62.019 -52.6,0 -85.74,23.718 -85.74,61.406 0,24.617 16.12,45.297 41.65,54.723 -18.85,9.734 -30.7,26.754 -30.7,45.601 0,34.055 29.19,55.344 74.49,55.344 45.61,0 74.78,-21.895 74.78,-56.555 m -114.6,-93.949 c 0,-19.453 14.27,-30.078 40.12,-30.078 25.24,0 40.13,10.625 40.13,29.773 0,18.86 -14.58,29.504 -40.43,29.504 -25.55,0 -39.82,-10.644 -39.82,-29.199 m 5.77,91.215 c 0,-16.426 12.47,-25.84 34.35,-25.84 21.59,0 33.75,9.414 33.75,25.84 0,16.711 -12.16,26.144 -33.75,26.144 -21.88,0 -34.35,-9.433 -34.35,-26.144"
         style="fill:#359cc1;fill-opacity:1;fill-rule:nonzero;stroke:none"
         id="path30" /></g></g></svg>
