<?xml version="1.0" encoding="UTF-8" standalone="no"?>
<!-- Created with Inkscape (http://www.inkscape.org/) -->

<svg
   version="1.1"
   id="svg2"
   xml:space="preserve"
   width="500"
   height="108.81006"
   viewBox="0 0 500 108.81006"
   sodipodi:docname="SynopsysLogo-5.svg"
   inkscape:version="1.1.1 (3bf5ae0d25, 2021-09-20)"
   xmlns:inkscape="http://www.inkscape.org/namespaces/inkscape"
   xmlns:sodipodi="http://sodipodi.sourceforge.net/DTD/sodipodi-0.dtd"
   xmlns="http://www.w3.org/2000/svg"
   xmlns:svg="http://www.w3.org/2000/svg"><defs
     id="defs6"><clipPath
       clipPathUnits="userSpaceOnUse"
       id="clipPath16"><path
         d="M 0,55.584 H 180 V 0 H 0 Z"
         id="path14" /></clipPath></defs><sodipodi:namedview
     id="namedview4"
     pagecolor="#ffffff"
     bordercolor="#666666"
     borderopacity="1.0"
     inkscape:pageshadow="2"
     inkscape:pageopacity="0.0"
     inkscape:pagecheckerboard="0"
     showgrid="false"
     fit-margin-top="0"
     fit-margin-left="0"
     fit-margin-right="0"
     fit-margin-bottom="0"
     inkscape:zoom="4.6375"
     inkscape:cx="108.3558"
     inkscape:cy="23.504043"
     inkscape:window-width="1920"
     inkscape:window-height="1010"
     inkscape:window-x="-6"
     inkscape:window-y="-6"
     inkscape:window-maximized="1"
     inkscape:current-layer="g8" /><g
     id="g8"
     inkscape:groupmode="layer"
     inkscape:label="SynopsysLogo-5"
     transform="matrix(1.3333333,0,0,-1.3333333,-11.727333,60.618401)"><g
       id="g10"
       transform="matrix(2.3089897,0,0,2.3089897,-11.513219,-59.511645)"><g
         id="g12"
         clip-path="url(#clipPath16)"><g
           id="g18"
           transform="translate(20.1055,41.3354)"><path
             d="M 0,0 C 0,1.085 -0.542,1.898 -2.942,1.898 -5.344,1.898 -5.887,1.085 -5.887,0 v -2.942 c 0,-0.893 0.311,-1.784 1.162,-2.519 l 8.132,-6.972 c 1.163,-0.967 1.86,-2.169 1.86,-3.408 l -0.001,-4.415 c 0,-2.636 -3.099,-4.105 -8.211,-4.105 -5.654,0 -8.365,1.276 -8.365,4.105 v 3.833 h 5.113 l -0.002,-3.678 c 0,-1.319 1.008,-2.092 3.254,-2.092 2.093,0 3.099,0.773 3.099,2.092 v 3.911 c 0,0.968 -0.388,1.705 -1.471,2.673 l -7.513,6.545 c -1.394,1.201 -2.169,2.131 -2.169,3.564 v 3.369 c 0,2.748 2.867,4.106 8.057,4.106 5.733,0 8.054,-1.358 8.054,-3.914 V -3.408 H 0 Z"
             style="fill:#4f2683;fill-opacity:1;fill-rule:nonzero;stroke:none"
             id="path20" /></g><g
           id="g22"
           transform="translate(74.5215,21.8388)"><path
             d="m 0,0 c 0,-1.549 0.617,-2.635 3.873,-2.635 3.254,0 3.874,1.086 3.874,2.635 v 18.823 c 0,1.549 -0.62,2.633 -3.873,2.633 C 0.619,21.456 0,20.372 0,18.823 Z m -5.112,18.9 c 0,2.75 2.091,4.726 8.986,4.725 6.893,0 8.985,-1.975 8.985,-4.725 L 12.856,-0.078 c 0,-2.751 -2.089,-4.725 -8.983,-4.725 -6.894,0 -8.987,1.974 -8.987,4.725 z"
             style="fill:#4f2683;fill-opacity:1;fill-rule:nonzero;stroke:none"
             id="path24" /></g><g
           id="g26"
           transform="translate(97.7959,32.0238)"><path
             d="m 0,0 c 2.327,0 3.95,0.31 3.95,1.744 v 7.552 c 0,1.432 -1.623,1.743 -3.95,1.743 H -2.477 V 0 Z m -7.589,13.208 h 8.135 c 6.585,0 8.521,-1.085 8.521,-4.261 L 9.063,2.092 c 0,-3.175 -1.937,-4.261 -8.517,-4.261 h -3.023 v -12.588 h -5.112 z"
             style="fill:#4f2683;fill-opacity:1;fill-rule:nonzero;stroke:none"
             id="path28" /></g><g
           id="g30"
           transform="translate(119.6289,41.3964)"><path
             d="M 0,0 C 0,1.085 -0.542,1.898 -2.942,1.898 -5.346,1.898 -5.889,1.085 -5.889,0 v -2.944 c 0,-0.889 0.312,-1.781 1.163,-2.517 l 8.134,-6.972 c 1.161,-0.967 1.857,-2.168 1.857,-3.408 v -4.415 c 0,-2.636 -3.097,-4.105 -8.208,-4.105 -5.655,0 -8.369,1.278 -8.369,4.108 v 3.831 h 5.115 v -3.68 c 0,-1.317 1.008,-2.091 3.254,-2.091 2.09,0 3.096,0.774 3.096,2.091 v 3.912 c 0,0.97 -0.384,1.706 -1.47,2.673 l -7.514,6.546 c -1.396,1.201 -2.167,2.13 -2.167,3.561 v 3.372 c 0,2.751 2.864,4.105 8.056,4.105 5.732,0 8.055,-1.354 8.055,-3.913 V -3.41 H 0 Z"
             style="fill:#4f2683;fill-opacity:1;fill-rule:nonzero;stroke:none"
             id="path32" /></g><g
           id="g34"
           transform="translate(157.3574,41.3964)"><path
             d="M 0,0 C 0,1.085 -0.544,1.898 -2.944,1.898 -5.345,1.898 -5.889,1.085 -5.889,0 v -2.945 c 0,-0.89 0.311,-1.781 1.163,-2.516 l 8.133,-6.973 c 1.162,-0.967 1.858,-2.168 1.858,-3.408 v -4.414 c 0,-2.636 -3.098,-4.105 -8.209,-4.105 -5.657,0 -8.369,1.278 -8.369,4.105 v 3.834 h 5.116 l -0.003,-3.68 c 0,-1.317 1.009,-2.091 3.256,-2.091 2.088,0 3.097,0.774 3.097,2.091 v 3.912 c 0,0.969 -0.386,1.705 -1.473,2.673 l -7.513,6.546 c -1.395,1.199 -2.169,2.128 -2.169,3.561 v 3.372 c 0,2.747 2.868,4.105 8.058,4.105 5.732,0 8.054,-1.358 8.054,-3.913 V -3.41 H 0 Z"
             style="fill:#4f2683;fill-opacity:1;fill-rule:nonzero;stroke:none"
             id="path36" /></g><g
           id="g38"
           transform="translate(41.1953,45.2314)"><path
             d="M 0,0 H 5.119 L -6.085,-35.107 h -5.119 z"
             style="fill:#4f2683;fill-opacity:1;fill-rule:nonzero;stroke:none"
             id="path40" /></g><g
           id="g42"
           transform="translate(33.1182,23.4247)"><path
             d="m 0,0 -6.925,21.744 h 5.118 L 2.559,8.035 Z"
             style="fill:#4f2683;fill-opacity:1;fill-rule:nonzero;stroke:none"
             id="path44" /></g><g
           id="g46"
           transform="translate(140.6611,45.2314)"><path
             d="M 0,0 H 5.118 L -6.086,-35.111 h -5.119 z"
             style="fill:#4f2683;fill-opacity:1;fill-rule:nonzero;stroke:none"
             id="path48" /></g><g
           id="g50"
           transform="translate(132.6094,23.4848)"><path
             d="m 0,0 -6.927,21.747 h 5.119 L 2.56,8.038 Z"
             style="fill:#4f2683;fill-opacity:1;fill-rule:nonzero;stroke:none"
             id="path52" /></g><g
           id="g54"
           transform="translate(66.2573,17.267)"><path
             d="m 0,0 h 0.024 v 23.697 c 0,3.176 -1.937,4.261 -8.519,4.261 h -9.86 l -0.002,-27.967 h 5.11 l 0.003,0.009 10e-4,25.789 h 4.205 c 2.322,0 3.949,-0.31 3.949,-1.743 V 0 Z"
             style="fill:#4f2683;fill-opacity:1;fill-rule:nonzero;stroke:none"
             id="path56" /></g><g
           id="g58"
           transform="translate(167.9072,42.0019)"><path
             d="m 0,0 c 0.482,0 0.914,0.034 0.914,0.61 0,0.467 -0.422,0.552 -0.817,0.552 H -0.68 V 0 Z m -0.68,-2.11 h -0.57 v 3.755 h 1.432 c 0.887,0 1.327,-0.327 1.327,-1.067 0,-0.674 -0.423,-0.967 -0.976,-1.036 L 1.603,-2.11 H 0.967 l -0.992,1.627 H -0.68 Z m 0.691,-0.837 c 1.472,0 2.632,1.155 2.632,2.724 0,1.541 -1.16,2.704 -2.632,2.704 -1.494,0 -2.654,-1.163 -2.654,-2.704 0,-1.569 1.16,-2.724 2.654,-2.724 M -3.3,-0.223 c 0,1.868 1.518,3.246 3.311,3.246 1.772,0 3.286,-1.378 3.286,-3.246 0,-1.887 -1.514,-3.267 -3.286,-3.267 -1.793,0 -3.311,1.38 -3.311,3.267"
             style="fill:#4f2683;fill-opacity:1;fill-rule:nonzero;stroke:none"
             id="path60" /></g></g></g></g></svg>
