<?xml version="1.0" encoding="UTF-8" standalone="no"?>
<svg xmlns:inkscape="http://www.inkscape.org/namespaces/inkscape" xmlns:sodipodi="http://sodipodi.sourceforge.net/DTD/sodipodi-0.dtd" xmlns="http://www.w3.org/2000/svg" xmlns:svg="http://www.w3.org/2000/svg" width="399.91562" height="100" viewBox="0 0 399.91562 100" fill="none" class="logo-variant_orange" version="1.1" id="svg1617" sodipodi:docname="Gcore_logo.svg" inkscape:version="1.2.2 (b0a84865, 2022-12-01)">
  <defs id="defs1621"></defs>
  <g id="g2945" transform="scale(3.125)">
    <path fill-rule="evenodd" clip-rule="evenodd" d="m 27.4271,16 c 0,8.8361 -7.1477,16 -15.964,16 -3.56143,0 -6.85126,-1.1694 -9.5064,-3.1444 0.45455,0.2555 0.92292,0.486 1.40518,0.6944 1.82644,0.7889 3.79424,1.1972 5.78421,1.1972 3.70551,0 7.27261,-1.4056 9.98861,-3.9277 2.7161,-2.5223 4.3846,-5.9806 4.6673,-9.6834 0.0389,-0.3499 0.0609,-0.7 0.0665,-1.05 0,-0.4473 -0.036,-0.9639 -0.0832,-1.4361 -0.0027,-0.0444 -0.0055,-0.0917 -0.0082,-0.1361 0,-0.0528 -0.0029,-0.1056 -0.0084,-0.1556 l -0.0138,0.0139 C 23.6884,13.7583 23.6191,13.2861 23.6191,13.2861 H 12.0368 L 11.1361,14.975 9.06848,18.8917 H 17.821 c -0.3243,0.9695 -0.8093,1.8805 -1.4329,2.6916 -0.8509,1.1167 -1.9456,2.0195 -3.2039,2.6418 -1.2555,0.6221 -2.6385,0.9472 -4.04089,0.9443 -1.07259,0 -2.13685,-0.1944 -3.14292,-0.5667 C 4.24046,23.9584 2.72166,22.789 1.64907,21.25 0.57648,19.7084 0,17.8778 0,16 0,14.7972 0.235582,13.6028 0.695657,12.4917 1.15573,11.3806 1.82921,10.3694 2.67732,9.51666 3.5254,8.66667 4.53425,7.98888 5.64563,7.53056 6.75702,7.07223 7.94601,6.83334 9.14609,6.83334 11.0834,6.83056 12.9736,7.44723 14.5367,8.59445 L 15.7368,6.34166 17.1669,3.63334 C 14.7806,2.075 11.9925,1.24722 9.14331,1.25 6.62398,1.25 4.17116,1.9 2.00105,3.10556 4.65342,1.15556 7.92383,0 11.4631,0 c 8.8163,0 15.964,7.16388 15.964,16 z" fill="#ff4c00" id="path1601"></path>
    <path d="m 70.7826,19.6361 c -0.5631,0.6757 -1.2695,1.2185 -2.0704,1.5792 -0.7135,0.3151 -1.4899,0.4727 -2.2699,0.4692 -0.9967,0.0175 -1.9831,-0.2241 -2.8609,-0.7038 -0.0315,-0.0175 -0.0594,-0.0385 -0.0909,-0.0595 -0.7835,-0.4518 -1.4306,-1.11 -1.8711,-1.9048 -0.4793,-0.8789 -0.7206,-1.863 -0.703,-2.8643 -0.0176,-0.998 0.2237,-1.9854 0.703,-2.8643 0.4405,-0.7914 1.0841,-1.4497 1.8711,-1.9049 0.0315,-0.0175 0.0594,-0.042 0.0909,-0.0595 0.8778,-0.4797 1.8606,-0.7213 2.8609,-0.7038 0.7834,-0.007 1.5564,0.1506 2.2733,0.4622 L 70.342,8.02146 c 0,0 -0.0245,-0.01401 -0.0386,-0.02101 -1.2834,-0.53573 -2.665,-0.80536 -4.057,-0.78786 -1.5388,-0.0175 -3.0568,0.32215 -4.4452,0.98745 -0.1155,0.05602 -0.2378,0.09804 -0.3532,0.16107 -1.3885,0.73182 -2.5496,1.83479 -3.3541,3.18639 -0.8219,1.3936 -1.245,2.9868 -1.2206,4.6046 -0.0244,1.6176 0.3987,3.2108 1.2206,4.6044 0.8045,1.3482 1.9656,2.4513 3.3541,3.1831 0.1154,0.0629 0.2377,0.105 0.3532,0.161 1.378,0.6618 2.8888,1.0015 4.4173,0.9873 1.3954,0.0211 2.7805,-0.2484 4.0675,-0.7912 0.0174,-0.0071 0.0315,-0.0175 0.0489,-0.0245 1.1682,-0.5078 2.1999,-1.2851 3.0078,-2.2725 l -2.5636,-2.3705 z" fill="#ff4c00" id="path1603"></path>
    <path d="m 79.18,23.9291 c -1.399,-0.7354 -2.5671,-1.8419 -3.3786,-3.197 -0.8219,-1.383 -1.245,-2.9692 -1.2206,-4.58 -0.0244,-1.6107 0.3987,-3.1969 1.2206,-4.58 0.8115,-1.3551 1.9796,-2.46158 3.3786,-3.1969 1.4934,-0.78786 3.1581,-1.18353 4.8475,-1.16252 1.6823,-0.02802 3.347,0.37116 4.8334,1.15902 1.3955,0.73882 2.5637,1.8453 3.3785,3.1969 0.829,1.3831 1.2556,2.9693 1.2347,4.58 0.0209,1.6107 -0.4057,3.197 -1.2347,4.5801 -0.8148,1.3516 -1.983,2.4581 -3.3785,3.1968 -1.4864,0.788 -3.1511,1.1872 -4.8334,1.1625 -1.6858,0.0247 -3.3541,-0.3745 -4.8475,-1.1625 z m 7.6069,-2.9518 c 0.815,-0.4623 1.4865,-1.1415 1.9376,-1.9645 0.4791,-0.8788 0.7205,-1.8627 0.703,-2.8642 0.0175,-0.9978 -0.2239,-1.9853 -0.703,-2.8642 -0.4511,-0.8229 -1.1226,-1.5022 -1.9376,-1.9644 -0.8429,-0.4727 -1.7941,-0.7178 -2.7629,-0.7038 -0.9653,-0.014 -1.9201,0.2276 -2.763,0.7038 -0.815,0.4622 -1.4865,1.1415 -1.9376,1.9644 -0.4791,0.8789 -0.7205,1.8628 -0.703,2.8642 -0.0175,0.998 0.2239,1.9854 0.703,2.8642 0.4511,0.823 1.1226,1.5022 1.9376,1.9645 0.8429,0.4763 1.7941,0.7178 2.763,0.7039 0.9652,0.0139 1.92,-0.2276 2.7629,-0.7039 z" fill="#ff4c00" id="path1605"></path>
    <path d="m 107.481,24.794 -3.329,-4.8147 h -3.676 V 24.794 H 96.4818 V 7.51025 h 7.4702 c 1.368,-0.0315 2.725,0.22761 3.984,0.76685 1.06,0.45519 1.966,1.21153 2.602,2.1745 0.626,0.9979 0.944,2.1569 0.913,3.3334 0.031,1.1766 -0.29,2.332 -0.923,3.3195 -0.647,0.956 -1.56,1.6983 -2.627,2.1359 l 3.872,5.557 h -4.292 z M 106.47,11.5475 c -0.793,-0.5707 -1.762,-0.8473 -2.735,-0.7773 h -3.256 v 6.0227 h 3.256 c 0.976,0.0664 1.949,-0.2102 2.735,-0.7914 0.315,-0.2731 0.564,-0.6163 0.728,-1.0014 0.161,-0.3852 0.234,-0.8019 0.213,-1.2186 0.025,-0.4202 -0.045,-0.8403 -0.209,-1.2255 -0.161,-0.3887 -0.413,-0.7318 -0.728,-1.0085 z" fill="#ff4c00" id="path1607"></path>
    <path d="m 127.973,21.5865 v 3.2109 H 114.605 V 7.51025 h 13.046 v 3.21095 h -9.076 v 3.7536 h 8.016 v 3.1129 h -8.016 v 3.9988 h 9.394 z" fill="#ff4c00" id="path1609"></path>
    <path d="m 49.174,19.6325 c -0.563,0.6759 -1.2695,1.2186 -2.0703,1.5793 -0.7136,0.3152 -1.49,0.4726 -2.27,0.4692 -0.9967,0.0175 -1.983,-0.2242 -2.8608,-0.7039 -0.0315,-0.0174 -0.0595,-0.0385 -0.091,-0.0595 -0.7834,-0.4516 -1.4305,-1.1099 -1.871,-1.9048 -0.4793,-0.8789 -0.7206,-1.8628 -0.7031,-2.8642 -0.0175,-0.9981 0.2238,-1.9855 0.7031,-2.8643 0.4405,-0.7914 1.0841,-1.4497 1.871,-1.9049 0.0315,-0.0175 0.0595,-0.042 0.091,-0.0595 0.8778,-0.4797 1.8605,-0.7213 2.8608,-0.7038 0.7835,-0.007 1.5564,0.1505 2.2734,0.4622 l 1.6264,-3.06037 c 0,0 -0.0245,-0.01402 -0.0386,-0.02102 C 47.4114,7.46117 46.0299,7.19156 44.6379,7.21257 43.0991,7.19506 41.5811,7.53471 40.1927,8.2 40.0772,8.25604 39.9549,8.29804 39.8395,8.36108 38.451,9.0929 37.2898,10.1959 36.4854,11.5475 c -0.8219,1.3901 -1.2451,2.9868 -1.2206,4.6045 -0.0245,1.6177 0.3987,3.211 1.2206,4.6046 0.8044,1.348 1.9656,2.451 3.3541,3.1828 0.1154,0.0631 0.2377,0.105 0.3532,0.1611 1.378,0.6618 2.8888,1.0014 4.4173,0.9875 1.3954,0.021 2.7804,-0.2487 4.0675,-0.7913 0.0174,-0.0071 0.0315,-0.0176 0.0489,-0.0246 1.1682,-0.5077 2.1999,-1.285 3.0078,-2.2725 L 49.1706,19.629 Z" fill="#ff4c00" id="path1611"></path>
    <path d="m 53.9656,15.6549 -3.4905,0.014 c 0.049,0.8789 -0.1013,1.7577 -0.4406,2.5702 -0.3114,0.7178 -0.7695,1.362 -1.343,1.8907 -0.2833,0.2731 -0.5877,0.5218 -0.9199,0.7283 0.4371,1.1101 0.8219,2.143 1.0318,3.3265 0.773,-0.4166 1.5108,-0.7457 2.1544,-1.3551 1.0353,-0.9383 1.7557,-2.1324 2.3292,-3.407 0.0071,-0.0174 0.0105,-0.035 0.0176,-0.049 0.5106,-1.1694 0.738,-2.4405 0.6575,-3.7151 z" fill="#ff4c00" id="path1613"></path>
    <path d="m 53.9831,15.2312 -0.0176,0.4237 -1.7102,3.0778 h -9.0374 l 1.8292,-3.5015 z" fill="#ff4c00" id="path1615"></path>
  </g>
</svg>
