<?xml version="1.0" encoding="UTF-8" standalone="no"?>
<!-- Generator: Adobe Illustrator 26.0.2, SVG Export Plug-In . SVG Version: 6.00 Build 0)  -->
<svg xmlns:inkscape="http://www.inkscape.org/namespaces/inkscape" xmlns:sodipodi="http://sodipodi.sourceforge.net/DTD/sodipodi-0.dtd" xmlns="http://www.w3.org/2000/svg" xmlns:svg="http://www.w3.org/2000/svg" version="1.1" id="Layer_1" x="0px" y="0px" viewBox="0 0 194.91401 59.999998" xml:space="preserve" sodipodi:docname="Port_logo.svg" width="194.914" height="60" inkscape:version="1.2.2 (b0a84865, 2022-12-01)"><defs id="defs213"></defs>
<style type="text/css" id="style182">
	.st0{fill:#3CC48F;}
	.st1{fill:#AEFFDC;}
</style>

<g fill="#000000" id="g186"><path d="m 184.185,45.883 c -2.306,0 -4.189,-0.706 -5.648,-2.118 -1.411,-1.459 -2.117,-3.388 -2.117,-5.788 V 18.212 h -8.753 v -7.341 h 8.753 V 0 h 8.894 v 10.87 h 9.6 v 7.342 h -9.6 v 18.212 c 0,1.412 0.659,2.118 1.977,2.118 h 6.776 v 7.34 z m -41.401,0 V 10.871 h 8.753 v 3.953 h 1.27 c 0.518,-1.412 1.365,-2.447 2.542,-3.106 1.223,-0.659 2.635,-0.988 4.235,-0.988 h 4.235 v 7.906 h -4.376 c -2.259,0 -4.118,0.612 -5.577,1.835 -1.459,1.177 -2.188,3.012 -2.188,5.506 V 45.883 Z M 119.74,46.87 c -3.482,0 -6.612,-0.706 -9.388,-2.117 -2.777,-1.412 -4.965,-3.46 -6.565,-6.142 -1.6,-2.682 -2.4,-5.905 -2.4,-9.67 v -1.13 c 0,-3.764 0.8,-6.988 2.4,-9.67 1.6,-2.683 3.788,-4.73 6.565,-6.142 2.776,-1.411 5.906,-2.117 9.388,-2.117 3.483,0 6.612,0.706 9.389,2.117 2.776,1.412 4.965,3.46 6.565,6.142 1.6,2.682 2.4,5.906 2.4,9.67 v 1.13 c 0,3.765 -0.8,6.988 -2.4,9.67 -1.6,2.683 -3.789,4.73 -6.565,6.142 -2.777,1.411 -5.906,2.117 -9.389,2.117 z m 0,-7.906 c 2.73,0 4.989,-0.87 6.777,-2.611 1.788,-1.789 2.682,-4.33 2.682,-7.624 v -0.706 c 0,-3.294 -0.894,-5.812 -2.682,-7.553 -1.741,-1.788 -4,-2.682 -6.777,-2.682 -2.729,0 -4.988,0.894 -6.776,2.682 -1.789,1.741 -2.683,4.259 -2.683,7.553 v 0.706 c 0,3.294 0.894,5.835 2.683,7.624 1.788,1.74 4.047,2.611 6.776,2.611 z M 61.602,60 V 10.87 h 8.753 v 4.235 h 1.27 c 0.8,-1.364 2.048,-2.564 3.742,-3.6 1.694,-1.082 4.118,-1.623 7.27,-1.623 2.824,0 5.436,0.706 7.836,2.117 2.4,1.365 4.33,3.389 5.788,6.071 1.46,2.682 2.188,5.93 2.188,9.741 v 1.13 c 0,3.812 -0.729,7.059 -2.188,9.741 -1.459,2.682 -3.388,4.73 -5.788,6.141 -2.4,1.365 -5.012,2.047 -7.835,2.047 -2.118,0 -3.906,-0.258 -5.365,-0.776 -1.412,-0.47 -2.565,-1.082 -3.46,-1.835 -0.846,-0.8 -1.529,-1.6 -2.046,-2.4 H 70.496 V 60 Z M 79.955,39.106 c 2.777,0 5.06,-0.871 6.847,-2.612 1.836,-1.788 2.753,-4.377 2.753,-7.765 v -0.706 c 0,-3.388 -0.917,-5.953 -2.753,-7.694 -1.835,-1.788 -4.117,-2.683 -6.847,-2.683 -2.73,0 -5.012,0.895 -6.847,2.683 -1.835,1.741 -2.753,4.306 -2.753,7.694 v 0.706 c 0,3.388 0.918,5.977 2.753,7.765 1.835,1.74 4.118,2.612 6.847,2.612 z" id="path182"></path><path fill-rule="evenodd" clip-rule="evenodd" d="M 0,30.016 H 24.118 L 0,5.9 Z m 0.029,8.352 c 0.4,5.4 4.909,9.657 10.411,9.657 H 48.025 V 10.44 C 48.025,4.904 43.717,0.375 38.27,0.022 V 38.37 Z M 29.918,0 V 24.005 L 5.912,0 Z" id="path184-9"></path></g></svg>
