<?xml version="1.0" encoding="UTF-8" standalone="no"?>
<svg xmlns:inkscape="http://www.inkscape.org/namespaces/inkscape" xmlns:sodipodi="http://sodipodi.sourceforge.net/DTD/sodipodi-0.dtd" xmlns="http://www.w3.org/2000/svg" xmlns:svg="http://www.w3.org/2000/svg" width="1321.6859" height="331.11099" viewBox="0 0 1321.6859 331.11099" fill="none" version="1.1" id="svg39" sodipodi:docname="SpectroCloud_horizontal_logo_on light bg.svg" inkscape:version="1.1.1 (3bf5ae0d25, 2021-09-20)">
  <g id="g874" transform="translate(-18.9141,-15.709)">
    <path d="m 489.843,206.823 c -4.717,-2.264 -8.113,-4.716 -10.377,-7.546 -2.264,-2.83 -3.396,-5.283 -3.396,-6.981 0,-0.943 0.378,-1.698 0.944,-2.264 0.754,-0.566 1.509,-0.755 2.264,-0.755 h 6.226 c 0.566,0 1.132,0.189 1.32,0.378 0.378,0.188 0.755,0.566 1.321,1.32 2.264,2.83 4.717,4.906 7.547,6.415 2.83,1.509 6.603,2.264 11.319,2.264 5.283,0 9.434,-0.943 12.641,-3.019 3.207,-1.886 4.717,-4.716 4.717,-8.49 0,-2.452 -0.755,-4.339 -2.076,-5.848 -1.32,-1.51 -3.584,-2.83 -6.792,-3.962 -3.207,-1.132 -7.924,-2.453 -14.149,-3.774 -8.49,-1.886 -14.528,-4.527 -18.112,-8.112 -3.585,-3.585 -5.283,-8.113 -5.283,-13.584 0,-3.585 1.132,-7.169 3.207,-10.565 2.076,-3.396 5.283,-6.038 9.622,-8.302 4.34,-2.264 9.245,-3.207 15.282,-3.207 6.226,0 11.509,0.943 15.848,3.019 4.339,2.075 7.547,4.528 9.811,7.169 2.264,2.83 3.396,5.094 3.396,6.981 0,0.943 -0.378,1.698 -0.944,2.264 -0.566,0.566 -1.32,0.943 -2.264,0.943 h -5.66 c -1.32,0 -2.264,-0.566 -3.018,-1.698 -1.698,-1.887 -3.019,-3.396 -4.151,-4.339 -1.132,-0.944 -2.83,-1.887 -4.905,-2.642 -2.076,-0.754 -4.906,-1.132 -8.113,-1.132 -4.716,0 -8.49,0.944 -10.942,3.019 -2.642,2.075 -3.774,4.717 -3.774,7.924 0,2.075 0.566,3.773 1.698,5.283 1.132,1.509 3.208,2.83 6.226,3.962 3.019,1.32 7.547,2.452 13.584,3.773 9.245,1.887 15.848,4.717 19.81,8.301 3.962,3.585 5.849,8.301 5.849,13.961 0,4.151 -1.132,8.113 -3.585,11.509 -2.453,3.396 -6.037,6.037 -10.754,8.113 -4.717,1.886 -10.377,3.018 -16.98,3.018 -6.98,0 -12.64,-1.132 -17.357,-3.396 z" fill="#000000" id="path2"></path>
    <path d="m 553.613,235.689 c -0.566,-0.566 -0.943,-1.509 -0.943,-2.452 v -97.541 c 0,-1.132 0.377,-1.886 0.943,-2.452 0.566,-0.566 1.51,-0.944 2.453,-0.944 h 6.226 c 1.132,0 1.887,0.378 2.453,0.944 0.566,0.566 0.943,1.509 0.943,2.452 v 6.415 c 5.66,-7.547 13.772,-11.32 24.338,-11.32 10.376,0 17.923,3.207 23.206,9.811 5.094,6.603 7.924,14.904 8.112,24.904 0.189,1.132 0.189,2.83 0.189,4.905 0,2.264 0,3.962 -0.189,4.905 -0.377,9.999 -3.018,18.301 -8.112,24.904 -5.094,6.603 -12.83,9.811 -23.206,9.811 -10.566,0 -18.49,-3.774 -23.772,-11.132 v 34.149 c 0,0.943 -0.378,1.698 -0.944,2.453 -0.566,0.566 -1.509,0.943 -2.452,0.943 h -6.603 c -1.132,0.189 -1.887,-0.189 -2.642,-0.755 z m 48.865,-43.582 c 3.207,-4.339 4.905,-10.188 5.282,-17.357 0.189,-0.943 0.189,-2.452 0.189,-4.339 0,-18.867 -6.981,-28.3 -20.942,-28.3 -6.792,0 -12.075,2.264 -15.471,6.792 -3.395,4.528 -5.282,9.999 -5.471,16.037 -0.188,1.132 -0.188,3.018 -0.188,5.66 0,2.829 0,4.716 0.188,5.659 0.189,6.038 2.076,11.132 5.66,15.471 3.585,4.339 8.679,6.603 15.282,6.603 7.169,0.378 12.263,-1.886 15.471,-6.226 z" fill="#000000" id="path4"></path>
    <path d="m 643.23,200.786 c -6.038,-6.226 -9.245,-14.716 -9.811,-25.47 l -0.189,-4.905 0.189,-4.905 c 0.566,-10.566 3.962,-19.056 9.811,-25.282 6.037,-6.226 13.961,-9.433 23.96,-9.433 10.754,0 19.056,3.396 25.093,10.377 5.849,6.792 8.867,16.225 8.867,27.922 v 2.641 c 0,0.944 -0.377,1.698 -0.943,2.453 -0.566,0.566 -1.509,0.943 -2.453,0.943 h -50.94 v 1.321 c 0.378,6.415 2.264,11.886 5.849,16.225 3.585,4.528 8.49,6.792 14.339,6.792 4.528,0 8.301,-0.943 11.32,-2.641 2.83,-1.887 5.094,-3.773 6.603,-5.66 0.943,-1.132 1.509,-1.887 2.075,-2.075 0.566,-0.189 1.321,-0.378 2.453,-0.378 h 6.415 c 0.943,0 1.698,0.189 2.264,0.755 0.566,0.566 0.943,1.132 0.943,1.887 0,2.075 -1.321,4.716 -3.962,7.735 -2.641,3.019 -6.415,5.66 -11.32,7.924 -4.905,2.264 -10.377,3.396 -16.603,3.396 -9.999,-0.189 -17.923,-3.396 -23.96,-9.622 z m 44.525,-35.658 v -0.377 c 0,-6.792 -1.887,-12.452 -5.66,-16.791 -3.773,-4.34 -8.679,-6.415 -14.905,-6.415 -6.414,0 -11.32,2.075 -14.904,6.415 -3.585,4.339 -5.472,9.81 -5.472,16.791 v 0.377 z" fill="#000000" id="path6"></path>
    <path d="m 722.091,201.35 c -5.848,-5.849 -9.055,-14.15 -9.244,-24.904 l -0.189,-5.849 0.189,-5.848 c 0.377,-10.754 3.396,-19.056 9.244,-24.904 5.849,-5.849 13.962,-8.867 24.527,-8.867 6.981,0 13.018,1.32 17.923,3.773 4.906,2.453 8.49,5.66 10.943,9.244 2.453,3.774 3.773,7.358 3.962,11.132 0.189,0.943 -0.189,1.698 -0.943,2.264 -0.755,0.754 -1.51,0.943 -2.453,0.943 h -6.603 c -0.944,0 -1.698,-0.189 -2.264,-0.755 -0.566,-0.377 -0.944,-1.32 -1.51,-2.452 -1.698,-4.717 -4.15,-8.113 -7.358,-10.188 -3.018,-2.076 -6.98,-3.019 -11.697,-3.019 -6.226,0 -11.131,1.887 -14.716,5.66 -3.585,3.773 -5.66,9.622 -5.849,17.546 l -0.188,5.094 0.188,5.094 c 0.378,7.924 2.264,13.584 5.849,17.546 3.585,3.773 8.49,5.66 14.716,5.66 4.717,0 8.679,-0.943 11.697,-3.019 3.019,-2.075 5.472,-5.471 7.17,-10.188 0.566,-1.132 0.943,-2.075 1.509,-2.452 0.566,-0.378 1.132,-0.755 2.264,-0.755 h 6.415 c 0.943,0 1.698,0.377 2.452,0.943 0.755,0.755 1.132,1.51 0.944,2.264 -0.189,3.585 -1.51,7.358 -3.962,10.943 -2.453,3.773 -6.038,6.792 -10.943,9.433 -4.905,2.642 -10.754,3.774 -17.923,3.774 -10,0.754 -18.301,-2.264 -24.15,-8.113 z" fill="#000000" id="path8"></path>
    <path d="m 800.574,183.051 v -39.432 h -11.697 c -0.943,0 -1.698,-0.377 -2.264,-0.943 -0.566,-0.566 -0.943,-1.321 -0.943,-2.264 v -4.717 c 0,-0.943 0.377,-1.698 0.943,-2.452 0.566,-0.566 1.321,-0.944 2.264,-0.944 h 11.697 v -24.526 c 0,-0.943 0.378,-1.698 0.944,-2.453 0.566,-0.566 1.321,-0.943 2.264,-0.943 h 6.414 c 0.944,0 1.698,0.377 2.453,0.943 0.566,0.566 0.943,1.51 0.943,2.453 v 24.526 h 18.301 c 0.943,0 1.698,0.378 2.453,0.944 0.566,0.566 0.943,1.509 0.943,2.452 v 4.717 c 0,0.943 -0.377,1.698 -0.943,2.264 -0.566,0.566 -1.51,0.943 -2.453,0.943 h -18.301 v 38.3 c 0,4.905 0.755,8.678 2.453,11.32 1.698,2.641 4.339,3.773 8.301,3.773 h 9.056 c 0.944,0 1.698,0.377 2.264,0.943 0.566,0.566 0.944,1.51 0.944,2.453 v 4.905 c 0,0.943 -0.378,1.698 -0.944,2.453 -0.566,0.566 -1.32,0.943 -2.264,0.943 h -9.999 c -15.282,0 -22.829,-8.49 -22.829,-25.658 z" fill="#000000" id="path10"></path>
    <path d="m 849.062,207.766 c -0.566,-0.566 -0.943,-1.509 -0.943,-2.453 v -69.429 c 0,-0.943 0.377,-1.886 0.943,-2.452 0.566,-0.755 1.51,-0.944 2.453,-0.944 h 6.226 c 1.132,0 1.887,0.378 2.641,0.944 0.566,0.566 0.944,1.509 0.944,2.641 v 6.415 c 3.962,-6.604 10.754,-10 20.376,-10 h 5.66 c 1.132,0 1.886,0.378 2.452,0.944 0.566,0.566 0.944,1.509 0.944,2.452 v 5.283 c 0,0.943 -0.378,1.698 -0.944,2.453 -0.566,0.566 -1.509,0.943 -2.452,0.943 h -8.49 c -5.472,0 -9.622,1.509 -12.641,4.717 -3.019,3.207 -4.717,7.357 -4.717,12.829 v 43.393 c 0,0.943 -0.377,1.698 -0.943,2.453 -0.755,0.566 -1.509,0.943 -2.453,0.943 h -6.603 c -1.132,-0.189 -1.887,-0.566 -2.453,-1.132 z" fill="#000000" id="path12"></path>
    <path d="m 904.908,201.161 c -5.849,-6.037 -8.867,-14.15 -9.245,-24.338 l -0.188,-6.226 0.188,-6.226 c 0.378,-9.999 3.585,-18.112 9.434,-24.337 5.848,-6.038 14.15,-9.056 24.715,-9.056 10.565,0 18.866,3.018 24.715,9.056 5.849,6.037 9.056,14.149 9.433,24.337 0.189,2.076 0.378,4.34 0.378,6.226 0,2.076 -0.189,4.151 -0.378,6.226 -0.377,10 -3.584,18.112 -9.244,24.338 -5.849,6.038 -14.15,9.056 -24.904,9.056 -10.754,0 -19.055,-3.018 -24.904,-9.056 z m 39.808,-7.924 c 3.585,-3.962 5.66,-9.622 6.038,-17.168 0.188,-0.944 0.188,-2.83 0.188,-5.66 0,-2.83 0,-4.528 -0.188,-5.66 -0.378,-7.358 -2.264,-13.207 -6.038,-17.169 -3.584,-3.962 -8.678,-6.037 -14.904,-6.037 -6.226,0 -11.32,2.075 -14.905,6.037 -3.584,3.962 -5.66,9.622 -6.037,17.169 l -0.189,5.66 0.189,5.66 c 0.377,7.358 2.264,13.206 6.037,17.168 3.585,3.962 8.679,6.038 14.905,6.038 6.414,-0.189 11.32,-2.076 14.904,-6.038 z" fill="#000000" id="path14"></path>
    <path d="m 1016.66,201.35 c -5.66,-5.849 -8.49,-14.15 -8.86,-24.904 l -0.19,-5.849 0.19,-5.848 c 0.37,-10.754 3.2,-19.056 8.86,-24.904 5.66,-5.849 13.4,-8.867 23.59,-8.867 6.41,0 11.88,1.132 16.6,3.396 4.53,2.264 7.92,5.282 10.19,8.867 2.26,3.584 3.39,7.358 3.58,11.131 0.19,0.943 -0.19,1.698 -0.94,2.264 -0.76,0.566 -1.51,0.943 -2.27,0.943 h -2.07 c -0.94,0 -1.7,-0.188 -2.08,-0.754 -0.37,-0.378 -0.94,-1.321 -1.32,-2.453 -1.88,-5.471 -4.71,-9.245 -8.3,-11.509 -3.58,-2.263 -7.92,-3.395 -13.39,-3.395 -6.98,0 -12.64,2.075 -16.79,6.414 -4.16,4.339 -6.42,10.754 -6.61,19.621 l -0.19,5.094 0.19,5.094 c 0.38,8.868 2.45,15.282 6.61,19.622 4.15,4.339 9.81,6.414 16.79,6.414 5.47,0 9.81,-1.132 13.39,-3.396 3.59,-2.264 6.23,-6.226 8.3,-11.508 0.57,-1.132 0.95,-2.076 1.32,-2.453 0.38,-0.377 1.14,-0.755 2.08,-0.755 h 2.07 c 0.95,0 1.7,0.378 2.27,0.944 0.75,0.566 0.94,1.32 0.94,2.264 -0.19,3.773 -1.51,7.546 -3.58,11.131 -2.27,3.585 -5.66,6.603 -10.19,8.867 -4.53,2.264 -10,3.396 -16.6,3.396 -10.19,0 -17.93,-3.018 -23.59,-8.867 z" fill="#000000" id="path16"></path>
    <path d="m 1088.17,207.766 c -0.57,-0.566 -0.95,-1.321 -0.95,-2.264 v -97.918 c 0,-0.943 0.38,-1.698 0.95,-2.264 0.56,-0.566 1.32,-0.943 2.26,-0.943 h 2.45 c 0.95,0 1.7,0.377 2.27,0.943 0.56,0.566 0.94,1.321 0.94,2.264 v 97.918 c 0,0.943 -0.38,1.698 -0.94,2.264 -0.57,0.566 -1.32,0.943 -2.27,0.943 h -2.26 c -0.94,0 -1.89,-0.377 -2.45,-0.943 z" fill="#000000" id="path18"></path>
    <path d="m 1122.69,200.786 c -5.66,-6.226 -8.68,-14.339 -8.86,-24.149 l -0.19,-6.226 0.19,-6.226 c 0.37,-9.811 3.2,-17.923 8.86,-24.149 5.66,-6.226 13.59,-9.245 23.77,-9.245 10.19,0 18.12,3.019 23.78,9.245 5.66,6.226 8.68,14.338 8.86,24.149 0.19,0.943 0.19,3.019 0.19,6.226 0,3.207 0,5.282 -0.19,6.226 -0.37,9.81 -3.2,17.923 -8.86,24.149 -5.66,6.226 -13.59,9.245 -23.78,9.245 -10.18,0.188 -18.11,-3.019 -23.77,-9.245 z m 40.57,-5.849 c 4.34,-4.528 6.6,-10.754 6.79,-19.055 0.19,-0.943 0.19,-2.83 0.19,-5.471 0,-2.641 0,-4.528 -0.19,-5.471 -0.38,-8.302 -2.64,-14.528 -6.79,-19.056 -4.34,-4.528 -9.81,-6.603 -16.8,-6.603 -6.98,0 -12.64,2.264 -16.79,6.603 -4.34,4.528 -6.6,10.754 -6.79,19.056 l -0.19,5.471 0.19,5.471 c 0.38,8.301 2.64,14.527 6.79,19.055 4.34,4.528 9.81,6.604 16.79,6.604 6.99,0.188 12.46,-2.076 16.8,-6.604 z" fill="#000000" id="path20"></path>
    <path d="m 1203.06,201.162 c -4.9,-6.037 -7.54,-13.961 -7.54,-23.772 v -41.884 c 0,-0.943 0.37,-1.698 0.94,-2.264 0.57,-0.566 1.32,-0.943 2.26,-0.943 h 2.46 c 0.94,0 1.7,0.377 2.26,0.943 0.57,0.566 0.94,1.321 0.94,2.264 v 40.941 c 0,16.791 7.36,25.092 21.89,25.092 6.98,0 12.64,-2.264 16.79,-6.603 4.15,-4.528 6.23,-10.565 6.23,-18.489 v -40.941 c 0,-0.943 0.37,-1.698 0.94,-2.264 0.57,-0.566 1.32,-0.943 2.26,-0.943 h 2.46 c 0.94,0 1.7,0.377 2.26,0.943 0.57,0.566 0.94,1.321 0.94,2.264 v 69.995 c 0,0.943 -0.37,1.698 -0.94,2.264 -0.56,0.566 -1.32,0.943 -2.26,0.943 h -2.08 c -0.94,0 -1.7,-0.377 -2.26,-0.943 -0.57,-0.566 -0.95,-1.321 -0.95,-2.264 v -6.98 c -3.01,3.773 -6.22,6.792 -9.99,8.678 -3.78,1.887 -8.68,3.019 -14.53,3.019 -9.62,0 -16.98,-3.019 -22.08,-9.056 z" fill="#000000" id="path22"></path>
    <path d="m 1283.62,199.842 c -5.09,-6.981 -7.73,-15.282 -7.92,-25.281 l -0.19,-4.151 0.19,-4.151 c 0.38,-9.81 3.02,-18.3 7.92,-25.281 5.1,-6.981 12.83,-10.376 23.4,-10.376 10.75,0 18.87,3.961 24.71,11.697 v -34.715 c 0,-0.943 0.38,-1.698 0.95,-2.264 0.56,-0.566 1.32,-0.943 2.26,-0.943 h 2.45 c 0.95,0 1.7,0.377 2.27,0.943 0.56,0.566 0.94,1.321 0.94,2.264 v 97.918 c 0,0.943 -0.38,1.698 -0.94,2.264 -0.57,0.566 -1.32,0.943 -2.27,0.943 h -2.45 c -0.94,0 -1.7,-0.377 -2.26,-0.943 -0.57,-0.566 -0.95,-1.321 -0.95,-2.264 v -6.981 c -5.66,7.736 -13.96,11.697 -24.71,11.697 -10.57,0 -18.3,-3.396 -23.4,-10.376 z m 41.7,-5.849 c 3.96,-5.094 6.04,-11.131 6.23,-18.112 0.18,-0.943 0.18,-2.83 0.18,-5.66 0,-2.83 0,-4.716 -0.18,-5.66 -0.19,-4.15 -0.95,-8.112 -2.83,-11.886 -1.7,-3.773 -4.34,-6.792 -7.93,-9.244 -3.58,-2.453 -7.92,-3.585 -13.02,-3.585 -7.92,0 -13.77,2.453 -17.35,7.547 -3.59,5.094 -5.66,11.508 -6.04,19.432 l -0.19,4.151 c 0,9.056 1.7,16.603 5.28,22.451 3.59,5.849 9.62,8.679 18.3,8.679 7.93,-0.377 13.78,-3.019 17.55,-8.113 z" fill="#000000" id="path24"></path>
    <g clip-path="url(#clip0_1831_12993)" id="g32">
      <path d="M 210.808,346.82 18.9141,237.704 V 177.502 L 210.808,286.618 402.701,179.383 v 56.44 z" fill="#3575cf" id="path26"></path>
      <path d="M 210.808,248.992 52.7777,158.689 18.9141,177.502 V 147.401 87.1988 L 210.808,196.315 240.909,177.502 84.7599,87.1988 131.793,60.8604 210.808,15.709 368.838,107.893 402.701,87.1988 V 179.383 L 210.808,68.3857 176.944,87.1988 333.093,177.502" fill="#ffffff" id="path28"></path>
      <path d="M 210.808,248.992 52.7777,158.689 18.9141,177.502 V 147.401 87.1988 L 210.808,196.315 240.909,177.502 84.7599,87.1988 131.793,60.8604 210.808,15.709 368.838,107.893 402.701,87.1988 V 179.383 L 210.808,68.3857 176.944,87.1988 333.093,177.502" fill="#3575cf" id="path30"></path>
    </g>
  </g>
  <defs id="defs37">
    <clipPath id="clip0_1831_12993">
      <rect width="421.414" height="361.21201" fill="#ffffff" transform="translate(0.0996094,0.65918)" id="rect34" x="0" y="0"></rect>
    </clipPath>
  </defs>
</svg>
