<?xml version="1.0" encoding="UTF-8" standalone="no"?>
<svg xmlns:inkscape="http://www.inkscape.org/namespaces/inkscape" xmlns:sodipodi="http://sodipodi.sourceforge.net/DTD/sodipodi-0.dtd" xmlns="http://www.w3.org/2000/svg" xmlns:svg="http://www.w3.org/2000/svg" id="Layer_1" viewBox="0 0 1999.9978 377.60001" version="1.1" sodipodi:docname="kinetica_logo_purple.svg" inkscape:version="1.1.1 (3bf5ae0d25, 2021-09-20)" width="1999.9979" height="377.60001">
  <defs id="defs4">
    <style id="style2">.cls-1{fill:#271597;}</style>
  </defs>
  <g id="g868" transform="translate(-111.55,-111.2)">
    <path class="cls-1" d="m 891.14,308.4 h 296 v 58 h -296 z m -0.8,154.8 c 0,7.2 74.4,18.8 144,18.8 75.6,0 151.6,-12 151.6,-18.8 V 424 h -296 v 39.2 z m 0.8,-212 h 296 V 210 c -12.8,-14 -117.2,-16.4 -148.8,-16.4 -31.6,0 -129.2,3.6 -147.2,16.4 z" id="path6"></path>
    <path class="cls-1" d="m 2067.14,230.8 c -59.2,-59.2 -154.8,-59.2 -214,0 -59.2,59.2 -59.2,154.8 0,213.6 58.8,58.8 154,59.2 213.2,0.8 l -1.6,43.6 h 46.8 v -150.4 0 c 0.4,-38.8 -14.4,-77.6 -44.4,-107.6 m -36.4,177.6 c -38.8,38.8 -102,38.8 -141.2,0 -38.8,-38.8 -38.8,-102 0,-140.8 38.8,-38.8 102,-38.8 141.2,0 38.8,38.8 38.8,101.6 0,140.8" id="path8"></path>
    <rect class="cls-1" x="1408.74" y="188" width="52.400002" height="295.20001" id="rect10"></rect>
    <rect class="cls-1" x="452.75" y="111.2" width="52.400002" height="43.599998" id="rect12"></rect>
    <path class="cls-1" d="m 1725.14,408 c -38.8,38.8 -102,38.8 -141.2,0 -38.8,-38.8 -38.8,-102 0,-140.8 38.8,-38.8 102,-38.8 141.2,0 h 63.6 c -6.8,-13.2 -16,-25.6 -26.8,-36.4 -59.6,-58.8 -155.6,-58.8 -214.4,0 -59.2,59.2 -59.2,154.8 0,213.6 59.2,59.2 154.8,59.2 214,0 11.2,-11.2 20,-23.2 26.8,-36.4 z" id="path14"></path>
    <path class="cls-1" d="m 1280.34,384.4 v -144 h 83.2 V 188 h -83.2 v -76.8 h -52.4 v 294 c 0,0 0,-46 0,0 0,46 49.6,87.6 135.6,73.2 v -41.2 c -54.4,-0.4 -83.2,-16.8 -83.2,-52.8" id="path16"></path>
    <path class="cls-1" d="m 807.14,231.2 c -57.6,-57.6 -151.6,-57.6 -209.2,0 -28.8,28.8 -43.2,66.8 -43.2,104.4 v 0 147.6 h 52.4 V 335.6 c 0,-24.4 9.2,-48.8 28,-67.6 37.2,-37.2 98,-37.2 135.2,0 18.8,18.8 28,43.2 28,67.2 v 0 147.6 h 52.4 v -147.6 0 c -0.4,-37.6 -14.8,-75.2 -43.6,-104 z" id="path18"></path>
    <rect class="cls-1" x="452.75" y="188" width="52.400002" height="295.20001" id="rect20"></rect>
    <rect class="cls-1" x="1408.74" y="111.2" width="52.400002" height="43.599998" id="rect22"></rect>
    <polygon class="cls-1" points="228.35,361.2 337.15,483.2 407.55,483.2 262.75,321.6 378.75,188 309.55,188 163.95,355.6 163.95,111.2 111.55,111.2 111.55,483.2 163.95,483.2 163.95,435.6 " id="polygon24"></polygon>
  </g>
</svg>
