<?xml version="1.0" encoding="UTF-8" standalone="no"?>
<!-- Created with Inkscape (http://www.inkscape.org/) -->

<svg
   version="1.1"
   id="svg2"
   xml:space="preserve"
   width="1505.1173"
   height="261.20801"
   viewBox="0 0 1505.1173 261.20801"
   sodipodi:docname="Sonotype_logo_main.svg"
   inkscape:version="1.1.1 (3bf5ae0d25, 2021-09-20)"
   xmlns:inkscape="http://www.inkscape.org/namespaces/inkscape"
   xmlns:sodipodi="http://sodipodi.sourceforge.net/DTD/sodipodi-0.dtd"
   xmlns="http://www.w3.org/2000/svg"
   xmlns:svg="http://www.w3.org/2000/svg"><defs
     id="defs6"><clipPath
       clipPathUnits="userSpaceOnUse"
       id="clipPath34"><path
         d="m 3025.32,3235.33 v -670.95 l -581.05,-335.46 -581.04,335.46 v 0.01 670.94 l 581.04,335.47 z m -581.05,605.33 -814.75,-470.4 v -940.8 l 814.75,-470.4 814.76,470.4 v 940.8 z"
         id="path32" /></clipPath><linearGradient
       x1="0"
       y1="0"
       x2="1"
       y2="0"
       gradientUnits="userSpaceOnUse"
       gradientTransform="matrix(1321.02,-756.701,-756.701,-1321.02,1833.81,3249.54)"
       spreadMethod="pad"
       id="linearGradient40"><stop
         style="stop-opacity:1;stop-color:#5243a3"
         offset="0"
         id="stop36" /><stop
         style="stop-opacity:1;stop-color:#40a9e4"
         offset="1"
         id="stop38" /></linearGradient></defs><sodipodi:namedview
     id="namedview4"
     pagecolor="#ffffff"
     bordercolor="#666666"
     borderopacity="1.0"
     inkscape:pageshadow="2"
     inkscape:pageopacity="0.0"
     inkscape:pagecheckerboard="0"
     showgrid="false"
     fit-margin-top="0"
     fit-margin-left="0"
     fit-margin-right="0"
     fit-margin-bottom="0"
     inkscape:zoom="0.57226721"
     inkscape:cx="752.27095"
     inkscape:cy="136.29996"
     inkscape:window-width="1920"
     inkscape:window-height="1010"
     inkscape:window-x="-6"
     inkscape:window-y="-6"
     inkscape:window-maximized="1"
     inkscape:current-layer="g8" /><g
     id="g8"
     inkscape:groupmode="layer"
     inkscape:label="ink_ext_XXXXXX"
     transform="matrix(1.3333333,0,0,-1.3333333,-217.26933,512.08799)"><g
       id="g10"
       transform="scale(0.1)"><path
         d="m 3753.45,2661.3 c 79.13,-81.47 235.06,-158.27 381.69,-158.27 146.64,0 221.12,53.53 221.12,137.32 0,97.75 -118.7,132.67 -256.03,162.92 -193.17,41.89 -423.59,93.11 -423.59,344.46 0,183.87 158.27,342.14 442.21,342.14 190.86,0 335.15,-67.49 437.56,-158.27 L 4454,3159.38 c -67.48,76.8 -193.17,134.98 -332.82,134.98 -128.01,0 -209.48,-46.55 -209.48,-125.67 0,-86.12 111.72,-116.39 244.39,-146.63 195.51,-41.9 435.25,-97.76 435.25,-363.09 0,-197.83 -165.27,-349.12 -467.82,-349.12 -190.87,0 -365.42,60.52 -481.79,174.55 l 111.72,176.9"
         style="fill:#151b25;fill-opacity:1;fill-rule:nonzero;stroke:none"
         id="path12" /><path
         d="m 5617.52,2901.02 c 0,197.84 -116.36,372.4 -325.83,372.4 -207.14,0 -323.53,-174.56 -323.53,-372.4 0,-200.15 116.39,-374.71 323.53,-374.71 209.47,0 325.83,174.56 325.83,374.71 z m -903.04,0 c 0,321.2 221.11,588.85 577.21,588.85 360.76,0 579.53,-267.65 579.53,-588.85 0,-323.51 -218.77,-591.17 -579.53,-591.17 -356.1,0 -577.21,267.66 -577.21,591.17"
         style="fill:#151b25;fill-opacity:1;fill-rule:nonzero;stroke:none"
         id="path14" /><path
         d="m 6822.99,3040.67 c 0,174.57 -88.45,232.75 -225.76,232.75 -125.7,0 -232.75,-74.48 -288.61,-151.28 v -784.36 h -244.39 v 1124.16 h 244.39 v -153.6 c 74.48,88.44 218.77,181.53 395.66,181.53 242.06,0 363.08,-130.34 363.08,-360.75 v -791.34 h -244.37 v 702.89"
         style="fill:#151b25;fill-opacity:1;fill-rule:nonzero;stroke:none"
         id="path16" /><path
         d="m 8034.68,2763.7 c -55.86,76.82 -160.58,116.39 -267.65,116.39 -137.32,0 -239.73,-79.14 -239.73,-202.5 0,-121.03 102.41,-200.16 239.73,-200.16 107.07,0 211.79,39.57 267.65,116.37 z m 0,-304.89 c -83.79,-95.43 -214.13,-148.96 -363.08,-148.96 -183.87,0 -391.02,123.36 -391.02,372.39 0,258.34 207.15,365.42 391.02,365.42 151.29,0 281.62,-48.88 363.08,-144.31 v 167.58 c 0,130.34 -107.05,209.48 -263.01,209.48 -125.67,0 -235.06,-46.55 -332.82,-141.98 l -100.08,169.91 c 130.34,123.35 293.27,181.53 472.48,181.53 249.05,0 467.82,-104.74 467.82,-407.3 v -744.79 h -244.39 v 121.03"
         style="fill:#151b25;fill-opacity:1;fill-rule:nonzero;stroke:none"
         id="path18" /><path
         d="m 8644.48,2598.46 v 649.35 h -186.19 v 214.13 h 186.19 v 307.23 h 244.37 v -307.23 h 228.1 v -214.13 h -228.1 v -588.84 c 0,-76.8 37.24,-132.66 107.08,-132.66 46.55,0 90.76,18.62 109.38,39.56 L 9163.5,2382 c -44.21,-41.88 -116.36,-72.15 -230.41,-72.15 -188.53,0 -288.61,102.41 -288.61,288.61"
         style="fill:#151b25;fill-opacity:1;fill-rule:nonzero;stroke:none"
         id="path20" /><path
         d="m 9469.87,2098.05 c 76.81,0 128.01,23.28 160.6,97.75 l 55.86,128.02 -460.85,1138.12 h 260.68 l 328.18,-842.53 328.16,842.53 h 263 L 9863.22,2135.3 c -76.81,-190.87 -211.8,-251.37 -386.35,-253.7 -34.93,0 -102.43,6.97 -137.34,16.29 l 37.24,218.79 c 25.62,-11.64 65.17,-18.63 93.1,-18.63"
         style="fill:#151b25;fill-opacity:1;fill-rule:nonzero;stroke:none"
         id="path22" /><path
         d="m 11056.3,3273.42 c -114,0 -235.1,-67.49 -288.6,-151.28 v -444.55 c 53.5,-81.47 174.6,-151.28 288.6,-151.28 193.2,0 316.5,155.93 316.5,374.71 0,216.46 -123.3,372.4 -316.5,372.4 z m -533,-1363.89 v 1552.41 h 244.4 v -153.6 c 83.8,111.72 214.1,181.53 360.7,181.53 291,0 498.1,-218.77 498.1,-588.85 0,-370.06 -207.1,-591.17 -498.1,-591.17 -141.9,0 -269.9,62.83 -360.7,183.87 v -584.19 h -244.4"
         style="fill:#151b25;fill-opacity:1;fill-rule:nonzero;stroke:none"
         id="path24" /><path
         d="m 12047.4,2991.8 h 633.1 c -4.6,132.66 -95.4,297.92 -316.5,297.92 -209.5,0 -304.9,-160.6 -316.6,-297.92 z m 316.6,498.07 c 337.5,0 553.9,-258.35 553.9,-612.12 v -58.19 h -868.1 c 18.6,-169.9 146.6,-309.55 358.4,-309.55 109.4,0 239.7,44.23 318.9,123.36 l 111.7,-160.6 c -111.7,-107.06 -277,-162.92 -456.2,-162.92 -337.5,0 -588.8,235.08 -588.8,591.17 0,325.85 237.4,588.85 570.2,588.85"
         style="fill:#151b25;fill-opacity:1;fill-rule:nonzero;stroke:none"
         id="path26" /><g
         id="g28"><g
           id="g30"
           clip-path="url(#clipPath34)"><path
             d="m 3025.32,3235.33 v -670.95 l -581.05,-335.46 -581.04,335.46 v 0.01 670.94 l 581.04,335.47 z m -581.05,605.33 -814.75,-470.4 v -940.8 l 814.75,-470.4 814.76,470.4 v 940.8 l -814.76,470.4"
             style="fill:url(#linearGradient40);fill-opacity:1;fill-rule:nonzero;stroke:none"
             id="path42" /></g></g></g></g></svg>
