<?xml version="1.0" encoding="UTF-8" standalone="no"?>
<svg xmlns:inkscape="http://www.inkscape.org/namespaces/inkscape" xmlns:sodipodi="http://sodipodi.sourceforge.net/DTD/sodipodi-0.dtd" xmlns="http://www.w3.org/2000/svg" xmlns:svg="http://www.w3.org/2000/svg" xmlns:rdf="http://www.w3.org/1999/02/22-rdf-syntax-ns#" xmlns:cc="http://creativecommons.org/ns#" xmlns:dc="http://purl.org/dc/elements/1.1/" id="Warstwa_1" data-name="Warstwa 1" viewBox="0 0 1244.65662 387.20525" version="1.1" sodipodi:docname="InfobipShift_Logo.svg" inkscape:version="1.1.1 (3bf5ae0d25, 2021-09-20)">
  <defs id="defs4">
    <style id="style2">.cls-1{fill:#383a3b;}</style>
  </defs>
  <title id="title6">Infobip Shift_Logo</title>
  <path class="cls-1" d="M99.18471,77.26752V464.47277H486.39087V77.26752Zm44.80238,342.40379V122.069h297.6014V419.67131Z" transform="translate(-99.18471 -77.26752)" id="path8"></path>
  <rect class="cls-1" x="98.17953" y="250.72919" width="191.96134" height="44.80147" id="rect10"></rect>
  <path class="cls-1" d="M654.86688,376.06032h45.035c1.87641,22.20431,16.57531,36.27873,39.71835,36.27873,20.95387,0,35.02723-8.7567,35.02723-25.33328,0-42.845-113.52583-10.00693-113.52583-96.012,0-36.277,31.27442-61.922,75.68389-61.922,47.22418,0,79.12414,27.20862,80.375,68.80338H772.4583c-1.56364-17.2017-14.6989-28.46056-35.65277-28.46056-18.45171,0-30.02334,8.7567-30.02334,21.5792,0,45.66054,115.08946,8.7567,115.08946,95.38689,0,40.96964-33.15061,66.61462-82.25141,66.61462C689.89411,452.99528,656.74329,422.65939,654.86688,376.06032Z" transform="translate(-99.18471 -77.26752)" id="path12"></path>
  <path class="cls-1" d="M848.14282,224.37914H891.614v90.38427c9.06968-15.32465,26.27053-24.39476,48.16249-24.39476,35.34,0,58.483,25.645,58.483,61.92372v98.20076H954.78814V361.9876c0-19.07874-12.50972-32.83806-30.64887-32.83806-19.07725,0-32.52529,14.69784-32.52529,35.02681v86.31678H848.14282Z" transform="translate(-99.18471 -77.26752)" id="path14"></path>
  <path class="cls-1" d="M1075.19619,224.37914v45.974H1028.9101V224.37914Zm-45.035,68.49167h43.78393V450.49313h-43.78393Z" transform="translate(-99.18471 -77.26752)" id="path16"></path>
  <path class="cls-1" d="M1126.17084,329.14954h-30.3359V292.87081h30.3359V278.79638c0-32.83805,23.45581-54.41724,58.79581-54.41724h29.71057v36.27873h-23.76837c-12.82249,0-21.26664,8.13159-21.26664,20.64067v11.57227h45.035v36.27873h-45.035V450.49313h-43.47137Z" transform="translate(-99.18471 -77.26752)" id="path18"></path>
  <path class="cls-1" d="M1301.621,246.27174v46.59907h42.22029v36.27873H1301.621V391.385c0,15.32465,8.13138,22.51772,22.20474,22.51772h20.01555v36.59044h-25.95754c-36.27831,0-59.73391-20.64068-59.73391-57.23282V329.14954h-30.33611V292.87081h30.33611V246.27174Z" transform="translate(-99.18471 -77.26752)" id="path20"></path>
  <path class="cls-1" d="M663.63955,88.53189h12.162v81.85923h-12.162Z" transform="translate(-99.18471 -77.26752)" id="path22"></path>
  <path class="cls-1" d="M704.1031,88.53189h13.56535l39.40962,63.03088V88.53189h12.162v81.85923H755.79165l-39.52651-62.915v62.915h-12.162Z" transform="translate(-99.18471 -77.26752)" id="path24"></path>
  <path class="cls-1" d="M797.54566,88.53189h52.50721V99.29H809.7077v24.44075h32.62706v10.75979H809.7077v35.9006h-12.162Z" transform="translate(-99.18471 -77.26752)" id="path26"></path>
  <path class="cls-1" d="M867.48238,129.46066c0-24.08987,17.30752-41.86559,40.69605-41.86559,23.27164,0,40.57894,17.77572,40.57894,41.86559s-17.3073,41.86558-40.57894,41.86558C884.7899,171.32624,867.48238,153.55052,867.48238,129.46066Zm68.87918,0c0-17.89154-11.92826-31.1058-28.18313-31.1058-16.25509,0-28.30023,13.21426-28.30023,31.1058,0,17.89323,12.04514,31.10749,28.30023,31.10749C924.4333,160.56815,936.36156,147.35389,936.36156,129.46066Z" transform="translate(-99.18471 -77.26752)" id="path28"></path>
  <path class="cls-1" d="M973.43808,88.53189h30.288c15.31954,0,25.25961,7.60016,25.25961,21.04947a18.12505,18.12505,0,0,1-10.52473,16.02131c8.069,2.92287,14.2669,9.58791,14.2669,20.81441,0,14.85283-10.52474,23.974-27.48137,23.974h-31.8084Zm29.70333,33.09355c9.12163,0,14.03312-3.858,14.03312-11.45985,0-7.48433-4.91149-11.45984-14.15-11.45984h-17.5413v22.91969Zm.46777,38.00759c11.46049,0,17.07373-4.79481,17.07373-13.68266s-5.61324-13.68266-17.07373-13.68266h-18.126V159.633Z" transform="translate(-99.18471 -77.26752)" id="path30"></path>
  <path class="cls-1" d="M1057.2906,88.53189h12.162v81.85923h-12.162Z" transform="translate(-99.18471 -77.26752)" id="path32"></path>
  <path class="cls-1" d="M1097.75393,88.53189h31.69152c16.48886,0,26.42893,10.17386,26.42893,24.67411s-9.94007,24.6758-26.42893,24.6758H1109.916v32.50932h-12.162Zm31.34064,38.82518c10.52473,0,14.61778-6.66674,14.61778-14.15107s-4.093-14.14937-14.61778-14.14937H1109.916v28.30044Z" transform="translate(-99.18471 -77.26752)" id="path34"></path>
  <metadata id="metadata854"></metadata>
</svg>
