<?xml version="1.0" encoding="UTF-8" standalone="no"?>
<!-- Generator: Adobe Illustrator 26.0.3, SVG Export Plug-In . SVG Version: 6.00 Build 0)  -->
<svg xmlns:inkscape="http://www.inkscape.org/namespaces/inkscape" xmlns:sodipodi="http://sodipodi.sourceforge.net/DTD/sodipodi-0.dtd" xmlns="http://www.w3.org/2000/svg" xmlns:svg="http://www.w3.org/2000/svg" version="1.0" id="Layer_1" x="0px" y="0px" viewBox="0 0 153 38.107603" xml:space="preserve" sodipodi:docname="Digitalai_logo.svg" inkscape:version="1.1.1 (3bf5ae0d25, 2021-09-20)" width="153" height="38.107605"><defs id="defs13"></defs>
<style type="text/css" id="style2">
	.st0{fill:#2A2A2A;}
	.st1{fill:#649A3D;}
</style>
<g id="g8" transform="translate(-18.6,-52.592397)">
	<path class="st0" d="m 167.4,61.2 h -0.8 v -0.5 h 1.9 v 0.4 h -0.7 v 2.3 h -0.4 z m 1.6,-0.5 h 0.7 l 0.6,1.9 0.6,-1.9 h 0.7 v 2.7 h -0.4 v -2.1 l -0.7,2.2 h -0.4 l -0.7,-2.2 v 2.2 H 169 Z m -14.9,0 c -1.1,0 -2.1,0.8 -2.2,1.9 -1.5,-1.5 -3.6,-2.3 -6.1,-2.3 -5.9,0 -10.8,4.7 -10.8,10.7 0,0.1 0,0.1 0,0.2 v 0.4 c 2.4,0.9 3.9,3.2 3.9,5.7 0,0.7 -0.1,1.4 -0.3,2 2,1.7 4.6,2.7 7.3,2.7 2.3,-0.1 4.4,-0.9 6.1,-2.5 0.1,1.2 1,2.1 2.2,2 1.4,0 2.3,-0.9 2.3,-2.3 V 62.9 c 0.1,-1.2 -0.8,-2.2 -2,-2.2 -0.3,-0.1 -0.4,-0.1 -0.4,0 m -8.4,16.4 c -3.3,0 -6.1,-2.7 -6.1,-6 0,-3.3 2.7,-6.1 6,-6.1 3.3,0 6.1,2.7 6.1,6 v 0 c 0.1,3.4 -2.6,6.1 -6,6.1 M 114.4,60.7 c -1.1,0 -2.1,0.8 -2.2,1.9 -1.5,-1.5 -3.6,-2.3 -6.1,-2.3 -5.9,0 -10.8,4.7 -10.8,10.7 0,0.1 0,0.1 0,0.2 0,6.2 4.7,10.8 10.8,10.8 2.3,-0.1 4.4,-0.9 6.1,-2.5 0.1,1.2 1,2.1 2.2,2 1.4,0 2.3,-0.9 2.3,-2.3 V 62.9 c -0.1,-1.4 -1,-2.2 -2.3,-2.2 m -8.5,16.4 c -3.3,0 -6.1,-2.7 -6.1,-6 0,-3.3 2.7,-6.1 6,-6.1 3.3,0 6.1,2.7 6.1,6 v 0 c 0,3.4 -2.7,6.1 -6,6.1 M 37.7,52.6 c -1.2,-0.1 -2.2,0.8 -2.3,1.9 0,0.1 0,0.2 0,0.3 v 7.8 c -1.4,-1.5 -3.5,-2.4 -6,-2.4 -5.8,0 -10.8,5.1 -10.8,10.9 0,5.8 5.1,10.8 10.8,10.8 2.3,-0.1 4.6,-1 6.2,-2.6 0.2,1.4 1.1,2.2 2.4,2.2 1,0 1.9,-0.8 1.9,-1.9 V 79.5 54.8 c 0.2,-1.1 -0.8,-2.1 -1.9,-2.2 -0.1,0 -0.2,0 -0.3,0 m -8.3,24.5 c -3.3,0 -6.1,-2.7 -6.1,-6 0,-3.3 2.7,-6.1 6,-6.1 3.3,0 6.1,2.7 6.1,6 v 0 c 0,3.4 -2.7,6.1 -6,6.1 M 70.6,60.7 c -1.4,0 -2.2,0.7 -2.4,2.2 -1.7,-1.6 -3.9,-2.6 -6.2,-2.7 -5.8,0 -10.9,5.1 -10.9,10.8 0,5.7 5.1,10.9 10.8,10.9 2.6,0 4.7,-0.8 6,-2.3 -0.1,4.4 -2.2,6.5 -6.4,6.5 -1.2,-0.1 -2.2,0.8 -2.3,2 0,0.1 0,0.2 0,0.3 0,1.4 0.9,2.3 2.4,2.3 8,0 10.8,-5.8 10.8,-10.8 V 62.6 c 0,-1 -0.8,-1.9 -1.8,-1.9 0.1,0 0,0 0,0 m -8.7,16.4 c -3.3,0 -6.1,-2.7 -6.1,-6 0,-3.3 2.7,-6.1 6,-6.1 3.3,0 6.1,2.7 6.1,6 v 0 c 0,3.4 -2.7,6.1 -6,6.1 M 162.5,60.5 c -1.2,0 -2.2,0.9 -2.2,2.1 v 0.1 l -0.1,16.5 c -0.1,1.2 0.8,2.2 2,2.3 0.1,0 0.1,0 0.2,0 1.4,0 2.3,-0.9 2.3,-2.3 l 0.1,-16.5 c 0.1,-1.2 -0.8,-2.2 -2,-2.2 -0.1,0 -0.2,0 -0.3,0 M 45.8,60.4 c -1.2,0 -2.2,0.9 -2.2,2.1 v 0.1 16.6 c -0.1,1.2 0.8,2.2 2,2.3 0.1,0 0.1,0 0.2,0 1.4,0 2.3,-0.9 2.3,-2.3 V 62.6 c 0.1,-1.2 -0.8,-2.2 -2,-2.2 -0.1,0 -0.2,0 -0.3,0 m 32.9,0.1 c -1.2,0 -2.2,0.9 -2.2,2.1 v 0.1 16.5 c -0.1,1.2 0.8,2.2 2,2.3 0.1,0 0.1,0 0.2,0 1.4,0 2.3,-0.9 2.3,-2.3 V 62.7 c 0.1,-1.2 -0.8,-2.2 -2,-2.2 -0.1,-0.1 -0.2,-0.1 -0.3,0 M 92.6,77.1 C 91.1,77 90.2,76.6 90.2,74.9 v -9.5 h 1.2 c 1.2,0 2.2,-0.9 2.2,-2.1 v -0.1 c 0,-1.4 -0.9,-2.3 -2.2,-2.3 h -1.2 v -6 c 0,-1.4 -0.9,-2.3 -2.3,-2.3 -1.2,0 -2.2,0.9 -2.2,2.1 0,0.1 0,0.1 0,0.2 v 6 c -1.1,0.2 -1.7,1 -1.7,2.2 0,1.1 0.7,2 1.7,2.2 v 9.6 c 0,4.2 2.2,6.5 6.2,6.5 1.6,0 2.6,-0.8 2.6,-2.1 0,-1.3 -0.7,-2.1 -1.9,-2.2 m 30.5,-24.5 c -1.2,-0.1 -2.2,0.9 -2.2,2 0,0.1 0,0.1 0,0.2 v 24.4 c -0.1,1.2 0.8,2.2 2,2.3 0.1,0 0.1,0 0.2,0 1.4,0 2.3,-0.9 2.3,-2.3 V 54.8 c 0,-1.3 -0.9,-2.2 -2.3,-2.2 m 13.1,22.3 c -0.1,-0.1 -0.2,-0.2 -0.2,-0.3 -0.2,-0.2 -0.4,-0.5 -0.7,-0.7 -0.1,-0.1 -0.2,-0.1 -0.3,-0.2 -0.5,-0.3 -1,-0.5 -1.6,-0.6 -0.2,0 -0.5,-0.1 -0.7,-0.1 -0.7,0 -1.4,0.2 -2,0.5 -0.1,0.1 -0.2,0.1 -0.3,0.2 -1.9,1.3 -2.4,3.9 -1.1,5.9 0.3,0.5 0.7,0.8 1.1,1.1 0.1,0.1 0.2,0.1 0.3,0.2 1.5,0.8 3.4,0.6 4.7,-0.5 0.2,-0.2 0.4,-0.4 0.6,-0.6 0.1,-0.1 0.2,-0.2 0.2,-0.3 0.1,-0.2 0.3,-0.5 0.4,-0.7 0.5,-1.2 0.4,-2.7 -0.4,-3.9" id="path4"></path>
	<path class="st1" d="m 109.9,70.1 c 0.1,0.3 0.1,0.6 0.1,0.9 0,0.2 0,0.4 0,0.5 0,0.2 -0.1,0.3 -0.1,0.5 -0.1,0.3 -0.2,0.6 -0.4,0.9 -1.1,2 -3.6,2.7 -5.6,1.7 -1.3,-0.7 -2.2,-2.1 -2.2,-3.6 0,-0.3 0,-0.6 0.1,-0.8 0.3,-1.3 1.2,-2.4 2.4,-3 1,-0.4 2.2,-0.4 3.2,0 0.9,0.4 1.7,1.1 2.1,2 0.2,0.3 0.3,0.6 0.4,0.9 M 29.4,66.9 c -2.3,0 -4.1,1.8 -4.1,4.1 0,2.3 1.8,4.1 4.1,4.1 2.3,0 4.1,-1.8 4.1,-4.1 v 0 c 0,-2.2 -1.8,-4.1 -4.1,-4.1 v 0 m 117.9,0.4 c -0.1,0 -0.2,-0.1 -0.4,-0.1 -0.2,-0.1 -0.4,-0.1 -0.6,-0.1 -0.2,0 -0.4,-0.1 -0.6,0 -0.4,0 -0.8,0.1 -1.2,0.2 -0.1,0 -0.3,0.1 -0.4,0.1 -1.2,0.5 -2.2,1.6 -2.4,3 -0.1,0.3 -0.1,0.6 -0.1,0.8 0,1.1 0.4,2.1 1.2,2.9 0.2,0.2 0.4,0.4 0.6,0.5 0.3,0.2 0.7,0.4 1.1,0.5 0.6,0.2 1.2,0.2 1.9,0.1 0.2,0 0.4,-0.1 0.6,-0.1 0.4,-0.1 0.7,-0.3 1.1,-0.5 0.2,-0.1 0.4,-0.3 0.6,-0.5 0.8,-0.8 1.2,-1.8 1.2,-2.9 0,-0.3 0,-0.6 -0.1,-0.8 -0.3,-1.5 -1.2,-2.6 -2.5,-3.1 m -83.8,0 c -2.1,-0.9 -4.5,0.1 -5.4,2.2 -0.1,0.3 -0.2,0.5 -0.2,0.8 -0.1,0.3 -0.1,0.6 -0.1,0.8 -0.1,2.3 1.7,4.2 4,4.2 2.3,0.1 4.2,-1.7 4.2,-4 0,-0.1 0,-0.2 0,-0.3 0,-0.3 0,-0.6 -0.1,-0.8 -0.3,-1.3 -1.2,-2.4 -2.4,-2.9" id="path6"></path>
</g>
</svg>
