<?xml version="1.0" encoding="UTF-8" standalone="no"?>
<!-- Created with Inkscape (http://www.inkscape.org/) -->

<svg
   version="1.1"
   id="svg2"
   xml:space="preserve"
   width="1404.5067"
   height="283.16"
   viewBox="0 0 1404.5067 283.16"
   sodipodi:docname="Prisma_Master_Logo_LRG_Tag_Lockup_Light_RGB.svg"
   inkscape:version="1.1.1 (3bf5ae0d25, 2021-09-20)"
   xmlns:inkscape="http://www.inkscape.org/namespaces/inkscape"
   xmlns:sodipodi="http://sodipodi.sourceforge.net/DTD/sodipodi-0.dtd"
   xmlns="http://www.w3.org/2000/svg"
   xmlns:svg="http://www.w3.org/2000/svg"><defs
     id="defs6" /><sodipodi:namedview
     id="namedview4"
     pagecolor="#ffffff"
     bordercolor="#666666"
     borderopacity="1.0"
     inkscape:pageshadow="2"
     inkscape:pageopacity="0.0"
     inkscape:pagecheckerboard="0"
     showgrid="false"
     inkscape:zoom="0.79031306"
     inkscape:cx="701.6207"
     inkscape:cy="141.71599"
     inkscape:window-width="1920"
     inkscape:window-height="1010"
     inkscape:window-x="-6"
     inkscape:window-y="-6"
     inkscape:window-maximized="1"
     inkscape:current-layer="g8" /><g
     id="g8"
     inkscape:groupmode="layer"
     inkscape:label="ink_ext_XXXXXX"
     transform="matrix(1.3333333,0,0,-1.3333333,0,283.16)"><g
       id="g10"
       transform="scale(0.1)"><path
         d="m 2569.6,296.949 c -1.9,-0.73 -3.64,-1.679 -5.23,-2.859 -1.45,-1.149 -2.75,-2.469 -3.89,-3.949 -1.05,-1.352 -1.95,-2.731 -2.77,-4.231 l -28.77,-59.851 c -2.5,-4.7 -4.68,-9.118 -6.56,-13.289 -0.7,-1.598 -1.39,-3.219 -2.05,-4.801 -0.7,1.601 -1.44,3.179 -2.21,4.75 -1.99,4.121 -4.24,8.551 -6.64,13.222 l -29.18,60.098 c -1.79,3.371 -4.08,6.191 -6.83,8.41 -3,2.391 -6.99,3.602 -11.84,3.602 h -47.79 L 2492.91,166.25 V 85.5391 h 54.26 V 166.25 l 77.06,131.801 h -48.06 c -2.33,0 -4.54,-0.352 -6.57,-1.102"
         style="fill:#929292;fill-opacity:1;fill-rule:nonzero;stroke:none"
         id="path12" /><path
         d="m 3577.68,165.238 v -0.019 c -2.47,-7.707 -6.09,-14.321 -10.72,-19.598 -4.6,-5.23 -10.33,-9.289 -17.02,-12.07 -6.68,-2.789 -14.49,-4.211 -23.22,-4.211 -8.81,0 -16.71,1.422 -23.44,4.211 -6.71,2.781 -12.45,6.84 -17.07,12.058 -4.61,5.289 -8.23,11.903 -10.74,19.629 -2.51,7.703 -3.78,16.672 -3.78,26.653 0,9.828 1.27,18.769 3.78,26.531 2.51,7.687 6.12,14.258 10.74,19.539 4.62,5.277 10.36,9.367 17.11,12.18 6.73,2.839 14.6,4.289 23.4,4.289 8.7,0 16.51,-1.45 23.22,-4.289 6.69,-2.801 12.42,-6.903 17.02,-12.18 4.64,-5.281 8.25,-11.852 10.72,-19.539 2.53,-7.844 3.83,-16.762 3.83,-26.531 0,-9.891 -1.28,-18.871 -3.83,-26.653 z m 28.82,103.731 c -9.56,9.691 -21.27,17.422 -34.76,23 -13.53,5.543 -28.69,8.351 -45.02,8.351 -16.33,0 -31.48,-2.789 -45.05,-8.3 -13.55,-5.52 -25.32,-13.231 -34.92,-22.911 -9.67,-9.687 -17.24,-21.269 -22.5,-34.449 -5.28,-13.09 -7.94,-27.48 -7.94,-42.769 0,-15.313 2.66,-29.711 7.92,-42.782 5.28,-13.179 12.85,-24.808 22.5,-34.531 9.62,-9.726 21.37,-17.4764 34.94,-22.9882 13.51,-5.5 28.67,-8.289 45.05,-8.289 16.4,0 31.54,2.789 45.02,8.289 13.49,5.5118 25.2,13.2622 34.76,22.9882 9.61,9.742 17.16,21.352 22.42,34.524 5.28,13.128 7.96,27.519 7.96,42.789 0,15.14 -2.68,29.48 -7.96,42.64 -5.26,13.149 -12.81,24.739 -22.42,34.438"
         style="fill:#929292;fill-opacity:1;fill-rule:nonzero;stroke:none"
         id="path14" /><path
         d="m 2878.59,204.809 c -4.82,-5.231 -13.05,-7.879 -24.5,-7.879 h -21.68 v 58.898 h 21.68 c 5.62,0 10.54,-0.687 14.59,-2.078 3.88,-1.328 7.14,-3.262 9.69,-5.719 2.53,-2.429 4.42,-5.359 5.65,-8.769 1.27,-3.41 1.92,-7.364 1.92,-11.731 0,-9.91 -2.41,-17.359 -7.35,-22.722 z m 40.8,73.05 c -7.06,6.321 -16.1,11.301 -26.88,14.86 -10.74,3.551 -23.67,5.351 -38.42,5.351 h -75.92 V 85.5391 h 54.24 v 68.9099 h 21.68 c 14.58,0 27.35,1.77 37.98,5.321 10.81,3.539 19.89,8.589 26.98,15 7.13,6.441 12.5,14.289 15.99,23.32 3.41,8.941 5.14,18.832 5.14,29.441 0,9.879 -1.7,19.199 -5.03,27.75 -3.39,8.668 -8.71,16.258 -15.76,22.578"
         style="fill:#929292;fill-opacity:1;fill-rule:nonzero;stroke:none"
         id="path16" /><path
         d="m 3292.35,298.059 h -54.26 V 85.5313 h 130.62 v 44.6407 h -76.36 v 167.887"
         style="fill:#929292;fill-opacity:1;fill-rule:nonzero;stroke:none"
         id="path18" /><path
         d="m 2324.57,142.93 c -0.7,-2.711 -2.04,-5.168 -3.95,-7.309 -1.93,-2.172 -4.68,-4 -8.21,-5.402 -3.58,-1.438 -8.39,-2.168 -14.27,-2.168 h -30.45 v 44.89 h 30.16 c 5.7,0 10.45,-0.5 14.11,-1.55 3.47,-1.012 6.29,-2.403 8.3,-4.129 1.96,-1.731 3.37,-3.813 4.17,-6.242 0.86,-2.649 1.32,-5.731 1.32,-9.168 0,-2.993 -0.4,-5.911 -1.18,-8.922 z m -56.88,112.91 h 24.77 c 5.06,0 9.54,-0.41 13.25,-1.199 3.52,-0.77 6.27,-1.961 8.42,-3.641 2.08,-1.621 3.59,-3.738 4.61,-6.441 1.08,-2.868 1.62,-6.61 1.62,-11.098 0,-4.481 -0.68,-8.223 -2.01,-11.09 -1.28,-2.699 -3.18,-4.871 -5.6,-6.41 -2.59,-1.633 -5.87,-2.832 -9.64,-3.531 -4.14,-0.7 -8.75,-1.059 -13.74,-1.059 h -21.68 z m 78.16,-59.879 c 3.04,1.519 5.83,3.148 8.29,4.898 4.65,3.219 8.54,6.911 11.62,10.922 3.06,4.059 5.33,8.438 6.73,13.02 1.41,4.578 2.13,9.39 2.13,14.32 0,8.859 -1.54,17.027 -4.57,24.289 -3.08,7.391 -8.07,13.75 -14.8,18.86 -6.63,5.039 -15.26,8.98 -25.59,11.742 -10.29,2.668 -22.79,4.058 -37.2,4.058 h -79.02 V 85.5391 h 85.53 c 12.68,0 24.11,1.6601 33.99,4.9218 9.97,3.2774 18.5,7.9297 25.3,13.7581 6.88,5.863 12.18,12.883 15.78,20.84 3.58,7.871 5.37,16.562 5.37,25.793 0,12.457 -3.56,22.796 -10.56,30.707 -5.38,6.113 -13.1,10.929 -23,14.402"
         style="fill:#929292;fill-opacity:1;fill-rule:nonzero;stroke:none"
         id="path20" /><path
         d="m 3050.5,170.789 17.46,51.742 c 1.44,3.629 2.96,7.91 4.58,12.899 0.54,1.66 1.09,3.379 1.64,5.211 0.53,-1.719 1.06,-3.379 1.59,-5 1.6,-4.922 3.16,-9.18 4.53,-12.7 l 17.64,-52.152 z m 50.31,127.27 h -53.35 L 2965.22,85.5391 h 42.04 c 4.68,0 8.71,1.3125 11.96,3.8828 3.13,2.4687 5.35,5.3398 6.65,8.6562 l 11.41,33.7229 h 73.73 l 11.53,-33.9807 c 1.54,-3.539 3.83,-6.4805 6.78,-8.7109 3.11,-2.3789 7.16,-3.5703 12.02,-3.5703 h 41.75 l -81.48,210.4729 -0.8,2.047"
         style="fill:#929292;fill-opacity:1;fill-rule:nonzero;stroke:none"
         id="path22" /><path
         d="m 3867.81,170.789 17.46,51.742 c 1.45,3.629 2.96,7.91 4.6,12.899 0.54,1.66 1.07,3.379 1.62,5.211 0.52,-1.719 1.07,-3.379 1.6,-5 1.62,-4.942 3.15,-9.192 4.53,-12.7 l 17.63,-52.152 z m -3.03,127.27 -82.26,-212.5199 h 42.06 c 4.67,0 8.68,1.3125 12,3.9023 3.11,2.4883 5.31,5.3203 6.59,8.6367 l 11.45,33.7229 h 73.72 l 11.51,-33.9807 c 1.54,-3.5195 3.83,-6.4609 6.82,-8.7109 3.11,-2.3789 7.16,-3.5703 11.99,-3.5703 h 41.77 l -82.26,212.5199 h -53.39"
         style="fill:#929292;fill-opacity:1;fill-rule:nonzero;stroke:none"
         id="path24" /><path
         d="m 6016.06,165.23 -0.02,-0.011 c -2.47,-7.707 -6.08,-14.309 -10.72,-19.598 -4.58,-5.23 -10.28,-9.301 -17.01,-12.082 -6.68,-2.777 -14.5,-4.199 -23.21,-4.199 -8.82,0 -16.71,1.422 -23.45,4.199 -6.71,2.781 -12.45,6.852 -17.06,12.082 -4.61,5.289 -8.23,11.891 -10.73,19.598 -2.51,7.801 -3.79,16.781 -3.79,26.66 0,9.769 1.28,18.711 3.77,26.531 2.52,7.699 6.12,14.27 10.75,19.551 4.61,5.277 10.35,9.359 17.08,12.18 6.75,2.828 14.63,4.289 23.43,4.289 8.69,0 16.5,-1.461 23.21,-4.289 6.73,-2.821 12.43,-6.903 17.01,-12.18 4.64,-5.281 8.25,-11.852 10.74,-19.551 2.53,-7.84 3.81,-16.762 3.81,-26.531 0,-9.879 -1.28,-18.859 -3.81,-26.649 z m 28.86,103.758 c -9.62,9.672 -21.34,17.403 -34.82,22.973 -13.51,5.551 -28.67,8.379 -45,8.379 -16.36,0 -31.5,-2.809 -45.07,-8.32 -13.53,-5.508 -25.28,-13.231 -34.92,-22.911 -9.65,-9.668 -17.22,-21.269 -22.47,-34.449 -5.27,-13.121 -7.96,-27.519 -7.96,-42.781 0,-15.27 2.69,-29.66 7.95,-42.77 5.26,-13.199 12.83,-24.808 22.48,-34.539 9.64,-9.73 21.39,-17.4684 34.92,-22.9802 13.53,-5.5117 28.68,-8.2812 45.07,-8.2812 16.38,0 31.53,2.7695 45,8.2812 13.48,5.4883 25.2,13.2502 34.83,22.9802 9.58,9.782 17.1,21.379 22.37,34.52 5.27,13.129 7.94,27.519 7.94,42.789 0,15.141 -2.67,29.492 -7.94,42.652 -5.27,13.129 -12.8,24.707 -22.38,34.457"
         style="fill:#929292;fill-opacity:1;fill-rule:nonzero;stroke:none"
         id="path26" /><path
         d="m 5289.24,253.699 h 58.02 V 85.5313 h 54.23 V 253.699 h 57.98 v 44.36 h -170.23 v -44.36"
         style="fill:#929292;fill-opacity:1;fill-rule:nonzero;stroke:none"
         id="path28" /><path
         d="m 5758.13,294.328 c -3.44,-2.539 -5.64,-5.547 -6.58,-8.976 l -28.29,-107.493 c -0.7,-2.711 -1.35,-5.488 -2.02,-8.429 -0.89,3.039 -1.84,5.922 -2.82,8.558 l -33.22,107.813 c -1.53,3.527 -3.83,6.449 -6.8,8.687 -3.09,2.371 -7.15,3.571 -12,3.571 h -14.12 c -4.67,0 -8.71,-1.289 -12.05,-3.829 -3.31,-2.48 -5.52,-5.421 -6.59,-8.75 l -33.35,-107.351 c -1.06,-2.988 -2.05,-6.199 -3.01,-9.59 -0.69,3.301 -1.42,6.402 -2.15,9.32 l -28.29,107.512 c -1.06,3.867 -3.33,7 -6.75,9.301 -3.33,2.238 -7.43,3.387 -12.2,3.387 h -44.52 l 64.9,-210.2309 0.71,-2.2773 h 48.03 L 5657,215.371 c 0.35,0.961 0.73,1.981 1.07,3.059 0.34,-1.039 0.68,-2 1.02,-2.871 l 39.45,-130.0082 h 48.04 l 65.62,212.5082 h -41.97 c -4.63,0 -8.7,-1.25 -12.1,-3.731"
         style="fill:#929292;fill-opacity:1;fill-rule:nonzero;stroke:none"
         id="path30" /><path
         d="m 6753.57,178.078 c -2.81,6.461 -6.55,12.012 -11.12,16.5 -4.47,4.453 -9.67,8.172 -15.52,11.082 -5.76,2.852 -11.57,5.289 -17.26,7.27 -5.8,2.05 -11.47,3.922 -17.06,5.57 -5.45,1.641 -10.12,3.391 -14.27,5.301 -3.99,1.847 -7.07,3.929 -9.43,6.41 -2.05,2.078 -3.04,4.73 -3.04,8.059 0,5.57 1.8,9.839 5.45,13.05 3.76,3.258 9.79,4.942 17.9,4.942 4.81,0 9.13,-0.653 12.83,-1.883 3.92,-1.32 7.39,-2.801 10.33,-4.41 l 8.45,-4.547 c 6.53,-3.543 12.52,-3.012 16.45,-0.141 1.88,1.34 3.62,3.309 5.44,6.18 l 13.02,24.391 -1.83,1.687 c -3.85,3.582 -8.25,6.789 -13.08,9.551 -4.81,2.781 -9.92,5.129 -15.59,7.16 -5.61,2 -11.52,3.539 -17.6,4.551 -6.08,1.008 -12.49,1.519 -18.97,1.519 -11.66,0 -22.2,-1.808 -31.32,-5.398 -9.09,-3.551 -16.92,-8.402 -23.26,-14.422 -6.28,-5.988 -11.15,-12.988 -14.47,-20.77 -3.26,-7.691 -4.9,-15.718 -4.9,-23.871 0,-10 1.42,-18.55 4.21,-25.437 2.78,-6.934 6.48,-12.813 11.04,-17.461 4.49,-4.602 9.69,-8.371 15.54,-11.262 5.5,-2.687 11.31,-5.058 17.27,-6.969 5.81,-1.851 11.44,-3.539 16.95,-5.05 5.11,-1.399 9.87,-3.09 14.16,-5.039 3.88,-1.813 7.02,-4.071 9.33,-6.719 2.12,-2.422 3.16,-5.551 3.16,-9.602 0,-7.34 -1.96,-12.449 -6.04,-15.66 -4.17,-3.351 -10.3,-5.039 -18.21,-5.039 -5.97,0 -11.2,0.848 -15.53,2.508 -4.4,1.652 -8.45,3.57 -12.02,5.68 -3.61,2.16 -6.81,4.132 -9.68,5.902 -6.13,3.789 -12.75,4.18 -17.89,1.117 -2.22,-1.289 -4.07,-2.957 -5.55,-5.078 l -15.54,-24.551 1.82,-1.808 c 4.24,-4.219 9.24,-8.102 14.89,-11.5121 5.59,-3.3672 11.67,-6.3281 18.05,-8.8008 6.36,-2.457 13.02,-4.4179 19.84,-5.7383 6.84,-1.3515 13.63,-2.039 20.24,-2.039 12.04,0 22.97,1.8594 32.47,5.5 9.61,3.7187 17.78,8.8711 24.29,15.3012 6.55,6.468 11.63,14.136 15.09,22.796 3.43,8.661 5.18,18.051 5.18,27.93 0,8.973 -1.42,16.793 -4.22,23.25"
         style="fill:#929292;fill-opacity:1;fill-rule:nonzero;stroke:none"
         id="path32" /><path
         d="m 6495.5,196.109 c -1.59,1.27 -3.28,2.411 -5.06,3.403 3.47,2.609 6.76,5.988 9.88,10.129 l 64.86,88.418 h -47.94 c -5.09,0 -9.49,-0.758 -13.1,-2.309 -3.67,-1.621 -7.08,-4.43 -10.2,-8.551 l -46.37,-67.289 c -2.49,-3.558 -6.62,-5.301 -12.64,-5.301 h -4.42 v 83.45 h -54.25 V 85.5391 h 54.25 V 173.25 h 8.4 c 3.95,0 7.08,-0.461 9.25,-1.371 2,-0.848 3.63,-2.289 5,-4.391 l 46.68,-71.6989 c 1.05,-1.6289 2.18,-3.0196 3.35,-4.1993 1.23,-1.3085 2.74,-2.4687 4.49,-3.4179 1.78,-0.9219 3.77,-1.5821 5.91,-1.9805 2.2,-0.4414 4.76,-0.6523 7.63,-0.6523 h 48.63 l -65.49,100.6599 c -2.72,4 -5.67,7.313 -8.86,9.91"
         style="fill:#929292;fill-opacity:1;fill-rule:nonzero;stroke:none"
         id="path34" /><path
         d="m 6245.06,218.59 c -1.2,-3.488 -3.07,-6.512 -5.58,-9.012 -2.6,-2.566 -5.99,-4.629 -10.08,-6.109 -4.17,-1.52 -9.41,-2.289 -15.52,-2.289 h -16.03 v 54.672 h 16.03 c 11.49,0 20.01,-2.313 25.27,-6.852 5.21,-4.512 7.72,-10.672 7.72,-18.809 0,-4.121 -0.6,-8.031 -1.81,-11.601 z m 29.21,-56.34 c -2.33,3.551 -5,6.641 -7.92,9.191 -1.25,1.098 -2.55,2.149 -3.89,3.098 4.62,2.191 8.89,4.77 12.7,7.711 5.38,4.148 9.96,8.941 13.63,14.25 3.67,5.289 6.48,11.141 8.36,17.359 1.88,6.18 2.83,12.879 2.83,19.86 0,9.16 -1.6,17.769 -4.78,25.551 -3.18,7.902 -8.35,14.851 -15.41,20.671 -6.94,5.688 -15.97,10.2 -26.89,13.411 -10.75,3.128 -23.88,4.707 -39.02,4.707 h -70.24 V 85.5391 h 54.21 v 76.2619 h 8.96 c 2.99,0 5.36,-0.461 6.84,-1.332 1.51,-0.91 2.94,-2.43 4.21,-4.41 l 34.25,-59.8481 c 4.1,-7.0898 10.83,-10.6718 20.03,-10.6718 h 49.03 l -46.84,76.6209 -0.06,0.09"
         style="fill:#929292;fill-opacity:1;fill-rule:nonzero;stroke:none"
         id="path36" /><path
         d="m 4210.84,253.699 h 58.02 V 85.5313 h 54.24 V 253.699 h 57.97 v 44.36 h -170.23 v -44.36"
         style="fill:#929292;fill-opacity:1;fill-rule:nonzero;stroke:none"
         id="path38" /><path
         d="m 4109.65,298.059 h -54.24 V 85.5313 h 130.62 v 44.6407 h -76.38 v 167.887"
         style="fill:#929292;fill-opacity:1;fill-rule:nonzero;stroke:none"
         id="path40" /><path
         d="m 4967.49,185.789 c 0,-3.34 0.11,-6.898 0.29,-10.699 0.04,-0.32 0.06,-0.621 0.06,-0.961 l -91.37,115.402 c -1.44,1.731 -2.72,3.117 -3.86,4.168 -1.34,1.192 -2.69,2.09 -4.03,2.692 -1.46,0.679 -3.1,1.14 -4.79,1.371 -1.5,0.179 -3.42,0.297 -5.65,0.297 h -28.4 V 85.5391 h 48.57 V 199.23 c 0,3.051 -0.05,6.329 -0.19,9.829 -0.01,0.101 -0.01,0.203 -0.01,0.312 l 90.72,-114.7304 c 2.73,-3.2812 5.58,-5.6523 8.5,-7.0195 2.94,-1.3828 6.53,-2.082 10.63,-2.082 h 28.12 V 298.059 h -48.59 v -112.27"
         style="fill:#929292;fill-opacity:1;fill-rule:nonzero;stroke:none"
         id="path42" /><path
         d="m 4590.17,165.238 v -0.019 c -2.47,-7.707 -6.09,-14.321 -10.72,-19.598 -4.6,-5.23 -10.32,-9.289 -17.02,-12.07 -6.68,-2.789 -14.49,-4.211 -23.22,-4.211 -8.81,0 -16.69,1.422 -23.44,4.211 -6.71,2.781 -12.45,6.84 -17.06,12.058 -4.62,5.289 -8.24,11.903 -10.75,19.629 -2.51,7.731 -3.79,16.711 -3.79,26.653 0,9.82 1.28,18.738 3.79,26.531 2.51,7.687 6.12,14.258 10.75,19.539 4.61,5.277 10.35,9.367 17.1,12.18 6.73,2.839 14.6,4.289 23.4,4.289 8.7,0 16.51,-1.45 23.22,-4.289 6.7,-2.801 12.42,-6.903 17.02,-12.18 4.64,-5.281 8.25,-11.852 10.72,-19.539 2.53,-7.844 3.83,-16.762 3.83,-26.531 0,-9.891 -1.28,-18.871 -3.83,-26.653 z M 4619,268.969 c -9.57,9.691 -21.28,17.422 -34.77,23 -13.53,5.543 -28.68,8.351 -45.02,8.351 -16.35,0 -31.5,-2.789 -45.05,-8.3 -13.55,-5.52 -25.31,-13.231 -34.92,-22.911 -9.67,-9.687 -17.23,-21.269 -22.51,-34.461 -5.27,-13.136 -7.93,-27.539 -7.93,-42.757 0,-15.25 2.66,-29.641 7.93,-42.782 5.28,-13.179 12.84,-24.808 22.5,-34.531 9.62,-9.726 21.37,-17.4764 34.93,-22.9882 13.51,-5.5 28.67,-8.289 45.05,-8.289 16.4,0 31.54,2.789 45.02,8.289 13.49,5.5118 25.2,13.2622 34.77,22.9882 9.6,9.742 17.15,21.352 22.41,34.524 5.28,13.128 7.96,27.519 7.96,42.789 0,15.14 -2.68,29.48 -7.96,42.64 -5.26,13.149 -12.81,24.739 -22.41,34.438"
         style="fill:#929292;fill-opacity:1;fill-rule:nonzero;stroke:none"
         id="path44" /><path
         d="m 5096.18,85.5313 h 139.11 V 128.77 h -84.57 v 42.628 h 64.76 v 41.801 h -64.76 v 41.653 h 84.57 v 43.207 H 5096.18 V 85.5313"
         style="fill:#929292;fill-opacity:1;fill-rule:nonzero;stroke:none"
         id="path46" /><path
         d="m 6456.43,1305.18 c -230.84,33.93 -281.05,59.74 -281.05,111.34 0,51.61 65.22,94.94 218.64,94.94 120.75,0 245.7,-29.86 355.65,-74.6 28.6,-10.93 54.41,-23.14 80.22,-35.34 v 225.93 c -1.83,0.84 -3.66,1.53 -5.47,2.24 -120.89,51.61 -248.51,78.67 -416.94,78.67 -299.97,0 -498.27,-134.35 -498.27,-305.43 0,-190.17 160.3,-258.05 476.67,-302.79 222.57,-31.27 276.97,-55.67 276.97,-111.351 0,-62.551 -81.47,-103.211 -262.1,-103.211 -116.82,0 -254.96,32.113 -373.45,80.082 -29.32,11.781 -67.88,29.578 -100.14,46.83 V 786.43 c 9.4,-4.059 18.79,-8.141 25.53,-10.801 134.34,-54.41 286.5,-86.949 460.26,-86.949 291.97,0 517.35,118.082 517.35,312.31 0,190.03 -150.77,258.04 -473.87,304.19"
         style="fill:#100f0d;fill-opacity:1;fill-rule:nonzero;stroke:none"
         id="path48" /><path
         d="m 2469.83,1213.27 h 259.34 c 166.53,0 221.05,53.02 221.05,138.5 0,82.52 -60.43,138.51 -209.26,138.51 h -271.13 z m 309.45,475.95 c 272.6,0 425.86,-129.68 425.86,-333.04 0,-215.13 -169.46,-340.38 -439.12,-340.38 H 2469.83 V 707.828 h -256.39 v 981.392 h 565.84"
         style="fill:#100f0d;fill-opacity:1;fill-rule:nonzero;stroke:none"
         id="path50" /><path
         d="m 3891.78,1233.89 h 324.18 c 142.94,0 215.13,42.72 215.13,129.67 0,82.52 -58.93,128.19 -203.34,128.19 h -335.97 z m 0,-526.062 h -256.4 v 981.392 h 642.47 c 269.66,0 412.58,-119.36 412.58,-321.24 0,-159.15 -104.63,-263.78 -257.86,-305.04 l 306.5,-355.112 h -293.24 l -284.4,335.962 H 3891.78 V 707.828"
         style="fill:#100f0d;fill-opacity:1;fill-rule:nonzero;stroke:none"
         id="path52" /><path
         d="M 5446.36,1689.22 V 707.828 h -257.87 v 981.392 h 257.87"
         style="fill:#100f0d;fill-opacity:1;fill-rule:nonzero;stroke:none"
         id="path54" /><path
         d="m 7709.85,1689.22 343.32,-667.54 h 4.44 l 340.38,667.54 h 374.29 V 707.828 h -253.46 v 732.352 h -2.94 L 8137.16,706.352 h -182.71 l -378.7,733.828 h -2.94 V 707.828 h -237.25 v 981.392 h 374.29"
         style="fill:#100f0d;fill-opacity:1;fill-rule:nonzero;stroke:none"
         id="path56" /><path
         d="m 9602.54,1062.94 h 386.06 l -191.57,390.5 h -2.94 z M 10077,883.18 H 9514.11 L 9427.19,707.828 H 9160.47 L 9660,1695.1 h 279.98 L 10441,707.828 h -277.1 L 10077,883.18"
         style="fill:#100f0d;fill-opacity:1;fill-rule:nonzero;stroke:none"
         id="path58" /><path
         d="M 1061.72,707.84 V 1691 l 513.66,-983.16 z"
         style="fill:#100f0d;fill-opacity:1;fill-rule:nonzero;stroke:none"
         id="path60" /><path
         d="M 1061.64,1691 548.039,707.828 H 1061.64 V 0 L 0,1061.84 542.945,1605 l 86.211,86 432.484,432.69 V 1691"
         style="fill:#100f0d;fill-opacity:1;fill-rule:nonzero;stroke:none"
         id="path62" /><path
         d="m 10328.5,1691.07 h 81.6 v -20.8 h -28 v -81.3 h -25.6 v 81.3 h -28 v 20.8"
         style="fill:#100f0d;fill-opacity:1;fill-rule:nonzero;stroke:none"
         id="path64" /><path
         d="m 10533.8,1691.07 v -102.1 h -22.9 v 58.6 c 0,0.9 0,1.9 0.1,3 l -23.7,-45.8 c -0.9,-1.8 -2.2,-3.2 -3.8,-4.1 -1.6,-0.9 -3.4,-1.4 -5.4,-1.4 h -3.1 c -2,0 -3.8,0.5 -5.4,1.4 -1.6,0.9 -2.9,2.3 -3.8,4.1 l -23.7,46 c 0.1,-1.2 0.1,-2.2 0.1,-3.2 v -58.6 h -22.9 v 102.1 h 21.6 c 0.9,-0.1 1.7,-0.3 2.4,-0.5 0.7,-0.3 1.4,-0.8 2,-1.39 0.6,-0.51 1.1,-1.31 1.7,-2.31 l 25.6,-50.5 c 0.9,-1.8 1.8,-3.6 2.7,-5.5 0.4,-0.9 0.8,-1.9 1.2,-2.9 0.5,1 0.9,2 1.3,3 0.9,2 1.8,3.9 2.8,5.6 l 25.5,50.3 c 0.6,1 1.1,1.8 1.6,2.31 0.7,0.59 1.3,1.09 2.1,1.39 0.7,0.2 1.5,0.4 2.4,0.5 h 21.6"
         style="fill:#100f0d;fill-opacity:1;fill-rule:nonzero;stroke:none"
         id="path66" /></g></g></svg>
