<?xml version="1.0" encoding="UTF-8" standalone="no"?>
<svg xmlns:inkscape="http://www.inkscape.org/namespaces/inkscape" xmlns:sodipodi="http://sodipodi.sourceforge.net/DTD/sodipodi-0.dtd" xmlns="http://www.w3.org/2000/svg" xmlns:svg="http://www.w3.org/2000/svg" width="647.61694" height="149.42525" viewBox="0 0 647.61694 149.42525" fill="none" version="1.1" id="svg866" sodipodi:docname="Release_logo.svg" inkscape:version="1.1.1 (3bf5ae0d25, 2021-09-20)">
  <defs id="defs870"></defs>
  <g id="g961" transform="matrix(0.99998911,0,0,0.99998911,-274.99708,-239.28539)" style="stroke-width:1.00001">
    <path d="m 541.664,320.378 19.37,35.492 h -16.963 l -17.206,-33.445 h -14.557 v 33.445 h -15.64 v -84.458 h 30.919 c 19.13,0 31.522,9.625 31.522,25.506 0,11.669 -6.497,19.852 -17.445,23.46 z m -13.836,-35.732 h -15.519 v 24.785 h 15.519 c 10.107,0 15.64,-4.693 15.64,-12.392 0,-7.581 -5.653,-12.393 -15.64,-12.393 z" fill="#29063e" id="path850" style="stroke-width:1.00002"></path>
    <path d="m 580.552,330.244 c 0.962,8.903 7.821,14.558 16.482,14.558 7.099,0 12.513,-3.129 14.798,-7.94 h 15.64 c -3.248,12.272 -15.519,20.453 -30.318,20.453 -18.889,0 -31.763,-13.956 -31.763,-31.161 0,-17.086 13.114,-31.162 31.402,-31.162 18.408,0 31.52,14.076 31.52,31.162 0,1.443 0,3.006 -0.12,4.091 z m 32.122,-9.866 c -1.202,-7.459 -7.579,-12.753 -15.88,-12.753 -7.94,0 -14.317,4.933 -15.761,12.753 z" fill="#29063e" id="path852" style="stroke-width:1.00002"></path>
    <path d="m 637.319,269.005 h 15.04 v 64.607 c 0,6.376 3.007,9.383 8.662,9.383 1.202,0 2.886,0 4.21,-0.12 v 12.873 c -1.925,0.121 -4.932,0.121 -7.339,0.121 -14.196,0 -20.573,-7.099 -20.573,-22.017 z" fill="#29063e" id="path854" style="stroke-width:1.00002"></path>
    <path d="m 683.426,330.244 c 0.962,8.903 7.821,14.558 16.482,14.558 7.099,0 12.513,-3.129 14.798,-7.94 h 15.641 c -3.249,12.272 -15.519,20.453 -30.319,20.453 -18.889,0 -31.763,-13.956 -31.763,-31.161 0,-17.086 13.114,-31.162 31.402,-31.162 18.408,0 31.52,14.076 31.52,31.162 0,1.443 0,3.006 -0.12,4.091 z m 32.122,-9.866 c -1.201,-7.459 -7.578,-12.753 -15.88,-12.753 -7.94,0 -14.317,4.933 -15.761,12.753 z" fill="#29063e" id="path856" style="stroke-width:1.00002"></path>
    <path d="m 777.335,348.531 c -2.647,5.413 -9.625,8.782 -17.687,8.782 -12.872,0 -20.934,-6.978 -20.934,-17.565 0,-10.828 7.1,-16.722 19.972,-18.047 l 10.227,-1.082 c 6.256,-0.722 8.301,-2.166 8.301,-5.653 0,-5.054 -3.007,-7.822 -10.586,-7.822 -7.94,0 -11.069,2.886 -11.551,7.94 h -15.159 c 0.722,-12.513 9.023,-20.092 26.469,-20.092 16.963,0 25.986,7.22 25.986,20.212 v 40.665 h -15.038 z m -15.4,-16.843 c -5.414,0.481 -8.181,3.007 -8.181,6.978 0,3.849 3.368,6.497 9.263,6.497 8.422,0 14.196,-5.295 14.196,-12.031 v -5.174 c -0.962,1.565 -3.73,2.647 -7.701,3.006 z" fill="#29063e" id="path858" style="stroke-width:1.00002"></path>
    <path d="m 829.42,357.313 c -16.002,0 -25.266,-7.7 -27.19,-19.97 h 15.279 c 1.082,5.052 5.174,8.06 11.551,8.06 6.014,0 9.624,-3.249 9.624,-6.617 0,-3.971 -2.405,-5.896 -11.67,-6.858 -16.963,-1.563 -24.182,-7.579 -24.182,-18.768 0,-9.504 8.662,-18.166 23.582,-18.166 15.881,0 24.663,8.302 25.746,19.851 h -15.039 c -0.481,-4.572 -3.971,-7.821 -10.466,-7.821 -6.136,0 -8.784,2.887 -8.784,6.015 0,3.969 2.648,6.136 11.911,6.978 17.085,1.683 23.943,7.218 23.943,18.528 -0.002,10.587 -9.868,18.768 -24.305,18.768 z" fill="#29063e" id="path860" style="stroke-width:1.00002"></path>
    <path d="m 874.855,330.244 c 0.962,8.903 7.82,14.558 16.483,14.558 7.099,0 12.511,-3.129 14.798,-7.94 h 15.64 c -3.25,12.272 -15.52,20.453 -30.32,20.453 -18.889,0 -31.761,-13.956 -31.761,-31.161 0,-17.086 13.112,-31.162 31.4,-31.162 18.408,0 31.522,14.076 31.522,31.162 0,1.443 0,3.006 -0.122,4.091 z m 32.123,-9.866 c -1.203,-7.459 -7.581,-12.753 -15.882,-12.753 -7.94,0 -14.317,4.933 -15.76,12.753 z" fill="#29063e" id="path862" style="stroke-width:1.00002"></path>
    <path d="m 373.529,380.38 67.309,-116.116 c 6.434,-11.1 -1.608,-24.976 -14.478,-24.976 H 291.743 c -12.87,0 -20.913,13.876 -14.478,24.976 l 11.843,20.431 4.486,7.739 c 6.789,11.711 21.797,15.724 33.542,8.969 l 20.185,-11.608 c 1.52,-0.873 2.04,-2.813 1.163,-4.327 l -6.132,-10.579 c -2.44,-4.208 0.603,-9.473 5.474,-9.473 h 51.07 c 4.877,0 7.924,5.273 5.482,9.487 l -25.518,44.024 c -2.443,4.213 -8.54,4.213 -10.982,0 l -6.137,-10.589 c -0.876,-1.512 -2.814,-2.029 -4.33,-1.159 l -20.195,11.613 c -11.734,6.748 -15.754,21.718 -8.973,33.418 l 4.486,7.739 11.843,20.431 c 6.443,11.111 22.517,11.111 28.957,0 z" fill="#29063e" id="path864" style="stroke-width:1.00002"></path>
  </g>
</svg>
