<?xml version="1.0" encoding="UTF-8" standalone="no"?>
<svg
   width="482.42896"
   height="500"
   viewBox="0 0 482.42896 500"
   version="1.1"
   id="svg23"
   sodipodi:docname="Jit_Logo-pink.svg"
   inkscape:version="1.1.1 (3bf5ae0d25, 2021-09-20)"
   xmlns:inkscape="http://www.inkscape.org/namespaces/inkscape"
   xmlns:sodipodi="http://sodipodi.sourceforge.net/DTD/sodipodi-0.dtd"
   xmlns="http://www.w3.org/2000/svg"
   xmlns:svg="http://www.w3.org/2000/svg"
   xmlns:rdf="http://www.w3.org/1999/02/22-rdf-syntax-ns#"
   xmlns:cc="http://creativecommons.org/ns#"
   xmlns:dc="http://purl.org/dc/elements/1.1/">
  <defs
     id="defs27" />
  <sodipodi:namedview
     id="namedview25"
     pagecolor="#ffffff"
     bordercolor="#666666"
     borderopacity="1.0"
     inkscape:pageshadow="2"
     inkscape:pageopacity="0.0"
     inkscape:pagecheckerboard="0"
     showgrid="false"
     fit-margin-top="0"
     fit-margin-left="0"
     fit-margin-right="0"
     fit-margin-bottom="0"
     inkscape:zoom="1.586"
     inkscape:cx="241.17276"
     inkscape:cy="250"
     inkscape:window-width="1920"
     inkscape:window-height="1001"
     inkscape:window-x="-7"
     inkscape:window-y="-7"
     inkscape:window-maximized="1"
     inkscape:current-layer="svg23" />
  <title
     id="title19">Jit- Automating product security-Logo-pink</title>
  <g
     id="Jit--Automating-product-security-Logo-pink"
     stroke="none"
     stroke-width="0.0795328"
     fill="none"
     fill-rule="evenodd"
     transform="scale(12.573429)">
    <path
       d="M 9.5357156,2.1989689 V 26.408178 c -0.027401,2.58944 -0.4486993,4.932266 -1.2638934,7.02848 C 7.4566281,35.532871 6.0899793,37.642785 4.1718756,39.7664 L 0,37.012551 C 1.1782637,35.368462 2.0003082,33.7552 2.4661333,32.172764 2.9319585,30.590329 3.1648711,28.682501 3.1648711,26.44928 V 2.1989689 Z m 23.0994484,0 v 7.9327291 h 5.610454 v 4.952818 h -5.610454 v 8.652017 c 0,1.000154 0.116457,1.787947 0.349369,2.363378 0.232913,0.575431 0.602833,0.986453 1.10976,1.233067 0.506928,0.246613 1.185114,0.36992 2.03456,0.36992 0.561731,0 1.308421,-0.07535 2.240071,-0.226062 v 5.076124 c -0.56173,0.150708 -1.188539,0.267164 -1.880426,0.349369 -0.691888,0.0822 -1.366649,0.123307 -2.024285,0.123307 -2.657943,0 -4.675377,-0.681612 -6.052302,-2.044836 -1.376924,-1.363224 -2.065387,-3.503964 -2.065387,-6.422222 v -9.474062 h -3.432035 v -4.952818 h 3.432035 L 27.497387,2.1989689 Z M 20.551111,10.131698 V 32.614613 H 14.24192 V 10.131698 Z M 17.406791,0 c 1.30157,0 2.277748,0.3014163 2.928533,0.90424889 0.650786,0.60283261 0.976178,1.45227851 0.976178,2.54833781 0,1.0960592 -0.325392,1.94208 -0.976178,2.5380622 -0.650785,0.5959822 -1.626963,0.8939733 -2.928533,0.8939733 -1.315271,0 -2.298299,-0.2979911 -2.949084,-0.8939733 -0.650785,-0.5959822 -0.976178,-1.442003 -0.976178,-2.5380622 0,-1.10976 0.325393,-1.9626311 0.976178,-2.55861337 C 15.108492,0.29799111 16.09152,0 17.406791,0 Z"
       id="Shape"
       fill="#e23ca0"
       fill-rule="nonzero"
       style="stroke-width:0.00632547" />
  </g>
  <metadata
     id="metadata109">
    <rdf:RDF>
      <cc:Work
         rdf:about="">
        <dc:title>Jit- Automating product security-Logo-pink</dc:title>
      </cc:Work>
    </rdf:RDF>
  </metadata>
</svg>
