<?xml version="1.0" encoding="UTF-8" standalone="no"?>
<svg xmlns:inkscape="http://www.inkscape.org/namespaces/inkscape" xmlns:sodipodi="http://sodipodi.sourceforge.net/DTD/sodipodi-0.dtd" xmlns="http://www.w3.org/2000/svg" xmlns:svg="http://www.w3.org/2000/svg" width="746.66614" height="200" viewBox="0 0 746.66614 200" fill="none" version="1.1" id="svg209" sodipodi:docname="QueryPal_logo.svg" inkscape:version="1.2.2 (b0a84865, 2022-12-01)">
  <g clip-path="url(#clip0_4125_1162)" id="g202" transform="matrix(3.6094891,0,0,3.6094891,0,-0.00550749)">
    <path d="m 45.9713,44.3725 -16.872,9.9473 c -2.4218,1.4285 -5.4207,1.4569 -7.8708,0.071 L 4.17666,44.7509 C 1.73123,43.3698 0.203428,40.7824 0.179778,37.9728 L 3.59053e-5,18.3904 C -0.0236143,15.5808 1.45216,12.9698 3.87394,11.5413 L 20.746,1.5893 c 2.4218,-1.42847 5.4206,-1.45685 7.8708,-0.07095 l 17.0518,9.63985 c 2.4454,1.3812 3.9732,3.9685 3.9969,6.7781 l 0.1797,19.5871 c 0.0237,2.8097 -1.4521,5.4207 -3.8739,6.8491 z" fill="#f26722" id="path182"></path>
    <path d="m 45.9713,44.3725 -16.872,9.9473 c -2.4218,1.4285 -5.4207,1.4569 -7.8708,0.071 L 4.17666,44.7509 C 1.73123,43.3698 0.203428,40.7824 0.179778,37.9728 L 3.59053e-5,18.3904 C -0.0236143,15.5808 1.45216,12.9698 3.87394,11.5413 L 20.746,1.5893 c 2.4218,-1.42847 5.4206,-1.45685 7.8708,-0.07095 l 17.0518,9.63985 c 2.4454,1.3812 3.9732,3.9685 3.9969,6.7781 l 0.1797,19.5871 c 0.0237,2.8097 -1.4521,5.4207 -3.8739,6.8491 z" fill="#f26722" id="path184"></path>
    <path d="M 43.3984,25.8734 28.3522,37.3437 c -1.9535,1.1494 -4.3706,1.1731 -6.343,0.0568 L 3.42484,44.0556 C 1.45241,42.9394 0.222596,40.8581 0.203676,38.5924 L 0.00974429,17.2458 C -0.00917588,14.9801 1.17806,12.8752 3.13157,11.7211 L 21.522,0.879808 c 1.9535,-1.149401 4.3705,-1.173051 6.343,-0.056761 L 46.4493,11.3285 c 1.9724,1.1163 3.2022,3.1975 3.2212,5.4632 l 0.0615,1.717 c 0.0662,3.9401 -3.6185,7.2369 -6.3288,7.3647 z" fill="#00a3ff" id="path186"></path>
    <path d="m 42.2533,25.8544 c 4.0935,0 7.412,-3.1639 7.412,-7.0667 0,-3.9028 -3.3185,-7.0667 -7.412,-7.0667 -4.0935,0 -7.412,3.1639 -7.412,7.0667 0,3.9028 3.3185,7.0667 7.412,7.0667 z" fill="#00a3ff" id="path188"></path>
    <path d="m 14.909,38.3843 c -0.0426,3.9732 -3.33,10.0608 -6.92953,8.2397 -5.0848,-2.5684 -7.70524,-3.5853 -7.79984,-8.2397 -0.0804112,-3.9117 3.29684,-7.0856 7.36468,-7.0856 4.06779,0 7.40729,3.1739 7.36469,7.0856 z" fill="#f26722" id="path190"></path>
    <path d="m 7.01953,19.4689 v 16.8153 c 0,1.3197 0.70478,2.54 1.84945,3.2022 l 14.56382,8.4053 c 1.1447,0.6622 2.5542,0.6622 3.6941,0 l 14.5639,-8.4053 c 1.1446,-0.6622 1.8494,-1.8778 1.8494,-3.2022 V 19.4689 c 0,-1.3197 -0.7048,-2.5401 -1.8494,-3.2023 L 27.1269,7.86134 c -1.1446,-0.66221 -2.5542,-0.66221 -3.6941,0 L 8.86898,16.2666 c -1.14467,0.6622 -1.84945,1.8779 -1.84945,3.2023 z" fill="#ffffff" id="path192"></path>
    <path d="M 39.9875,36.3504 V 19.3128 L 25.2345,10.794 10.4768,19.3128 v 17.0376 l 14.7577,8.5188 z" fill="#010101" id="path194"></path>
    <path d="m 29.9602,33.3326 c 0.9979,0 1.8069,-1.5544 1.8069,-3.4718 0,-1.9175 -0.809,-3.4719 -1.8069,-3.4719 -0.9979,0 -1.8069,1.5544 -1.8069,3.4719 0,1.9174 0.809,3.4718 1.8069,3.4718 z" fill="#ffffff" id="path196"></path>
    <path d="m 35.7119,30.4898 c 0.9979,0 1.8069,-1.5544 1.8069,-3.4718 0,-1.9175 -0.809,-3.4719 -1.8069,-3.4719 -0.9979,0 -1.8069,1.5544 -1.8069,3.4719 0,1.9174 0.809,3.4718 1.8069,3.4718 z" fill="#ffffff" id="path198"></path>
    <path d="m 73.1661,42.3761 c -0.3599,0 -0.641,-0.1012 -0.8434,-0.3036 -0.18,-0.18 -0.3262,-0.3374 -0.4386,-0.4723 L 70.737,40.082 c -0.8771,0.2924 -1.878,0.4386 -3.0025,0.4386 -2.0692,0 -3.8685,-0.3374 -5.3978,-1.0121 -1.5069,-0.6747 -2.699,-1.6868 -3.5761,-3.0363 -0.8547,-1.3719 -1.3157,-3.0812 -1.3832,-5.1279 -0.0225,-0.9671 -0.0337,-1.9342 -0.0337,-2.9014 0,-0.9896 0.0112,-1.9679 0.0337,-2.935 0.0675,-2.0242 0.5398,-3.7223 1.4169,-5.0942 0.8772,-1.3945 2.0805,-2.4403 3.6098,-3.1375 1.5294,-0.6972 3.3062,-1.0458 5.3304,-1.0458 2.0467,0 3.8347,0.3486 5.3641,1.0458 1.5294,0.6972 2.7326,1.743 3.6098,3.1375 0.8996,1.3719 1.3719,3.07 1.4169,5.0942 0.045,0.9671 0.0675,1.9454 0.0675,2.935 0,0.9672 -0.0225,1.9343 -0.0675,2.9014 -0.1124,2.7889 -0.9221,4.948 -2.429,6.4774 l 2.4628,3.5086 c 0.0224,0.0225 0.0449,0.0674 0.0674,0.1349 0.0225,0.0675 0.0338,0.135 0.0338,0.2024 0.0225,0.18 -0.0338,0.3374 -0.1687,0.4723 -0.135,0.1575 -0.3036,0.2362 -0.5061,0.2362 z m -5.4316,-6.7136 c 1.192,0 2.1591,-0.3598 2.9013,-1.0795 0.7647,-0.7197 1.1696,-1.8668 1.2145,-3.4411 0.045,-0.9896 0.0675,-1.923 0.0675,-2.8002 0,-0.8771 -0.0225,-1.788 -0.0675,-2.7326 -0.0225,-1.0571 -0.2136,-1.9117 -0.5735,-2.564 -0.3598,-0.6747 -0.8434,-1.1695 -1.4506,-1.4844 -0.5848,-0.3149 -1.282,-0.4723 -2.0917,-0.4723 -0.7647,0 -1.4507,0.1574 -2.0579,0.4723 -0.6073,0.3149 -1.0908,0.8097 -1.4507,1.4844 -0.3374,0.6523 -0.5285,1.5069 -0.5735,2.564 -0.0225,0.9446 -0.0338,1.8555 -0.0338,2.7326 0,0.8772 0.0113,1.8106 0.0338,2.8002 0.0675,1.5743 0.4723,2.7214 1.2145,3.4411 0.7422,0.7197 1.6981,1.0795 2.8676,1.0795 z m 20.4751,4.8581 c -1.282,0 -2.429,-0.2924 -3.4411,-0.8772 C 83.7789,39.0587 83.003,38.204 82.4407,37.0795 81.8784,35.9324 81.5973,34.538 81.5973,32.8962 v -9.4125 c 0,-0.2474 0.0787,-0.4498 0.2361,-0.6073 0.1575,-0.1574 0.3599,-0.2361 0.6073,-0.2361 h 4.217 c 0.2474,0 0.4499,0.0787 0.6073,0.2361 0.1799,0.1575 0.2699,0.3599 0.2699,0.6073 v 9.21 c 0,2.2042 0.9783,3.3062 2.9351,3.3062 0.9221,0 1.653,-0.2811 2.1928,-0.8434 0.5623,-0.5848 0.8434,-1.4057 0.8434,-2.4628 v -9.21 c 0,-0.2474 0.0788,-0.4498 0.2362,-0.6073 0.1574,-0.1574 0.3598,-0.2361 0.6072,-0.2361 h 4.2171 c 0.2474,0 0.4498,0.0787 0.6073,0.2361 0.1574,0.1575 0.2361,0.3599 0.2361,0.6073 v 15.8561 c 0,0.2249 -0.0787,0.4273 -0.2361,0.6073 -0.1575,0.1574 -0.3599,0.2361 -0.6073,0.2361 h -3.9134 c -0.2249,0 -0.4274,-0.0787 -0.6073,-0.2361 -0.1574,-0.18 -0.2361,-0.3824 -0.2361,-0.6073 v -1.282 c -0.5848,0.8097 -1.3495,1.4282 -2.2941,1.8555 -0.9221,0.4049 -2.0242,0.6073 -3.3062,0.6073 z m 23.2654,0 c -2.654,0 -4.768,-0.7197 -6.342,-2.1591 -1.575,-1.4395 -2.396,-3.5761 -2.463,-6.41 0,-0.1574 0,-0.3598 0,-0.6072 0,-0.2474 0,-0.4386 0,-0.5735 0.067,-1.7768 0.461,-3.295 1.181,-4.5545 0.742,-1.2819 1.754,-2.2491 3.036,-2.9013 1.304,-0.6747 2.823,-1.0121 4.554,-1.0121 1.98,0 3.61,0.3936 4.892,1.1808 1.305,0.7872 2.283,1.8555 2.935,3.205 0.652,1.3494 0.979,2.89 0.979,4.6218 v 0.8097 c 0,0.2474 -0.079,0.4498 -0.237,0.6073 -0.157,0.1574 -0.359,0.2361 -0.607,0.2361 h -10.795 c 0,0.0225 0,0.0563 0,0.1012 0,0.045 0,0.09 0,0.135 0.022,0.6522 0.134,1.2482 0.337,1.788 0.225,0.5398 0.54,0.9671 0.944,1.282 0.428,0.3149 0.945,0.4723 1.552,0.4723 0.45,0 0.821,-0.0675 1.114,-0.2024 0.315,-0.1574 0.573,-0.3261 0.776,-0.5061 0.202,-0.2024 0.359,-0.3711 0.472,-0.506 0.202,-0.2474 0.36,-0.3936 0.472,-0.4386 0.135,-0.0674 0.338,-0.1012 0.607,-0.1012 h 4.184 c 0.225,0 0.405,0.0675 0.54,0.2024 0.157,0.135 0.225,0.3149 0.202,0.5398 -0.022,0.3824 -0.214,0.8434 -0.574,1.3832 -0.359,0.5398 -0.888,1.0796 -1.585,1.6194 -0.675,0.5173 -1.53,0.9446 -2.564,1.2819 -1.035,0.3374 -2.238,0.5061 -3.61,0.5061 z m -2.867,-10.8969 h 5.701 v -0.0675 c 0,-0.7422 -0.112,-1.3719 -0.337,-1.8892 -0.203,-0.5398 -0.529,-0.9559 -0.979,-1.2482 -0.427,-0.2924 -0.944,-0.4386 -1.552,-0.4386 -0.584,0 -1.09,0.1462 -1.518,0.4386 -0.427,0.2923 -0.753,0.7084 -0.978,1.2482 -0.225,0.5173 -0.337,1.147 -0.337,1.8892 z m 15.645,10.5595 c -0.248,0 -0.45,-0.0787 -0.607,-0.2361 -0.158,-0.18 -0.237,-0.3824 -0.237,-0.6073 V 23.4837 c 0,-0.2249 0.079,-0.4161 0.237,-0.5735 0.157,-0.18 0.359,-0.2699 0.607,-0.2699 h 3.879 c 0.248,0 0.45,0.0899 0.608,0.2699 0.18,0.1574 0.27,0.3486 0.27,0.5735 v 1.3494 c 0.584,-0.6972 1.293,-1.237 2.125,-1.6193 0.855,-0.3824 1.811,-0.5735 2.868,-0.5735 h 1.484 c 0.247,0 0.45,0.0787 0.607,0.2361 0.158,0.1575 0.236,0.3599 0.236,0.6073 v 3.4748 c 0,0.225 -0.078,0.4274 -0.236,0.6073 -0.157,0.1574 -0.36,0.2362 -0.607,0.2362 h -3.272 c -0.923,0 -1.642,0.2586 -2.16,0.7759 -0.494,0.4948 -0.742,1.2033 -0.742,2.1254 v 8.6365 c 0,0.2249 -0.09,0.4273 -0.27,0.6073 -0.157,0.1574 -0.359,0.2361 -0.607,0.2361 z m 17.749,6.41 c -0.203,0 -0.372,-0.0675 -0.506,-0.2025 -0.135,-0.1349 -0.203,-0.3036 -0.203,-0.506 0,-0.045 0,-0.1125 0,-0.2024 0.023,-0.0675 0.056,-0.1462 0.101,-0.2362 l 2.632,-6.3424 -6.478,-15.3164 c -0.067,-0.1574 -0.101,-0.2924 -0.101,-0.4048 0.045,-0.2024 0.135,-0.3711 0.27,-0.5061 0.135,-0.1574 0.304,-0.2361 0.506,-0.2361 h 3.846 c 0.292,0 0.506,0.0787 0.641,0.2361 0.157,0.135 0.27,0.2924 0.337,0.4723 l 3.846,9.8173 3.948,-9.8173 c 0.089,-0.1799 0.202,-0.3373 0.337,-0.4723 0.157,-0.1574 0.382,-0.2361 0.675,-0.2361 h 3.778 c 0.203,0 0.371,0.0787 0.506,0.2361 0.158,0.135 0.236,0.2924 0.236,0.4723 0,0.1125 -0.033,0.2587 -0.101,0.4386 l -9.547,22.0974 c -0.068,0.1799 -0.18,0.3374 -0.338,0.4723 -0.157,0.1574 -0.382,0.2362 -0.674,0.2362 z m 18.072,-6.41 c -0.248,0 -0.45,-0.0787 -0.608,-0.2361 -0.157,-0.18 -0.236,-0.3824 -0.236,-0.6073 V 17.4111 c 0,-0.2474 0.079,-0.4498 0.236,-0.6072 0.158,-0.1575 0.36,-0.2362 0.608,-0.2362 h 9.446 c 1.866,0 3.486,0.2924 4.858,0.8772 1.394,0.5622 2.474,1.4169 3.238,2.5639 0.788,1.1471 1.181,2.5977 1.181,4.352 0,1.7318 -0.393,3.16 -1.181,4.2846 -0.764,1.1245 -1.844,1.9567 -3.238,2.4965 -1.372,0.5397 -2.992,0.8096 -4.858,0.8096 h -4.015 v 7.3883 c 0,0.2249 -0.09,0.4273 -0.27,0.6073 -0.157,0.1574 -0.36,0.2361 -0.607,0.2361 z m 5.33,-12.8873 h 3.947 c 0.967,0 1.732,-0.2474 2.294,-0.7422 0.585,-0.4948 0.877,-1.2482 0.877,-2.2603 0,-0.8547 -0.247,-1.5744 -0.742,-2.1592 -0.495,-0.5847 -1.304,-0.8771 -2.429,-0.8771 h -3.947 z m 21.154,13.2247 c -1.215,0 -2.305,-0.2249 -3.273,-0.6747 -0.944,-0.4723 -1.698,-1.1021 -2.26,-1.8893 -0.562,-0.7872 -0.843,-1.6756 -0.843,-2.6652 0,-1.5968 0.652,-2.8563 1.956,-3.7784 1.305,-0.9447 3.037,-1.5857 5.196,-1.923 l 4.217,-0.641 v -0.4723 c 0,-0.8097 -0.169,-1.4282 -0.506,-1.8555 -0.337,-0.4274 -0.956,-0.641 -1.856,-0.641 -0.629,0 -1.147,0.1237 -1.552,0.3711 -0.382,0.2474 -0.685,0.5848 -0.91,1.0121 -0.203,0.2924 -0.484,0.4386 -0.844,0.4386 h -3.778 c -0.248,0 -0.439,-0.0675 -0.574,-0.2025 -0.135,-0.1574 -0.191,-0.3373 -0.168,-0.5397 0,-0.4049 0.146,-0.866 0.438,-1.3832 0.315,-0.5398 0.787,-1.0684 1.417,-1.5857 0.63,-0.5172 1.439,-0.9446 2.429,-1.2819 0.99,-0.3374 2.193,-0.5061 3.61,-0.5061 1.439,0 2.676,0.1687 3.711,0.5061 1.034,0.3373 1.878,0.8096 2.53,1.4169 0.652,0.6072 1.125,1.327 1.417,2.1591 0.315,0.8097 0.472,1.7093 0.472,2.6989 v 10.2559 c 0,0.2249 -0.09,0.4273 -0.27,0.6073 -0.157,0.1574 -0.348,0.2361 -0.573,0.2361 h -3.914 c -0.247,0 -0.449,-0.0787 -0.607,-0.2361 -0.157,-0.18 -0.236,-0.3824 -0.236,-0.6073 V 38.159 c -0.292,0.4274 -0.686,0.821 -1.181,1.1808 -0.494,0.3599 -1.079,0.641 -1.754,0.8434 -0.652,0.2249 -1.417,0.3374 -2.294,0.3374 z m 1.586,-3.846 c 0.652,0 1.237,-0.1349 1.754,-0.4048 0.54,-0.2924 0.956,-0.731 1.248,-1.3157 0.315,-0.6073 0.472,-1.3607 0.472,-2.2604 v -0.4723 l -2.867,0.5061 c -1.057,0.1799 -1.833,0.461 -2.328,0.8434 -0.472,0.3598 -0.708,0.7872 -0.708,1.282 0,0.3823 0.112,0.7084 0.337,0.9783 0.225,0.2699 0.517,0.4836 0.877,0.641 0.382,0.135 0.787,0.2024 1.215,0.2024 z m 13.894,3.5086 c -0.248,0 -0.45,-0.0787 -0.608,-0.2361 -0.157,-0.18 -0.236,-0.3824 -0.236,-0.6073 v -22.266 c 0,-0.2474 0.079,-0.4499 0.236,-0.6073 0.158,-0.1574 0.36,-0.2361 0.608,-0.2361 h 3.981 c 0.247,0 0.449,0.0787 0.607,0.2361 0.157,0.1574 0.236,0.3599 0.236,0.6073 v 22.266 c 0,0.2249 -0.079,0.4273 -0.236,0.6073 -0.158,0.1574 -0.36,0.2361 -0.607,0.2361 z" fill="#2c3141" id="path200"></path>
  </g>
  <defs id="defs207">
    <clipPath id="clip0_4125_1162">
      <rect width="213.09801" height="55.412498" fill="#ffffff" id="rect204" x="0" y="0"></rect>
    </clipPath>
  </defs>
</svg>
