<?xml version="1.0" encoding="UTF-8" standalone="no"?>
<svg xmlns:inkscape="http://www.inkscape.org/namespaces/inkscape" xmlns:sodipodi="http://sodipodi.sourceforge.net/DTD/sodipodi-0.dtd" xmlns="http://www.w3.org/2000/svg" xmlns:svg="http://www.w3.org/2000/svg" class="header-logo" width="791.24512" height="200" fill="none" version="1.1" id="svg8" sodipodi:docname="Apono_logo.svg" inkscape:version="1.1.1 (3bf5ae0d25, 2021-09-20)">
  <defs id="defs12"></defs>
  <g id="g832" transform="matrix(8.6949616,0,0,8.6949616,-2.3957564e-4,-60.864731)" style="stroke-width:0.115009">
    <path d="M 11,7 C 8.364,7 5.815,7.89 3.818,9.508 c -1.997,1.617 -3.31,3.856 -3.698,6.306 -0.388,2.451 0.172,4.952 1.58,7.046 1.409,2.095 3.57,3.645 6.093,4.367 0.106,0.03 0.22,0.02 0.318,-0.029 A 0.4,0.4 0 0 0 8.315,26.966 0.372,0.372 0 0 0 8.284,26.666 0.414,0.414 0 0 0 8.037,26.476 10.26,10.26 0 0 1 3.371,23.657 9.331,9.331 0 0 1 0.973,18.958 9.024,9.024 0 0 1 1.554,13.775 9.66,9.66 0 0 1 4.943,9.649 10.566,10.566 0 0 1 10.131,7.808 c 1.877,-0.15 3.762,0.193 5.444,0.99 a 9.96,9.96 0 0 1 4.082,3.53 9.133,9.133 0 0 1 1.505,5.016 c -0.009,2.06 -0.721,4.062 -2.033,5.711 -1.311,1.65 -3.152,2.86 -5.251,3.452 a 0.417,0.417 0 0 0 -0.233,0.165 0.374,0.374 0 0 0 0.078,0.508 0.434,0.434 0 0 0 0.392,0.08 c 2.25,-0.63 4.229,-1.915 5.65,-3.671 C 21.222,21.795 22.007,19.6 22,17.344 21.998,14.602 20.84,11.972 18.777,10.034 16.714,8.093 13.917,7.002 11,7 Z" fill="#18a0fb" id="path2" style="stroke-width:0.0132271"></path>
    <path d="m 11.001,18.396 c 0.477,0 0.944,-0.133 1.34,-0.381 0.397,-0.25 0.706,-0.604 0.888,-1.018 0.183,-0.414 0.23,-0.87 0.137,-1.31 a 2.227,2.227 0 0 0 -0.66,-1.16 2.463,2.463 0 0 0 -1.234,-0.62 2.554,2.554 0 0 0 -1.393,0.13 c -0.441,0.17 -0.818,0.461 -1.083,0.834 A 2.17,2.17 0 0 0 8.59,16.13 c 0,0.601 0.254,1.177 0.707,1.602 a 2.493,2.493 0 0 0 1.704,0.664 z m 1.104,-3.55 c 0.117,0 0.232,0.033 0.329,0.094 a 0.565,0.565 0 0 1 0.218,0.25 0.525,0.525 0 0 1 -0.129,0.605 0.627,0.627 0 0 1 -0.644,0.12 0.585,0.585 0 0 1 -0.265,-0.204 0.532,0.532 0 0 1 0.073,-0.702 0.611,0.611 0 0 1 0.418,-0.162 z" fill="#18a0fb" id="path4" style="stroke-width:0.0132271"></path>
    <path d="m 16.98,18.3 c 0.797,-0.164 1.878,0 2.351,0.26 a 0.44,0.44 0 0 0 0.541,-0.1 0.378,0.378 0 0 0 -0.034,-0.517 L 11.299,9.751 a 0.422,0.422 0 0 0 -0.3,-0.115 0.428,0.428 0 0 0 -0.29,0.115 L 2.17,17.943 a 0.377,0.377 0 0 0 -0.034,0.517 0.44,0.44 0 0 0 0.541,0.1 c 0.473,-0.255 1.555,-0.424 2.35,-0.26 2.742,0.566 4.925,5.02 5.565,11.347 0.01,0.097 0.059,0.186 0.135,0.252 a 0.434,0.434 0 0 0 0.561,0 0.386,0.386 0 0 0 0.136,-0.252 c 0.632,-6.331 2.815,-10.785 5.557,-11.348 z M 11,10.59 l 1.954,1.864 a 9.55,9.55 0 0 0 -3.895,0 z M 6.805,18.215 A 4.534,4.534 0 0 0 5.199,17.532 4.361,4.361 0 0 0 4.328,17.45 c -0.164,0 -0.332,0.007 -0.5,0.022 l 2.994,-2.867 a 5.916,5.916 0 0 1 1.897,-1.225 6.213,6.213 0 0 1 2.252,-0.449 h 0.062 a 6.22,6.22 0 0 1 2.252,0.449 5.921,5.921 0 0 1 1.897,1.225 l 2.993,2.867 a 4.834,4.834 0 0 0 -1.373,0.06 4.554,4.554 0 0 0 -1.598,0.683 6.269,6.269 0 0 1 -1.611,0.714 8.772,8.772 0 0 1 -5.167,0 6.275,6.275 0 0 1 -1.621,-0.718 z M 11,26.705 c -0.599,-3.093 -1.552,-5.597 -2.692,-7.06 1.752,0.52 3.633,0.52 5.385,0 -1.14,1.464 -2.093,3.963 -2.693,7.057 v 0.004 z M 41.279,24.25 a 0.726,0.726 0 0 1 -0.508,-0.206 0.698,0.698 0 0 1 -0.21,-0.499 v -10.09 c 0,-0.187 0.075,-0.366 0.21,-0.499 a 0.726,0.726 0 0 1 0.508,-0.206 h 4.387 c 0.989,0 1.938,0.385 2.638,1.07 a 3.631,3.631 0 0 1 1.097,2.587 3.576,3.576 0 0 1 -1.08,2.55 3.715,3.715 0 0 1 -2.6,1.056 h -1.24 a 0.725,0.725 0 0 1 -0.508,-0.207 0.698,0.698 0 0 1 0,-0.997 0.726,0.726 0 0 1 0.508,-0.206 h 1.24 a 2.277,2.277 0 0 0 1.585,-0.642 c 0.208,-0.204 0.373,-0.446 0.486,-0.713 0.113,-0.267 0.172,-0.553 0.172,-0.841 a 2.234,2.234 0 0 0 -0.676,-1.59 2.32,2.32 0 0 0 -1.622,-0.657 h -3.673 v 9.385 a 0.698,0.698 0 0 1 -0.21,0.497 0.725,0.725 0 0 1 -0.504,0.208 z m 15.921,0 a 5.698,5.698 0 0 1 -3.177,-0.97 5.743,5.743 0 0 1 -2.107,-2.58 5.777,5.777 0 0 1 1.24,-6.266 5.692,5.692 0 0 1 6.234,-1.246 5.726,5.726 0 0 1 2.566,2.117 5.77,5.77 0 0 1 -0.713,7.26 5.71,5.71 0 0 1 -4.043,1.685 z m 0,-10.09 c -0.854,0 -1.688,0.254 -2.398,0.731 a 4.336,4.336 0 0 0 -1.59,1.948 4.362,4.362 0 0 0 0.935,4.73 4.296,4.296 0 0 0 4.705,0.94 4.324,4.324 0 0 0 1.939,-1.598 A 4.357,4.357 0 0 0 60.252,15.433 4.312,4.312 0 0 0 57.2,14.16 Z m 28.08,10.09 a 5.698,5.698 0 0 1 -3.177,-0.97 5.743,5.743 0 0 1 -2.107,-2.58 5.777,5.777 0 0 1 1.24,-6.266 5.692,5.692 0 0 1 6.234,-1.246 5.727,5.727 0 0 1 2.567,2.117 5.772,5.772 0 0 1 -0.713,7.26 5.71,5.71 0 0 1 -4.043,1.685 z m 0,-10.09 c -0.853,0 -1.688,0.254 -2.398,0.731 a 4.336,4.336 0 0 0 -1.59,1.948 4.362,4.362 0 0 0 0.936,4.73 4.297,4.297 0 0 0 4.705,0.94 4.323,4.323 0 0 0 1.938,-1.598 4.356,4.356 0 0 0 -0.539,-5.478 4.312,4.312 0 0 0 -3.051,-1.273 z M 75.243,24.25 a 0.656,0.656 0 0 1 -0.52,-0.254 l -6.807,-8.494 v 8.035 a 0.72,0.72 0 0 1 -0.198,0.498 0.665,0.665 0 0 1 -0.48,0.206 0.665,0.665 0 0 1 -0.479,-0.206 0.72,0.72 0 0 1 -0.198,-0.498 v -9.978 c 0,-0.145 0.043,-0.286 0.122,-0.404 a 0.682,0.682 0 0 1 0.325,-0.258 0.653,0.653 0 0 1 0.407,-0.018 0.675,0.675 0 0 1 0.344,0.23 l 6.806,8.49 v -8.144 a 0.72,0.72 0 0 1 0.199,-0.499 0.665,0.665 0 0 1 0.479,-0.206 c 0.18,0 0.352,0.074 0.48,0.206 a 0.72,0.72 0 0 1 0.198,0.499 v 10.09 a 0.72,0.72 0 0 1 -0.199,0.499 0.665,0.665 0 0 1 -0.48,0.206 z M 37.877,23.223 32.611,13.13 a 0.702,0.702 0 0 0 -0.262,-0.277 0.726,0.726 0 0 0 -0.744,0 0.7,0.7 0 0 0 -0.262,0.277 l -5.266,10.094 a 0.679,0.679 0 0 0 -0.042,0.53 0.7,0.7 0 0 0 0.355,0.403 0.728,0.728 0 0 0 0.543,0.041 0.707,0.707 0 0 0 0.414,-0.345 4.797,4.797 0 0 1 1.207,-1.499 4.936,4.936 0 0 1 1.712,-0.919 6.708,6.708 0 0 1 1.863,-0.291 4.978,4.978 0 0 1 2.907,0.892 4.819,4.819 0 0 1 1.535,1.752 l 0.034,0.065 a 0.694,0.694 0 0 0 0.413,0.36 0.729,0.729 0 0 0 0.775,-0.209 0.688,0.688 0 0 0 0.163,-0.516 0.68,0.68 0 0 0 -0.083,-0.264 h 0.004 z m -5.753,-3.47 c -1.005,0.008 -2,0.197 -2.936,0.556 l 2.787,-5.34 2.731,5.232 a 7.94,7.94 0 0 0 -2.582,-0.446 v -10e-4 z" fill="#18a0fb" id="path6" style="stroke-width:0.0132271"></path>
  </g>
</svg>
