<?xml version="1.0" encoding="UTF-8"?>
<svg xmlns="http://www.w3.org/2000/svg" xmlns:xlink="http://www.w3.org/1999/xlink" width="1425px" height="248px" viewBox="0 0 1425 248" version="1.1">
  <!-- Generator: Sketch 53 (72520) - https://sketchapp.com -->
  <title>Branding/Logo_Colored</title>
  <desc>Created with Sketch.</desc>
  <defs>
    <polygon id="path-1" points="0 0 184.6824 0 184.6824 184.6819 0 184.6819"></polygon>
    <polygon id="path-3" points="0 0.6816 61.5844 0.6816 61.5844 62.2666 0 62.2666"></polygon>
    <polygon id="path-5" points="0.0965 0.1261 92.511 0.1261 92.511 108.5771 0.0965 108.5771"></polygon>
  </defs>
  <g id="Branding/Logo_Colored" stroke="none" stroke-width="1" fill="none" fill-rule="evenodd">
    <g id="Group-28">
      <g id="Group-3">
        <mask id="mask-2" fill="white">
          <use xlink:href="#path-1"></use>
        </mask>
        <g id="Clip-2"></g>
        <path d="M92.3414,123.1699 C75.3524,123.1699 61.5844,109.3299 61.5844,92.3409 C61.5844,75.3519 75.3524,61.5849 92.3414,61.5849 C109.3294,61.5849 123.1704,75.3519 123.1704,92.3409 C123.1704,109.3299 109.3294,123.1699 92.3414,123.1699 M92.3414,-0.0001 C41.3734,-0.0001 -0.0006,41.3739 -0.0006,92.3409 C-0.0006,143.3809 41.3734,184.6819 92.3414,184.6819 C143.3814,184.6819 184.6824,143.3809 184.6824,92.3409 C184.6824,41.3739 143.3814,-0.0001 92.3414,-0.0001" id="Fill-1" fill="#5C54FF" mask="url(#mask-2)"></path>
      </g>
      <g id="Group-6" transform="translate(0.000000, 184.000000)">
        <mask id="mask-4" fill="white">
          <use xlink:href="#path-3"></use>
        </mask>
        <g id="Clip-5"></g>
        <path d="M30.7554,0.6816 C13.7674,0.6816 -0.0006,14.4496 -0.0006,31.5116 C-0.0006,48.4996 13.7674,62.2666 30.7554,62.2666 C47.8174,62.2666 61.5844,48.4996 61.5844,31.5116 C61.5844,14.4496 47.8174,0.6816 30.7554,0.6816" id="Fill-4" fill="#5C54FF" mask="url(#mask-4)"></path>
      </g>
      <path d="M1124.861,182.0459 C1096.301,182.0459 1074.772,158.4659 1074.772,129.6879 C1074.772,100.9819 1096.301,77.4019 1124.861,77.4019 C1153.639,77.4019 1175.315,100.9819 1175.315,129.6879 C1175.315,158.4659 1153.639,182.0459 1124.861,182.0459 M1124.861,53.1639 C1082.462,53.1639 1048.337,87.2879 1048.337,129.6879 C1048.337,172.1599 1082.462,206.2839 1124.861,206.2839 C1167.333,206.2839 1201.458,172.1599 1201.458,129.6879 C1201.458,87.2879 1167.333,53.1639 1124.861,53.1639" id="Fill-7" fill="#05004D"></path>
      <g id="Group-11" transform="translate(1332.000000, 98.000000)">
        <mask id="mask-6" fill="white">
          <use xlink:href="#path-5"></use>
        </mask>
        <g id="Clip-10"></g>
        <path d="M62.0485,45.1611 L42.9355,42.1591 C31.9505,40.1081 28.4365,35.3481 28.4365,30.3691 C28.4365,24.3651 34.8075,19.3851 46.8165,19.3851 C58.5325,19.3851 67.9795,23.9981 68.9315,34.3231 L91.9985,34.1781 C89.6545,6.2771 64.3185,0.1261 46.8165,0.1261 C21.3325,0.1261 3.7585,12.5011 3.7585,33.0791 C3.7585,51.6051 18.5505,59.6601 34.0745,62.5161 L56.3365,66.1781 C64.3185,67.6421 68.6385,71.5971 68.6385,77.0151 C68.6385,83.8991 60.2905,88.2201 48.2075,88.2201 C34.2215,88.2201 25.1415,82.9471 23.0175,70.8641 L0.0965,70.6441 C2.5135,98.8381 24.1155,108.5771 47.5485,108.5771 C73.2515,108.5771 92.5115,96.6401 92.5115,74.8181 C92.5115,54.9001 77.6455,48.0171 62.0485,45.1611" id="Fill-9" fill="#05004D" mask="url(#mask-6)"></path>
      </g>
      <path d="M375.149,137 L347.255,137 L347.255,80 L375.149,80 C395.067,80 408.467,91.072 408.467,107.182 C408.467,124.83 395.067,137 375.149,137 M376.101,57 L321.255,57 L321.255,204 L347.255,204 L347.255,160 L372.293,160 C409.566,160 434.244,139.329 434.244,107.328 C434.244,76.865 411.031,57 376.101,57" id="Fill-12" fill="#05004D"></path>
      <path d="M1034.2555,98.9312 C1026.2555,98.1992 1010.2555,97.3932 998.2555,108.1592 L998.2555,101.0002 L972.2555,101.0002 L972.2555,204.0002 L998.2555,204.0002 L998.2555,195.3002 L998.2555,152.8272 L998.2555,143.9672 L998.2555,143.3072 C998.2555,135.9852 1001.5105,129.2852 1007.2955,125.6242 C1012.7875,122.9142 1019.0455,122.0002 1025.8565,122.0002 L1033.0315,122.0002 L1034.2555,122.0002 L1034.2555,98.3172 L1034.2555,98.9312 Z" id="Fill-14" fill="#05004D"></path>
      <path d="M877.9341,142 C880.7901,129 890.0171,118.421 905.9811,118.421 C920.9191,118.421 929.9991,129 932.0501,142 L877.9341,142 Z M907.3721,98.565 C874.7121,98.565 853.0371,121.706 853.0371,152.241 C853.0371,182.412 874.7121,206.117 907.3721,206.117 C930.6591,206.117 949.5521,194 955.3361,176 L928.7551,176 C925.0931,181 917.9171,185.464 908.0321,185.464 C890.6761,185.464 881.2301,176 878.2271,163 L956.4351,163 L956.7281,163 C957.2411,158 957.2411,154.655 957.2411,150.993 C957.0941,120.311 935.7111,98.565 907.3721,98.565 L907.3721,98.565 Z" id="Fill-16" fill="#05004D"></path>
      <path d="M1269.2555,184.0967 C1230.2555,184.0967 1230.2555,120.2417 1269.2555,120.2417 C1287.2555,120.2417 1299.4985,135.1067 1299.4985,152.2417 C1299.4985,169.0117 1287.2555,184.0967 1269.2555,184.0967 M1271.6405,98.5657 C1259.3375,98.5657 1248.2555,102.0807 1240.2555,108.1587 L1240.2555,100.9997 L1215.2555,100.9997 L1215.2555,247.9997 L1240.2555,247.9997 L1240.2555,196.1057 C1248.2555,202.2567 1259.3375,205.6247 1271.6405,205.6247 C1300.1265,205.6247 1323.0465,181.8997 1323.0465,152.2417 C1323.0465,122.3647 1300.1265,98.5657 1271.6405,98.5657" id="Fill-18" fill="#05004D"></path>
      <path d="M565.3961,183.8037 C547.6741,183.8037 535.7391,169.6697 535.7391,152.2417 C535.7391,134.8867 547.6741,121.3397 565.3961,121.3397 C582.8971,121.3397 594.8331,134.8867 594.8331,152.2417 C594.8331,169.6697 582.8971,183.8037 565.3961,183.8037 M565.3961,98.5657 C534.2741,98.5657 510.9141,121.3397 510.9141,152.2417 C510.9141,183.3647 534.2741,206.5767 565.3961,206.5767 C596.2981,206.5767 619.5841,183.3647 619.5841,152.2417 C619.5841,121.3397 596.2981,98.5657 565.3961,98.5657" id="Fill-20" fill="#05004D"></path>
      <path d="M473.2554,108.1587 L473.2554,100.9997 L447.2554,100.9997 L447.2554,203.9997 L473.2554,203.9997 L473.2554,195.2997 L473.2554,152.8267 L473.2554,143.9667 C473.2554,121.2657 494.2554,122.6577 509.2554,122.6577 L509.2554,98.9307 C504.2554,98.1997 489.2554,97.3937 473.2554,108.1587" id="Fill-22" fill="#05004D"></path>
      <path d="M691.4224,143.1611 L672.4554,140.1591 C661.3244,138.1081 657.9564,133.3481 657.9564,128.3691 C657.9564,122.3651 664.1814,117.3851 676.2634,117.3851 C687.9064,117.3851 697.5724,121.9981 698.3784,132.3231 L721.5194,132.1781 C719.1024,104.2771 693.9114,98.1261 676.2634,98.1261 C650.7794,98.1261 633.2784,110.5011 633.2784,131.0791 C633.2784,149.6051 647.9244,157.6601 663.5224,160.5161 L685.7834,164.1781 C693.9114,165.6421 698.0854,169.5971 698.0854,175.0151 C698.0854,181.8991 689.6644,186.2201 677.6544,186.2201 C663.8154,186.2201 654.7344,180.9471 652.5374,168.8641 L629.6164,168.6441 C631.9604,196.8381 653.6364,206.5771 676.9224,206.5771 C702.6984,206.5771 721.9574,194.6401 721.9574,172.8181 C721.9574,152.9001 707.0194,146.0171 691.4224,143.1611" id="Fill-24" fill="#05004D"></path>
      <path d="M788.2554,184.0967 C750.2554,184.0967 750.2554,120.2417 788.2554,120.2417 C806.2554,120.2417 818.4984,135.1067 818.4984,152.2417 C818.4984,169.0117 806.2554,184.0967 788.2554,184.0967 M793.0734,98.5657 C780.6974,98.5657 770.2554,102.0807 762.2554,108.1587 L762.2554,100.9997 L737.2554,100.9997 L737.2554,247.9997 L762.2554,247.9997 L762.2554,196.1057 C770.2554,202.2567 780.6974,205.6247 793.0734,205.6247 C821.4854,205.6247 844.4064,181.8997 844.4064,152.2417 C844.4064,122.3647 821.4854,98.5657 793.0734,98.5657" id="Fill-26" fill="#05004D"></path>
    </g>
  </g>
</svg>
