<?xml version="1.0" encoding="UTF-8" standalone="no"?>
<svg xmlns:inkscape="http://www.inkscape.org/namespaces/inkscape" xmlns:sodipodi="http://sodipodi.sourceforge.net/DTD/sodipodi-0.dtd" xmlns="http://www.w3.org/2000/svg" xmlns:svg="http://www.w3.org/2000/svg" id="Layer_1" data-name="Layer 1" viewBox="0 0 264.86469 82.840004" version="1.1" sodipodi:docname="Quali_logo.svg" width="264.86469" height="82.840004" inkscape:version="1.1.1 (3bf5ae0d25, 2021-09-20)">
  <defs id="defs4">
    <style id="style2">.cls-1{fill:#009bda;}</style>
  </defs>
  <g id="g845" transform="translate(-23.975303,-15.299999)">
    <circle class="cls-1" cx="279.5" cy="24.639999" r="9.3400002" id="circle6"></circle>
    <circle class="cls-1" cx="103.74" cy="88.800003" r="9.3400002" id="circle8"></circle>
    <path d="M 82.57,82.63 A 9.05,9.05 0 0 1 79.93,76.79 23.64,23.64 0 0 1 64.07,82.57 25.08,25.08 0 0 1 47.78,76.79 q -9.14,-7.41 -9.14,-20.14 0,-11.41 7.26,-18.82 a 24,24 0 0 1 17.9,-7.41 24,24 0 0 1 17.91,7.58 25.62,25.62 0 0 1 7.36,18.54 27,27 0 0 1 -2,10.55 9,9 0 0 1 1.88,-0.19 8.68,8.68 0 0 1 6.42,2.71 A 9,9 0 0 1 98,76.19 9.36,9.36 0 0 1 97.86,77.8 39.22,39.22 0 0 0 103.64,56.65 39.23,39.23 0 0 0 92,27.92 38.1,38.1 0 0 0 64,16.13 a 40.17,40.17 0 0 0 -34.7,20 39.76,39.76 0 0 0 -5.32,20.23 39.61,39.61 0 0 0 11.38,28.4 q 11.43,12 28.71,11.95 a 38.06,38.06 0 0 0 28,-11.63 l 0.38,-0.4 a 9.05,9.05 0 0 1 -9.92,-2.05 z" id="path10"></path>
    <path d="m 115.82,38 h 14.52 v 27.55 q 0,8.06 1.11,11.19 a 9.77,9.77 0 0 0 3.55,4.86 10.19,10.19 0 0 0 6,1.74 10.6,10.6 0 0 0 6.1,-1.71 10,10 0 0 0 3.71,-5 c 0.6,-1.64 0.9,-5.17 0.9,-10.57 V 38 h 14.37 v 24.24 q 0,15 -2.37,20.52 a 22.35,22.35 0 0 1 -8.53,10.34 q -5.62,3.6 -14.31,3.61 -9.42,0 -15.23,-4.21 a 22.25,22.25 0 0 1 -8.19,-11.74 q -1.68,-5.2 -1.68,-18.94 z" id="path12"></path>
    <path d="m 204,49.77 a 14.5,14.5 0 0 0 -11.07,4.71 16.93,16.93 0 0 0 -4.41,12.07 17.15,17.15 0 0 0 4.48,12.21 14.54,14.54 0 0 0 11,4.79 14.79,14.79 0 0 0 11.22,-4.71 q 4.46,-4.71 4.46,-12.34 0,-7.47 -4.46,-12.1 A 15,15 0 0 0 204,49.77 M 219.1,38 h 14.36 V 95.23 H 219.1 v -6 a 28.09,28.09 0 0 1 -8.44,5.76 23.53,23.53 0 0 1 -9.17,1.77 q -11.09,0 -19.19,-8.61 -8.1,-8.61 -8.09,-21.39 0,-13.26 7.83,-21.73 a 24.94,24.94 0 0 1 19,-8.47 24.31,24.31 0 0 1 9.67,1.94 26.58,26.58 0 0 1 8.36,5.84 z" id="path14"></path>
    <rect x="246.41" y="15.88" width="14.37" height="79.360001" id="rect16"></rect>
    <rect x="272.25" y="37.98" width="14.37" height="57.25" id="rect18"></rect>
  </g>
</svg>
