<?xml version="1.0" encoding="UTF-8" standalone="no"?>
<!-- Generator: Adobe Illustrator 26.1.0, SVG Export Plug-In . SVG Version: 6.00 Build 0)  -->
<svg xmlns:inkscape="http://www.inkscape.org/namespaces/inkscape" xmlns:sodipodi="http://sodipodi.sourceforge.net/DTD/sodipodi-0.dtd" xmlns="http://www.w3.org/2000/svg" xmlns:svg="http://www.w3.org/2000/svg" version="1.1" id="a" x="0px" y="0px" viewBox="0 0 1263.4868 200" xml:space="preserve" sodipodi:docname="CNCF_logo.svg" inkscape:version="1.2.2 (b0a84865, 2022-12-01)" width="1263.4868" height="200"><defs id="defs213"></defs>
<style type="text/css" id="style182">
	.st0{fill:#0086FF;}
	.st1{fill:#93EAFF;}
</style>

<g id="g1370" transform="matrix(3.2894737,0,0,3.2894737,-24.671053,-22.368421)"><g id="g190">
	<g id="g188">
		<g id="g186">
			<path d="m 98.9,33.4 c 1.5,0 2.9,-0.3 4.3,-0.9 1.3,-0.6 2.5,-1.6 3.4,-2.8 l 4.1,4.2 c -3.2,3.6 -6.9,5.4 -11.3,5.4 -2,0.1 -3.9,-0.2 -5.8,-1 -1.8,-0.7 -3.5,-1.8 -5,-3.1 -1.4,-1.3 -2.5,-3 -3.2,-4.7 -0.7,-1.8 -1.1,-3.7 -1,-5.6 -0.1,-1.9 0.3,-3.9 1,-5.7 0.7,-1.8 1.8,-3.4 3.2,-4.8 1.5,-1.4 3.3,-2.5 5.2,-3.2 1.9,-0.7 4,-1 6.1,-0.9 2.1,0.1 4.1,0.6 6,1.5 1.9,0.9 3.5,2.2 4.9,3.8 l -3.9,4.5 c -0.9,-1.2 -2,-2.1 -3.3,-2.7 -1.3,-0.6 -2.7,-1 -4.2,-1 -2.2,0 -4.4,0.8 -6.1,2.3 -0.9,0.8 -1.5,1.8 -2,2.9 -0.4,1.1 -0.6,2.3 -0.6,3.4 -0.1,1.2 0.1,2.3 0.5,3.4 0.4,1.1 1,2.1 1.9,2.9 1.6,1.3 3.7,2.1 5.8,2.1 z m 16.6,5.5 V 10.7 h 6.3 v 22.6 h 12.1 v 5.6 z m 46,-3.9 c -2.9,2.7 -6.6,4.2 -10.6,4.2 -4,0 -7.7,-1.5 -10.6,-4.2 -1.4,-1.3 -2.5,-2.9 -3.2,-4.7 -0.7,-1.8 -1.1,-3.7 -1.1,-5.6 -0.1,-1.9 0.3,-3.9 1,-5.6 0.7,-1.8 1.8,-3.4 3.2,-4.7 2.9,-2.7 6.6,-4.2 10.6,-4.2 4,0 7.7,1.5 10.6,4.2 1.4,1.3 2.5,2.9 3.2,4.7 0.7,1.8 1.1,3.7 1,5.6 0.1,1.9 -0.3,3.9 -1,5.6 -0.6,1.8 -1.7,3.4 -3.1,4.7 z m -2.2,-10.3 c 0,-2.4 -0.9,-4.7 -2.5,-6.5 -0.8,-0.8 -1.7,-1.5 -2.7,-2 -1,-0.5 -2.2,-0.7 -3.3,-0.7 -1.1,0 -2.2,0.2 -3.3,0.7 -1,0.5 -2,1.1 -2.7,2 -1.6,1.8 -2.5,4.1 -2.5,6.5 0,2.4 0.9,4.7 2.5,6.5 0.8,0.8 1.7,1.5 2.7,2 1,0.5 2.2,0.7 3.3,0.7 1.1,0 2.2,-0.2 3.3,-0.7 1,-0.5 2,-1.1 2.7,-2 0.8,-0.9 1.5,-1.9 1.9,-3 0.5,-1.2 0.7,-2.3 0.6,-3.5 z m 19.3,7 c 0.5,0.7 1.2,1.2 1.9,1.5 0.7,0.3 1.6,0.5 2.4,0.5 0.8,0 1.6,-0.1 2.3,-0.5 0.7,-0.3 1.4,-0.9 1.8,-1.5 1.1,-1.6 1.6,-3.4 1.5,-5.3 V 10.8 h 6.3 v 15.8 c 0,4.1 -1.1,7.2 -3.4,9.4 -1.2,1.1 -2.5,2 -4,2.5 -1.5,0.6 -3.1,0.8 -4.7,0.8 -1.6,0 -3.2,-0.2 -4.7,-0.8 -1.5,-0.6 -2.9,-1.4 -4,-2.5 -2.3,-2.2 -3.4,-5.3 -3.4,-9.4 V 10.8 h 6.3 v 15.6 c 0,1.9 0.6,3.8 1.7,5.3 z m 44.5,-17.3 c 2.7,2.5 4.1,5.9 4.1,10.3 0,4.4 -1.3,7.9 -3.9,10.5 -2.6,2.6 -6.7,3.8 -12,3.8 h -9.8 V 10.7 h 10 c 5,0 8.9,1.2 11.6,3.7 z m -4.6,16.8 c 1.5,-1.4 2.3,-3.6 2.3,-6.4 0,-2.8 -0.8,-4.9 -2.3,-6.4 -1.5,-1.5 -3.9,-2.3 -7.1,-2.3 h -3.5 v 17.2 h 4 c 2.4,0.2 4.8,-0.5 6.6,-2.1 z m 44.6,-20.5 h 6.3 V 39 h -6.3 L 249.6,21.3 V 39 h -6.3 V 10.7 h 5.9 l 13.9,18.2 z m 33.4,28.2 -2.7,-6.1 h -11.9 l -2.7,6.1 h -6.8 l 12.2,-28.3 h 6.1 L 303,38.9 Z m -8.5,-19.8 -3.5,8.2 h 7 z m 28.5,-2.9 V 39 h -6.3 V 16.2 h -8 v -5.4 h 22.4 v 5.4 c 0,0 -8.1,0 -8.1,0 z M 329,10.7 h 6.3 V 39 H 329 c 0,-0.1 0,-28.3 0,-28.3 z m 23.8,18 7.2,-18 h 6.9 L 355.6,39 h -5.3 L 339,10.7 h 6.9 z m 37.7,-18 v 5.6 h -14.1 v 5.8 h 12.7 v 5.4 h -12.7 v 5.9 H 391 V 39 H 370.2 V 10.8 l 20.3,-0.1 c 0,0.1 0,0 0,0 z M 91.6,63 c 0.8,0 1.6,-0.2 2.4,-0.5 0.7,-0.4 1.4,-0.9 1.9,-1.6 l 2.3,2.4 c -0.8,0.9 -1.7,1.7 -2.9,2.2 -1.1,0.5 -2.3,0.8 -3.5,0.8 -1.1,0 -2.2,-0.1 -3.2,-0.5 -1,-0.4 -2,-1 -2.8,-1.8 -0.8,-0.7 -1.4,-1.6 -1.8,-2.6 -0.4,-1 -0.6,-2.1 -0.6,-3.2 0,-1.1 0.2,-2.2 0.6,-3.2 0.4,-1 1,-1.9 1.8,-2.7 0.8,-0.8 1.7,-1.4 2.7,-1.8 1,-0.4 2.1,-0.6 3.2,-0.6 1.2,0 2.5,0.2 3.6,0.7 1.1,0.5 2.1,1.3 3,2.2 l -2.2,2.5 c -0.5,-0.7 -1.1,-1.2 -1.8,-1.6 -0.7,-0.4 -1.5,-0.5 -2.4,-0.5 -1.3,0 -2.5,0.5 -3.4,1.3 -0.5,0.4 -0.9,1 -1.1,1.6 -0.2,0.6 -0.4,1.3 -0.3,1.9 0,0.6 0.1,1.3 0.3,1.9 0.2,0.6 0.6,1.2 1,1.6 0.4,0.4 0.9,0.8 1.5,1 0.6,0.2 1.1,0.5 1.7,0.5 z m 22.3,0.9 c -1.6,1.5 -3.7,2.4 -5.9,2.4 -1.1,0 -2.2,-0.2 -3.2,-0.6 -1,-0.4 -1.9,-1 -2.7,-1.8 -1.5,-1.5 -2.4,-3.6 -2.4,-5.8 0,-2.2 0.9,-4.3 2.4,-5.8 1.6,-1.5 3.7,-2.4 5.9,-2.4 1.1,0 2.2,0.2 3.2,0.6 1,0.4 1.9,1 2.7,1.8 1.5,1.5 2.4,3.6 2.4,5.8 0,2.2 -0.9,4.3 -2.4,5.8 z m -1.1,-5.8 c 0,-1.3 -0.4,-2.6 -1.3,-3.6 -0.4,-0.5 -0.9,-0.8 -1.5,-1.1 -0.6,-0.3 -1.2,-0.4 -1.8,-0.4 -0.6,0 -1.3,0.1 -1.8,0.4 -0.6,0.3 -1.1,0.7 -1.5,1.2 -0.5,0.5 -0.8,1 -1,1.7 -0.2,0.6 -0.3,1.3 -0.3,1.9 0,1.3 0.5,2.6 1.3,3.6 0.4,0.5 0.9,0.8 1.5,1.1 0.6,0.3 1.2,0.4 1.8,0.4 0.6,0 1.3,-0.1 1.8,-0.4 0.6,-0.3 1.1,-0.7 1.5,-1.2 0.8,-0.9 1.3,-2.2 1.3,-3.6 z m 20.7,-2 -4.3,8.7 h -2.1 l -4.3,-8.7 v 10 h -3.5 V 50.3 h 4.8 l 4.1,8.7 4.1,-8.7 h 4.8 v 15.9 h -3.5 z m 18.4,-4.3 c 0.6,0.5 1.1,1.2 1.4,2 0.3,0.8 0.4,1.6 0.3,2.4 0,2 -0.6,3.4 -1.7,4.3 -1.1,1 -2.9,1.3 -5.2,1.3 h -2.1 v 4.4 H 141 V 50.3 h 5.6 c 2.4,0 4.1,0.5 5.3,1.5 z m -2.6,6.2 c 0.5,-0.6 0.7,-1.3 0.7,-2.1 0,-0.4 0,-0.7 -0.2,-1.1 -0.2,-0.3 -0.4,-0.6 -0.7,-0.8 -0.8,-0.4 -1.7,-0.6 -2.6,-0.6 h -2 v 5.3 h 2.4 c 0.4,0 0.9,0 1.3,-0.1 0.4,-0.2 0.8,-0.4 1.1,-0.6 z m 11.3,4 c 0.3,0.4 0.6,0.6 1.1,0.8 0.4,0.2 0.9,0.3 1.3,0.3 0.5,0 0.9,-0.1 1.3,-0.3 0.4,-0.2 0.8,-0.5 1.1,-0.8 0.6,-0.9 0.9,-2 0.9,-3 v -8.8 h 3.5 V 59 c 0.1,1 -0.1,1.9 -0.4,2.9 -0.3,0.9 -0.8,1.8 -1.5,2.5 -1.3,1.2 -3.1,1.8 -4.9,1.8 -1.8,0 -3.5,-0.7 -4.8,-1.9 -0.7,-0.7 -1.2,-1.6 -1.5,-2.5 -0.3,-0.9 -0.5,-1.9 -0.4,-2.9 v -8.8 h 3.5 v 8.8 c -0.2,1.1 0.1,2.2 0.8,3.1 z m 19.5,-8.6 v 12.7 h -3.5 V 53.4 h -4.5 v -3 h 12.6 v 3 c -0.1,0 -4.6,0 -4.6,0 z m 7.1,-3.1 h 3.5 v 15.9 h -3.5 c 0,0 0,-15.9 0,-15.9 z m 18.5,0 h 3.5 v 15.9 h -3.5 l -7.5,-9.9 v 9.9 h -3.5 V 50.3 h 3.3 l 7.8,10.2 -0.1,-10.2 c 0.1,0 0,0 0,0 z m 17.8,7.8 h 3.5 v 5.6 c -0.8,0.9 -1.9,1.6 -3,2 -1.1,0.5 -2.4,0.7 -3.6,0.6 -2.2,0 -4.3,-0.8 -5.9,-2.3 -0.8,-0.7 -1.4,-1.6 -1.8,-2.6 -0.4,-1 -0.6,-2.1 -0.6,-3.2 0,-1.1 0.2,-2.2 0.6,-3.2 0.4,-1 1,-1.9 1.8,-2.7 0.8,-0.8 1.7,-1.4 2.7,-1.8 1,-0.4 2.1,-0.6 3.2,-0.6 2.2,0 4.3,0.8 5.9,2.3 l -1.8,2.7 c -0.5,-0.6 -1.2,-1 -2,-1.2 -0.6,-0.2 -1.3,-0.4 -1.9,-0.4 -1.3,0 -2.5,0.5 -3.4,1.3 -0.5,0.5 -0.9,1 -1.1,1.7 -0.2,0.7 -0.4,1.3 -0.3,2 0,1.3 0.4,2.6 1.3,3.6 0.4,0.4 0.9,0.8 1.4,1 0.5,0.2 1.1,0.3 1.7,0.3 1.1,0.1 2.1,-0.2 3,-0.7 V 58 h 0.3 z M 247,50.3 v 3.1 h -7.3 v 3.4 h 6.9 V 60 h -6.9 v 6.2 h -3.5 V 50.3 c -0.1,0 10.8,0 10.8,0 z m 16.4,13.6 c -1.6,1.5 -3.7,2.4 -5.9,2.4 -1.1,0 -2.2,-0.2 -3.2,-0.6 -1,-0.4 -1.9,-1 -2.7,-1.8 -1.5,-1.5 -2.4,-3.6 -2.4,-5.8 0,-2.2 0.9,-4.3 2.4,-5.8 1.6,-1.5 3.7,-2.4 5.9,-2.4 1.1,0 2.2,0.2 3.2,0.6 1,0.4 1.9,1 2.7,1.8 1.5,1.5 2.4,3.6 2.4,5.8 0,2.2 -0.9,4.3 -2.4,5.8 z m -1.3,-5.8 c 0,-1.3 -0.4,-2.6 -1.3,-3.6 -0.4,-0.5 -0.9,-0.8 -1.5,-1.1 -0.6,-0.3 -1.2,-0.4 -1.8,-0.4 -0.6,0 -1.3,0.1 -1.8,0.4 -0.6,0.3 -1.1,0.7 -1.5,1.2 -0.5,0.5 -0.8,1 -1,1.7 -0.2,0.7 -0.3,1.3 -0.3,1.9 0,1.3 0.5,2.6 1.3,3.6 0.4,0.5 0.9,0.8 1.5,1.1 0.6,0.3 1.2,0.4 1.8,0.4 0.6,0 1.3,-0.1 1.8,-0.4 0.6,-0.3 1.1,-0.7 1.5,-1.2 0.5,-0.5 0.8,-1 1,-1.7 0.2,-0.7 0.4,-1.2 0.3,-1.9 z M 273,62 c 0.3,0.4 0.6,0.6 1.1,0.8 0.4,0.2 0.9,0.3 1.3,0.3 0.4,0 0.9,-0.1 1.3,-0.3 0.4,-0.2 0.8,-0.5 1.1,-0.8 0.6,-0.9 0.9,-2 0.9,-3 v -8.8 h 3.5 V 59 c 0.1,1 -0.1,1.9 -0.4,2.9 -0.3,0.9 -0.8,1.8 -1.5,2.5 -1.3,1.2 -3.1,1.8 -4.9,1.8 -1.8,0 -3.5,-0.7 -4.8,-1.9 -0.7,-0.7 -1.2,-1.6 -1.5,-2.5 -0.3,-0.9 -0.5,-1.9 -0.4,-2.9 v -8.8 h 3.5 v 8.8 c -0.2,1.1 0.1,2.3 0.8,3.1 z m 23.9,-11.7 h 3.5 v 15.9 h -3.5 l -7.5,-9.9 v 9.9 h -3.5 V 50.3 h 3.3 l 7.8,10.2 -0.1,-10.2 c 0.1,0 0,0 0,0 z m 19.5,2.1 c 0.8,0.7 1.4,1.7 1.8,2.7 0.4,1 0.6,2.1 0.5,3.1 0.1,1.1 -0.1,2.1 -0.5,3.1 -0.4,1 -1,1.9 -1.7,2.7 -1.4,1.4 -3.7,2.2 -6.8,2.2 h -5.4 V 50.3 h 5.6 c 2.9,0 5.1,0.7 6.5,2.1 z m -2.6,9.5 c 0.4,-0.5 0.8,-1 1,-1.6 0.2,-0.6 0.3,-1.3 0.3,-1.9 0,-0.7 -0.1,-1.3 -0.3,-1.9 -0.2,-0.6 -0.6,-1.2 -1,-1.7 -0.6,-0.5 -1.2,-0.8 -1.9,-1 -0.7,-0.2 -1.4,-0.3 -2.1,-0.2 h -2 v 9.6 h 2.3 c 1.3,-0.1 2.7,-0.5 3.7,-1.3 z m 18.8,4.2 -1.4,-3.4 h -6.7 l -1.4,3.4 h -3.8 l 6.9,-15.9 h 3.4 l 6.9,15.9 z m -4.8,-11.1 -2,4.6 h 4 z m 16,-1.6 v 12.7 h -3.5 V 53.4 h -4.6 v -3 h 12.6 v 3 c 0,0 -4.5,0 -4.5,0 z m 7,-3.1 h 3.5 v 15.9 h -3.5 c 0,0 0,-15.9 0,-15.9 z m 20.8,13.6 c -1.6,1.5 -3.7,2.4 -5.9,2.4 -1.1,0 -2.2,-0.2 -3.2,-0.6 -1,-0.4 -1.9,-1 -2.7,-1.8 -1.5,-1.5 -2.4,-3.6 -2.4,-5.8 0,-2.2 0.9,-4.3 2.4,-5.8 1.6,-1.5 3.7,-2.4 5.9,-2.4 1.1,0 2.2,0.2 3.2,0.6 1,0.4 1.9,1 2.7,1.8 1.5,1.5 2.4,3.6 2.4,5.8 0,2.2 -0.9,4.3 -2.4,5.8 z m -1.1,-5.8 c 0,-1.3 -0.5,-2.6 -1.3,-3.6 -0.4,-0.5 -0.9,-0.8 -1.5,-1.1 -0.6,-0.3 -1.2,-0.4 -1.8,-0.4 -0.6,0 -1.3,0.1 -1.8,0.4 -0.6,0.3 -1.1,0.7 -1.5,1.2 -0.5,0.5 -0.8,1 -1,1.7 -0.2,0.7 -0.3,1.3 -0.3,1.9 0,1.3 0.5,2.6 1.3,3.6 0.4,0.5 0.9,0.8 1.5,1.1 0.6,0.3 1.2,0.4 1.8,0.4 0.6,0 1.3,-0.1 1.8,-0.4 0.6,-0.3 1.1,-0.7 1.5,-1.2 0.8,-0.9 1.3,-2.2 1.3,-3.6 z m 17.6,-7.8 h 3.5 v 15.9 h -3.5 l -7.5,-9.9 v 9.9 H 377 V 50.3 h 3.3 l 7.8,10.2 c 0.1,0 0,-10.2 0,-10.2 z" id="path184"></path>
		</g>
	</g>
</g><g id="g208">
	<path class="st0" d="M 16.2,47.3 H 7.5 V 67.6 H 27.8 V 58.9 H 16.2 Z" id="path192"></path>
	<path class="st0" d="M 59.8,47.4 V 58.9 H 48.2 v 8.7 H 68.5 V 47.3 Z" id="path194"></path>
	<path class="st0" d="m 7.5,27.1 h 8.8 L 16.2,27 V 15.5 H 27.8 V 6.8 H 7.5 Z" id="path196"></path>
	<path class="st0" d="m 48.2,6.8 v 8.7 h 11.6 v 11.6 h 8.7 V 6.8 c -0.1,0 -20.3,0 -20.3,0 z" id="path198"></path>
	<path class="st1" d="M 47,27.1 35.4,15.5 H 48.1 V 6.8 H 27.8 v 8.7 l 11.6,11.6 z" id="path200"></path>
	<path class="st1" d="M 36.6,47.3 H 29 l 9.6,9.6 1.9,2 H 27.8 v 8.7 h 20.4 v -8.8 l -5.8,-5.7 z" id="path202"></path>
	<path class="st1" d="m 59.8,27.1 v 12.6 l -2,-2 -9.6,-9.6 v 7.7 l 5.7,5.7 5.8,5.8 h 8.8 V 27.1 Z" id="path204"></path>
	<path class="st1" d="M 27.8,38.6 16.3,27.1 H 7.5 v 20.2 h 8.7 V 34.7 l 11.6,11.6 z" id="path206"></path>
</g></g>
</svg>
