<?xml version="1.0" encoding="utf-8"?>
<!-- Generator: Adobe Illustrator 24.1.2, SVG Export Plug-In . SVG Version: 6.00 Build 0)  -->
<svg version="1.1" id="Layer_1" xmlns="http://www.w3.org/2000/svg" xmlns:xlink="http://www.w3.org/1999/xlink" x="0px" y="0px"
	 viewBox="0 0 452.6 78.5" style="enable-background:new 0 0 452.6 78.5;" xml:space="preserve">
<style type="text/css">
	.st0{fill:#212529;}
	.st1{fill-rule:evenodd;clip-rule:evenodd;fill:#2FBF71;}
	.st2{fill-rule:evenodd;clip-rule:evenodd;fill:#2FBE70;}
	.st3{fill-rule:evenodd;clip-rule:evenodd;fill:#33C172;}
	.st4{fill-rule:evenodd;clip-rule:evenodd;fill:#37C573;}
	.st5{fill-rule:evenodd;clip-rule:evenodd;fill:#3BC875;}
	.st6{fill-rule:evenodd;clip-rule:evenodd;fill:#3FCB77;}
	.st7{fill-rule:evenodd;clip-rule:evenodd;fill:#43CE78;}
	.st8{fill-rule:evenodd;clip-rule:evenodd;fill:#48D27A;}
	.st9{fill-rule:evenodd;clip-rule:evenodd;fill:#4CD57C;}
	.st10{fill-rule:evenodd;clip-rule:evenodd;fill:#50D87D;}
	.st11{fill-rule:evenodd;clip-rule:evenodd;fill:#54DB7F;}
	.st12{fill-rule:evenodd;clip-rule:evenodd;fill:#58DF80;}
	.st13{fill-rule:evenodd;clip-rule:evenodd;fill:#5CE281;}
	.st14{fill-rule:evenodd;clip-rule:evenodd;fill:#60E684;}
</style>
<g>
	<path class="st0" d="M131.3,43.2L131.3,43.2h-5.2c-0.3,0-0.5,0.2-0.6,0.4c-1,3.4-3.6,5.3-7.6,5.3c-5.3,0-8.6-4-8.6-10.3
		c0-6.3,3.3-10.2,8.6-10.2c3.9,0,6.7,1.9,7.6,5.3c0.1,0.2,0.3,0.4,0.6,0.4h5.2c0.2,0,0.3-0.1,0.5-0.2c0.1-0.1,0.1-0.3,0.1-0.5
		c-1.6-6.5-6.6-10.2-13.9-10.2c-8.8,0-14.7,6.2-14.7,15.4c0,9.3,5.9,15.5,14.7,15.5c7.1,0,12.2-3.8,13.9-10.1c0-0.1,0-0.1,0-0.2
		C131.9,43.5,131.6,43.2,131.3,43.2z"/>
	<path class="st0" d="M150.6,23.1c-3.7,0-6.9,1.3-9,3.5V14.1c0-0.3-0.3-0.6-0.6-0.6h-4.8c-0.3,0-0.6,0.3-0.6,0.6v39
		c0,0.3,0.3,0.6,0.6,0.6h4.8c0.3,0,0.6-0.3,0.6-0.6v-16c0-5.5,2.8-8.7,7.7-8.7c4.8,0,7.5,3,7.5,8.3V53c0,0.3,0.3,0.6,0.6,0.6h4.7
		c0.3,0,0.6-0.3,0.6-0.6V36C162.7,28.1,158,23.1,150.6,23.1z"/>
	<path class="st0" d="M182.5,23.1c-3.8,0-6.8,1.3-8.8,3.8v-2.7c0-0.3-0.3-0.6-0.6-0.6h-4.8c-0.3,0-0.6,0.3-0.6,0.6V53
		c0,0.3,0.3,0.6,0.6,0.6h4.8c0.3,0,0.6-0.3,0.6-0.6c0-0.1,0-0.1,0-0.2V37.3c0-5.6,2.4-8.2,7.5-8.2h1.3c0.3,0,0.6-0.3,0.6-0.6v-5
		C183.1,23.3,182.8,23.1,182.5,23.1z"/>
	<path class="st0" d="M199,23.1c-8.9,0-15.2,6.3-15.2,15.4c0,9.2,6.2,15.5,15,15.5c8.9,0,15.4-6.5,15.4-15.5
		C214.2,29.4,207.9,23.1,199,23.1z M208.1,38.6c0,7-4.7,10.2-9.4,10.2c-2.4,0-4.6-0.9-6.2-2.4c-1.8-1.8-2.7-4.5-2.7-7.7
		c0-4.7,2.4-10.1,9.1-10.1C203.5,28.4,208.1,31.6,208.1,38.6z"/>
	<path class="st0" d="M232.5,23.1c-3.6,0-6.6,1.3-8.7,3.5v-2.4c0-0.3-0.3-0.6-0.6-0.6h-4.8c-0.3,0-0.6,0.3-0.6,0.6V53
		c0,0.3,0.3,0.6,0.6,0.6h4.8c0.3,0,0.6-0.3,0.6-0.6v-16c0-5.5,2.8-8.7,7.7-8.7c4.8,0,7.5,3,7.5,8.3V53c0,0.3,0.3,0.6,0.6,0.6h4.7
		c0.3,0,0.6-0.3,0.6-0.6V36C244.9,28,240.2,23.1,232.5,23.1z"/>
	<path class="st0" d="M263.9,23.1c-8.9,0-15.2,6.3-15.2,15.4c0,9.2,6.2,15.5,15,15.5c8.9,0,15.4-6.5,15.4-15.5
		C279.1,29.4,272.9,23.1,263.9,23.1z M263.9,28.4c4.6,0,9.2,3.1,9.2,10.1c0,7-4.7,10.2-9.4,10.2c-2.4,0-4.6-0.9-6.2-2.4
		c-1.8-1.8-2.7-4.5-2.7-7.7C254.8,33.9,257.2,28.4,263.9,28.4z"/>
	<path class="st0" d="M295.1,36.2c-3.6-1-6.7-1.9-6.7-4.5c0-2.1,2-3.4,5.1-3.4c3.3,0,5.5,1.7,5.7,4.5c0,0.3,0.3,0.5,0.6,0.5h4.8
		c0.2,0,0.3-0.1,0.4-0.2c0.1-0.1,0.2-0.3,0.2-0.4c-0.3-5.9-4.7-9.6-11.5-9.6c-6.5,0-11.2,3.6-11.2,8.6c0,6.5,5.9,8.1,10.6,9.3
		c3.5,0.9,6.5,1.7,6.5,4.1c0,2.2-2.1,3.7-5.3,3.7c-3.5,0-6-1.7-6.2-4.4c0-0.3-0.3-0.5-0.6-0.5h-5c-0.2,0-0.3,0.1-0.4,0.2
		c-0.1,0.1-0.2,0.3-0.2,0.4c0.3,5.6,5.4,9.5,12.4,9.5c6.5,0,11.1-3.7,11.2-8.9C305.3,39,299.6,37.5,295.1,36.2z"/>
	<path class="st0" d="M325.3,23.1c-4.8,0-8.2,2.1-10.2,4.6v-3.5c0-0.3-0.3-0.6-0.6-0.6h-4.8c-0.3,0-0.6,0.3-0.6,0.6v42.6
		c0,0.3,0.3,0.6,0.6,0.6h4.8c0.3,0,0.6-0.3,0.6-0.6V49.5c2.1,2.4,5.6,4.6,10.2,4.6c8.3,0,14.3-6.6,14.3-15.6
		C339.6,29.4,333.7,23.1,325.3,23.1z M333.6,38.5c0,6-3.8,10.2-9.2,10.2c-4.5,0-9.2-3.2-9.2-10.2c0-5,3.2-10.1,9.2-10.1
		C329.8,28.4,333.6,32.6,333.6,38.5z"/>
	<path class="st0" d="M358.3,23.1c-3.7,0-6.9,1.3-9,3.5V14.1c0-0.3-0.3-0.6-0.6-0.6h-4.8c-0.3,0-0.6,0.3-0.6,0.6v39
		c0,0.3,0.3,0.6,0.6,0.6h4.8c0.3,0,0.6-0.3,0.6-0.6v-16c0-5.5,2.8-8.7,7.7-8.7c4.8,0,7.5,3,7.5,8.3V53c0,0.3,0.3,0.6,0.6,0.6h4.7
		c0.3,0,0.6-0.3,0.6-0.6V36C370.4,28.1,365.6,23.1,358.3,23.1z"/>
	<path class="st0" d="M389.1,23.1c-8.9,0-14.9,6.2-14.9,15.4c0,9.3,6,15.5,14.9,15.5c6.9,0,12.2-3.8,13.9-9.8c0-0.2,0-0.4-0.1-0.5
		c-0.1-0.1-0.3-0.2-0.5-0.2h-5.2c-0.2,0-0.5,0.2-0.5,0.4c-1.1,3.1-3.8,4.9-7.6,4.9c-4.8,0-8.2-3.1-8.8-7.9h22.5
		c0.3,0,0.5-0.2,0.6-0.5c0.1-1.1,0.2-1.9,0.2-3C403.5,29,397.6,23.1,389.1,23.1z M388.8,28.3c2.6,0,4.9,0.9,6.4,2.4
		c1.3,1.3,2,3.1,2.1,5.2h-17C381,31.3,384.3,28.3,388.8,28.3z"/>
	<path class="st0" d="M422,23.1c-3.8,0-6.8,1.3-8.8,3.8v-2.7c0-0.3-0.3-0.6-0.6-0.6h-4.8c-0.3,0-0.6,0.3-0.6,0.6V53
		c0,0.3,0.3,0.6,0.6,0.6h4.8c0.3,0,0.6-0.3,0.6-0.6c0-0.1,0-0.1,0-0.2V37.3c0-5.6,2.4-8.2,7.5-8.2h1.3c0.3,0,0.6-0.3,0.6-0.6v-5
		C422.5,23.3,422.3,23.1,422,23.1z"/>
	<path class="st0" d="M438.1,23.1c-8.9,0-14.9,6.2-14.9,15.4c0,9.3,6,15.5,14.9,15.5c6.9,0,12.2-3.8,13.9-9.8c0-0.2,0-0.4-0.1-0.5
		c-0.1-0.1-0.3-0.2-0.5-0.2h-5.2c-0.2,0-0.5,0.2-0.5,0.4c-1.1,3.1-3.8,4.9-7.6,4.9c-4.8,0-8.2-3.1-8.8-7.9h22.5
		c0.3,0,0.5-0.2,0.6-0.5c0.1-1.1,0.2-1.9,0.2-3C452.6,29,446.6,23.1,438.1,23.1z M437.9,28.3c2.6,0,4.9,0.9,6.4,2.4
		c1.3,1.3,2,3.1,2.1,5.2h-17C430.1,31.3,433.4,28.3,437.9,28.3z"/>
</g>
<g>
	<path class="st1" d="M39.3,0c18.5,0,34,12.8,38.1,29.9c-2.7-3.8-7.2-6.3-12.2-6.3c-8.3,0-14.9,6.7-14.9,14.9
		c0,8.3,6.7,14.9,14.9,14.9c5.3,0,10-2.8,12.6-7c-3.4,18.2-19.4,32-38.6,32C17.6,78.5,0,61,0,39.3C0,17.6,17.6,0,39.3,0z"/>
	<path class="st2" d="M40.4,78.5C21.3,75.3,6.8,58.9,6.8,39.3c0-19.7,14.5-36,33.6-39.2c18,0.5,32.9,13.1,37,29.9
		c-2.7-3.8-7.2-6.3-12.2-6.3c-8.3,0-14.9,6.7-14.9,14.9c0,8.3,6.7,14.9,14.9,14.9c5.3,0,10-2.8,12.6-7C74.5,64.4,59.1,78,40.4,78.5z
		"/>
	<path class="st3" d="M46.9,77.8C25.4,77.5,8.1,60.4,8.1,39.3C8.1,18.2,25.4,1,46.9,0.7c15,3,26.9,14.4,30.5,29.2
		c-2.7-3.8-7.2-6.3-12.2-6.3c-8.3,0-14.9,6.7-14.9,14.9c0,8.3,6.7,14.9,14.9,14.9c5.3,0,10-2.8,12.6-7
		C74.9,62.3,62.6,74.7,46.9,77.8z"/>
	<path class="st4" d="M47.4,2c1.8,0,3.6,0.1,5.4,0.4C65,6.9,74.3,17.2,77.4,29.9c-2.7-3.8-7.2-6.3-12.2-6.3
		c-8.3,0-14.9,6.7-14.9,14.9c0,8.3,6.7,14.9,14.9,14.9c5.3,0,10-2.8,12.6-7c-2.6,13.7-12.2,24.9-25,29.6c-1.8,0.2-3.6,0.4-5.4,0.4
		c-21,0-38.1-16.7-38.1-37.2C9.4,18.7,26.4,2,47.4,2z"/>
	<path class="st5" d="M47.4,3.3c3.8,0,7.5,0.6,11,1.6c9.4,5.3,16.4,14.2,19,25c-2.7-3.8-7.2-6.3-12.2-6.3c-8.3,0-14.9,6.7-14.9,14.9
		c0,8.3,6.7,14.9,14.9,14.9c5.3,0,10-2.8,12.6-7c-2.2,11.6-9.5,21.4-19.5,27c-3.5,1.1-7.1,1.6-11,1.6c-20.3,0-36.7-16.1-36.7-35.9
		C10.7,19.4,27.1,3.3,47.4,3.3z"/>
	<path class="st6" d="M47.4,4.7c5.8,0,11.3,1.4,16.2,3.8c6.7,5.3,11.7,12.8,13.8,21.5c-2.7-3.8-7.2-6.3-12.2-6.3
		c-8.3,0-14.9,6.7-14.9,14.9c0,8.3,6.7,14.9,14.9,14.9c5.3,0,10-2.8,12.6-7c-1.8,9.5-7,17.8-14.2,23.5c-4.8,2.4-10.3,3.8-16.2,3.8
		C27.9,73.9,12,58.4,12,39.3C12,20.2,27.9,4.7,47.4,4.7z"/>
	<path class="st7" d="M47.4,6c7.9,0,15.3,2.6,21.1,7.1c4.2,4.7,7.4,10.5,8.9,16.9c-2.7-3.8-7.2-6.3-12.2-6.3
		c-8.3,0-14.9,6.7-14.9,14.9c0,8.3,6.7,14.9,14.9,14.9c5.3,0,10-2.8,12.6-7c-1.3,7.2-4.7,13.7-9.4,18.9c-5.8,4.4-13.1,7.1-21.1,7.1
		c-18.9,0-34.1-14.9-34.1-33.3C13.3,20.9,28.6,6,47.4,6z"/>
	<path class="st8" d="M47.4,7.3c10.4,0,19.6,4.7,25.6,12c1.9,3.3,3.4,6.9,4.4,10.7c-2.7-3.8-7.2-6.3-12.2-6.3
		c-8.3,0-14.9,6.7-14.9,14.9c0,8.3,6.7,14.9,14.9,14.9c5.3,0,10-2.8,12.6-7c-0.9,4.6-2.5,8.9-4.8,12.7c-6,7.3-15.3,12-25.6,12
		c-18.1,0-32.8-14.3-32.8-32C14.6,21.6,29.3,7.3,47.4,7.3z"/>
	<path class="st9" d="M47.4,8.6c13.8,0,25.5,8.6,29.8,20.7c0.1,0.2,0.1,0.5,0.2,0.7c-2.7-3.8-7.2-6.3-12.2-6.3
		c-8.3,0-14.9,6.7-14.9,14.9c0,8.3,6.7,14.9,14.9,14.9c5.3,0,10-2.8,12.6-7c-0.2,0.9-0.4,1.8-0.6,2.7C73,61.3,61.2,70,47.4,70
		C30,70,15.9,56.2,15.9,39.3C15.9,22.3,30,8.6,47.4,8.6z"/>
	<path class="st10" d="M47.4,9.9C59.7,9.9,70.3,17,75,27.3c-2.6-2.3-6.1-3.7-9.8-3.7c-8.3,0-14.9,6.7-14.9,14.9
		c0,8.3,6.7,14.9,14.9,14.9c4.2,0,8-1.8,10.8-4.6c-4.1,11.5-15.3,19.7-28.5,19.7c-16.7,0-30.2-13.2-30.2-29.4
		C17.2,23,30.8,9.9,47.4,9.9z"/>
	<path class="st11" d="M47.4,11.2c10.9,0,20.3,5.8,25.3,14.4c-2.2-1.3-4.8-2-7.5-2c-8.3,0-14.9,6.7-14.9,14.9
		c0,8.3,6.7,14.9,14.9,14.9c3.2,0,6.2-1,8.6-2.7c-4.5,9.7-14.6,16.5-26.4,16.5c-16,0-28.9-12.6-28.9-28.1
		C18.5,23.8,31.5,11.2,47.4,11.2z"/>
	<path class="st12" d="M47.4,12.5c9.7,0,18.1,4.8,23.1,12.1c-1.7-0.6-3.4-1-5.3-1c-8.3,0-14.9,6.7-14.9,14.9
		c0,8.3,6.7,14.9,14.9,14.9c2.3,0,4.5-0.5,6.5-1.5C67,60.4,57.9,66,47.4,66c-15.2,0-27.6-12-27.6-26.8
		C19.8,24.5,32.2,12.5,47.4,12.5z"/>
	<path class="st13" d="M47.4,13.8c8.6,0,16.2,4,21,10.2c-1-0.2-2.1-0.4-3.2-0.4c-8.3,0-14.9,6.7-14.9,14.9c0,8.3,6.7,14.9,14.9,14.9
		c1.6,0,3.1-0.2,4.5-0.7C65,60,56.8,64.7,47.4,64.7c-14.5,0-26.3-11.4-26.3-25.5C21.2,25.2,32.9,13.8,47.4,13.8z"/>
	<path class="st14" d="M47.4,15.1c7.7,0,14.5,3.3,19.1,8.6c-0.4,0-0.9-0.1-1.3-0.1c-8.3,0-14.9,6.7-14.9,14.9
		c0,8.3,6.7,14.9,14.9,14.9c0.9,0,1.7-0.1,2.6-0.2c-4.5,6.1-11.9,10.1-20.3,10.1c-13.8,0-25-10.8-25-24.1
		C22.5,25.9,33.6,15.1,47.4,15.1z"/>
</g>
</svg>
