<?xml version="1.0" encoding="UTF-8"?>
<svg xmlns="http://www.w3.org/2000/svg" width="638" height="173" viewBox="0 0 638 173" fill="none">
  <g clip-path="url(#clip0_2_7)">
    <path fill-rule="evenodd" clip-rule="evenodd" d="M8.8658 104.804L24.0772 120.028L109.279 34.7946L76.2879 1.79163L8.87293 69.2683C6.53812 71.6 4.68565 74.3692 3.4215 77.4177C2.15736 80.4662 1.50634 83.7342 1.50568 87.0345C1.50501 90.3349 2.15471 93.6029 3.41763 96.6521C4.68054 99.7014 6.53188 102.471 8.8658 104.804Z" fill="#061499"></path>
    <path fill-rule="evenodd" clip-rule="evenodd" d="M144.313 104.239C144.123 104.442 143.929 104.642 143.732 104.84L128.748 119.83L128.65 119.928L76.3167 172.28L61.0982 157.063C58.7649 154.731 56.9139 151.962 55.651 148.914C54.3881 145.866 53.7381 142.598 53.7381 139.299C53.7381 135.999 54.3881 132.732 55.651 129.684C56.9139 126.636 58.7649 123.867 61.0982 121.535L95.6778 86.9604L61.1987 52.4868C58.8675 50.155 57.0183 47.3867 55.7567 44.3399C54.495 41.2931 53.8457 38.0276 53.8457 34.7298C53.8457 31.432 54.495 28.1664 55.7567 25.1197C57.0183 22.0729 58.8675 19.3045 61.1987 16.9728L76.4174 1.71967L143.832 69.1963C148.542 73.9014 151.191 80.2855 151.196 86.9439C151.201 93.3863 148.732 99.5754 144.313 104.239Z" fill="#2C40F7"></path>
  </g>
  <path d="M305.025 136.46H331.345V41.7081H305.025V136.46Z" fill="#121118"></path>
  <path d="M362.777 13.696V41.7081H344.541V63.5161H362.777V102.056C362.777 124.052 376.877 136.46 398.685 136.46H414.289V114.464H402.257C393.797 114.464 388.909 110.14 388.909 100.928V63.5161H414.289V41.7081H388.909V13.696H362.777Z" fill="#121118"></path>
  <path d="M489.124 63.5161V41.7081H478.408C466.94 41.7081 459.796 45.656 454.72 57.5V41.7081H428.4V136.46H454.72V90.4001C454.72 74.232 460.548 63.5161 473.52 63.5161H489.124Z" fill="#121118"></path>
  <path d="M501.287 136.46H527.607V41.7081H501.287V136.46Z" fill="#121118"></path>
  <path d="M590.81 137.964C615.438 137.964 634.99 122.172 637.81 101.116H611.114C609.234 109.576 601.526 115.404 591.938 115.404C577.65 115.404 569.19 104.5 569.19 89.084C569.19 73.668 577.462 62.576 591.562 62.576C601.15 62.576 609.234 68.7801 610.738 77.2401H637.058C635.366 55.2441 615.626 40.204 590.81 40.204C561.482 40.204 541.93 61.448 541.93 89.084C541.93 116.72 561.482 137.964 590.81 137.964Z" fill="#121118"></path>
  <path d="M514.447 0.536133C522.079 0.536133 528.359 6.72266 528.359 14.3541C528.359 21.9856 522.079 28.1721 514.447 28.1721C506.816 28.1721 500.535 21.9856 500.535 14.3541C500.535 6.72266 506.816 0.536133 514.447 0.536133Z" fill="#121118"></path>
  <path d="M318.185 0.536133C325.817 0.536133 332.097 6.72266 332.097 14.3541C332.097 21.9856 325.817 28.1721 318.185 28.1721C310.554 28.1721 304.273 21.9856 304.273 14.3541C304.273 6.72266 310.554 0.536133 318.185 0.536133Z" fill="#121118"></path>
  <path d="M199.42 136.46H225.74V84.5721C225.74 72.3521 233.824 63.5161 245.292 63.5161C256.196 63.5161 263.528 71.7881 263.528 83.2561V136.46H289.848V77.4281C289.848 55.6201 274.178 39.2041 244.504 39.2041C214.83 39.2041 200.172 58.4602 200.172 77.4281L199.42 136.46Z" fill="#121118"></path>
  <defs>
    <clipPath id="clip0_2_7">
      <rect width="150.41" height="170.561" fill="white" transform="translate(0.794983 1.71967)"></rect>
    </clipPath>
  </defs>
</svg>
