<?xml version="1.0" encoding="UTF-8" standalone="no"?>
<!-- Created with Inkscape (http://www.inkscape.org/) -->

<svg
   version="1.1"
   id="svg2"
   xml:space="preserve"
   width="957.57465"
   height="257.57733"
   viewBox="0 0 957.57468 257.57733"
   sodipodi:docname="imperva_logo_1color_dkgrey.svg"
   inkscape:version="1.1.1 (3bf5ae0d25, 2021-09-20)"
   xmlns:inkscape="http://www.inkscape.org/namespaces/inkscape"
   xmlns:sodipodi="http://sodipodi.sourceforge.net/DTD/sodipodi-0.dtd"
   xmlns="http://www.w3.org/2000/svg"
   xmlns:svg="http://www.w3.org/2000/svg"><defs
     id="defs6"><clipPath
       clipPathUnits="userSpaceOnUse"
       id="clipPath16"><path
         d="M 0,424 H 952 V 0 H 0 Z"
         id="path14" /></clipPath></defs><sodipodi:namedview
     id="namedview4"
     pagecolor="#ffffff"
     bordercolor="#666666"
     borderopacity="1.0"
     inkscape:pageshadow="2"
     inkscape:pageopacity="0.0"
     inkscape:pagecheckerboard="0"
     showgrid="false"
     fit-margin-top="0"
     fit-margin-left="0"
     fit-margin-right="0"
     fit-margin-bottom="0"
     inkscape:zoom="0.93907569"
     inkscape:cx="478.66216"
     inkscape:cy="130.44742"
     inkscape:window-width="1920"
     inkscape:window-height="1001"
     inkscape:window-x="-7"
     inkscape:window-y="-7"
     inkscape:window-maximized="1"
     inkscape:current-layer="g8" /><g
     id="g8"
     inkscape:groupmode="layer"
     inkscape:label="imperva_logo_1color_dkgrey_cmyk"
     transform="matrix(1.3333333,0,0,-1.3333333,-155.076,412.87199)"><g
       id="g10"><g
         id="g12"
         clip-path="url(#clipPath16)"><path
           d="m 145.692,280.199 h -29.385 v 29.455 h 29.385 z m 355.62,-35.154 c 11.612,0 18.011,-8.077 18.723,-19.48 h -40.054 c 3.318,13.302 11.615,19.48 21.331,19.48 M 834.488,116.534 H 805.1 v 29.455 h 29.388 z M 384.6,242.908 c -8.769,0 -16.354,-5.228 -19.909,-12.354 v -34.919 c 3.555,-7.365 11.376,-12.355 19.909,-12.355 15.879,0 25.357,12.829 25.357,29.696 0,17.104 -9.478,29.932 -25.357,29.932 m 401.78,-37.061 c -9.242,0 -18.723,-4.038 -18.723,-13.064 0,-9.265 9.481,-13.065 18.723,-13.065 8.295,0 16.115,3.562 18.721,9.262 v 7.605 c -2.606,5.698 -10.426,9.262 -18.721,9.262 M 145.692,160.001 h -29.385 v 106.187 h 29.385 z m 135.892,108.563 c 21.805,0 34.837,-15.205 34.837,-39.197 v -69.366 h -29.387 v 63.189 c 0,11.403 -4.977,19.003 -15.166,19.003 -7.583,0 -14.457,-4.749 -16.353,-13.778 v -68.414 h -29.623 v 63.189 c 0,11.403 -4.743,19.003 -14.933,19.003 -7.584,0 -14.693,-4.749 -16.589,-13.778 v -68.414 h -29.385 v 106.186 h 29.385 v -8.79 c 5.215,6.652 14.93,11.167 26.779,11.167 12.561,0 22.515,-5.704 28.44,-13.542 6.874,7.6 17.063,13.542 31.995,13.542 m 334.593,0 c 4.976,0 9.479,-0.953 11.138,-1.902 v -29.458 c -4.028,2.377 -9.241,3.565 -14.692,3.565 -9.953,0 -18.012,-5.227 -20.144,-14.967 V 160.001 H 563.09 v 106.186 h 29.389 v -10.452 c 4.501,7.601 13.271,12.829 23.698,12.829 m 47.562,-2.377 24.411,-70.552 23.938,70.552 h 29.624 L 701.421,160.001 h -28.438 l -40.051,106.186 z m 124.064,2.377 c 29.15,0 46.685,-14.968 46.685,-40.861 v -67.702 h -29.387 v 5.7 c -3.555,-3.564 -13.981,-7.603 -25.593,-7.603 -21.329,0 -39.108,12.353 -39.108,34.448 0,20.192 17.779,33.969 41.003,33.969 9.242,0 19.434,-3.086 23.698,-6.175 v 5.939 c 0,10.213 -8.768,16.629 -23.698,16.629 -10.665,0 -20.619,-3.09 -28.913,-8.553 v 25.419 c 7.584,4.75 21.327,8.79 35.313,8.79 m -287.202,0 c 30.809,0 46.688,-21.383 46.688,-52.737 v -9.505 h -68.256 c 2.371,-17.342 14.933,-24.469 30.573,-24.469 11.613,0 19.91,2.617 30.336,9.268 V 166.89 c -8.77,-6.414 -20.619,-9.265 -34.837,-9.265 -32.233,0 -54.273,20.905 -54.273,54.635 0,33.261 20.855,56.304 49.769,56.304 m -109.368,0 c 30.811,0 48.349,-25.656 48.349,-55.588 0,-29.933 -17.538,-55.351 -48.349,-55.351 -11.375,0 -21.801,5.465 -26.542,11.163 v -52.317 h -29.387 v 149.716 h 29.387 v -8.79 c 4.741,5.702 15.167,11.167 26.542,11.167"
           style="fill:#212121;fill-opacity:1;fill-rule:evenodd;stroke:none"
           id="path18" /></g></g></g></svg>
