<?xml version="1.0" encoding="UTF-8" standalone="no"?>
<!-- Created with Inkscape (http://www.inkscape.org/) -->

<svg
   version="1.1"
   id="svg2"
   xml:space="preserve"
   width="782.46667"
   height="120.77547"
   viewBox="0 0 782.46667 120.77547"
   sodipodi:docname="LaunchDarkly_RGB_Primary Lock-up Black.svg"
   inkscape:version="1.1.1 (3bf5ae0d25, 2021-09-20)"
   xmlns:inkscape="http://www.inkscape.org/namespaces/inkscape"
   xmlns:sodipodi="http://sodipodi.sourceforge.net/DTD/sodipodi-0.dtd"
   xmlns="http://www.w3.org/2000/svg"
   xmlns:svg="http://www.w3.org/2000/svg"><defs
     id="defs6"><clipPath
       clipPathUnits="userSpaceOnUse"
       id="clipPath16"><path
         d="M 0,90.582 H 586.85 V 0 H 0 Z"
         id="path14" /></clipPath></defs><sodipodi:namedview
     id="namedview4"
     pagecolor="#ffffff"
     bordercolor="#666666"
     borderopacity="1.0"
     inkscape:pageshadow="2"
     inkscape:pageopacity="0.0"
     inkscape:pagecheckerboard="0"
     showgrid="false"
     inkscape:zoom="1.1079231"
     inkscape:cx="435.49953"
     inkscape:cy="46.48337"
     inkscape:window-width="1920"
     inkscape:window-height="1001"
     inkscape:window-x="-7"
     inkscape:window-y="-7"
     inkscape:window-maximized="1"
     inkscape:current-layer="g8" /><g
     id="g8"
     inkscape:groupmode="layer"
     inkscape:label="LaunchDarkly_RGB_Primary Lock-up Black"
     transform="matrix(1.3333333,0,0,-1.3333333,0,120.77547)"><g
       id="g10"><g
         id="g12"
         clip-path="url(#clipPath16)"><g
           id="g18"
           transform="translate(442.0351,6.2129)"><path
             d="m 0,0 c 3.461,0 6.297,0.71 8.508,2.127 2.21,1.419 4.038,3.883 5.479,7.391 L 30.858,50.47 H 21.197 L 11.248,24.73 1.082,50.47 H -8.58 L 6.562,13.771 5.769,11.896 C 5.287,10.646 4.626,9.733 3.785,9.156 2.944,8.58 1.682,8.292 0,8.292 H -7.842 V 0 Z m -14.419,64.457 h -9.373 V 13.699 h 9.373 z M -55.155,13.699 v 11.896 l 3.389,3.245 10.958,-15.141 h 11.176 L -45.35,35.185 -29.92,50.47 h -11.825 l -13.41,-13.05 v 27.037 h -9.301 V 13.699 Z m -28.912,0 v 15.718 c 0,4.084 0.865,7.197 2.596,9.336 1.73,2.139 4.061,3.209 6.993,3.209 1.394,0 2.691,-0.192 3.894,-0.577 v 8.94 c -0.625,0.192 -1.238,0.325 -1.839,0.397 -0.601,0.072 -1.262,0.108 -1.983,0.108 -2.307,0 -4.279,-0.806 -5.912,-2.415 -1.635,-1.611 -2.884,-3.857 -3.749,-6.741 v 8.796 h -9.445 V 13.699 Z m -41.421,7.859 c -1.034,0.768 -1.55,1.875 -1.55,3.316 0,1.683 0.721,2.98 2.163,3.894 1.442,0.912 3.58,1.37 6.417,1.37 h 5.984 v -1.442 c 0,-1.154 -0.349,-2.38 -1.045,-3.677 -0.698,-1.298 -1.731,-2.392 -3.101,-3.282 -1.37,-0.888 -2.944,-1.334 -4.722,-1.334 -1.73,0 -3.113,0.385 -4.146,1.155 m 8.4,-6.309 c 2.114,1.562 3.7,3.664 4.758,6.309 v -7.859 h 9.301 v 24.514 c 0,2.642 -0.649,4.975 -1.947,6.993 -1.297,2.019 -3.161,3.593 -5.587,4.724 -2.428,1.128 -5.299,1.693 -8.616,1.693 -1.827,0 -3.582,-0.156 -5.263,-0.468 -1.683,-0.314 -3.281,-0.77 -4.795,-1.371 -1.514,-0.601 -2.896,-1.286 -4.146,-2.055 l 0.289,-8.723 c 2.259,1.489 4.493,2.631 6.705,3.425 2.21,0.793 4.638,1.189 7.282,1.189 2.114,0 3.773,-0.505 4.975,-1.514 1.201,-1.009 1.802,-2.307 1.802,-3.893 v -2.524 h -8.219 c -4.951,0 -8.868,-1.045 -11.752,-3.136 -2.884,-2.091 -4.326,-4.988 -4.326,-8.689 0,-2.067 0.48,-3.928 1.442,-5.587 0.961,-1.659 2.343,-2.968 4.145,-3.929 1.803,-0.961 3.881,-1.442 6.237,-1.442 3.028,0 5.599,0.782 7.715,2.343 m -59.914,7.03 v 33.598 h 9.661 c 4.854,0 8.663,-1.479 11.427,-4.435 2.764,-2.956 4.146,-7.101 4.146,-12.436 0,-5.336 -1.382,-9.458 -4.146,-12.365 -2.764,-2.909 -6.573,-4.362 -11.427,-4.362 z m 9.733,-8.58 c 5.383,0 9.974,1.032 13.771,3.1 3.796,2.066 6.681,4.998 8.652,8.796 1.97,3.797 2.956,8.267 2.956,13.411 0,5.142 -0.986,9.625 -2.956,13.446 -1.971,3.821 -4.856,6.778 -8.652,8.868 -3.797,2.092 -8.388,3.137 -13.771,3.137 h -19.467 V 13.699 Z m -55.948,0 v 17.159 c 0,2.453 0.384,4.651 1.154,6.597 0.768,1.947 1.885,3.461 3.352,4.543 1.466,1.081 3.137,1.622 5.011,1.622 2.163,0 3.809,-0.601 4.939,-1.803 1.129,-1.201 1.694,-2.956 1.694,-5.262 V 13.699 h 9.445 v 22.999 c 0,4.76 -1.13,8.437 -3.389,11.031 -2.26,2.596 -5.311,3.894 -9.156,3.894 -3.316,0 -6.057,-0.95 -8.219,-2.848 -2.164,-1.899 -3.775,-4.459 -4.831,-7.678 v 23.36 h -9.301 V 13.699 Z m -24.333,-0.793 c 1.226,0.192 2.367,0.457 3.425,0.793 1.056,0.336 2.042,0.673 2.956,1.01 l 0.072,8.939 c -1.539,-0.769 -3.136,-1.346 -4.795,-1.73 -1.658,-0.385 -3.352,-0.576 -5.083,-0.576 -2.548,0 -4.675,0.468 -6.38,1.405 -1.707,0.938 -2.969,2.223 -3.786,3.857 -0.818,1.634 -1.225,3.461 -1.225,5.48 0,2.02 0.407,3.846 1.225,5.479 0.817,1.634 2.079,2.932 3.786,3.895 1.705,0.96 3.785,1.441 6.236,1.441 1.875,0 3.641,-0.215 5.299,-0.649 1.658,-0.433 3.232,-1.009 4.723,-1.73 l -0.072,9.157 c -1.058,0.431 -2.091,0.78 -3.101,1.045 -1.009,0.263 -2.126,0.48 -3.352,0.649 -1.226,0.168 -2.512,0.252 -3.857,0.252 -4.182,0 -7.823,-0.853 -10.923,-2.56 -3.101,-1.706 -5.493,-4.049 -7.175,-7.03 -1.683,-2.98 -2.523,-6.344 -2.523,-10.094 0,-3.748 0.852,-7.089 2.559,-10.021 1.706,-2.932 4.11,-5.216 7.21,-6.85 3.101,-1.633 6.693,-2.451 10.779,-2.451 1.443,0 2.776,0.097 4.002,0.289 m -57.354,0.793 v 17.159 c 0,2.453 0.383,4.651 1.153,6.597 0.769,1.947 1.875,3.461 3.316,4.543 1.443,1.081 3.124,1.622 5.047,1.622 2.116,0 3.737,-0.601 4.867,-1.803 1.129,-1.201 1.695,-2.956 1.695,-5.262 V 13.699 h 9.516 v 22.999 c 0,4.76 -1.141,8.437 -3.424,11.031 -2.284,2.596 -5.348,3.894 -9.193,3.894 -3.316,0 -6.045,-0.95 -8.183,-2.848 -2.139,-1.899 -3.738,-4.459 -4.794,-7.678 v 9.373 h -9.445 V 13.699 Z m -33.958,1.694 c 2.163,1.898 3.773,4.458 4.831,7.679 v -9.373 h 9.445 V 50.47 h -9.445 V 33.311 c 0,-2.453 -0.386,-4.652 -1.154,-6.598 -0.77,-1.947 -1.887,-3.461 -3.353,-4.542 -1.466,-1.082 -3.161,-1.622 -5.083,-1.622 -2.115,0 -3.738,0.599 -4.866,1.802 -1.13,1.201 -1.695,2.956 -1.695,5.263 V 50.47 h -9.445 V 27.471 c 0,-4.76 1.129,-8.437 3.389,-11.033 2.259,-2.595 5.31,-3.893 9.156,-3.893 3.317,0 6.057,0.95 8.22,2.848 m -52.092,6.165 c -1.034,0.768 -1.55,1.875 -1.55,3.316 0,1.683 0.721,2.98 2.163,3.894 1.442,0.912 3.58,1.37 6.417,1.37 h 5.984 v -1.442 c 0,-1.154 -0.35,-2.38 -1.045,-3.677 -0.698,-1.298 -1.731,-2.392 -3.101,-3.282 -1.37,-0.888 -2.945,-1.334 -4.722,-1.334 -1.731,0 -3.113,0.385 -4.146,1.155 m 8.4,-6.309 c 2.114,1.562 3.7,3.664 4.758,6.309 v -7.859 h 9.301 v 24.514 c 0,2.642 -0.649,4.975 -1.947,6.993 -1.297,2.019 -3.161,3.593 -5.587,4.724 -2.428,1.128 -5.3,1.693 -8.617,1.693 -1.827,0 -3.581,-0.156 -5.263,-0.468 -1.682,-0.314 -3.28,-0.77 -4.794,-1.371 -1.514,-0.601 -2.897,-1.286 -4.146,-2.055 l 0.288,-8.723 c 2.259,1.489 4.494,2.631 6.706,3.425 2.21,0.793 4.638,1.189 7.282,1.189 2.115,0 3.773,-0.505 4.975,-1.514 1.201,-1.009 1.802,-2.307 1.802,-3.893 v -2.524 h -8.219 c -4.951,0 -8.868,-1.045 -11.753,-3.136 -2.883,-2.091 -4.325,-4.988 -4.325,-8.689 0,-2.067 0.479,-3.928 1.442,-5.587 0.961,-1.659 2.343,-2.968 4.146,-3.929 1.802,-0.961 3.88,-1.442 6.236,-1.442 3.028,0 5.599,0.782 7.715,2.343 m -24.369,-1.55 v 8.58 h -25.379 v 42.178 h -9.733 V 13.699 Z"
             style="fill:#000000;fill-opacity:1;fill-rule:nonzero;stroke:none"
             id="path20" /></g><g
           id="g22"
           transform="translate(542.0956)"><path
             d="m 0,0 c -0.743,0 -1.447,0.439 -1.794,1.118 -0.339,0.665 -0.272,1.406 0.182,2.033 l 21.28,29.303 -37.269,-15.249 c -0.253,-0.114 -0.523,-0.172 -0.799,-0.172 -0.871,0 -1.653,0.589 -1.905,1.434 -0.251,0.843 0.071,1.704 0.822,2.194 l 32.772,19.348 -57.704,3.318 c -1.22,0.069 -1.858,1.043 -1.859,1.97 0,0.927 0.637,1.902 1.859,1.973 l 57.732,3.319 -32.783,19.342 c -0.749,0.489 -1.071,1.35 -0.819,2.194 0.251,0.844 1.033,1.433 1.903,1.433 0.276,0 0.544,-0.059 0.799,-0.172 L 19.682,58.143 -1.595,87.43 c -0.45,0.618 -0.517,1.378 -0.183,2.034 0.345,0.679 1.049,1.118 1.794,1.118 0.516,0 0.995,-0.207 1.383,-0.597 L 43.815,47.573 c 0.626,-0.628 0.94,-1.451 0.94,-2.274 0,-0.824 -0.314,-1.648 -0.94,-2.275 L 1.383,0.594 C 0.993,0.205 0.515,0 0,0"
             style="fill:#000000;fill-opacity:1;fill-rule:nonzero;stroke:none"
             id="path24" /></g></g></g></g></svg>
