<?xml version="1.0" encoding="UTF-8" standalone="no"?>
<svg xmlns:inkscape="http://www.inkscape.org/namespaces/inkscape" xmlns:sodipodi="http://sodipodi.sourceforge.net/DTD/sodipodi-0.dtd" xmlns="http://www.w3.org/2000/svg" xmlns:svg="http://www.w3.org/2000/svg" viewBox="0 0 780.00136 35.896999" width="140.00024" version="1.1" id="svg26" sodipodi:docname="GardenIO_logo.svg" height="35.896999" inkscape:version="1.1.1 (3bf5ae0d25, 2021-09-20)">
  <defs id="defs30"></defs>
  <g id="g859" transform="matrix(0.99998777,0,0,0.99998777,1.5887925e-5,-82.050286)" style="stroke-width:1.00001">
    <path transform="rotate(90,155.78,83.92)" fill="#74d0b3" d="M 71.86,71.92 H 239.7 V 95.91 H 71.86 Z" id="path2" style="stroke-width:1.00002"></path>
    <path transform="rotate(90,107.96,83.92)" fill="#74d4e2" d="M 24.04,71.92 H 191.88 V 95.91 H 24.04 Z" id="path4" style="stroke-width:1.00002"></path>
    <path transform="rotate(90,107.96,48.82)" fill="#00bead" d="m 59.14,36.83 h 97.64 V 60.82 H 59.14 Z" id="path6" style="stroke-width:1.00002"></path>
    <path transform="rotate(90,108,100.84)" fill="#fc7acf" d="m 96.46,88.51 h 23.08 v 24.66 H 96.46 Z" id="path8" style="stroke-width:1.00002"></path>
    <path transform="rotate(90,60.09,114.53)" fill="#0068a4" d="M 6.78,102.69 H 113.4 v 23.68 H 6.78 Z" id="path10" style="stroke-width:1.00002"></path>
    <path transform="rotate(90,36.12,83.92)" fill="#00a06a" d="M -47.8,71.79 H 120.04 V 96.05 H -47.8 Z" id="path12" style="stroke-width:1.00002"></path>
    <path transform="rotate(90,11.995,83.915)" fill="#00b4ab" d="M -71.92,71.92 H 95.92 V 95.91 H -71.92 Z" id="path14" style="stroke-width:1.00002"></path>
    <path transform="rotate(90,60.11,31.8)" fill="#0083c4" d="m 28.31,19.94 h 63.6 v 23.72 h -63.6 z" id="path16" style="stroke-width:1.00002"></path>
    <path transform="rotate(90,60.09,74.59)" fill="#fc7acf" d="m 48.49,62.75 h 23.2 v 23.68 h -23.2 z" id="path18" style="stroke-width:1.00002"></path>
    <path transform="rotate(90,131.95,83.92)" fill="#00ae6d" d="M 48.03,71.92 H 215.87 V 95.91 H 48.03 Z" id="path20" style="stroke-width:1.00002"></path>
    <path transform="rotate(90,83.97,83.92)" fill="#27c5b2" d="M 0.05,71.92 H 167.89 V 95.91 H 0.05 Z" id="path22" style="stroke-width:1.00002"></path>
    <path fill="#010101" d="m 303.88,87.25 v 73.81 C 303.88,187 283.72,200 259,200 a 73.07,73.07 0 0 1 -32.86,-7.78 c -1.75,-0.81 -2.22,-1.91 -1.62,-3.81 l 4.12,-11 c 0.81,-2.22 2.39,-2.39 4,-1.62 a 48.28,48.28 0 0 0 23.65,6.49 c 14.14,0 24.33,-6.83 24.33,-18.27 v -14.35 c -6,7.79 -14.73,13.65 -27,13.65 -20,0 -38.11,-14.76 -38.11,-40.33 0,-25.89 18.42,-40.5 37.15,-40.5 11.75,0 21.75,5.88 28.38,13.79 l 1.11,-9 c 0.32,-1.9 1.11,-3 3,-3 h 15.71 a 2.76,2.76 0 0 1 3,2.47 2.81,2.81 0 0 1 0.02,0.51 z m -23.52,36.21 c 0,-14.94 -9.84,-23 -21.58,-23 -11.74,0 -20.78,7.59 -20.78,22.36 0,14.93 9.2,22.55 21.08,22.55 11.36,0 21.36,-6.83 21.36,-21.91 z M 409.8,87.41 v 76.86 a 2.77,2.77 0 0 1 -2.48,3 4.86,4.86 0 0 1 -0.54,0 h -15.41 c -1.9,0 -2.54,-1.12 -3,-3 l -1.28,-10.17 c -6.48,8.58 -15.71,15.09 -28.25,15.09 -20.31,0 -38.73,-15.88 -38.73,-43.38 0,-27.5 18.55,-43.51 38.24,-43.51 11.91,0 21.9,6 28.89,14.14 l 1.12,-9.06 c 0.31,-1.9 1.11,-3 3,-3 h 15.41 a 2.75,2.75 0 0 1 3,2.47 2.72,2.72 0 0 1 0.03,0.56 z m -22.23,38.94 c 0,-16.23 -10.63,-25.09 -23,-25.09 -12.06,0 -22.38,8.41 -22.38,24.61 0,16.2 10.32,24.62 22.7,24.62 11.74,0 22.7,-7.65 22.7,-24.18 z m 103.02,-38.63 -10.48,17.47 a 2.79,2.79 0 0 1 -2.37,1.44 c -1.44,0 -2.07,-0.65 -5.24,-0.65 -11.43,0 -16.67,7 -18.26,20.65 v 37.64 a 2.77,2.77 0 0 1 -2.47,3 5,5 0 0 1 -0.55,0 h -17 a 2.76,2.76 0 0 1 -3,-2.48 2.44,2.44 0 0 1 0,-0.54 l -0.17,-76.86 a 2.76,2.76 0 0 1 2.47,-3 2.53,2.53 0 0 1 0.55,0 h 16.23 c 1.9,0 2.54,1.11 3,3 l 1.11,9.37 a 28.82,28.82 0 0 1 24.13,-14.14 59.17,59.17 0 0 1 10.45,1 c 1.92,0.61 2.87,2.04 1.6,4.1 z M 582.5,55 v 109.27 a 2.76,2.76 0 0 1 -2.47,3 4.86,4.86 0 0 1 -0.54,0 h -15.24 c -1.9,0 -2.7,-1.12 -3,-3 l -1.43,-10.65 c -6.35,8.74 -15.72,15.57 -28.58,15.57 -20.32,0 -38.73,-15.88 -38.73,-43.36 0,-27.48 18.73,-43.51 37.94,-43.51 11.59,0 21.59,5.88 28.74,13.79 V 55 a 2.75,2.75 0 0 1 2.47,-3 2.44,2.44 0 0 1 0.54,0 h 17.3 a 2.76,2.76 0 0 1 3,2.47 2.53,2.53 0 0 1 0,0.53 z M 560,126.31 c 0,-16.22 -10.63,-25.09 -23,-25.09 -12.07,0 -22.39,8.41 -22.39,24.61 0,16.2 10.32,24.62 22.71,24.62 11.68,0 22.68,-7.61 22.68,-24.14 z m 120.94,-0.79 c 0,1.17 -0.05,2.33 -0.16,3.49 a 3.05,3.05 0 0 1 -3.23,2.87 H 620 c 2.06,12.86 10.32,19.69 24.45,19.85 7.84,0.1 11.08,-1.53 16.76,-6.39 1.62,-1.63 3.24,-1.63 4.86,-1.63 l 11.26,-0.06 a 2.61,2.61 0 0 1 2.53,2.5 c 0,1.62 -0.37,3.68 -3.25,7.3 -9.39,11.26 -20.76,15.55 -34.08,15.55 -26,0 -44,-17.63 -44,-42.87 0,-23.83 15.88,-43.81 41.6,-43.81 23.78,0 40.81,17.31 40.81,43.2 z m -61.28,-7.78 h 41.43 c -1.62,-12.07 -9.21,-18.26 -20.15,-18.26 -11.28,0 -19.54,6.35 -21.29,18.26 z M 780,122 v 42.25 a 2.77,2.77 0 0 1 -2.47,3 5,5 0 0 1 -0.55,0 h -17.3 a 2.76,2.76 0 0 1 -3,-2.48 2.44,2.44 0 0 1 0,-0.54 V 122 c 0,-11.74 -6,-18.74 -16.67,-18.74 -10.67,0 -19.21,6.83 -19.84,23.67 v 37.31 a 2.76,2.76 0 0 1 -2.48,3 2.44,2.44 0 0 1 -0.54,0 h -17.34 a 2.76,2.76 0 0 1 -3,-2.47 2.53,2.53 0 0 1 0,-0.55 V 87.41 a 2.75,2.75 0 0 1 2.47,-3 2.44,2.44 0 0 1 0.54,0 H 716 c 1.91,0 2.54,1.11 3,3 l 1,7.94 c 6.66,-7.63 15.86,-12.87 27.61,-12.87 19.2,0 32.39,13.82 32.39,39.52 z" id="path24" style="stroke-width:1.00002"></path>
  </g>
</svg>
