<?xml version="1.0" encoding="UTF-8" standalone="no"?>
<svg xmlns:inkscape="http://www.inkscape.org/namespaces/inkscape" xmlns:sodipodi="http://sodipodi.sourceforge.net/DTD/sodipodi-0.dtd" xmlns="http://www.w3.org/2000/svg" xmlns:svg="http://www.w3.org/2000/svg" aria-label="Speakeasy Logo" width="1731.167" height="378.05923" viewBox="0 -10 1731.167 378.05923" fill="none" class="z-10" version="1.1" id="svg1036" sodipodi:docname="VMwareTanzu_logo.svg" inkscape:version="1.2.2 (b0a84865, 2022-12-01)">
  <defs id="defs1040"></defs>
  <g data-name="Layer 2" id="g879" transform="matrix(3.7795276,0,0,3.7795276,0.29197846,-10.233937)">
    <g data-name="Layer 1" id="g877">
      <path d="m 166.23,33.097 -13.126,30.472 h -4.913 L 135.066,33.097 h 5.055 l 10.642,24.831 10.642,-24.742 z m 5.64,0 h 4.47 l 10.641,19.918 10.642,-19.918 h 4.576 v 30.472 h -4.487 V 41.877 L 187.07,61.795 176.428,41.877 v 21.692 h -4.559 z m 35.65,7.538 h 4.47 l 5.321,17.08 5.676,-17.08 h 3.725 l 5.675,17.08 5.321,-17.08 h 4.488 l -8.07,22.934 h -4.027 l -5.445,-17.028 -5.551,17.028 h -4.044 z m 54.452,2.093 a 9.649,9.649 0 0 1 2.519,6.935 v 13.888 h -4.292 v -3.086 a 8.319,8.319 0 0 1 -3.335,2.678 10.18,10.18 0 0 1 -4.31,0.958 9.152,9.152 0 0 1 -6.013,-2.022 6.58,6.58 0 0 1 -2.394,-5.321 6.705,6.705 0 0 1 1.224,-3.956 7.964,7.964 0 0 1 3.316,-2.713 11.085,11.085 0 0 1 4.63,-0.958 21.816,21.816 0 0 1 6.935,1.241 v -0.709 a 6.545,6.545 0 0 0 -1.384,-4.24 5.498,5.498 0 0 0 -4.522,-1.773 14.455,14.455 0 0 0 -6.421,1.916 l -1.65,-3.246 a 19.67,19.67 0 0 1 8.691,-2.306 9.33,9.33 0 0 1 7.006,2.714 z m -4.274,16.779 a 5.037,5.037 0 0 0 2.5,-3.122 v -3.068 a 21.71,21.71 0 0 0 -6.26,-0.887 6.616,6.616 0 0 0 -3.991,1.206 3.547,3.547 0 0 0 -1.632,3.015 3.547,3.547 0 0 0 1.437,2.91 6.03,6.03 0 0 0 3.689,1.081 8.23,8.23 0 0 0 4.257,-1.135 z M 278.875,41.45 a 10.004,10.004 0 0 1 5.215,-1.347 v 3.813 a 10.18,10.18 0 0 0 -4.434,0.94 6.97,6.97 0 0 0 -3.015,2.643 7.095,7.095 0 0 0 -1.065,3.867 v 12.203 h -4.398 V 40.635 h 4.398 v 4.487 a 8.248,8.248 0 0 1 3.3,-3.671 z m 24.123,18.252 a 8.035,8.035 0 0 0 2.997,-1.774 l 2.625,2.625 a 10.358,10.358 0 0 1 -4.097,2.572 15.094,15.094 0 0 1 -5.18,0.976 11.83,11.83 0 0 1 -10.233,-5.871 12.7,12.7 0 0 1 0,-12.292 11.387,11.387 0 0 1 9.968,-5.835 10.642,10.642 0 0 1 5.96,1.65 10.234,10.234 0 0 1 3.813,4.646 17.825,17.825 0 0 1 1.312,7.095 h -18.41 a 8.123,8.123 0 0 0 2.43,5.037 6.953,6.953 0 0 0 5.037,1.934 10.11,10.11 0 0 0 3.778,-0.763 z m -8.692,-14.19 a 7.733,7.733 0 0 0 -2.5,4.754 h 14.012 a 7.964,7.964 0 0 0 -2.111,-4.7 6.101,6.101 0 0 0 -4.63,-1.774 7.095,7.095 0 0 0 -4.77,1.72 z m 40.689,-8.265 h -10.022 v -4.15 h 24.442 v 4.15 h -9.986 V 63.57 h -4.47 z m 34.977,5.481 a 9.578,9.578 0 0 1 2.5,6.935 v 13.888 h -4.31 v -3.086 a 8.141,8.141 0 0 1 -3.316,2.678 10.18,10.18 0 0 1 -4.31,0.958 9.152,9.152 0 0 1 -6.03,-2.022 6.58,6.58 0 0 1 -2.395,-5.321 6.705,6.705 0 0 1 1.224,-3.956 7.857,7.857 0 0 1 3.316,-2.713 11.032,11.032 0 0 1 4.63,-0.958 21.621,21.621 0 0 1 6.917,1.241 v -0.709 a 6.545,6.545 0 0 0 -1.366,-4.24 5.498,5.498 0 0 0 -4.523,-1.773 14.597,14.597 0 0 0 -6.438,1.916 l -1.632,-3.246 a 19.67,19.67 0 0 1 8.691,-2.306 9.276,9.276 0 0 1 7.042,2.714 z m -4.257,16.779 a 5.02,5.02 0 0 0 2.483,-3.122 v -3.068 a 21.586,21.586 0 0 0 -6.243,-0.887 6.616,6.616 0 0 0 -3.991,1.206 3.547,3.547 0 0 0 -1.65,3.015 3.44,3.44 0 0 0 1.455,2.91 6.03,6.03 0 0 0 3.689,1.081 8.23,8.23 0 0 0 4.257,-1.135 z m 29.62,-18.287 a 7.61,7.61 0 0 1 3.051,3.122 9.79,9.79 0 0 1 1.082,4.63 v 14.597 h -4.257 V 49.663 a 5.96,5.96 0 0 0 -1.472,-4.186 4.878,4.878 0 0 0 -3.813,-1.632 6.935,6.935 0 0 0 -3.193,0.745 5.835,5.835 0 0 0 -2.306,1.97 4.736,4.736 0 0 0 -0.834,2.695 v 14.19 h -4.398 v -22.81 h 4.398 v 3.37 a 7.467,7.467 0 0 1 3.069,-2.802 8.868,8.868 0 0 1 4.328,-1.1 8.709,8.709 0 0 1 4.345,1.117 z m 8.745,19.085 12.859,-15.697 h -12.54 v -3.973 h 18.393 v 3.281 l -12.86,15.697 h 12.984 v 3.956 h -18.837 z m 43.667,-19.67 v 22.934 h -4.327 v -3.264 a 7.733,7.733 0 0 1 -3.016,2.767 9.117,9.117 0 0 1 -4.31,1.046 8.868,8.868 0 0 1 -4.434,-1.117 7.68,7.68 0 0 1 -3.033,-3.122 9.596,9.596 0 0 1 -1.082,-4.629 V 40.635 h 4.293 V 54.47 a 6.048,6.048 0 0 0 1.472,4.203 4.93,4.93 0 0 0 3.813,1.614 6.953,6.953 0 0 0 3.157,-0.727 5.835,5.835 0 0 0 2.288,-1.986 4.63,4.63 0 0 0 0.852,-2.696 v -14.19 z" id="path861" style="fill:#000000"></path>
      <path class="cls-1" d="M 37.69,50.43 H 20.05 A 2.26,2.26 0 0 1 18.27,49.59 L 7.2,35.71 a 2.24,2.24 0 0 1 -0.41,-2 l 4.28,-17 a 2.72,2.72 0 0 1 1.15,-1.46 L 27.88,7.41 a 2.22,2.22 0 0 1 2,0 l 15.87,7.83 A 2.41,2.41 0 0 1 47,16.81 l 4.07,17 a 2.29,2.29 0 0 1 -0.41,2 L 39.47,49.59 a 2.61,2.61 0 0 1 -1.78,0.84 z m -17.54,-2.3 h 17.44 l 11.17,-13.88 -4.07,-17 -15.77,-7.85 -15.66,7.83 -4.18,17 z" style="fill:#005c8a;fill-opacity:1" transform="matrix(1.7736786,0.00222887,-0.00222887,1.7736786,0,0)" id="path863"></path>
      <path class="cls-2" style="fill:#0098c7;fill-opacity:1" d="M 51.05,10.34 30.07,0 v 2.61 l 19,9.4 z" transform="matrix(1.7736786,0.00222887,-0.00222887,1.7736786,0,0)" id="path865"></path>
      <path class="cls-3" style="fill:#61a60e;fill-opacity:1" d="M 0.52,36.96 15.14,55.34 16.29,53.04 3.03,36.44 Z" transform="matrix(1.7736786,0.00222887,-0.00222887,1.7736786,0,0)" id="path867"></path>
      <path class="cls-2" style="fill:#0098c7;fill-opacity:1" d="M 27.77,0 7,10.34 8.98,12.01 27.77,2.61 Z" transform="matrix(1.7736786,0.00222887,-0.00222887,1.7736786,0,0)" id="path869"></path>
      <path class="cls-4" style="fill:#6c4b94;fill-opacity:1" d="M 5.53,12.21 0,34.66 2.61,34.14 7.62,13.99 Z m 52.31,22.45 -5.32,-22.45 -1.99,1.68 4.7,20.25 z" transform="matrix(1.7736786,0.00222887,-0.00222887,1.7736786,0,0)" id="path871"></path>
      <path class="cls-3" style="fill:#61a60e;fill-opacity:1" d="m 41.34,53.04 1.15,2.3 14.83,-18.38 -2.61,-0.52 z" transform="matrix(1.7736786,0.00222887,-0.00222887,1.7736786,0,0)" id="path873"></path>
      <path class="cls-2" style="fill:#0098c7;fill-opacity:1" d="m 17.23,56.38 h 23.18 l -1.15,-2.4 H 18.38 Z" transform="matrix(1.7736786,0.00222887,-0.00222887,1.7736786,0,0)" id="path875"></path>
    </g>
  </g>
  <text xml:space="preserve" style="font-size:32.0536px;fill:#222117;stroke-width:0.80134" x="1702.1809" y="157.07198" id="text883">
    <tspan x="1702.1809" y="157.07198" style="font-style:normal;font-variant:normal;font-weight:700;font-stretch:normal;font-family:sans-serif;-inkscape-font-specification:'sans-serif Bold';stroke-width:0.80134" id="tspan881">®</tspan>
  </text>
</svg>
